<svg xmlns="http://www.w3.org/2000/svg" xmlns:xlink="http://www.w3.org/1999/xlink" width="95" height="95" viewBox="0 0 95 95">
    <defs>
        <path id="a" d="M.479.421h67.365v68.317H.48z"/>
        <path id="c" d="M0 .699H94.58v17.793H0z"/>
    </defs>
    <g fill="none" fill-rule="evenodd">
        <g transform="translate(6.972 .45)">
            <mask id="b" fill="#fff">
                <use xlink:href="#a"/>
            </mask>
            <path fill="#FFF" d="M39.75.723C37.155.119 34.214.638 31.62.464c-2.014.349-4.472-.308-6.258.583.123.087.24.182.346.288.227.23.414.506.543.815a2.494 2.494 0 0 1 .123 1.537l-.002.002c-.045.19-.114.376-.202.549l-.006.015-.08.143-.014.022-.01.015 4.8 28.625.225-.011c.177-.007.36-.013.54-.015h.031c.805-.003 1.524.08 2.117.248.606.173 1.095.443 1.429.809l.034.033.038.037v-.015l.514.264.013.007.008.003.017.01c.27.138.534.344.776.6.164.175.324.374.473.598l.012-.007.176.307c.169.292.327.62.463.974a8.13 8.13 0 0 1 .518 2.16c.038.368.048.725.034 1.051-.018.381-.076.743-.165 1.067v.003a3.153 3.153 0 0 1-.387.88c-.05.077-.11.15-.173.213l-.005.006-.126.109-.055.076a5.799 5.799 0 0 1-.207.255c.194.09.375.204.54.335l.003.003c.247.2.453.443.63.717h.002c.072.114.142.234.206.36l.019-.02.214.525c.306.748.92 2.007 1.549 3.298l.02.038.037.078h.001c.878 1.805 1.784 3.663 2.093 4.69.206.552.417 1.117.606 1.66.201.57.393 1.151.557 1.734.174.614.325 1.239.434 1.873.11.637.185 1.288.205 1.951l.01.277a6.912 6.912 0 0 1 .037 1.468l-.003.02c.953-.08 1.906-.12 2.866-.037 2.336.605 4.671.087 6.919-.086 4.323-1.299 9.166-2.854 11.501-7.35l1.471-3.546c.258-1.298 1.124-2.507.604-3.805.173-3.633-.087-7.178-1.815-10.031-1.817-2.94-4.844-4.67-7.696-6.313-.347-.259-.953-.52-.78-1.038.606-.952 1.644-1.73 2.682-2.075 1.21-.692 2.422-1.644 3.285-2.769 2.163-2.94 2.249-6.831 2.076-10.548.173-4.499-2.508-7.784-6.053-10.292-1.817-.952-3.546-2.16-5.535-2.421C49.348.206 44.42.55 39.75.723zM19.01 39.645c.35 1.75.75 6.098 2.12 7.091-.697.758-1.24 3.421-1.521 4.628-2.279-3.5-8.906-4.623-12.734-3.185 0-2.058-.234-3.728-.763-5.717-.214 2.555-.173 4.297-.477 6.286-.965.537-1.779 1.246-2.232 2.124-.928-1.113-1.164-2.56-1.042-4.02-.56 1.815-.63 3.728.47 5.416-3.177-.74-2.643-5.076-1.268-7.432 1.438-2.099 2.886-3.79 4.55-5.682.667-.758 1.225-1.933 2.549-1.809l5.334 1.185-1.181 5.324a1.632 1.632 0 0 0 .736 1.739 1.54 1.54 0 0 0 1.11.218 1.633 1.633 0 0 0 1.329-1.252l1.182-5.323 1.839.41zm.125-12.36l2.798-12.373-1.644 12.666c.388.108.764.22 1.123.337l2.443-18.817 2.579 24.967c.377-.095.757-.183 1.136-.264L26.2 20.526l2.197 13.114c.389-.07.77-.132 1.146-.183L24.61 4.03a1.142 1.142 0 1 0-1.396-.033l-5.21 23.042a32.472 32.472 0 0 1 1.131.246zm.64 34.018a7.598 7.598 0 0 1-.635-1.412 8.13 8.13 0 0 1-.368-3.588c.124-.964.3-2.216.53-3.452a5.717 5.717 0 0 0-1.173-1.37c-2.193-1.853-3.953-2.59-6.764-2.813-1.34.119-3.034.042-3.944 1.027a7.042 7.042 0 0 0-1.595.848c-2.376 1.705-3.161 4.672-1.616 7.192-.74-.66-1.262-1.47-1.388-2.476-.356 2.33 2.103 7.031 4.756 7.057.553.658 1.382.586 2.091.683.461.704 1.261.293 1.904.442 3.231-.281 4.32.937 8.203-2.138zm10.292-16.606c-1.057.123-5.294 1.097-7.554 1.125-.833.011-.722-.458-1.052-.642 2.147-.118 4.614-1.023 6.89-1.433.487-.088 1.613-.343 2.077-.419 1.74-.383 4.435-.85 5.844-1.683-1.19 1.596-3.982 2.565-6.205 3.052zm-13.653-5.68c-.451.128-.304.679-.497 1.006-.537 1.351-1.243 2.846-2.095 4.044-.128.26-.153.506-.164.793.13.258.39.386.624.438.061.001.123 0 .186-.008l.013-.04c.846-1.71 1.448-3.77 1.862-5.612.073-.185.067-.405.071-.62zm26.224 24.7c-.58 1.58-1.639 2.372-2.907 2.831-.33.326-.862.175-1.19.43-.621.224-1.069 1.004-1.837.664h-.002c-.615.288-1.237.762-1.999.597l-.238.058-.072.018c-.563.303-1.175.401-1.824.323-3.101.373-6.83-.144-7.612-4.175l-.186-.965.104.242c.767 2.11 2.28 2.932 3.97 3.14-4.51-1.628-4-9.805-4.328-13.758-.64 2.165-.955 5.369-.708 7.947-1.244-.718-2.245-2.373-2.844-3.982.211 2.186 1.078 4.205 3.176 5.364-2.626.894-4.724-2.78-4.307-5.997.243-1.867.75-4.64 1.331-6.753.26-.944.247-2.203 1.453-2.655l13.088-3.125c.995-.236 1.445.35 1.807 1.235.83 2.029 3.213 6.457 3.667 8.015.811 2.167 1.66 4.45 1.735 6.833.006.113.01.227.01.34.118.877.04 1.664-.189 2.373.019.397-.019.744-.098 1zm-8.336-28.603c-.027-.026-.053-.053-.083-.078-.72-.894-3.807-.828-7.404.03-3.596.86-6.453 2.211-6.691 3.334a1.863 1.863 0 0 0-.035.096c4.519-2.056 9.263-3.14 14.213-3.382zm2.286 6.197l-15.42 3.68a.153.153 0 0 1-.006-.032l-1.124-5.631a1.684 1.684 0 0 1-.025-.17c4.831-2.141 9.9-3.29 15.186-3.52.6.31 1.22 1.342 1.533 2.653.305 1.28.228 2.458-.144 3.02zM15.29 29.399l-1.472 6.623L9.03 34.96c-.706.307-.955-.92-.97-1.395-.001-.857.198-1.752.37-2.627.15-.58.24-1.266.678-1.6.93-1.016 4.884-.155 6.181.062zm9.606 2.15c-4.703-2.012-9.598-3.147-14.718-3.281.023-.025.048-.05.074-.073.728-.936 3.99-.9 7.716-.072 3.725.829 6.622 2.16 6.887 3.316l.041.11zM9.672 36.791l9.267 2.057.009-.099c.02-.225.07-.45.148-.668.017-.065.04-.13.065-.193L8.247 35.464c.153.629.707 1.167 1.425 1.328zm10.313-.013l-.101-.023c.414-1.869.785-3.537 1.2-5.404.165.029.528.128.692.206l-1.032 4.644c.286-.186.602-.366.947-.536 2.793-1.392 2.69-.125 3.266-3.271.119-.686-6.665-2.368-8.604-2.794.052.283.08.537.023.828-.533 1.514-.85 3.31-1.042 4.906-.448 1.707 2.998 1.69 4.173 1.952.134-.174.292-.343.478-.508zM48.829 9.113c1.47 1.555 1.212 3.804 1.296 5.793-.084 2.94-.084 5.968-.863 8.648-.433 1.297-1.729 1.73-2.508 2.68-.865.26-1.816.952-2.594.606-1.47-.95-.174-2.335-.26-3.546.347-4.324.433-9.253-.26-13.577 0-.864.26-1.556.607-2.333.69-.52 1.555-.52 2.247-.347.951.432 1.817 1.297 2.335 2.076zm.345 26.201c.607 1.558 1.905 2.768 1.905 4.672.259 3.37.518 6.917-.347 10.29-.345 1.469-.951 2.767-1.73 4.237-1.037.778-2.248 1.989-3.717 1.037-2.249-2.162-1.817-5.881-1.384-8.82-.519-3.113.26-6.4 0-9.512l.085-3.545c1.124-1.039 2.595-.088 3.72.344l1.468 1.297z" mask="url(#b)"/>
        </g>
        <g transform="translate(0 70.175)">
            <mask id="d" fill="#fff">
                <use xlink:href="#c"/>
            </mask>
            <path fill="#FFF" d="M77.939 2.956c-.945.04-1.972.06-2.937 0-.39 0-.844.02-1.254.02-.349 0-.74-.061-1.027.225-.104.144-.123.31-.104.494.063.596.782.575.946 1.047.062.473 0 1.008.062 1.48-.083.678.042 1.397.042 2.075-.104.576 0 1.13-.042 1.685-.083.801.123 1.583-.062 2.363.02.39.123.76.02 1.151.103.37.103.76-.061 1.089-.185.246-.534.246-.74.472-.165.205-.144.534-.061.801.226.432.82.247 1.211.247.494-.061 1.07-.061 1.52.062.597.102 1.13-.186 1.666-.042a.763.763 0 0 0 .739-.225c.144-.207.123-.576 0-.782-.205-.41-.802-.41-.863-.924.042-.944-.144-1.952.042-2.876-.022-.206-.062-.411-.042-.596.02-.061.083-.144.144-.123.39.369.431.842.616 1.273.247.556.473 1.11.637 1.706.144.288.37.534.412.863 0 .41.43.658.472 1.068.062.472.554.535.925.658.164.082.39 0 .534 0 .658-.123 1.397.308 1.93-.144.248-.288.33-.74.165-1.068-.41-.37-.658-.782-.924-1.213-.246-.575-.513-1.171-.7-1.767-.327-.35-.245-.883-.554-1.232-.123-.37-.348-.679-.431-1.008a.339.339 0 0 1 .144-.225c.35-.226.719-.494 1.028-.822.348-.329.41-.74.595-1.11a3.527 3.527 0 0 0-.247-2.671c-.287-.78-1.13-1.17-1.746-1.581-.617-.268-1.377-.268-2.055-.37zm5.696 5.842a.552.552 0 1 1 0 1.104.552.552 0 0 1 0-1.104zm-12.214 0a.552.552 0 1 1-.004 1.105.552.552 0 0 1 .004-1.105zm-37.897-5.41c-.449-.174-.897-.311-1.386-.35h-.019c-.507-.02-.957.117-1.425.137-.917.253-1.718.78-2.4 1.6-.098.156-.118.37-.294.527-.39.507-.41 1.152-.644 1.738-.096.644-.313 1.23-.37 1.892-.04.41.057.8-.02 1.21.02.332.157.645.137 1.016.136.488.097 1.054.43 1.503.018.429.292.761.428 1.152.469.546.782 1.228 1.407 1.639.644.37 1.326.625 2.106.703.568-.039 1.114-.117 1.64-.196.235-.039.392-.195.566-.293.587-.175.938-.78 1.367-1.112.43-.528.8-1.093.937-1.718.234-.8.332-1.64.468-2.458.06-.41 0-.802 0-1.21-.155-.783-.018-1.66-.35-2.363-.059-.45-.255-.819-.391-1.25a6.84 6.84 0 0 0-2.187-2.166zm-13.34-.432c-.945.04-1.972.06-2.939 0-.39 0-.842.02-1.252.02-.35 0-.74-.061-1.028.225-.103.144-.123.31-.103.494.061.596.781.575.945 1.047.062.473 0 1.008.062 1.48-.083.678.041 1.397.041 2.075-.103.576 0 1.13-.04 1.685-.084.801.123 1.583-.063 2.363.021.39.124.76.021 1.151.103.37.103.76-.062 1.089-.185.246-.534.246-.739.472-.165.205-.145.534-.062.801.226.432.821.247 1.213.247.492-.061 1.067-.061 1.52.062.596.102 1.13-.186 1.663-.042a.766.766 0 0 0 .741-.225c.144-.207.122-.576 0-.782-.206-.41-.802-.41-.863-.924.04-.944-.144-1.952.04-2.876-.02-.206-.06-.411-.04-.596.02-.061.082-.144.142-.123.392.369.434.842.618 1.273.247.556.472 1.11.637 1.706.143.288.37.534.411.863 0 .41.431.658.472 1.068.062.472.555.535.925.658.164.082.39 0 .534 0 .658-.123 1.398.308 1.932-.144.246-.288.328-.74.165-1.068-.412-.37-.659-.782-.925-1.213-.247-.575-.514-1.171-.7-1.767-.329-.35-.246-.883-.554-1.232-.123-.37-.349-.679-.43-1.008a.335.335 0 0 1 .142-.225c.35-.226.72-.494 1.028-.822.35-.329.41-.74.596-1.11a3.527 3.527 0 0 0-.247-2.671c-.288-.78-1.13-1.17-1.746-1.581-.617-.268-1.377-.268-2.055-.37zM4.43 1.135c-.72-.167-1.535-.023-2.254-.072-.695.12-1.582-.191-2.061.432a.796.796 0 0 0-.049.528c.049.719.96.599 1.127 1.245-.024.504.215.912.097 1.415.167.576-.12 1.198 0 1.822.047.815-.169 1.7-.026 2.493-.071.527.05 1.08 0 1.605-.071 1.008.36 1.942.026 2.854-.026.67 0 1.366-.073 1.965.191.648-.503.84-.839 1.199-.383.216-.43.695-.336 1.127.265.55 1.007.263 1.51.286.816.025 1.632.145 2.422.073.864.12 1.679-.144 2.516-.073.649.169 1.295.025 1.92-.023 1.198-.36 2.54-.792 3.187-2.037l.408-.983c.072-.36.31-.696.167-1.055.048-1.007-.024-1.99-.504-2.78-.503-.816-1.341-1.295-2.132-1.75-.096-.072-.265-.145-.216-.289.168-.263.455-.478.743-.575.335-.191.67-.455.91-.767.6-.815.624-1.894.576-2.924.048-1.247-.696-2.158-1.679-2.853-.503-.264-.982-.6-1.533-.67C7.09.99 5.724 1.086 4.43 1.134zM6.947 3.46c.407.432.335 1.055.359 1.607-.024.814-.024 1.654-.24 2.397-.12.36-.479.48-.694.742-.24.072-.504.265-.72.169-.407-.264-.048-.647-.072-.983.096-1.199.12-2.566-.072-3.764 0-.24.072-.431.168-.647.192-.144.432-.144.623-.095.264.12.504.359.648.574zm6.382 5.338a.552.552 0 1 1 0 1.104.552.552 0 0 1 0-1.104zm12.05 0a.552.552 0 1 1 0 1.104.552.552 0 0 1 0-1.104zM7.043 10.724c.169.431.528.767.528 1.294.072.934.144 1.918-.097 2.854-.095.407-.262.766-.478 1.174-.289.216-.623.55-1.031.287-.624-.6-.503-1.63-.384-2.445-.144-.862.073-1.774 0-2.636l.024-.983c.311-.288.719-.025 1.03.096l.408.359zm13.492-5.817c.287.472.287 1.13.328 1.747-.083.8-.02 1.87-.966 2.137-.185.04-.41.184-.575.04l-.062-.122c.02-.76-.184-1.5-.02-2.24-.062-.637.04-1.213.02-1.809.02-.123.041-.246.144-.307.432-.062.843.184 1.13.554zm18.108 3.891a.552.552 0 1 1 0 1.105.552.552 0 0 1 0-1.105zm21.957 0a.553.553 0 1 1 0 1.106.553.553 0 0 1 0-1.106zm31.668-7.417l-.55-.288A11.357 11.357 0 0 0 89.726.71c-.79-.071-1.486.193-2.133.432-.383.311-.863.48-1.246.91-.456.528-.863 1.103-1.055 1.774-.048.912-.263 1.846-.024 2.733.575 1.63 1.726 3.116 3.14 4.315.527.336.648.935 1.103 1.318.24.528.96.767 1.03 1.367.193.431.48.863.576 1.366.048.648-.049 1.27-.624 1.678-.503.12-1.294.216-1.725-.24-.48-.263-.528-.839-.816-1.247-.359-.455-.503-.983-.646-1.534-.096-.31-.216-.767-.624-.79-.287.024-.575.048-.814-.072a.488.488 0 0 0-.384.215c-.36.695-.12 1.487-.24 2.23.144.767-.264 1.87.455 2.397.576.192 1.271.288 1.822.599.575 0 1.078.264 1.678.287 1.294.192 2.446-.287 3.5-.815.456-.598 1.174-1.054 1.486-1.772.288-.576.24-1.369.384-2.015.072-1.03-.24-1.99-.67-2.851-.145-.721-.72-1.248-1.2-1.751-.91-.816-1.678-1.75-2.516-2.637-.624-1.08-1.631-2.014-1.631-3.285.12-.286.383-.694.743-.719 1.007-.095 1.582 1.008 1.99 1.703.527.647.407 1.51.91 2.133.24.288.624.336.96.336.335-.048.6-.336.718-.647.144-.84.169-1.679.169-2.565.023-.48.096-1.031-.288-1.343-.504-.311-.911-.743-1.487-.84zM32.49 4.97c.391.799.507 1.737.507 2.731.06.313-.038.645 0 .937 0 .488.177.995 0 1.445.02.526.098 1.112-.058 1.62a5.186 5.186 0 0 1-.35 2.4c-.158.293-.43.528-.743.586-.293.06-.566-.097-.722-.331-.469-.683-.488-1.523-.567-2.381.118-.625-.214-1.093-.098-1.718.02-1.171.138-2.362.08-3.514.195-.683.097-1.483.643-1.99a.84.84 0 0 1 .723-.255c.254.06.468.254.585.47zM44.03 3.59c-.777.017-1.573-.056-2.35 0-.5.055-1.017.017-1.516.055-.425.074-1.017-.222-1.294.24-.148.444-.037.998-.056 1.461 0 .444-.038.962.407 1.165.278.093.61.056.814-.203.259-.427.277-1.073.887-1.202.056.018.147.074.167.148v.905c.037.814-.075 1.572-.02 2.386-.017.222.057.481 0 .722.094.554 0 1.146 0 1.72-.11.628.131 1.238 0 1.866-.055.279.02.612 0 .906 0 .37-.387.575-.665.685-.204.203-.222.48-.184.759a.6.6 0 0 0 .499.407c.85.036 1.757-.02 2.607-.02.443-.037.962.075 1.35-.054a.777.777 0 0 0 .351-.778c-.074-.388-.5-.37-.701-.61-.334-.481-.057-1.164-.297-1.664.203-.685-.056-1.424.13-2.071-.112-.426.017-.832.017-1.313-.129-.407.056-.814.019-1.276-.037-.795 0-1.553-.019-2.367 0-.13 0-.277.112-.351.443-.148.5.444.757.702.093.259.223.611.536.685.241.054.5 0 .667-.13.351-.482.018-1.09.167-1.646-.112-.258.092-.574-.075-.795-.148-.388-.573-.277-.87-.332-.461.11-.997.055-1.44 0zm14.503.041c-1.072.074-2.108-.017-3.2-.017-.184.073-.424-.038-.59.091-.242.148-.259.464-.242.74 0 .222.205.37.39.499.442.278.37.889.313 1.332-.036.74.056 1.443.038 2.18.018.168-.148.26-.297.297l-1.146.074c-.166-.018-.37 0-.443-.185-.056-.48.055-.943.018-1.423.221-.759-.333-1.905.5-2.367.258-.185.332-.462.314-.74-.018-.185-.204-.37-.408-.425-.517-.073-1.017.037-1.515-.019-.814.075-1.702-.111-2.497.075-.258.11-.295.37-.295.628.055.481.59.37.812.72.112.483.056.944.074 1.443-.146.407.148.703 0 1.11.093.333-.018.684 0 1.035.056.555-.074 1.147 0 1.702-.074.999 0 2.09-.018 3.069v.352c0 .5-.573.5-.831.794-.111.205 0 .407.018.63.056.222.278.277.463.332.739-.036 1.441.056 2.145-.055.573-.055 1.2.111 1.774-.055a.602.602 0 0 0 .222-.296c.038-.26-.018-.482-.184-.667-.315-.147-.537-.48-.592-.831.055-.777.055-1.553.036-2.311.019-.37-.147-.759.055-1.072.094-.111.223-.111.37-.13.39.073.87 0 1.24.11.24.13.203.425.203.685 0 .147.056.352 0 .499-.129.758 0 1.535.037 2.292-.055.242-.24.464-.48.611-.26.185-.316.463-.279.777 0 .204.168.388.39.443 1.202 0 2.402 0 3.624.019.166 0 .333-.019.424-.148.149-.148.149-.388.131-.61.018-.537-.685-.463-.777-.961-.13-.685-.037-1.406-.019-2.128-.11-.757.019-1.534 0-2.273-.018-.241-.11-.5 0-.722.056-.87-.093-1.738-.018-2.607 0-.204-.056-.444 0-.648.018-.407.444-.555.703-.758.166-.222.24-.536.092-.775-.129-.186-.333-.279-.555-.316zm10.665-.373c-.624 0-1.21.02-1.835-.02-.585.078-1.23-.058-1.815.04-.682-.08-1.366 0-2.049-.02-.37.155-.879-.02-1.191.273a.72.72 0 0 0-.136.664c.097.175.292.312.468.39.39.117.352.547.428.859a5.711 5.711 0 0 0-.037 1.406c-.04 1.229-.06 2.517-.06 3.767-.057.585 0 1.17.06 1.756-.117.566-.04 1.152-.079 1.738-.117.39-.566.428-.8.741-.137.215-.195.585-.059.8.176.352.567.274.879.274.273 0 .585.058.82-.06.37-.058.8-.058 1.151 0 .488-.116.879.078 1.406.06.682-.078 1.347 0 2.03-.06.449.06.995.157 1.425 0 .175-.077.195-.272.253-.429-.039-.507.118-.937.118-1.386-.04-.565.371-1.248-.137-1.678-.313-.234-.8-.234-1.113-.059-.508.215-.371.761-.702 1.075-.195.604-.781 1.209-1.445 1.209-.137-.018-.234-.175-.332-.273-.273-.586-.195-1.327-.273-2.01.215-.664-.136-1.484.195-2.109.235-.254.449.02.663.06.47.194.372.7.606 1.015.195.35.527.408.917.37.176-.04.391-.176.41-.37 0-.352.059-.644-.019-.976.02-.547-.117-1.093.02-1.64-.098-.43-.02-.82-.117-1.25-.118-.272-.392-.272-.625-.272-.567.058-.586.663-.82 1.014-.215.293-.566.43-.918.469-.097-.02-.175-.119-.234-.176l.059-.8c-.137-.84.02-1.776 0-2.655l.078-.117c.253-.157.566 0 .82.078.605.137.838.84 1.17 1.268.254.294.664.254 1.015.254.216 0 .43-.058.528-.272.117-.821.058-1.64.058-2.48l-.058-.195c-.156-.273-.45-.273-.723-.273zm9.09 1.649c.288.472.288 1.13.329 1.747-.082.8-.02 1.87-.965 2.137-.185.04-.411.184-.575.04l-.063-.122c.022-.76-.184-1.5-.02-2.24-.06-.637.042-1.213.02-1.809.022-.123.041-.246.144-.307.432-.062.843.184 1.13.554zM47.256 8.798a.552.552 0 1 1 0 1.104.552.552 0 0 1 0-1.104z" mask="url(#d)"/>
        </g>
        <path fill="#FFF" d="M80.98 93.191c.041.078.128.137.128.232.017.167.034.343-.023.512a.75.75 0 0 1-.115.21c-.07.039-.15.098-.248.051-.149-.108-.12-.292-.09-.438-.035-.154.016-.318 0-.473l.004-.176c.075-.05.173-.004.248.018l.097.064zm-.022-1.302c.098.078.08.19.086.288-.006.146-.006.296-.057.43-.029.064-.115.087-.167.133-.057.013-.12.047-.172.03-.098-.047-.012-.116-.017-.177a2.24 2.24 0 0 0-.018-.673c0-.044.018-.078.04-.117a.231.231 0 0 1 .15-.017.4.4 0 0 1 .155.103zm-.603-.417c-.172-.03-.368-.005-.54-.012-.166.021-.379-.035-.494.077a.106.106 0 0 0-.01.094c.01.13.23.107.268.224-.005.09.052.163.023.254.04.103-.028.214 0 .326.012.146-.04.305-.005.447-.018.094.011.193 0 .288-.018.18.086.348.005.511-.005.12 0 .245-.017.352.046.116-.12.151-.2.215-.092.039-.104.124-.081.202.063.1.241.047.362.052.195.004.39.025.58.012.207.021.402-.026.603-.012.155.03.31.004.46-.005.286-.064.608-.141.763-.365l.098-.176c.017-.065.075-.125.04-.19.012-.18-.005-.356-.12-.497-.12-.147-.322-.233-.511-.314-.024-.013-.064-.026-.053-.052a.35.35 0 0 1 .18-.103.718.718 0 0 0 .217-.137c.144-.146.15-.34.138-.525.011-.224-.167-.386-.403-.51-.12-.048-.234-.108-.367-.121-.298-.06-.626-.043-.936-.035zm-5.433.035c-.11-.12-.316-.04-.49-.047-.085-.008-.177-.008-.274-.008-.092.015-.202 0-.259.072a.14.14 0 0 0 0 .133c.04.112.207.068.282.151.064.112.023.257 0 .383.023.18-.017.365 0 .54.017.22.011.435.017.645-.034.099 0 .201 0 .3-.034.138-.017.294-.12.412-.07.113-.235.096-.357.138-.104-.017-.207-.017-.28-.068-.087-.07-.179-.138-.162-.24-.006-.095-.017-.19-.006-.284.04-.069-.005-.155.006-.224.022-.219.04-.438-.023-.644-.012-.057.023-.1 0-.146-.012-.249.023-.495.023-.744.034-.124.23-.103.293-.21.04-.056.006-.117-.023-.16-.057-.107-.236-.046-.356-.064-.098.014-.195 0-.288.014-.149.016-.293-.03-.436-.01-.178.026-.39-.047-.505.074-.041.047-.006.111.017.16.029.045.098.05.16.064.11.047.104.15.156.218 0 .07-.017.128-.017.197.022.1.022.22 0 .32.022.085-.011.171.017.26-.057.186.04.396-.028.58a.664.664 0 0 1-.007.217c.029.102-.057.214 0 .321-.022.202.11.352.247.507.115.078.253.099.38.15.08.013.15.052.24.039.115.026.23.013.339 0 .166-.008.34-.018.5-.05.11-.04.23-.044.31-.118.172-.086.218-.21.276-.335.011-.146.063-.284.034-.433.018-.081-.023-.163.018-.241-.006-.206.006-.425 0-.636.01-.163.01-.324 0-.49.017-.141-.08-.3.04-.42.063-.092.207-.057.276-.147.04-.052.034-.12 0-.176zm-9.132-.055c-.087-.006-.185.004-.264.004-.15 0-.328-.044-.466.016-.064.044-.052.112-.04.172.017.134.247.094.275.223.03.13.023.289.017.421.017.1-.01.195 0 .293.012.159-.017.335.017.49-.027.11.019.227.013.339a.427.427 0 0 0-.018.228c-.006.146.018.288.018.434-.03.086-.133.167-.253.19a.112.112 0 0 0-.069.132c.011.044.058.082.109.094.173.026.356.026.534.04.081 0 .16-.031.24-.014.19-.017.357.013.546 0h.84l.086-.012c.051 0 .085-.043.109-.077l.069-.421c-.012-.116.085-.246-.024-.34-.097-.06-.234-.014-.35-.014-.126.027-.144.134-.19.207-.097.113-.19.24-.35.309-.052.018-.126.056-.201.026-.069-.03-.074-.086-.092-.133-.022-.163.007-.313 0-.473.018-.223-.028-.443-.017-.657a.542.542 0 0 0 0-.305c.058-.202-.011-.417 0-.623.024-.07-.005-.159.081-.215.063-.026.137-.042.19-.077.05-.056.074-.13.04-.19-.023-.029-.07-.047-.103-.055-.243-.044-.512.008-.747-.012zm-5.635.012c-.224-.044-.442-.095-.7-.077-.225.017-.42.073-.615.124-.19.073-.31.198-.46.315-.241.192-.31.441-.407.682a1.745 1.745 0 0 1-.034.297c-.007.124.016.24.004.369.04.072.012.172.058.236-.018.09.047.16.058.24.046.189.172.358.321.512.173.15.386.257.604.335.12.017.235.038.344.056.132.034.276.008.408.017.149-.03.31-.025.449-.068.153-.052.372-.069.441-.215.01-.224.03-.448.017-.662a.161.161 0 0 0-.125-.098c-.116-.022-.272-.034-.346.055-.063.1-.086.215-.156.314-.005.137-.165.253-.32.313a.385.385 0 0 1-.322-.043c-.138-.055-.144-.167-.213-.257-.023-.16-.109-.301-.109-.464 0-.236.017-.482.028-.718.013-.081.013-.163.024-.24-.035-.121.052-.227.017-.357.08-.125.132-.263.293-.357.075-.048.195-.043.288-.03a.485.485 0 0 1 .298.236c.035.04.035.086.07.13.068.072.05.201.183.24.085.004.166 0 .24.009a.1.1 0 0 0 .059-.035.796.796 0 0 0 .022-.258.21.21 0 0 0 .017-.12c-.057-.09.052-.207-.05-.288a1.091 1.091 0 0 0-.386-.193zm-10.373-.012c-.155-.019-.3-.053-.46-.044-.23.017-.482.009-.672.116-.235.06-.447.201-.597.36-.11.108-.098.25-.207.362 0 .068-.045.125-.085.18-.04.12-.024.25-.07.37.017.12-.023.236-.005.36.028.156.051.314.115.447.022.224.177.405.344.581.236.224.552.318.896.369.097.034.206 0 .31.026.258.004.47-.065.707-.077.12-.077.362-.052.362-.206-.024-.087.017-.177.022-.254-.017-.069-.028-.138 0-.198.035-.098-.046-.18-.005-.279-.023-.125.011-.253.161-.319.097-.03.114-.107.103-.175-.04-.193-.321-.104-.505-.142-.19-.013-.357.022-.523-.018-.155.022-.31-.008-.46.018-.097.038-.103.125-.097.198-.006.09.144.12.223.15.109.06.087.172.109.262v.017c.006.21 0 .43-.022.64a.114.114 0 0 1-.064.04.394.394 0 0 1-.292-.078c-.074-.116-.19-.228-.196-.366-.028-.09-.016-.189-.022-.27a4.837 4.837 0 0 1-.03-.589c.024-.039-.016-.09.006-.128-.005-.104.03-.19.018-.288.028-.194.012-.408.097-.603.04-.094.167-.154.276-.193.063-.021.126 0 .196 0 .171.017.235.164.344.246.08.047.041.128.058.189.068.064.022.176.149.223.103.022.258.026.34-.04.039-.038.033-.098.028-.145.028-.085.022-.18.016-.28-.023-.08 0-.184-.04-.261a1.174 1.174 0 0 0-.528-.201zm-6.439.093a.182.182 0 0 0-.143-.103 2.057 2.057 0 0 0-.328 0c-.218.022-.453-.034-.632.048-.051.043-.045.098-.045.154.056.134.286.116.35.254.086.085.029.223.052.327a.891.891 0 0 0 0 .304c-.006.03-.018.048-.018.082.018.09.086.22-.01.3-.03.005-.04-.004-.059-.017-.114-.154-.218-.313-.35-.46-.034-.085-.167-.15-.206-.253-.058-.097-.167-.192-.219-.292-.127-.116-.19-.25-.31-.365-.08-.082-.23-.072-.35-.072-.115 0-.236-.006-.34.004-.132 0-.258-.014-.372.016-.074.031-.087.091-.074.156-.006.11.171.145.246.227.103.072.063.19.074.292.017.19.017.39 0 .584-.022.108.041.22.006.34.035.072-.017.15.017.227-.034.19-.023.39.006.577-.029.08-.006.175-.074.244-.076.077-.254.077-.271.193-.017.06-.017.126.052.164.236.077.511 0 .765.038.068-.012.143.021.205-.008.099-.03.11-.103.11-.176-.029-.12-.201-.134-.315-.198-.128-.142-.099-.335-.093-.511-.006-.069-.03-.133 0-.207.005-.132.012-.258.012-.394-.007-.091-.012-.176-.022-.267.015-.065 0-.138.039-.201.011-.014.023-.014.029 0 .149.123.218.278.35.41.172.259.403.495.568.753.213.245.403.494.62.743.075.056.196.056.289.03.034-.012.085-.038.085-.069 0-.123.024-.235.018-.36 0-.129.045-.275-.018-.395.024-.176.018-.366.034-.542a5.454 5.454 0 0 1-.01-.597c-.006-.21.016-.416.033-.623.006-.082.127-.111.196-.142.103-.047.109-.132.103-.215zm-7.92-.099h-.631c-.133.014-.277-.013-.403.021-.075.036-.109.096-.091.164.016.06.114.107.188.13a.22.22 0 0 1 .12.193c-.01.417-.004.833 0 1.246-.02.078.03.158-.004.23.034.106 0 .208.017.311 0 .116.029.24-.023.347-.023.096-.16.121-.235.176a.19.19 0 0 0-.035.174c.04.064.126.068.212.08.15-.021.304-.004.472-.004.15.013.305-.012.448-.012.126-.005.253.025.367 0 .08-.035.092-.1.086-.172-.017-.108-.19-.12-.258-.211-.046-.262.006-.533-.018-.807a1.782 1.782 0 0 1-.017-.35c-.051-.175.052-.342.017-.527 0-.194 0-.387.035-.575.01-.095.16-.082.236-.14.051-.046.051-.118.028-.183-.075-.164-.339-.065-.51-.09zm-6.174.006c-.133.015-.27-.019-.397.008-.114.043-.109.137-.085.214.01.086.149.117.177.193-.017.13-.102.242-.172.353-.018.017-.029.047-.058.047-.022-.007-.04-.016-.045-.026-.064-.124-.149-.245-.184-.374 0-.037 0-.073.035-.094.074-.016.149-.064.16-.12.034-.065-.011-.12-.075-.163-.207-.065-.459-.034-.683-.034-.132.043-.275-.01-.424.004-.081.012-.196-.014-.26.039-.045.025-.062.08-.052.129.007.116.184.15.26.24.092.176.177.344.257.52.07.107.121.218.196.321.046.142.23.242.218.396-.086.082-.092.193-.166.275-.075.077-.115.162-.179.245-.165.112-.19.266-.314.383-.076.137-.282.137-.357.266a.219.219 0 0 0-.018.18c.029.048.097.06.162.064.154.014.315.01.477-.004.136-.026.332.035.44-.042.053-.061.024-.142 0-.198-.062-.065-.165-.112-.2-.186-.011-.029 0-.068.023-.089.149-.15.132-.35.305-.494.046-.004.063.047.086.072.069.155.178.301.195.473.046.134-.2.16-.207.275-.017.069 0 .133.069.177.201.05.425.012.643.012.236.021.477-.008.713 0 .063 0 .12-.012.149-.06.023-.082.029-.18-.046-.245a.76.76 0 0 1-.247-.227c-.086-.065-.046-.159-.126-.224-.046-.141-.16-.27-.219-.412-.126-.108-.149-.237-.224-.353-.05-.051-.097-.099-.109-.163-.01-.06-.063-.125-.029-.184.058-.1.15-.185.203-.288.108-.164.177-.344.372-.49.086-.095.276-.082.299-.203.022-.068-.006-.132-.075-.18-.144-.043-.34-.004-.488-.033zm-7.771.437c.045.09.07.195.07.302.015.132-.007.27.056.386.006.043-.012.082-.012.124 0 .134.081.266.023.4-.01.086.035.155.018.24-.046.116-.023.263-.058.374-.005.155-.086.284-.149.417-.028.06-.116.111-.196.116-.137-.017-.275-.082-.321-.185-.074-.086-.063-.198-.097-.3-.035-.125.005-.258-.035-.375l-.005-.313c.005-.094.011-.193-.012-.284.012-.103-.023-.219.012-.321-.035-.07.016-.13.022-.185.052-.201.04-.43.299-.56a.404.404 0 0 1 .236.019c.069.042.097.098.149.145zm-.127-.49l-.269-.008c-.161.021-.322.034-.465.09-.38.12-.672.421-.793.691-.058.088-.03.203-.12.276-.03.043.017.077 0 .129-.036.189-.07.386-.036.589a.58.58 0 0 1 .018.244c.022.112.057.215.103.31.04.06.018.124.087.171.029.108.131.193.218.293.103.064.194.154.315.214.161.052.294.142.483.137.19.044.413.048.62.018.224-.018.397-.111.57-.223.177-.146.343-.297.452-.473.046-.06.035-.142.065-.207.044-.085.044-.18.079-.27a1.15 1.15 0 0 0 .005-.598c.03-.115-.057-.2-.029-.312.006-.099-.09-.169-.102-.263-.075-.133-.11-.28-.27-.391-.098-.125-.259-.262-.454-.292a1.703 1.703 0 0 0-.477-.125zm-7.305 1.792c.04.078.126.137.126.232.017.167.034.343-.023.512a.728.728 0 0 1-.115.21c-.07.039-.15.098-.247.051-.15-.108-.12-.292-.091-.438-.035-.154.016-.318 0-.473l.005-.176c.075-.05.172-.004.247.018l.098.064zm-.024-1.302c.099.078.081.19.086.288-.005.146-.005.296-.057.43-.029.064-.115.087-.166.133-.058.013-.12.047-.173.03-.097-.047-.011-.116-.016-.177.022-.214.028-.459-.019-.673 0-.044.019-.078.041-.117a.228.228 0 0 1 .15-.017.387.387 0 0 1 .154.103zm-.603-.417c-.172-.03-.367-.005-.54-.012-.166.021-.378-.035-.493.077a.109.109 0 0 0-.012.094c.012.13.23.107.27.224-.006.09.052.163.023.254.04.103-.029.214 0 .326.011.146-.04.305-.006.447-.016.094.012.193 0 .288-.016.18.086.348.006.511-.006.12 0 .245-.016.352.045.116-.122.151-.203.215-.091.039-.102.124-.08.202.064.1.242.047.363.052.194.004.39.025.579.012.208.021.402-.026.603-.012.156.03.31.004.46-.005.287-.064.608-.141.764-.365l.097-.176c.017-.065.075-.125.04-.19.012-.18-.005-.356-.12-.497-.121-.147-.321-.233-.511-.314-.023-.013-.064-.026-.051-.052a.352.352 0 0 1 .177-.103.707.707 0 0 0 .218-.137c.144-.146.15-.34.138-.525.012-.224-.167-.386-.401-.51-.121-.048-.236-.108-.368-.121-.299-.06-.626-.043-.937-.035zM73.765 66.112c-.163-.178-.385-.203-.618-.203a.98.98 0 0 0-.5.169c-.134.044-.237.148-.337.246-.074.099-.202.199-.137.327.063.074.128.168.237.138.163-.113.366-.227.589-.162a.324.324 0 0 1 .217.207c.04.188.055.425-.045.599-.04.128-.103.252-.152.38a.466.466 0 0 1-.15.233c-.108.218-.296.396-.415.614-.104.202-.366.34-.326.608a.18.18 0 0 0 .02.154c.06.113.197.069.3.083.11-.03.23-.014.349-.014.162.005.316-.01.478 0 .13-.034.273.019.391-.03.095.01.204.01.262-.074.065-.143.125-.287.183-.43.025-.154.14-.278.12-.44-.015-.05-.07-.07-.115-.075-.098.014-.226-.016-.29.085-.061.138-.18.306-.353.3-.198.006-.39-.014-.59.006l-.028-.01c-.02-.064.064-.104.104-.158.06-.12.188-.223.253-.347.044-.099.158-.154.211-.247a1.42 1.42 0 0 1 .258-.366c.1-.11.13-.258.203-.377.08-.138.08-.3.119-.45.015-.073-.004-.148.015-.207a.829.829 0 0 0-.253-.56m2.21.268c.05.065.03.158.04.237.015.168.059.337.045.52.01.223-.015.46.005.693 0 .163.02.306-.005.464.04.114-.015.223-.03.337.035.138-.015.258-.025.38 0 .065-.064.115-.123.15a.19.19 0 0 1-.124-.02c-.045-.05-.045-.109-.059-.164-.035-.173-.015-.361-.045-.534 0-.406.005-.817-.005-1.217-.005-.143.01-.287.015-.426.02-.168.014-.345.144-.47.02-.02.058-.034.088-.02.035.01.06.04.08.07m.337-.336a1.208 1.208 0 0 0-.338-.12c-.103 0-.207-.028-.31.006-.204.024-.372.167-.515.346-.086.154-.188.317-.242.49-.06.217-.09.445-.1.682-.02.293 0 .565.015.851.024.11.05.218.07.332.078.292.226.593.509.77.098.105.247.11.371.15.163.03.292-.03.425-.074.183-.06.312-.232.417-.386.038-.07.058-.143.117-.213.035-.144.104-.267.115-.42.069-.164.055-.366.055-.55-.01-.256.019-.519-.036-.76.01-.125-.04-.224-.054-.353-.109-.271-.223-.573-.5-.751m2.354-.055c-.01-.03-.05-.044-.08-.06a1.386 1.386 0 0 0-.35 0c-.09.016-.105.11-.134.178-.074.115-.143.243-.272.298-.109.05-.228.074-.331.148-.055.08-.04.202-.01.297.044.064.119.08.192.074.07.005.164-.054.208.025.015.104.04.198.01.297.01.188-.014.386.035.564-.02.119-.05.267.01.386.02.069-.036.123-.03.198-.025.098.04.176 0 .277a.728.728 0 0 1-.055.33c-.064.125-.207.12-.301.214a.22.22 0 0 0-.02.208c.055.098.167.054.257.069a.167.167 0 0 1 .109 0c.167 0 .346.019.494-.015.06.005.12.034.188.015.16 0 .372.074.461-.09.014-.069-.01-.128-.04-.187-.074-.084-.177-.075-.251-.149-.066-.089-.08-.197-.09-.306a.638.638 0 0 0-.005-.287c.015-.069 0-.159.02-.229.02-.148-.01-.296.014-.444.006-.352.021-.708.006-1.063-.01-.125-.046-.248-.006-.377-.03-.128.026-.253-.03-.371m-16.806-.014l-.133.004a2.642 2.642 0 0 0-.654.006c-.113-.01-.237-.031-.306.078-.025.064 0 .134.015.188.074.09.223.12.223.252 0 .208.01.421.01.608 0 .175-.01.352.01.525-.025.213-.02.441-.01.663-.02.144-.01.287-.015.426 0 .103.025.202 0 .297-.035.118-.204.159-.218.281-.02.065.014.115.065.155.064.034.148.019.222.019.045 0 .084.02.139.02.083-.035.192 0 .292-.02.276.03.568 0 .845.03.173-.03.371.004.54-.03.099-.035.07-.144.078-.223.03-.163-.034-.317.015-.46-.01-.088.06-.168.011-.247-.05-.085-.158-.065-.239-.065-.113-.01-.137.11-.202.18-.03.152-.133.275-.262.39-.08.05-.197.118-.292.034-.049-.02-.074-.075-.074-.133-.05-.219-.01-.44-.03-.659.015-.143-.03-.276 0-.41.03-.035.065-.07.104-.054a.292.292 0 0 1 .192.128c.1.075.05.207.15.286.074.055.196.05.277.027.068-.035.074-.106.063-.18.021-.291-.029-.588 0-.885.005-.034.005-.095-.008-.119-.055-.109-.189-.054-.284-.058-.132-.006-.123.137-.157.217-.05.098-.16.202-.282.202-.02-.004-.04-.02-.04-.045-.03-.167.015-.346-.015-.523.05-.143 0-.307.015-.45.004-.036.015-.06.05-.075.208-.035.39.094.504.273.025.059.03.138.09.178.098.079.247.044.35.014.119-.065.04-.208.06-.317-.014-.132.01-.257 0-.39-.025-.05-.04-.128-.108-.128-.115-.016-.224.004-.333.004-.128.03-.242-.025-.37 0-.09-.014-.193-.004-.288-.014m3.25.053l-.115-.06a2.413 2.413 0 0 0-.41-.078c-.164-.014-.307.04-.44.09-.08.064-.178.099-.257.187a.977.977 0 0 0-.217.367c-.01.187-.055.38-.006.563.119.337.356.644.648.89.108.07.134.194.228.273.05.11.198.159.212.282.04.09.099.178.119.281.011.134-.01.263-.128.347-.104.025-.268.045-.357-.05-.098-.054-.109-.172-.167-.257a.79.79 0 0 1-.134-.316c-.02-.065-.044-.159-.13-.164-.058.005-.118.01-.167-.014-.03 0-.064.02-.08.045-.073.142-.023.306-.049.46.029.158-.054.385.094.494.119.04.262.06.376.124.119 0 .223.054.346.059.268.04.506-.06.723-.168.094-.124.242-.218.306-.365.06-.12.05-.284.079-.417a1.123 1.123 0 0 0-.138-.588c-.029-.149-.148-.257-.247-.361-.189-.17-.347-.362-.519-.544-.129-.223-.337-.417-.337-.678.025-.06.078-.144.153-.15.208-.02.327.21.41.352.11.134.085.312.189.441.049.058.128.069.198.069.069-.01.124-.069.148-.134.03-.173.035-.346.035-.53.005-.098.02-.212-.059-.276-.104-.065-.189-.154-.307-.174m3.338.016l-.04-.04c-.128-.08-.312-.025-.464-.035-.089.02-.164-.01-.258.016a3.56 3.56 0 0 0-.654-.006c-.197-.02-.395.01-.583-.004-.07 0-.148-.016-.208.014a.19.19 0 0 0-.079.124c.02.218-.035.425.015.633.045.094.159.094.248.094a.192.192 0 0 0 .152-.119c.006-.144.1-.248.203-.34a.06.06 0 0 1 .07.024v.232c.01.148.04.297.025.45.02.159-.04.337 0 .5-.04.119.014.228.005.357 0 .148 0 .292-.01.439.005.15-.015.302.005.45-.015.075-.01.169-.04.239-.024.083-.114.077-.169.133-.035.024-.035.064-.035.103 0 .05 0 .11.055.134.075-.015.13.03.194.035.083.015.158-.015.232.02.272 0 .57.03.832-.05.069-.03.06-.12.054-.188-.015-.078-.104-.119-.17-.158-.072-.083-.082-.212-.063-.327-.024-.113 0-.232-.03-.347a2.886 2.886 0 0 1 0-.425c.011-.044.006-.098.011-.153-.01-.093-.005-.197-.005-.292-.05-.154.054-.292.024-.46-.04-.143.01-.291-.01-.445.02-.089-.014-.197.04-.267.074-.025.113.07.164.114.074.089.064.212.148.29.074.061.202.051.281.006.035-.015.04-.058.055-.093-.005-.178.005-.342 0-.515 0-.05.026-.094.005-.143m1.176 2.765c-.103-.148-.297-.178-.46-.138-.173.035-.296.207-.327.365-.043.14.015.267.105.366.098.12.242.179.4.154a.503.503 0 0 0 .386-.34c.005-.15.01-.308-.104-.407m11.822-2.864c-.06-.084-.192-.13-.296-.075-.069.065-.159.075-.248.09-.232.009-.475.015-.713.009-.132.02-.148.168-.187.277-.055.104-.055.227-.105.327-.03.173-.133.316-.148.49-.059.109-.054.241-.103.35-.025.08.004.165.063.204.13.069.253.118.372.168.13.03.237.108.342.178.167.093.31.262.36.445.03.144.035.317-.04.44-.028.134-.168.243-.306.263-.114-.025-.233-.04-.336-.1-.099-.03-.209-.103-.307-.039-.108.094-.217.193-.217.336 0 .115.127.203.222.228.133.069.306.04.46.045.119.005.217-.06.326-.09.233-.103.465-.276.614-.51.055-.112.129-.221.174-.335a1.388 1.388 0 0 0 0-.797c-.035-.08-.075-.154-.114-.232a1.998 1.998 0 0 0-.852-.634c-.05-.054-.133-.044-.153-.12.005-.063.02-.126.074-.156l.545-.005c.064.005.123-.01.187-.021.15-.069.194-.236.278-.356.035-.128.153-.232.108-.38"/>
    </g>
</svg>
