<svg xmlns="http://www.w3.org/2000/svg" width="142" height="23" viewBox="0 0 142 23">
    <path fill="#FFF" fill-rule="nonzero" stroke="#FFF" stroke-width="2" d="M2.648 21.737H1V1.263h11.717v1.521H2.648v8.424h9.17v1.52h-9.17v9.009zm19.458 0h-1.648V1.263h1.648v20.474zM36.709 2.784h-7.76v-1.52h17.17v1.52h-7.762v18.953H36.71V2.784zm17.18 18.953h-1.648V1.263h1.679l8.45 11.231 8.12-11.23h1.589v20.473H70.43V3.779L62.37 14.834h-.27L53.89 3.866v17.87zM79.52 11.5c0-2.983 1-5.48 2.997-7.487C84.515 2.004 87.022 1 90.038 1c2.997 0 5.494.994 7.492 2.983 2.017 1.97 3.026 4.475 3.026 7.517 0 2.983-1.009 5.489-3.026 7.517C95.532 21.006 93.035 22 90.038 22c-2.996 0-5.503-.985-7.521-2.954-1.998-1.97-2.997-4.485-2.997-7.546zm1.738 0c0 2.535.84 4.67 2.517 6.405 1.698 1.716 3.786 2.574 6.263 2.574 2.557 0 4.655-.858 6.293-2.574 1.658-1.735 2.487-3.87 2.487-6.405 0-2.593-.849-4.728-2.547-6.405-1.678-1.716-3.756-2.574-6.233-2.574-2.497 0-4.585.858-6.263 2.574-1.678 1.696-2.517 3.831-2.517 6.405zm36.419 5.148c0-.897-.27-1.667-.81-2.311a5.152 5.152 0 0 0-2.007-1.462c-.8-.332-1.668-.697-2.607-1.097-.94-.4-1.808-.795-2.607-1.185-.8-.39-1.468-.97-2.008-1.74s-.809-1.682-.809-2.735c0-1.482.55-2.7 1.648-3.656C109.596 1.487 111.094 1 112.972 1c2.457 0 4.335.692 5.634 2.077l-.9 1.199c-1.198-1.17-2.756-1.755-4.674-1.755-1.378 0-2.467.326-3.266.98-.8.653-1.199 1.525-1.199 2.617 0 .878.27 1.633.81 2.267a4.959 4.959 0 0 0 2.007 1.419c.799.312 1.668.658 2.607 1.038.939.38 1.808.765 2.607 1.155.799.39 1.468.98 2.008 1.77.539.79.809 1.74.809 2.851 0 1.6-.64 2.896-1.918 3.89-1.279.995-2.867 1.492-4.765 1.492a9.858 9.858 0 0 1-3.835-.79c-1.239-.565-2.108-1.287-2.607-2.164l.989-1.111c.599.76 1.398 1.374 2.397 1.842.999.468 2.007.702 3.026.702 1.359 0 2.527-.341 3.506-1.024.98-.663 1.469-1.598 1.469-2.807zM131.59 2.784h-7.761v-1.52H141v1.52h-7.761v18.953h-1.648V2.784z"/>
</svg>
