<svg xmlns="http://www.w3.org/2000/svg" width="70" height="39" viewBox="0 0 70 39">
    <g fill="#FFF" fill-rule="evenodd">
        <path d="M21.912 16.793V.29h6.967v2.357h-4.324v14.145zM16.05 2.648c-.464 0-.805.134-1.02.401-.217.268-.325.7-.325 1.297v1.626c0 .66.14 1.116.42 1.367.28.252.669.378 1.165.378h1.034V2.648H16.05zm-4.3 14.145a3.41 3.41 0 0 0 .24-.932c.032-.306.048-.663.048-1.072v-2.546c0-.864.124-1.6.372-2.204.248-.605.71-1.041 1.382-1.309-1.153-.534-1.73-1.65-1.73-3.347V4.086c0-1.273.308-2.223.925-2.852C13.603.605 14.6.29 15.978.29h3.988v16.502h-2.642v-6.719h-.913c-.61 0-1.05.157-1.322.471-.272.315-.408.857-.408 1.627v2.593c0 .33-.004.605-.012.825-.009.22-.024.401-.048.543-.024.141-.053.259-.085.353a7.46 7.46 0 0 0-.096.307h-2.69zM.674 14.459c.304 0 .557-.016.757-.047a.918.918 0 0 0 .493-.224c.128-.118.22-.291.276-.519.056-.227.092-.53.108-.908L2.741.291h7.471v16.502h-2.69V2.648H5.214l-.288 9.972c-.048 1.509-.373 2.585-.973 3.23-.6.644-1.558.966-2.871.966H.674V14.46zM8.261 28.702v2.192c0 1.336-.332 2.361-.997 3.076-.665.716-1.645 1.073-2.943 1.073-1.297 0-2.278-.357-2.943-1.073-.665-.715-.997-1.74-.997-3.076v-8.581c0-1.335.332-2.361.997-3.076.665-.715 1.646-1.073 2.943-1.073 1.298 0 2.278.358 2.943 1.073s.997 1.74.997 3.076v1.603H5.763v-1.768c0-.597-.125-1.018-.373-1.262-.248-.243-.58-.364-.997-.364-.416 0-.748.121-.997.364-.248.244-.372.665-.372 1.262v8.911c0 .597.124 1.013.372 1.25.249.235.58.353.997.353.417 0 .749-.118.997-.353.248-.237.373-.653.373-1.25v-2.357H8.26zM12.513 34.854H9.871V18.353h8.336v16.501h-2.69V20.71h-3.004zM22.844 34.854h-2.715V18.353h2.354v10.443l.96-3.63 2.164-6.813h2.906v16.501h-2.378V23.232l-1.081 4.055zM33.03 34.854h-2.643V18.353h2.643v7.072h3.003v-7.072h2.69v16.501h-2.69v-7.072H33.03zM43.072 31.059c0 .597.124 1.017.372 1.261s.58.366.997.366c.416 0 .749-.122.998-.366.247-.244.371-.664.371-1.261v-8.911c0-.597-.124-1.017-.371-1.261-.249-.244-.582-.366-.998-.366-.416 0-.749.122-.997.366s-.372.664-.372 1.261v8.911zm-2.643-8.746c0-1.336.344-2.36 1.033-3.076.689-.715 1.682-1.073 2.98-1.073 1.296 0 2.29.358 2.978 1.073.689.715 1.033 1.74 1.033 3.076v8.581c0 1.336-.344 2.361-1.033 3.076-.689.716-1.682 1.073-2.979 1.073-1.297 0-2.29-.357-2.98-1.073-.688-.715-1.032-1.74-1.032-3.076v-8.581zM57.198 14.675c0 .802-.232 1.438-.697 1.91-.464.471-1.169.707-2.114.707-.928 0-1.613-.236-2.053-.707-.442-.472-.678-1.108-.71-1.91h1.634c.032.44.14.731.325.872.184.142.452.213.804.213.369 0 .653-.071.853-.213.2-.141.316-.432.349-.872h1.61zm-4.324 20.18h-2.715V18.352h2.355v10.443l.96-3.63 2.163-6.813h2.907v16.501h-2.379V23.232l-1.081 4.055-2.21 7.567zM.296 38.965h69.685v-2.58H.296zM65.708 32.514c0 1.336-1.104 2.42-2.465 2.42-1.362 0-2.466-1.084-2.466-2.42 0-1.335 1.104-2.419 2.466-2.419 1.36 0 2.465 1.084 2.465 2.42"/>
    </g>
</svg>
