<svg xmlns="http://www.w3.org/2000/svg" width="160" height="42" viewBox="0 0 160 42">
    <g fill="#FFF" fill-rule="evenodd">
        <path d="M30.749 12.003L21.873 33.43a.625.625 0 0 1-1.194-.135 14.646 14.646 0 0 0-4.116-7.936 14.645 14.645 0 0 0-7.936-4.116.625.625 0 0 1-.134-1.194l21.434-8.878a.625.625 0 0 1 .252-.053h.015a.626.626 0 0 1 .555.884zM20.889.144C9.354.144 0 9.497 0 21.034s9.353 20.89 20.89 20.89 20.89-9.353 20.89-20.89S32.427.144 20.89.144zM59.79 21.126h-2.776v-5.2h2.776c1.66 0 2.797 1.092 2.797 2.6 0 1.551-1.137 2.6-2.797 2.6zm.437-7.43h-6.01v14.686h2.797v-5.005h3.213c1.53 0 2.775-.459 3.758-1.355.984-.918 1.465-2.076 1.465-3.496s-.481-2.58-1.465-3.475c-.983-.896-2.229-1.355-3.758-1.355zM71.993 26.458c-1.727 0-2.929-1.42-2.929-3.43 0-2.011 1.202-3.432 2.929-3.432 1.726 0 2.95 1.42 2.95 3.431 0 2.01-1.224 3.431-2.95 3.431zm0-9.047c-1.683 0-3.082.525-4.153 1.574-1.07 1.048-1.617 2.403-1.617 4.042 0 1.64.547 2.994 1.617 4.043 1.071 1.05 2.47 1.574 4.153 1.574 1.704 0 3.103-.525 4.174-1.574 1.07-1.049 1.617-2.404 1.617-4.043 0-1.639-.547-2.994-1.617-4.042-1.071-1.05-2.47-1.574-4.174-1.574zM89.366 17.673h-2.95l-3.212 4.153h-.875v-4.153h-2.687v10.709h2.687v-4.415h.94l3.322 4.415h3.081l-4.217-5.573 3.911-5.136M92.533 22.044c.175-1.508 1.267-2.557 2.688-2.557 1.398 0 2.382 1.005 2.47 2.557h-5.158zm2.688-4.633c-1.617 0-2.929.525-3.956 1.574-1.027 1.048-1.53 2.403-1.53 4.042 0 1.64.547 2.994 1.618 4.043 1.093 1.05 2.491 1.574 4.217 1.574 1.421 0 2.841-.35 4.284-1.071l-.852-1.901c-1.093.59-2.12.896-3.082.896-1.835 0-3.212-1.115-3.387-2.841h7.802c.021-.372.043-.678.043-.896 0-1.596-.48-2.907-1.442-3.912-.94-1.005-2.185-1.508-3.715-1.508zM101.054 19.793h3.234v8.589h2.797v-8.589h3.256v-2.12h-9.287v2.12M117.188 26.415c-.83 0-1.53-.328-2.098-1.006-.568-.677-.852-1.53-.852-2.557 0-1.9 1.224-3.212 2.972-3.212 1.726 0 2.928 1.333 2.928 3.256 0 2.076-1.202 3.519-2.95 3.519zm.7-9.004c-1.509 0-2.689.525-3.563 1.552.372-1.858 1.574-3.016 3.584-3.519l3.475-.83-.503-2.12-3.43.83c-3.956.896-6.01 3.825-6.01 8.436 0 2.098.524 3.78 1.595 5.026 1.07 1.246 2.491 1.858 4.261 1.858 1.617 0 2.95-.547 3.978-1.64 1.027-1.092 1.551-2.512 1.551-4.26 0-1.53-.48-2.798-1.42-3.803-.94-1.027-2.098-1.53-3.519-1.53zM130.963 24.185c0 1.465-.984 2.492-2.47 2.492-1.049 0-1.858-.678-1.858-1.552 0-1.114.984-1.792 2.58-1.792.633 0 1.201.066 1.748.219v.633zm3.365 2.339c-.437 0-.743-.306-.743-.765V21.41c0-1.202-.415-2.163-1.246-2.884-.808-.743-1.901-1.115-3.256-1.115-1.464 0-2.972.306-4.545.896l.699 1.945c1.29-.502 2.448-.765 3.518-.765 1.311 0 2.208.809 2.208 1.88v.568a9.728 9.728 0 0 0-2.077-.219c-3.125 0-4.939 1.311-4.939 3.562 0 .984.35 1.792 1.071 2.426.722.634 1.64.94 2.754.94a4.96 4.96 0 0 0 3.518-1.442c.372.895 1.224 1.442 2.295 1.442.415 0 .896-.044 1.486-.153l-.197-2.033a2.21 2.21 0 0 1-.546.066zM143.886 21.891h-4.676v-4.218h-2.797v10.709h2.797V24.01h4.676v4.37h2.798V17.674h-2.798v4.218M154.986 22.809l3.912-5.136h-2.95l-3.213 4.153h-.874v-4.153h-2.688v10.709h2.688v-4.415h.94l3.322 4.415h3.081l-4.218-5.573"/>
    </g>
</svg>
