<svg xmlns="http://www.w3.org/2000/svg" xmlns:xlink="http://www.w3.org/1999/xlink" width="140" height="48" viewBox="0 0 140 48">
    <defs>
        <path id="a" d="M0 47.772h139.947V0H0z"/>
    </defs>
    <g fill="none" fill-rule="evenodd">
        <path fill="#FFF" d="M17.925 45.753h48.719v-4.67H17.925zM6.21 20.336h4.324V13.48H6.21v6.855zm10.368 17.48h-6.044v-11.92H6.21v11.92H.254V7.923h11.473l4.587 4.48v7.62l-3.398 2.96 3.662 3.134v11.699zM25.359 32.259h4.193V13.481H25.36V32.26zm10.149 1.074l-4.413 4.483h-7.234l-4.68-4.483v-20.93l4.68-4.48h7.013l4.634 4.48v20.93zM54.701 33.333l-4.544 4.483h-7.148l-4.546-4.483v-20.93l4.546-4.48h6.927l4.765 4.48v6.858h-6.045v-5.78H44.42v18.778h4.237V25.04h6.045zM75.616 37.816h-6.752l-5.25-13.266v13.266h-5.959V7.922h5.959v13.67l4.81-13.67h6.485l-5.78 13.939zM90.087 13.794H86.03v24.022h-6.18V13.794h-4.144V7.922h14.381zM101.03 26.656l-1.632-13.175h-.793l-1.37 13.175h3.796zm7.546 11.16h-6.179l-.705-5.513h-5.03l-.663 5.513h-6.177L94.28 7.923h9.485l4.81 29.893zM115.59 22.084h3.838v-8.603h-3.838v8.603zm9.795 1.21l-4.72 4.348h-5.075v10.174h-5.956V7.923h11.031l4.72 4.48v10.891zM127.326 7.922v29.894h12.621v-5.557h-6.665v-7.44h5.648v-5.558h-5.648v-5.78h6.665V7.922zM5.514 45.753h10.112v-4.67H5.514zM0 45.753h4.137v-4.67H0zM73.08 4.67h48.716V0H73.08zM124.095 4.67h10.112V0h-10.112zM76.519 41.757l-.41.394a3.177 3.177 0 0 0-.968-.672 2.58 2.58 0 0 0-1.024-.23c-.415 0-.81.106-1.184.313a2.219 2.219 0 0 0-.87.84 2.175 2.175 0 0 0-.309 1.122c0 .405.106.787.318 1.15.214.363.508.648.884.857.376.21.787.313 1.235.313.544 0 1.003-.156 1.38-.467.374-.311.6-.716.668-1.213h-1.685v-.516h2.277c-.005.828-.247 1.487-.727 1.974-.48.49-1.122.733-1.927.733-.977 0-1.749-.339-2.32-1.016a2.712 2.712 0 0 1-.656-1.804c0-.51.125-.981.376-1.418.253-.44.596-.782 1.034-1.029.44-.244.935-.369 1.487-.369.449 0 .87.08 1.263.246.396.164.78.429 1.158.792M79.6 42.646c-.417 0-.777.158-1.075.471a1.59 1.59 0 0 0-.451 1.141c0 .285.068.553.205.801a1.484 1.484 0 0 0 1.32.779c.28 0 .537-.069.77-.205.234-.136.417-.325.556-.574.136-.248.205-.516.205-.8 0-.448-.152-.824-.453-1.142-.3-.313-.66-.471-1.077-.471m.003-.495c.602 0 1.101.22 1.497.662.358.402.537.882.537 1.434 0 .553-.19 1.038-.567 1.452-.381.413-.87.624-1.467.624-.599 0-1.09-.211-1.47-.624-.378-.414-.57-.9-.57-1.452 0-.55.18-1.027.54-1.432a1.924 1.924 0 0 1 1.5-.664M86.57 42.685l-.325.34c-.269-.267-.53-.397-.788-.397a.577.577 0 0 0-.417.163.507.507 0 0 0-.175.382.57.57 0 0 0 .142.368c.097.12.298.26.605.42.374.198.629.387.763.57.132.184.2.39.2.623 0 .326-.115.602-.34.827a1.154 1.154 0 0 1-.845.342c-.227 0-.442-.053-.646-.152a1.43 1.43 0 0 1-.509-.411l.314-.365c.258.293.53.443.82.443a.73.73 0 0 0 .514-.2.608.608 0 0 0 .072-.852c-.093-.112-.306-.254-.634-.424-.352-.184-.592-.367-.718-.547a1.033 1.033 0 0 1-.192-.616c0-.303.101-.553.304-.751.202-.199.459-.297.768-.297.36 0 .72.178 1.088.534M87.898 40.776h.502v1.475h.797v.442H88.4v3.525h-.502v-3.525h-.686v-.442h.686zM89.761 42.25h.514v.579a1.8 1.8 0 0 1 .484-.51.933.933 0 0 1 .531-.169.91.91 0 0 1 .447.134l-.262.43a.696.696 0 0 0-.265-.069c-.17 0-.33.07-.487.21-.155.14-.274.358-.355.652-.062.223-.093.682-.093 1.37v1.341h-.514v-3.967zM93.996 42.646c-.418 0-.777.158-1.078.471a1.602 1.602 0 0 0-.451 1.141c0 .285.069.553.207.801a1.492 1.492 0 0 0 1.323.779 1.49 1.49 0 0 0 1.322-.779c.135-.248.206-.516.206-.8 0-.448-.15-.824-.453-1.142a1.443 1.443 0 0 0-1.076-.471M94 42.15c.6 0 1.1.22 1.496.662.36.402.539.882.539 1.434 0 .553-.19 1.038-.57 1.452-.38.413-.87.624-1.465.624-.602 0-1.092-.211-1.47-.624-.38-.414-.568-.9-.568-1.452 0-.55.177-1.027.536-1.432.395-.444.895-.664 1.502-.664M96.963 42.25h.503v.713c.202-.271.425-.478.669-.612.244-.134.51-.2.796-.2.293 0 .553.072.778.223.226.152.394.355.5.608.108.257.162.653.162 1.194v2.042h-.502v-1.893c0-.457-.02-.762-.056-.915-.059-.261-.17-.462-.336-.592-.164-.133-.38-.2-.646-.2-.303 0-.575.103-.817.307-.24.203-.399.457-.475.76-.048.197-.073.555-.073 1.079v1.454h-.503v-3.967zM103.334 42.64a1.567 1.567 0 0 0-1.576 1.591c0 .434.143.796.431 1.082.287.282.659.423 1.115.423.462 0 .835-.14 1.117-.42.28-.284.422-.655.422-1.114 0-.3-.066-.567-.194-.8a1.422 1.422 0 0 0-.549-.557 1.511 1.511 0 0 0-.766-.206zm1.484-.39h.501v3.161c0 .56-.047.965-.143 1.224-.131.365-.36.646-.687.842-.325.196-.716.295-1.172.295-.335 0-.636-.048-.905-.143a1.784 1.784 0 0 1-.65-.39c-.167-.162-.323-.398-.464-.71h.546c.148.265.34.457.575.582.236.127.527.19.872.19.344 0 .633-.063.87-.193.234-.13.404-.292.505-.489.102-.197.152-.514.152-.95v-.207c-.19.245-.423.432-.695.56a1.97 1.97 0 0 1-.87.196 2 2 0 0 1-1.012-.271 1.887 1.887 0 0 1-.733-.731 2.005 2.005 0 0 1-.26-1.01c0-.367.09-.71.269-1.028.179-.318.43-.567.746-.75a1.944 1.944 0 0 1 1.004-.277c.292 0 .566.058.819.182.251.121.495.325.732.608v-.69zM109.687 43.833a1.73 1.73 0 0 0-.294-.655 1.448 1.448 0 0 0-.508-.392 1.567 1.567 0 0 0-.666-.148c-.384 0-.713.125-.989.374-.2.185-.354.457-.455.821h2.912zm0 1.07l.421.225a2.316 2.316 0 0 1-.48.67 1.912 1.912 0 0 1-.614.392 2.141 2.141 0 0 1-.773.133c-.636 0-1.136-.214-1.495-.64a2.156 2.156 0 0 1-.54-1.436c0-.506.153-.954.458-1.35.384-.498.902-.746 1.547-.746.667 0 1.198.255 1.597.768.282.362.425.816.432 1.356h-3.516c.01.461.155.84.434 1.134.28.294.628.443 1.04.443.198 0 .392-.035.58-.106.188-.07.348-.165.48-.28.133-.116.273-.307.429-.564zM110.987 42.25h.512v.579c.152-.228.315-.398.484-.51a.938.938 0 0 1 .532-.169c.14 0 .286.044.446.134l-.262.43a.683.683 0 0 0-.267-.069c-.167 0-.328.07-.484.21-.155.14-.274.358-.356.652-.062.223-.093.682-.093 1.37v1.341h-.512v-3.967zM113.131 45.234l.484.233-.73 1.38-.355-.155z"/>
        <mask id="b" fill="#fff">
            <use xlink:href="#a"/>
        </mask>
        <path fill="#FFF" d="M116.629 46.218h.5V40.72h-.5zM120.023 42.646c-.418 0-.779.158-1.079.471-.3.318-.449.694-.449 1.141 0 .285.068.553.204.801.137.249.322.438.555.574a1.5 1.5 0 0 0 .769.205c.279 0 .533-.069.766-.205.234-.136.417-.325.555-.574.138-.248.207-.516.207-.8 0-.448-.152-.824-.453-1.142a1.446 1.446 0 0 0-1.075-.471m.002-.495c.6 0 1.1.22 1.495.662.36.402.54.882.54 1.434 0 .553-.19 1.038-.57 1.452-.38.413-.869.624-1.465.624-.6 0-1.09-.211-1.471-.624-.38-.414-.568-.9-.568-1.452 0-.55.178-1.027.539-1.432.395-.444.893-.664 1.5-.664M122.99 42.25h.504v.713c.2-.271.423-.478.667-.612.244-.134.51-.2.797-.2.292 0 .55.072.777.223.226.152.393.355.5.608.109.257.164.653.164 1.194v2.042h-.505v-1.893c0-.457-.02-.762-.056-.915-.056-.261-.17-.462-.334-.592-.165-.133-.379-.2-.647-.2-.305 0-.576.103-.818.307a1.44 1.44 0 0 0-.475.76c-.047.197-.07.555-.07 1.079v1.454h-.504v-3.967zM129.362 42.64a1.568 1.568 0 0 0-1.579 1.591c0 .434.145.796.433 1.082.286.282.658.423 1.116.423.46 0 .832-.14 1.114-.42.282-.284.422-.655.422-1.114 0-.3-.065-.567-.195-.8a1.404 1.404 0 0 0-.547-.557 1.51 1.51 0 0 0-.764-.206zm1.48-.39h.504v3.161c0 .56-.049.965-.144 1.224a1.592 1.592 0 0 1-.684.842c-.328.196-.718.295-1.177.295-.333 0-.637-.048-.902-.143a1.79 1.79 0 0 1-.652-.39c-.168-.162-.323-.398-.463-.71h.545c.15.265.34.457.575.582.236.127.525.19.874.19.344 0 .63-.063.868-.193.235-.13.406-.292.506-.489.1-.197.15-.514.15-.95v-.207c-.19.245-.42.432-.694.56-.272.132-.56.196-.867.196-.361 0-.699-.09-1.015-.271a1.904 1.904 0 0 1-.733-.731 2.03 2.03 0 0 1-.26-1.01c0-.367.09-.71.27-1.028.18-.318.43-.567.746-.75a1.948 1.948 0 0 1 1.005-.277c.294 0 .564.058.818.182.252.121.496.325.73.608v-.69zM135.713 43.833a1.778 1.778 0 0 0-.296-.655 1.4 1.4 0 0 0-.507-.392 1.57 1.57 0 0 0-.665-.148c-.383 0-.713.125-.988.374-.202.185-.355.457-.457.821h2.913zm0 1.07l.422.225a2.305 2.305 0 0 1-.482.67 1.88 1.88 0 0 1-.613.392 2.15 2.15 0 0 1-.773.133c-.637 0-1.135-.214-1.495-.64a2.15 2.15 0 0 1-.539-1.436c0-.506.151-.954.456-1.35.385-.498.902-.746 1.549-.746.665 0 1.198.255 1.596.768.281.362.425.816.43 1.356h-3.515c.01.461.156.84.436 1.134.28.294.624.443 1.04.443.197 0 .39-.035.578-.106.189-.07.35-.165.48-.28.133-.116.275-.307.43-.564zM137.01 42.25h.515v.579c.153-.228.314-.398.484-.51a.936.936 0 0 1 .533-.169c.138 0 .287.044.444.134l-.26.43a.702.702 0 0 0-.267-.069c-.169 0-.33.07-.485.21-.155.14-.275.358-.355.652-.064.223-.094.682-.094 1.37v1.341h-.514v-3.967zM137.692 1.796c-.095 0-.161.01-.199.02v.443h.17c.199 0 .36-.066.36-.226 0-.142-.105-.237-.331-.237" mask="url(#b)"/>
        <path fill="#FFF" d="M138.098 3.138c-.047-.057-.076-.199-.123-.378-.028-.17-.123-.246-.321-.246h-.17v.624h-.359v-1.55a3.14 3.14 0 0 1 .595-.047c.293 0 .425.048.538.114a.43.43 0 0 1 .151.34c0 .17-.132.302-.32.359v.019c.15.056.236.17.283.377.047.236.075.33.113.388h-.387zm-.369-2.05c-.689 0-1.199.557-1.199 1.238 0 .69.51 1.237 1.209 1.237.68 0 1.18-.548 1.18-1.228 0-.69-.5-1.247-1.19-1.247z" mask="url(#b)"/>
        <path fill="#FFF" d="M137.73 3.893c-.888 0-1.597-.69-1.597-1.567 0-.86.709-1.55 1.596-1.55.898 0 1.587.69 1.587 1.55 0 .878-.69 1.567-1.587 1.567zm-2.074.777h4.137V0h-4.137v4.67z" mask="url(#b)"/>
    </g>
</svg>
