<svg xmlns="http://www.w3.org/2000/svg" width="140" height="41" viewBox="0 0 140 41">
    <g fill="#FFF" fill-rule="nonzero">
        <path d="M62.723 23.772h-4.367a.474.474 0 0 0-.485.485v.624h.278v.416l.277.277v-.208h.416l-.416.278h.277v.485l-.347-.416-.485.485v-.07h.555v.486l-.555-.416v2.703c0 .277.208.485.485.485h4.367c.346 0 .554-.07.693-.277.138-.208.138-.485.138-.762v-3.535c0-.347-.069-.624-.138-.832-.07-.138-.277-.208-.693-.208zm-4.09 4.505l-.346-.346.07-.07.346.347-.07.07z"/>
        <path d="M64.733 36.109l-.416-.416.07-.07.346.347v.139zm-.485 3.95l-.347-.346.07-.07.346.347-.07.07zM63 38.19h.901l-.485.415-.416-.416zm.97.068l.347.347-.347.346v-.693zm-2.841.97l-.347-.346h.693l-.346.347zm-.208-2.01l.346.347-.346.347v-.693zm-3.05-.762l.208-.207.208.207h-.416zm-1.247 1.11l-.347-.347.07-.07.346.347-.07.07zm.138-22.317l.07.069-.347.346-.07-.069.347-.346zm-.346-.832h.416l-.416.416v-.416zm1.109-.485l.277.277h-.554l.277-.277zm.277 1.524l-.347-.346.347-.347.347.347-.347.346zm-2.564 14.278l-.347-.347.347-.346.346.346-.346.347zm-.901-14.901v-.416h.415l-.415.416zm.208 2.079l-.347-.347.07-.069.346.347-.07.069zm-.624 13.03l-.347-.347.07-.07.346.347-.07.07zm-1.386-4.367v-.416h.415l-.415.416zm-.485 14.277l-.07-.069.347-.346.069.069-.346.346zm.415-17.257l.347.347-.347.346-.346-.346.346-.347zm6.654-6.653l.07.069-.347.346-.07-.069.347-.346zm7.07 21.138l-.07-.07.208-.207v-.832c0-.693-.277-1.109-.832-1.109h-3.881l-.277.278-.07-.07.208-.208H60.09v.208l-.208-.208h-2.148c-.485 0-.763 0-.97-.138-.209-.139-.209-.347-.209-.763V19.753c0-.278 0-.486.14-.624.138-.139.346-.208.83-.208h7.625c.623 0 .97-.416.97-1.11v-3.603c0-.624-.347-1.04-.97-1.04h-6.515l.416.416-.694.693-.554-.554-.277.277-.624-.624v.693h-.832v-.9H56l-.347.346-.277-.277-.277.277.347.277-.347.347-.347-.347.347-.277-.277-.277-.277.277-.278-.277-.277.277-.277-.277-.277.277-.347-.347h-1.802c-.693 0-1.178.416-1.178 1.11v25.227c0 .693.416 1.04 1.178 1.04h6.238l.624-.624.346.346.277-.277.278.277.346-.346.624.624.624-.624.415.416v-.486h1.11v.694h.97l-.278-.278.07-.069.346.347h2.287c.624 0 .832-.278.832-1.04v-2.564l-.208.138zM41.792 37.98v.693l-.346-.346.346-.347zm-.277-5.683l.208.208h-.416l.208-.208zm-1.386 3.05L39.782 35l.07-.07.346.347-.07.07zm-1.525 3.118h-.347v-.346h.347v.346zm-1.455 2.149l-.347-.347.347-.346.346.346-.346.347zm-4.367-3.881v-.416h.416l-.416.416zm-.9 1.594l-.347-.277.346-.347.347.347-.347.277zM31.05 35v-.416h.415L31.05 35zm-.208 1.04l-.347-.347.07-.07.346.347-.07.07zM29.04 35l-.347-.347.347-.346.346.346-.346.347zm-.416 1.248l-.347-.347.07-.07.346.347-.07.07zm.138-2.634l.278.277h-.555l.277-.277zm-2.01 2.148l.278-.277.277.277h-.555zm4.852-18.851l-.416-.416h.416v.416zm-.416 7.97l-.277-.346.277-.278.347.347-.347.277zm-.97-2.98l-.347-.416.07-.07.346.347-.07.139zm-.624-2.772l.347-.347.069.07-.347.346-.069-.07zm0-1.11h-.416l.416-.415v.416zm-1.317-.207v-.416h.416l-.416.416zm1.04-1.109h.346l-.346.347v-.347zm.346.485h.416l-.416.416v-.416zm3.743-1.802l.07.07-.347.346-.07-.07.347-.346zm3.05.139l.346.346-.347.347-.277-.347.277-.346zm6.376 21.208v.693l-.347-.347.347-.346zm.97-7.139l.07.07-.347.346-.07-.07.347-.346zm.208 2.495l.208.208-.208.208v-.416zm.762 1.386h-.554v-.138h.554v.138zm-.9 2.911l-.347-.346h.693l-.347.346zm-2.08 2.911l.347-.347v.208c.138-.069.277-.208.415-.277l-.207-.208h.485l.069-.069-.07-.07.278-.277v-.138l-.277-.277h.277v-.416h.624v-.693h.693c.138-.208.277-.347.346-.555 0-.07.07-.07.07-.138l-.347-.347h.485c.07-.139.139-.346.208-.485h-.277v-.139h.277a9.432 9.432 0 0 0 .347-2.495c0-1.386-.278-2.564-.832-3.534a7.016 7.016 0 0 0-2.149-2.357c-.831-.624-1.802-1.109-2.841-1.525-1.04-.346-2.01-.762-2.911-1.04a11.22 11.22 0 0 0-1.178-.415 4.597 4.597 0 0 1-1.317-.624c-.416-.208-.762-.554-1.04-.9-.277-.347-.416-.763-.416-1.248 0-.901.347-1.525.97-1.872a4.234 4.234 0 0 1 2.08-.554c.832 0 1.733.139 2.703.485.97.277 1.802.624 2.426.901.693.277 1.178.07 1.524-.554l1.248-2.565c.277-.554.416-.9.347-1.109-.07-.208-.278-.415-.624-.623-.832-.555-1.872-.97-3.188-1.387-1.248-.346-2.842-.554-4.644-.554-1.247 0-2.356.208-3.465.554l-1.456.624.07.07-.416.415.208.208-.278.278.278.277.277-.277v.693l-.277-.208-.624.693h.416v.277h-.555v-.347l.07-.138h-.347v-.347l-.485.485.277.278-.693.693-.554-.485a5.985 5.985 0 0 0-.693 1.108c-.486.97-.763 2.08-.763 3.327 0 1.11.139 2.01.485 2.842.347.831.763 1.525 1.317 2.079a7.008 7.008 0 0 0 1.94 1.525c.763.416 1.525.762 2.357 1.04 2.01.692 3.604 1.316 4.713 1.94 1.109.624 1.663 1.386 1.663 2.356 0 .208-.069.486-.138.763-.07.277-.208.554-.485.762-.208.208-.555.416-1.04.555-.485.138-1.04.208-1.802.208-.346 0-.762-.07-1.317-.14-.485-.068-1.04-.276-1.594-.484-.554-.208-1.109-.416-1.663-.693-.416-.208-.832-.416-1.178-.693l-.486.485-.415-.555-.208.208-.555-.624v.694h-.554l-.208.277v1.317h-.97l-.278.415c-.346.486-.485.832-.416 1.11.07.277.278.554.694.9a12.614 12.614 0 0 0 4.712 2.565c1.664.485 3.258.693 4.852.693 1.317 0 2.495-.208 3.673-.555a7.678 7.678 0 0 0 2.01-.97zM85.455 37.356l.486-.623.069.069-.555.554zm-1.316-6.861h-.416l.416-.485v.485zm-.624 3.465v-.346h.346l-.346.346zm-.139-1.594h-.346l.346-.346v.346zm-.07 2.842l-.554-.555.07-.069.485.624zm-1.039-7.347l.139-.415.139.277-.278.138zm-.346.278l.138-.416.139.277-.277.139zm.07-.97h.346l-.347.346v-.347zm1.247 4.02h.346l-.346.346v-.347zm-7.139 7.761h-.347v-.485h.347v.485zm-.554.624v-.485h.485l-.485.485zm-.763-19.752l-.07-.07.347-.415.07.069-.347.416zm-.624-1.872l-.208.208-.207-.208.207-.207-.277-.278.277-.277.278.277-.278.278.208.207zm-.415.416l.207-.208.208.208h-.415zm-.278 3.882l-.069-.07.416-.416.07.07-.417.416zm-.138-7.416l.346.346h-.693l.347-.346zm-1.04 1.109l.277-.278.278.278h-.555zm-.07 3.396v.762l-.346-.347.347-.415v-.763l.346.347-.346.416zm-.554 8.94l-.415-.346.069-.07.416.416h-.07zm-.415-7.554l.415.416-.069.069-.416-.416.07-.07zm-.832-4.782l.416-.416.416.416h-.832zm1.247-1.179l.07.07-.416.416-.07-.07.416-.416zm.139 2.357v.277l-.139-.139.139-.138zm.277-.277l-.277.277v-.555l.277.278zm.208-.901l-.416.415-.485-.415h.901zm.277-2.218l.278.277-.278.277-.277-.277.277-.277zM89.06 39.366l.347-.554v-.07c-1.04-1.94-1.663-3.118-2.08-3.88l-.484.485v-.555h.485c-.277-.485-.416-.762-.485-.97l-.416.416-.07-.07.416-.416c-.069-.138-.138-.277-.208-.346l-.138.139-.07-.07.208-.208-.554-.97c-.07-.07-.07-.208-.139-.277h-.208v-.416c-.277-.554-.623-1.109-.9-1.663h-.209v-.416c0-.07-.069-.07-.069-.139h-.277v-.485c-.07-.208-.208-.347-.277-.554l-.07.069v-.277l-1.04-1.872-.276.278v-.347h-.347l-.07.07h.07v.069h-.139l-.346.346v-.346h-.139v-.07h.139v-.208h.416v-.415h.208v-.07c-.07-.069-.139-.208-.208-.346v.416h-.555v-.694h.347s0-.069-.07-.069h-.069v-.07c-.07-.138-.138-.207-.138-.207l-.07.07v-.347h.208v-.07h.07l7.415-9.287c.347-.485.278-.9.139-1.109-.07-.208-.347-.554-.97-.554h-3.812c-.416 0-.693.07-.901.139-.208.069-.485.277-.693.554l-6.862 8.594v-8.247c0-.763-.485-1.179-1.178-1.179h-.277l-.485.485-.208-.207-.347.346-.346-.346-.277.277-.278-.277-.346.346-.555-.554v.623h-.831v-.485c-.486.139-.763.555-.763 1.178v.624l.416.416h-.416v1.802h.555l-.555.554h.347l-.347.347v5.06h.277l-.277.277v.693h.07l-.07.069v.139h.555l-.555.485v9.495h.07v.762h-.07v4.228c0 .762.416 1.178 1.178 1.178h3.604c.07 0 .139 0 .278-.07v-.207h.208v-.416h.069v-.346h.485v.346h.07c.069-.208.138-.346.138-.624l.07-7.554c0-1.04.276-1.871.9-2.495l.139-.139c.346.624.832 1.456 1.317 2.426l1.04 1.871h.277v.485h-.07l.208.416.347.347-.139.138c0 .07.07.07.07.139l.207.208-.069.07v.069c.693 1.455 1.455 2.91 2.148 4.366.208.485.486.762.832.9.277.07.555.14.97.14h3.604c1.317 0 1.387-.832 1.387-1.11 0-.138-.07-.346-.14-.485l-.346.208zM104.515 14.485l.277-.346.07.069-.347.277zm-1.386 14.347v-.347h.346l-.346.347zm-.07.762l.278-.346.069.069-.347.277zm-.415.901l.277-.346.07.069-.347.277zm-.278-8.04h.208l-.208.208v-.208zm-.485 9.911v-.416l.416.416h-.416zm-.485 5.545v-.416h.416l-.416.416zm-.693 1.317v-.416h.416l-.416.416zm-.347.346l-.346-.346.346-.347.347.347-.347.346zm0 .693l-.346-.346.346-.347.347.347-.347.346zm.14-4.02l.068-.069.347.347-.07.07-.346-.347zm.207-19.544l.347.347-.347.346-.347-.346.347-.347zm-.624 9.287l-.346-.346.346-.347.347.347-.347.346zm-.416 11.159l-.346-.347.346-.347.347.347-.347.347zm.278-2.288h-.416v-.415l.416.415zm-.416-2.356l.346.346-.069.07-.347-.347.07-.069zm2.425-7.901v.208h-.207l.207-.208zm-3.049 12.822l-.277-.277.277-.278v.555zm-1.455-21.347v-.416l.415.416h-.415zm12.544 1.04v-1.317l-.416.416v-.485h.416v-1.456c0-.693-.277-1.109-.832-1.109h-3.465l-.416.416v-.416h-2.841v.278h-.07v-.278h-8.871a.924.924 0 0 0-.693.278c-.139.207-.139.485-.139.762v3.465c0 .347 0 .624.139.763.139.208.347.277.693.277h3.604c.416 0 .693.07.762.208.07.138.139.346.139.624v9.217l.624.624-.624.624v1.317l.416.554H98v.277l.416.416H98v2.911l.624.624.346-.277.347.346-.347.347-.346-.277-.555.554.416.416-.485.485v.139h.624v.831h.831l-.277-.346.277-.347.278.277.277-.277v-.346h.485l-.416.416.277.277-.346.346.07.07h-.07v1.94h3.188c.762 0 1.109-.277 1.109-.832v-7.069l-.139.139-.069-.07.208-.207v-1.11l-.139.14-.069-.07.208-.208v-2.634l-.277-.277.277-.277v-.624h-.555v-.624l.555.555v-1.733h-.139l.139-.138v-2.911h-.555v-.624l.555.554v-1.802l-.416.416v-.485h.416v-1.178c0-.208.07-.416.208-.555.138-.138.416-.208.832-.208h3.811c.347 0 .624-.138.693-.277.07-.208.14-.485.14-.762v-.208l-.417-.416h.416v-.07zM128.426 38.604h-.347v-.347h.347v.347zm-.416-1.04l.277.278h-.277v-.278zm-.901 1.248l-.208-.208.208-.208v.416zm-.555-1.871l.278-.347.069.07-.347.277zM126 31.88l-.07-.416h.07v.416zm-.832 6.792l.278-.346.069.069-.347.277zm-.623-7.9v-.417l.415.416h-.415zm-2.842 2.148v-.416l.416.416h-.416zm-.624-8.04l-.346-.346.346-.347.347.347-.347.346zm-1.247 9.98l-.347-.346.07-.07.277.416zm-.624-3.534l-.347-.347.07-.07.346.347-.07.07zm-.555 1.04v-.417h.416l-.416.416zM116.99 17.05l-.346-.347.346-.347.347.347-.347.347zm-.346 9.702l-.347-.346.07-.07.346.347-.07.07zm-.901 1.04l-.347-.346.347-.347.346.347-.346.346zm-.693 1.386l-.347-.346.347-.347.346.347-.346.346zm-.555 3.258l-.277-.278.277-.277v.555zm-.624-2.98l.07-.07.346.347-.07.069-.346-.347zm1.664-4.575h.415l-.415.416v-.416zm.208 5.614h.415l-.415.416v-.416zm13.514 8.525h-.207v-.693h-.555v-.763h.07l.277-.277-.208-.762h-.416v.277l-.347-.347h.347v-.415h.208l-.208-.763h-.208v-.346h.139L122.812 14c-.07-.416-.208-.624-.416-.693-.208-.07-.416-.07-.693-.07h-6.307c-.554 0-.9.278-1.109.763l-6.376 25.505c0 .139-.07.277-.07.346v.347l.278.277c.138.07.346.07.693.07h4.436c.207 0 .415-.07.693-.14.208-.138.346-.346.415-.623l.14-.97.484-2.287c.07-.139.07-.277.139-.347l1.317-5.683h-.278v-1.386l-.485-.485.416-.416-.208-.208.208-.277v.624h.485l.416-.416v-.139l-.07.07-.346-.347-.346.346-.347-.346.347-.347.346.347.347-.347.208-.208.277-1.524.832-4.575c0-.208.069-.277.208-.277.069 0 .138.07.207.277l.901 4.575.901 4.366c.07.208.07.485 0 .554a.53.53 0 0 1-.346.139h-1.802c-.277 0-.555.208-.555.485l-.9 3.95c-.07.347.207.694.554.694h3.743c.277 0 .485.07.623.208.139.138.208.416.278.831l.277 1.248.208-.208.069.07-.208.207.416 1.802c.07.277.208.416.416.555.208.138.416.208.693.208h.762l.347-.347.346.347.347-.347.346.347h.624l.07-.07.069.07h1.455c.555 0 .832-.14.901-.416.07-.278.07-.485 0-.693l.07-.416zM15.317 27.723l.138.138V28.208c-.069.07-.069.139-.138.208l-.07.07h-.207l-.07-.07-.069.208-.277.485-.07.07-.138.138-.208.277-.208.07c-.139.138-.139.138-.208.138V29.594c.07 0 .139-.07.208-.07v-.138c-.07.07-.139.139-.277.139 0 .07-.07.07-.07.138l.14.208c-.07.07-.07.139-.14.208l-.069-.07-.07-.068c0 .069 0 .138-.068.208l.069.069v.138l-.624-.138-.139.208-.069.277v.07c-.07.069-.138.069-.208.069V29.663c0-.138-.07-.208-.07-.277h-.068v.208l.069.07-.07.207c-.069.07-.069.208-.069.278V30.842l-.069.208-.347-.07-.069-.138-.07.069c-.068.139-.068.139-.138.208l-.277.07h-.624c-.069-.07-.138-.14-.138-.209h-.278l-.138-.07-.347-.138-.416-.277-.207-.139-.07-.069h-.138l-.208.139H8.04l-.07-.832v-.416c0-.07-.069-.138-.069-.208 0 0 .07 0 .07-.069l.069-.485.138-.624v-.07c0-.069-.07-.138-.07-.207-.068-.07-.138-.139-.138-.139V27.03c.07-.07.07-.139.139-.208l.07-.07h.207l.139.07.07-.208.276-.485.485-.555.07-.069v-.07c-.139-.138-.208-.277-.277-.485.069-.207.207-.346.485-.346.069.208.138.346.277.554h.139v-.069l-.07-.07v-.138l.624.139.139-.208.069-.277c.07-.07.138-.07.208-.07l-.07 1.179c0 .138.07.207.14.277h.068v-.208l-.069-.07.07-.207c.069-.139.069-.208.069-.278v-.346c0-.139 0-.277-.07-.347l.07-.208.346.07.07.069s.069 0 .069-.07c.07-.138.07-.138.208-.207l.277-.07h.624c.07.07.07.14.138.208h.278l.485.208.138.07.208.138h.07l.208.139.069.07h.138l.208-.14H15.455l.07.347.07.555v.485c0 .069 0 .138.068.208 0 0-.069 0-.069.069l-.07.485-.276.624v.07c.069 0 .069.068.069.138zm-4.159-3.673c.07.069.07.069.07.138-.07.07-.139.208-.208.277l-.07-.415h.208zm.901-.901l.208.069v.346h-.208c-.069-.138-.138-.277-.138-.415h.138zm1.179.138v.624l-.208-.07-.208-.346c.138-.139.277-.139.416-.208zm1.802-1.455l.069.138-.139-.069.07-.07zm7.415-.624c-.069-.139-.138-.277-.207-.347v-.069c-.901-.277-2.288-.139-2.773-.9.07-.209.139-.417.139-.625.416-1.732.416-3.742.762-5.544-.07-.07-.208-.139-.277-.208-.832-.485-1.455-.277-2.91-.277-.971.693-.833 2.495-1.595 3.396V18.228c-.554.277-.277 1.386-1.386 1.109-.277.762.762.208.485.9-.554.694-1.247.209-1.802.209-.139 0-.485.346-.9.207-.209 0-.347-.623-.486-.693-.555-.277-.762.486-.901 0 .346-.831.554-1.802.693-2.703.208-1.04.347-2.079.693-2.98-.346-.346-.762-.624-1.109-.762-.831-.347-1.663-.139-2.079.485-.485.832-.416 1.525-.693 2.772 0 .07-.416.347-.485.485-.208.693-.07 1.387-.208 2.08-.208.831-.693 1.316-.485 1.802-.693 0-1.179.554-2.08.693-2.079.346-3.603-.208-3.88 1.386.692.624 1.316-.07.9 1.386h2.495c.555.346.832 1.04 1.386 1.386-.346.555-.346.555-.693.693.901.208.278 1.04-.208 1.11.278.068.486.276.486.692-.555 1.525-1.941 2.357-4.09 2.287-.415.416-.762 1.664-.485 2.08 1.456-.07 2.149.623 2.98 1.178.347 1.94-.762 3.604-.9 5.683.97.9 1.594.277 2.772.208.277-.624.554-1.248.485-2.287.139-.347.693-.347.693-.901.277-.693-.346-.555-.485-.901.277-.555.832.485 1.109-.208-.208-.208-.832-.07-.693-.693.554-.624 1.04-1.248 2.079-1.386-.208.693.347.693.485 1.108.832-.138 1.317.07 1.594.416.139.208.277.416.347.693.069.139.069.347.069.555-.277.208-.07.832-.693.693.346.762.208 1.94.208 2.98 1.04.416 1.802.693 2.98.485.416-.346.485-.9.624-1.386 0-.07.07-.139.07-.208 0-.07.415-.346.484-.485.07-.208.07-.485.139-.762v-.139c0-.416 0-.832.139-1.109.069-.277.485-.346.693-.693.623-.97.138-1.317 1.178-.9.07-.347-.07-.833.208-.902.693 0 1.317 0 1.871-.07 1.317-.069 2.356-.346 2.703-1.524s-.347-2.287-.901-3.396c-.416.07-.97.208-1.525.208-.624 0-1.178-.07-1.455-.416.693-.416-.139-1.386 0-2.01 0-.138.07-.208.208-.277.346-.07.416.07.485.277.138.416 0 .97.624.832.346 0 .762 0 .693-.485-.347.069-1.733-1.179-.693-1.802.554 0 .693.346 1.109.485.485-.901 1.87-.901 2.287-1.802 0-1.109 0-2.08-.278-2.703zM127.525 1.04h-.901l-1.594 4.505h.97l.347-1.04h1.316l.416 1.04h.97l-1.524-4.505zm-.832 2.633l.277-.97.139-.624h.07l.138.624.277.97h-.9zM123.02 1.94v3.605h.97V1.04h-2.91l-.07 1.524c0 .278-.07.555-.07.832 0 .277-.069.485-.138.693-.07.208-.139.347-.277.416-.139.07-.277.139-.485.139v.9c.346 0 .623 0 .9-.138.209-.139.416-.277.555-.485.139-.208.208-.416.277-.763.07-.277.07-.554.139-.9l.07-1.387h1.039v.07zM116.713 2.01h2.148v-.97h-3.118v4.505h3.118v-.901h-2.148v-.901h1.94v-.901h-1.94zM112.693 5.545V1.94h1.248V1.04h-3.466v.9h1.248v3.605zM105.554 1.871c-.138-.208-.277-.346-.415-.485-.139-.138-.347-.208-.624-.277-.208-.07-.416-.07-.693-.07-.208 0-.485 0-.693.07-.208.07-.416.139-.555.277-.138.139-.346.277-.416.485-.138.208-.138.416-.138.693v1.594c0 .278.07.486.138.624.139.208.278.347.416.485.139.139.347.208.624.278.208.069.416.069.693.069.208 0 .485 0 .693-.07.208-.069.416-.138.624-.277.139-.138.277-.277.416-.485.138-.208.138-.416.138-.624V2.495c0-.208-.069-.485-.208-.624zm-.762 2.287c0 .07 0 .208-.07.278l-.207.208c-.07.069-.208.069-.277.138-.139 0-.208.07-.347.07-.139 0-.208 0-.346-.07-.14 0-.208-.07-.278-.138l-.208-.208c-.069-.07-.069-.139-.069-.278V2.495c0-.139 0-.208.07-.277l.207-.208c.07-.07.208-.07.278-.139.138 0 .207-.069.346-.069.139 0 .208 0 .347.07.138 0 .208.069.277.138l.208.208c.07.07.07.208.07.277v1.663zM98.97 5.545V1.94h1.802V1.04H98v4.505zM96.267 1.871c-.138-.208-.277-.346-.416-.485-.138-.138-.346-.208-.623-.277-.208-.07-.416-.07-.693-.07-.208 0-.485 0-.693.07-.208.07-.416.139-.555.277-.138.139-.277.277-.416.485-.138.208-.138.416-.138.693v1.594c0 .278.069.486.138.624.139.208.278.347.416.485.139.139.347.208.624.278.208.069.416.069.693.069.208 0 .485 0 .693-.07.208-.069.416-.138.624-.277.138-.138.277-.277.416-.485.138-.208.138-.416.138-.624V2.495c-.07-.208-.07-.485-.208-.624zm-.762 2.287c0 .07 0 .208-.07.278l-.207.208c-.07.069-.208.069-.278.138-.138 0-.207.07-.346.07-.139 0-.208 0-.347-.07-.138 0-.207-.07-.277-.138l-.208-.208c-.069-.07-.069-.139-.069-.278V2.495c0-.139 0-.208.07-.277l.207-.208c.07-.07.208-.07.277-.139.139 0 .208-.069.347-.069.139 0 .208 0 .346.07.14 0 .208.069.278.138l.208.208c.069.07.069.208.069.277v1.663zM88.574 3.812h1.664v1.733h.97V1.04h-.97v1.802h-1.664V1.04h-.9v4.505h.9zM86.01 3.05c-.277-.278-.693-.347-1.248-.347h-.831V1.109h-.97v4.436h1.801c.278 0 .486-.07.624-.14.208-.068.347-.138.485-.276.139-.139.278-.278.347-.485.07-.208.138-.416.138-.624.07-.416-.069-.763-.346-.97m-.693 1.524c-.139.139-.277.139-.485.139H84V3.396h.832c.208 0 .416.07.485.139.138.138.138.277.138.485 0 .277 0 .416-.138.554M80.188 1.94v3.605h.97V1.04h-2.91l-.07 1.524c0 .278-.07.555-.07.832 0 .277-.068.485-.138.693-.069.208-.138.347-.277.416-.139.07-.277.139-.485.139v.9c.346 0 .624 0 .9-.138.209-.139.417-.277.555-.485.139-.208.208-.416.278-.763.069-.277.069-.554.138-.9l.07-1.387h1.04v.07zM74.782 1.04h-.9l-1.595 4.505h.97l.347-1.04h1.317l.416 1.04h.97L74.782 1.04zm-.9 2.633l.276-.97.139-.624h.07l.138.624.277.97h-.9zM68.96 2.01h2.08v-.97h-3.05v4.505h3.05v-.901h-2.08v-.901h1.941v-.901h-1.94zM65.842 4.713V1.04H63l-.139 1.524c0 .347-.069.624-.069.832 0 .277-.07.485-.07.624-.069.208-.138.346-.207.416-.07.069-.277.138-.416.138h-.07v1.733H63v-.762h2.356v.831h.97V4.644h-.484v.069zm-.901 0h-1.387c.07-.208.14-.416.208-.624.07-.208.07-.485.07-.762L63.9 1.94h1.04v2.772zM59.673 3.327v2.218h.97V1.04h-.9l-1.456 2.356-.346.762.069-.693V1.04h-.97v4.505h.9l1.456-2.218.347-.693zM50.109 1.04h-.901l-1.594 4.505h.97l.347-1.04h1.317l.415 1.04h.97L50.11 1.04zm-.901 2.633l.277-.97.139-.624h.07l.138.624.277.97h-.901zM45.535 1.94v3.605h.97V1.04h-2.91l-.07 1.524c0 .278-.07.555-.07.832 0 .277-.069.485-.138.693-.07.208-.139.347-.277.416-.139.07-.278.139-.486.139v.9c.347 0 .624 0 .901-.138.208-.139.416-.277.555-.485.139-.208.277-.416.277-.763.07-.277.07-.554.139-.9l.069-1.387h1.04v.07zM41.307 1.871a3.014 3.014 0 0 0-.416-.485c-.139-.138-.346-.208-.624-.277-.208-.07-.416-.07-.693-.07-.208 0-.485 0-.693.07-.208.07-.416.139-.554.277a3.014 3.014 0 0 0-.416.485c-.139.208-.139.416-.139.693v1.594c0 .278.07.486.139.624.139.208.277.347.416.485.138.139.346.208.623.278.208.069.416.069.694.069.207 0 .485 0 .693-.07.208-.069.415-.138.623-.277.139-.138.278-.277.416-.485.139-.208.139-.416.139-.624V2.495c0-.208-.07-.485-.208-.624zm-.762 2.287c0 .07 0 .208-.07.278l-.208.208c-.069.069-.208.069-.277.138-.139 0-.208.07-.346.07-.139 0-.208 0-.347-.07-.139 0-.208-.07-.277-.138l-.208-.208c-.07-.07-.07-.139-.07-.278V2.495c0-.139 0-.208.07-.277l.208-.208c.07-.07.208-.07.277-.139.139 0 .208-.069.347-.069.138 0 .207 0 .346.07.139 0 .208.069.277.138l.208.208c.07.07.07.208.07.277v1.663zM36.663 1.04h-1.178l-1.594 1.87V1.04h-.97v4.505h.97V4.02l.139-.139 1.386 1.664h1.247l-1.94-2.288zM25.713 1.04v4.505h5.337V1.04h-.97v3.673h-1.248V1.04h-.901v3.673h-1.248V1.04zM133.762 3.327c0-.416.07-.763.208-1.11.139-.346.347-.692.624-.9.277-.277.555-.485.901-.624a3.14 3.14 0 0 1 1.109-.208c.416 0 .762.07 1.109.208.346.139.693.347.9.624.278.277.486.554.625.9.138.347.208.763.208 1.11 0 .416-.07.762-.208 1.109-.139.346-.347.693-.624.9-.277.278-.555.486-.901.624a3.14 3.14 0 0 1-1.109.208c-.416 0-.762-.069-1.109-.208-.346-.138-.693-.346-.9-.623-.278-.278-.486-.555-.625-.901a2.873 2.873 0 0 1-.208-1.11zm.901 0c0 .277.07.554.139.831.139.278.277.486.416.693.208.208.416.347.693.416.277.139.554.139.832.139.277 0 .554-.07.831-.139.277-.138.485-.277.624-.416.208-.207.347-.415.416-.693.138-.277.138-.554.138-.831 0-.277-.069-.555-.138-.832-.139-.277-.277-.485-.416-.624-.208-.208-.416-.346-.624-.416-.277-.138-.485-.138-.831-.138-.278 0-.555.07-.832.138-.277.14-.485.278-.693.416-.208.208-.347.416-.416.624-.07.277-.139.555-.139.832zm.901-1.456h1.317c.208 0 .416.07.555.139.138.07.277.208.346.277l.208.416v.416c0 .138-.07.277-.208.416-.07.138-.208.208-.346.277l.693 1.04h-.97l-.624-.97h-.139v.97h-.832v-2.98zm1.248 1.317c.138 0 .208 0 .208-.07.07-.068.07-.138.07-.207 0-.07 0-.139-.07-.208-.07-.07-.139-.07-.208-.07h-.485v.624h.485v-.069z"/>
    </g>
</svg>
