<?xml version="1.0" encoding="utf-8"?>
<!-- Generator: Adobe Illustrator 22.1.0, SVG Export Plug-In . SVG Version: 6.00 Build 0)  -->
<svg version="1.1" id="Слой_1" xmlns="http://www.w3.org/2000/svg" xmlns:xlink="http://www.w3.org/1999/xlink" x="0px" y="0px"
	 viewBox="0 0 1180.3 245.2" style="enable-background:new 0 0 1180.3 245.2;" xml:space="preserve">
<style type="text/css">
	.st0{enable-background:new    ;}
	.st1{fill:#F40606;}
	.st2{fill:#FFFFFF;}
</style>
<g>
	<g class="st0">
		<path class="st1" d="M123,52.7v178.5H97.3V76.9H59.5c-2.6,52-4.8,92.8-8.2,114c-4.6,32.4-19.6,42.8-44.4,42.8v-23.5
			c11.2,0,16.8-6.9,19.6-25.2c2.8-18.6,5.1-58.7,8.2-132.3H123z"/>
		<path class="st1" d="M178.6,162.4c-20.4-6.9-31.9-25.8-31.9-52.3c0-36.5,19.9-57.4,53.3-57.4h45.9v178.5h-25.8v-64.5h-15.8
			l-35.7,64.5h-28.6L178.6,162.4z M220.2,142.5V77.2h-19.9c-17.9,0-27.3,11-27.3,32.4c0,21.2,9.4,32.9,27,32.9H220.2z"/>
		<path class="st1" d="M362,77.2h-59.7v154h-25.8V52.7H362V77.2z"/>
		<path class="st1" d="M346.2,218.5c0-9.2,6.4-15.3,15.6-15.3s15.6,6.1,15.6,15.3c0,9.4-6.4,15.6-15.6,15.6S346.2,227.9,346.2,218.5
			z"/>
		<path class="st1" d="M394.1,178.7v-73.4c0-36.2,20.1-55.8,51.5-55.8c32.4,0,51.5,19.4,53,54.8h-25.5
			c-1.5-20.9-10.7-30.3-27.8-30.3c-15,0-25,9.9-25,31.4v73.4c0,21.2,9.9,31.1,25.5,31.1c17.3,0,26.5-9.7,28.3-30.1h25.5
			c-1.8,35.2-20.9,54.6-53.8,54.6C414.5,234.3,394.1,214.6,394.1,178.7z"/>
		<path class="st1" d="M621.6,231.2h-25.8v-154h-50.5v154h-25.8V52.7h102V231.2z"/>
		<path class="st1" d="M651.9,52.7h25.2v78c0,12.8-1,36-2.8,51.5l0.8,0.5c3.3-8.7,7.9-21.2,12.8-31.6l43.4-98.4h26.3v178.5h-25.2
			v-77.8c0-13.5,1-37.5,2.3-52.3l-0.8-0.5c-3.3,9.2-8.4,23-12.8,32.9l-43.1,97.7h-26V52.7z"/>
		<path class="st1" d="M890.1,52.7v178.5h-25.8v-78.3h-50.5v78.3h-25.8V52.7h25.8v76h50.5v-76H890.1z"/>
		<path class="st1" d="M915.6,174.6v-65.3c0-37.2,20.4-59.9,54.6-59.9s54.6,22.7,54.6,59.9v65.3c0,37.2-20.4,59.9-54.6,59.9
			S915.6,211.8,915.6,174.6z M998.2,174.6v-65.3c0-22.4-9.7-34.7-28.1-34.7c-18.6,0-28.1,12.2-28.1,34.7v65.3
			c0,22.4,9.4,34.7,28.1,34.7C988.5,209.3,998.2,197,998.2,174.6z"/>
		<path class="st1" d="M1050.2,52.7h25.2v78c0,12.8-1,36-2.8,51.5l0.8,0.5c3.3-8.7,7.9-21.2,12.8-31.6l43.4-98.4h26.3v178.5h-25.2
			v-77.8c0-13.5,1-37.5,2.3-52.3l-0.8-0.5c-3.3,9.2-8.4,23-12.8,32.9l-43.1,97.7h-26V52.7z M1072.9,4.8h17.6
			c0.5,8.9,5.4,13.5,13,13.5c7.9,0,12.8-4.6,13.3-13.5h17.6c-0.8,19.6-13,30.6-30.6,30.6C1085.9,35.4,1073.7,24.1,1072.9,4.8z"/>
	</g>
	<g class="st0">
		<path class="st1" d="M123.2,52.9v178.5H97.4V77.1H59.7c-2.6,52-4.8,92.8-8.2,114c-4.6,32.4-19.6,42.8-44.4,42.8v-23.5
			c11.2,0,16.8-6.9,19.6-25.2c2.8-18.6,5.1-58.7,8.2-132.3H123.2z"/>
		<path class="st1" d="M178.8,162.5c-20.4-6.9-31.9-25.8-31.9-52.3c0-36.5,19.9-57.4,53.3-57.4h45.9v178.5h-25.8v-64.5h-15.8
			l-35.7,64.5h-28.6L178.8,162.5z M220.3,142.7V77.4h-19.9c-17.9,0-27.3,11-27.3,32.4c0,21.2,9.4,32.9,27,32.9H220.3z"/>
		<path class="st1" d="M362.1,77.4h-59.7v154h-25.8V52.9h85.4V77.4z"/>
		<path class="st1" d="M346.3,218.6c0-9.2,6.4-15.3,15.6-15.3s15.6,6.1,15.6,15.3c0,9.4-6.4,15.6-15.6,15.6S346.3,228.1,346.3,218.6
			z"/>
		<path class="st1" d="M394.3,178.9v-73.4c0-36.2,20.1-55.8,51.5-55.8c32.4,0,51.5,19.4,53,54.8h-25.5
			c-1.5-20.9-10.7-30.3-27.8-30.3c-15,0-25,9.9-25,31.4v73.4c0,21.2,9.9,31.1,25.5,31.1c17.3,0,26.5-9.7,28.3-30.1h25.5
			c-1.8,35.2-20.9,54.6-53.8,54.6C414.7,234.5,394.3,214.8,394.3,178.9z"/>
		<path class="st1" d="M621.7,231.4H596v-154h-50.5v154h-25.8V52.9h102V231.4z"/>
		<path class="st1" d="M652.1,52.9h25.2v78c0,12.8-1,36-2.8,51.5l0.8,0.5c3.3-8.7,7.9-21.2,12.8-31.6l43.4-98.4h26.3v178.5h-25.2
			v-77.8c0-13.5,1-37.5,2.3-52.3l-0.8-0.5c-3.3,9.2-8.4,23-12.8,32.9l-43.1,97.7h-26V52.9z"/>
		<path class="st1" d="M890.2,52.9v178.5h-25.8v-78.3H814v78.3h-25.8V52.9H814v76h50.5v-76H890.2z"/>
		<path class="st1" d="M915.7,174.8v-65.3c0-37.2,20.4-59.9,54.6-59.9s54.6,22.7,54.6,59.9v65.3c0,37.2-20.4,59.9-54.6,59.9
			S915.7,212,915.7,174.8z M998.3,174.8v-65.3c0-22.4-9.7-34.7-28.1-34.7c-18.6,0-28.1,12.2-28.1,34.7v65.3
			c0,22.4,9.4,34.7,28.1,34.7C988.6,209.5,998.3,197.2,998.3,174.8z"/>
		<path class="st1" d="M1050.4,52.9h25.2v78c0,12.8-1,36-2.8,51.5l0.8,0.5c3.3-8.7,7.9-21.2,12.8-31.6l43.4-98.4h26.3v178.5h-25.2
			v-77.8c0-13.5,1-37.5,2.3-52.3l-0.8-0.5c-3.3,9.2-8.4,23-12.8,32.9l-43.1,97.7h-26V52.9z M1073.1,5h17.6c0.5,8.9,5.4,13.5,13,13.5
			c7.9,0,12.8-4.6,13.3-13.5h17.6c-0.8,19.6-13,30.6-30.6,30.6C1086.1,35.6,1073.8,24.3,1073.1,5z"/>
	</g>
	<g class="st0">
		<path class="st1" d="M123.3,53.1v178.5H97.6V77.3H59.9c-2.6,52-4.8,92.8-8.2,114c-4.6,32.4-19.6,42.8-44.4,42.8v-23.5
			c11.2,0,16.8-6.9,19.6-25.2c2.8-18.6,5.1-58.7,8.2-132.3H123.3z"/>
		<path class="st1" d="M178.9,162.7c-20.4-6.9-31.9-25.8-31.9-52.3c0-36.5,19.9-57.4,53.3-57.4h45.9v178.5h-25.8v-64.5h-15.8
			L169,231.6h-28.6L178.9,162.7z M220.5,142.8V77.6h-19.9c-17.9,0-27.3,11-27.3,32.4c0,21.2,9.4,32.9,27,32.9H220.5z"/>
		<path class="st1" d="M362.3,77.6h-59.7v154h-25.8V53.1h85.4V77.6z"/>
		<path class="st1" d="M346.5,218.8c0-9.2,6.4-15.3,15.6-15.3s15.6,6.1,15.6,15.3c0,9.4-6.4,15.6-15.6,15.6S346.5,228.3,346.5,218.8
			z"/>
		<path class="st1" d="M394.4,179.1v-73.4c0-36.2,20.1-55.8,51.5-55.8c32.4,0,51.5,19.4,53,54.8h-25.5
			c-1.5-20.9-10.7-30.3-27.8-30.3c-15,0-25,9.9-25,31.4v73.4c0,21.2,9.9,31.1,25.5,31.1c17.3,0,26.5-9.7,28.3-30.1H500
			c-1.8,35.2-20.9,54.6-53.8,54.6C414.8,234.6,394.4,215,394.4,179.1z"/>
		<path class="st1" d="M621.9,231.6h-25.8v-154h-50.5v154h-25.8V53.1h102V231.6z"/>
		<path class="st1" d="M652.2,53.1h25.2v78c0,12.8-1,36-2.8,51.5l0.8,0.5c3.3-8.7,7.9-21.2,12.8-31.6l43.4-98.4h26.3v178.5h-25.2
			v-77.8c0-13.5,1-37.5,2.3-52.3l-0.8-0.5c-3.3,9.2-8.4,23-12.8,32.9l-43.1,97.7h-26V53.1z"/>
		<path class="st1" d="M890.4,53.1v178.5h-25.8v-78.3h-50.5v78.3h-25.8V53.1h25.8v76h50.5v-76H890.4z"/>
		<path class="st1" d="M915.9,175v-65.3c0-37.2,20.4-59.9,54.6-59.9s54.6,22.7,54.6,59.9V175c0,37.2-20.4,59.9-54.6,59.9
			S915.9,212.2,915.9,175z M998.5,175v-65.3c0-22.4-9.7-34.7-28.1-34.7c-18.6,0-28.1,12.2-28.1,34.7V175c0,22.4,9.4,34.7,28.1,34.7
			C988.8,209.7,998.5,197.4,998.5,175z"/>
		<path class="st1" d="M1050.5,53.1h25.2v78c0,12.8-1,36-2.8,51.5l0.8,0.5c3.3-8.7,7.9-21.2,12.8-31.6l43.4-98.4h26.3v178.5h-25.2
			v-77.8c0-13.5,1-37.5,2.3-52.3l-0.8-0.5c-3.3,9.2-8.4,23-12.8,32.9l-43.1,97.7h-26V53.1z M1073.2,5.1h17.6
			c0.5,8.9,5.4,13.5,13,13.5c7.9,0,12.8-4.6,13.3-13.5h17.6c-0.8,19.6-13,30.6-30.6,30.6C1086.2,35.7,1074,24.5,1073.2,5.1z"/>
	</g>
	<g class="st0">
		<path class="st1" d="M123.5,53.3v178.5H97.7V77.5H60c-2.6,52-4.8,92.8-8.2,114c-4.6,32.4-19.6,42.8-44.4,42.8v-23.5
			c11.2,0,16.8-6.9,19.6-25.2c2.8-18.6,5.1-58.7,8.2-132.3H123.5z"/>
		<path class="st1" d="M179.1,162.9c-20.4-6.9-31.9-25.8-31.9-52.3c0-36.5,19.9-57.4,53.3-57.4h45.9v178.5h-25.8v-64.5h-15.8
			l-35.7,64.5h-28.6L179.1,162.9z M220.7,143V77.7h-19.9c-17.9,0-27.3,11-27.3,32.4c0,21.2,9.4,32.9,27,32.9H220.7z"/>
		<path class="st1" d="M362.4,77.7h-59.7v154H277V53.3h85.4V77.7z"/>
		<path class="st1" d="M346.6,219c0-9.2,6.4-15.3,15.6-15.3s15.6,6.1,15.6,15.3c0,9.4-6.4,15.6-15.6,15.6S346.6,228.5,346.6,219z"/>
		<path class="st1" d="M394.6,179.2v-73.4c0-36.2,20.1-55.8,51.5-55.8c32.4,0,51.5,19.4,53,54.8h-25.5
			c-1.5-20.9-10.7-30.3-27.8-30.3c-15,0-25,9.9-25,31.4v73.4c0,21.2,9.9,31.1,25.5,31.1c17.3,0,26.5-9.7,28.3-30.1h25.5
			c-1.8,35.2-20.9,54.6-53.8,54.6C415,234.8,394.6,215.2,394.6,179.2z"/>
		<path class="st1" d="M622,231.8h-25.8v-154h-50.5v154H520V53.3h102V231.8z"/>
		<path class="st1" d="M652.4,53.3h25.2v78c0,12.8-1,36-2.8,51.5l0.8,0.5c3.3-8.7,7.9-21.2,12.8-31.6l43.4-98.4h26.3v178.5h-25.2
			V154c0-13.5,1-37.5,2.3-52.3l-0.8-0.5c-3.3,9.2-8.4,23-12.8,32.9l-43.1,97.7h-26V53.3z"/>
		<path class="st1" d="M890.5,53.3v178.5h-25.8v-78.3h-50.5v78.3h-25.8V53.3h25.8v76h50.5v-76H890.5z"/>
		<path class="st1" d="M916,175.2v-65.3c0-37.2,20.4-59.9,54.6-59.9s54.6,22.7,54.6,59.9v65.3c0,37.2-20.4,59.9-54.6,59.9
			S916,212.4,916,175.2z M998.7,175.2v-65.3c0-22.4-9.7-34.7-28.1-34.7c-18.6,0-28.1,12.2-28.1,34.7v65.3c0,22.4,9.4,34.7,28.1,34.7
			C989,209.8,998.7,197.6,998.7,175.2z"/>
		<path class="st1" d="M1050.7,53.3h25.2v78c0,12.8-1,36-2.8,51.5l0.8,0.5c3.3-8.7,7.9-21.2,12.8-31.6l43.4-98.4h26.3v178.5H1131
			V154c0-13.5,1-37.5,2.3-52.3l-0.8-0.5c-3.3,9.2-8.4,23-12.8,32.9l-43.1,97.7h-26V53.3z M1073.4,5.3h17.6c0.5,8.9,5.4,13.5,13,13.5
			c7.9,0,12.8-4.6,13.3-13.5h17.6c-0.8,19.6-13,30.6-30.6,30.6C1086.4,35.9,1074.1,24.7,1073.4,5.3z"/>
	</g>
	<g class="st0">
		<path class="st1" d="M123.7,53.5V232H97.9V77.7H60.2c-2.6,52-4.8,92.8-8.2,114c-4.6,32.4-19.6,42.8-44.4,42.8V211
			c11.2,0,16.8-6.9,19.6-25.2c2.8-18.6,5.1-58.7,8.2-132.3H123.7z"/>
		<path class="st1" d="M179.2,163.1c-20.4-6.9-31.9-25.8-31.9-52.3c0-36.5,19.9-57.4,53.3-57.4h45.9V232h-25.8v-64.5H205L169.3,232
			h-28.6L179.2,163.1z M220.8,143.2V77.9h-19.9c-17.9,0-27.3,11-27.3,32.4c0,21.2,9.4,32.9,27,32.9H220.8z"/>
		<path class="st1" d="M362.6,77.9h-59.7v154h-25.8V53.5h85.4V77.9z"/>
		<path class="st1" d="M346.8,219.2c0-9.2,6.4-15.3,15.6-15.3s15.6,6.1,15.6,15.3c0,9.4-6.4,15.6-15.6,15.6S346.8,228.6,346.8,219.2
			z"/>
		<path class="st1" d="M394.7,179.4V106c0-36.2,20.1-55.8,51.5-55.8c32.4,0,51.5,19.4,53,54.8h-25.5c-1.5-20.9-10.7-30.3-27.8-30.3
			c-15,0-25,9.9-25,31.4v73.4c0,21.2,9.9,31.1,25.5,31.1c17.3,0,26.5-9.7,28.3-30.1h25.5c-1.8,35.2-20.9,54.6-53.8,54.6
			C415.1,235,394.7,215.4,394.7,179.4z"/>
		<path class="st1" d="M622.2,232h-25.8v-154h-50.5v154h-25.8V53.5h102V232z"/>
		<path class="st1" d="M652.5,53.5h25.2v78c0,12.8-1,36-2.8,51.5l0.8,0.5c3.3-8.7,7.9-21.2,12.8-31.6l43.4-98.4h26.3V232h-25.2
			v-77.8c0-13.5,1-37.5,2.3-52.3l-0.8-0.5c-3.3,9.2-8.4,23-12.8,32.9L678.5,232h-26V53.5z"/>
		<path class="st1" d="M890.7,53.5V232h-25.8v-78.3h-50.5V232h-25.8V53.5h25.8v76h50.5v-76H890.7z"/>
		<path class="st1" d="M916.2,175.3v-65.3c0-37.2,20.4-59.9,54.6-59.9s54.6,22.7,54.6,59.9v65.3c0,37.2-20.4,59.9-54.6,59.9
			S916.2,212.6,916.2,175.3z M998.8,175.3v-65.3c0-22.4-9.7-34.7-28.1-34.7c-18.6,0-28.1,12.2-28.1,34.7v65.3
			c0,22.4,9.4,34.7,28.1,34.7C989.1,210,998.8,197.8,998.8,175.3z"/>
		<path class="st1" d="M1050.8,53.5h25.2v78c0,12.8-1,36-2.8,51.5l0.8,0.5c3.3-8.7,7.9-21.2,12.8-31.6l43.4-98.4h26.3V232h-25.2
			v-77.8c0-13.5,1-37.5,2.3-52.3l-0.8-0.5c-3.3,9.2-8.4,23-12.8,32.9l-43.1,97.7h-26V53.5z M1073.5,5.5h17.6
			c0.5,8.9,5.4,13.5,13,13.5c7.9,0,12.8-4.6,13.3-13.5h17.6c-0.8,19.6-13,30.6-30.6,30.6C1086.5,36.1,1074.3,24.9,1073.5,5.5z"/>
	</g>
	<g class="st0">
		<path class="st1" d="M123.8,53.6v178.5H98.1V77.9H60.3c-2.6,52-4.8,92.8-8.2,114c-4.6,32.4-19.6,42.8-44.4,42.8v-23.5
			c11.2,0,16.8-6.9,19.6-25.2c2.8-18.6,5.1-58.7,8.2-132.3H123.8z"/>
		<path class="st1" d="M179.4,163.3c-20.4-6.9-31.9-25.8-31.9-52.3c0-36.5,19.9-57.4,53.3-57.4h45.9v178.5H221v-64.5h-15.8
			l-35.7,64.5h-28.6L179.4,163.3z M221,143.4V78.1h-19.9c-17.9,0-27.3,11-27.3,32.4c0,21.2,9.4,32.9,27,32.9H221z"/>
		<path class="st1" d="M362.8,78.1h-59.7v154h-25.8V53.6h85.4V78.1z"/>
		<path class="st1" d="M346.9,219.4c0-9.2,6.4-15.3,15.6-15.3s15.6,6.1,15.6,15.3c0,9.4-6.4,15.6-15.6,15.6S346.9,228.8,346.9,219.4
			z"/>
		<path class="st1" d="M394.9,179.6v-73.4c0-36.2,20.1-55.8,51.5-55.8c32.4,0,51.5,19.4,53,54.8h-25.5
			c-1.5-20.9-10.7-30.3-27.8-30.3c-15,0-25,9.9-25,31.4v73.4c0,21.2,9.9,31.1,25.5,31.1c17.3,0,26.5-9.7,28.3-30.1h25.5
			c-1.8,35.2-20.9,54.6-53.8,54.6C415.3,235.2,394.9,215.6,394.9,179.6z"/>
		<path class="st1" d="M622.3,232.1h-25.8v-154h-50.5v154h-25.8V53.6h102V232.1z"/>
		<path class="st1" d="M652.7,53.6h25.2v78c0,12.8-1,36-2.8,51.5l0.8,0.5c3.3-8.7,7.9-21.2,12.8-31.6L732,53.6h26.3v178.5H733v-77.8
			c0-13.5,1-37.5,2.3-52.3l-0.8-0.5c-3.3,9.2-8.4,23-12.8,32.9l-43.1,97.7h-26V53.6z"/>
		<path class="st1" d="M890.8,53.6v178.5h-25.8v-78.3h-50.5v78.3h-25.8V53.6h25.8v76h50.5v-76H890.8z"/>
		<path class="st1" d="M916.3,175.5v-65.3c0-37.2,20.4-59.9,54.6-59.9s54.6,22.7,54.6,59.9v65.3c0,37.2-20.4,59.9-54.6,59.9
			S916.3,212.8,916.3,175.5z M999,175.5v-65.3c0-22.4-9.7-34.7-28.1-34.7c-18.6,0-28.1,12.2-28.1,34.7v65.3
			c0,22.4,9.4,34.7,28.1,34.7C989.3,210.2,999,198,999,175.5z"/>
		<path class="st1" d="M1051,53.6h25.2v78c0,12.8-1,36-2.8,51.5l0.8,0.5c3.3-8.7,7.9-21.2,12.8-31.6l43.4-98.4h26.3v178.5h-25.2
			v-77.8c0-13.5,1-37.5,2.3-52.3l-0.8-0.5c-3.3,9.2-8.4,23-12.8,32.9l-43.1,97.7h-26V53.6z M1073.7,5.7h17.6
			c0.5,8.9,5.4,13.5,13,13.5c7.9,0,12.8-4.6,13.3-13.5h17.6c-0.8,19.6-13,30.6-30.6,30.6C1086.7,36.3,1074.4,25.1,1073.7,5.7z"/>
	</g>
	<g class="st0">
		<path class="st1" d="M124,53.8v178.5H98.2V78.1H60.5c-2.6,52-4.8,92.8-8.2,114c-4.6,32.4-19.6,42.8-44.4,42.8v-23.5
			c11.2,0,16.8-6.9,19.6-25.2c2.8-18.6,5.1-58.7,8.2-132.3H124z"/>
		<path class="st1" d="M179.6,163.5c-20.4-6.9-31.9-25.8-31.9-52.3c0-36.5,19.9-57.4,53.3-57.4h45.9v178.5h-25.8v-64.5h-15.8
			l-35.7,64.5h-28.6L179.6,163.5z M221.1,143.6V78.3h-19.9c-17.9,0-27.3,11-27.3,32.4c0,21.2,9.4,32.9,27,32.9H221.1z"/>
		<path class="st1" d="M362.9,78.3h-59.7v154h-25.8V53.8h85.4V78.3z"/>
		<path class="st1" d="M347.1,219.6c0-9.2,6.4-15.3,15.6-15.3s15.6,6.1,15.6,15.3c0,9.4-6.4,15.6-15.6,15.6S347.1,229,347.1,219.6z"
			/>
		<path class="st1" d="M395,179.8v-73.4c0-36.2,20.1-55.8,51.5-55.8c32.4,0,51.5,19.4,53,54.8h-25.5C472.6,84.4,463.4,75,446.3,75
			c-15,0-25,9.9-25,31.4v73.4c0,21.2,9.9,31.1,25.5,31.1c17.3,0,26.5-9.7,28.3-30.1h25.5c-1.8,35.2-20.9,54.6-53.8,54.6
			C415.4,235.4,395,215.8,395,179.8z"/>
		<path class="st1" d="M622.5,232.3h-25.8v-154h-50.5v154h-25.8V53.8h102V232.3z"/>
		<path class="st1" d="M652.8,53.8h25.2v78c0,12.8-1,36-2.8,51.5l0.8,0.5c3.3-8.7,7.9-21.2,12.8-31.6l43.4-98.4h26.3v178.5h-25.2
			v-77.8c0-13.5,1-37.5,2.3-52.3l-0.8-0.5c-3.3,9.2-8.4,23-12.8,32.9l-43.1,97.7h-26V53.8z"/>
		<path class="st1" d="M891,53.8v178.5h-25.8V154h-50.5v78.3H789V53.8h25.8v76h50.5v-76H891z"/>
		<path class="st1" d="M916.5,175.7v-65.3c0-37.2,20.4-59.9,54.6-59.9s54.6,22.7,54.6,59.9v65.3c0,37.2-20.4,59.9-54.6,59.9
			S916.5,213,916.5,175.7z M999.1,175.7v-65.3c0-22.4-9.7-34.7-28.1-34.7c-18.6,0-28.1,12.2-28.1,34.7v65.3
			c0,22.4,9.4,34.7,28.1,34.7C989.4,210.4,999.1,198.2,999.1,175.7z"/>
		<path class="st1" d="M1051.1,53.8h25.2v78c0,12.8-1,36-2.8,51.5l0.8,0.5c3.3-8.7,7.9-21.2,12.8-31.6l43.4-98.4h26.3v178.5h-25.2
			v-77.8c0-13.5,1-37.5,2.3-52.3l-0.8-0.5c-3.3,9.2-8.4,23-12.8,32.9l-43.1,97.7h-26V53.8z M1073.8,5.9h17.6
			c0.5,8.9,5.4,13.5,13,13.5c7.9,0,12.8-4.6,13.3-13.5h17.6c-0.8,19.6-13,30.6-30.6,30.6C1086.8,36.5,1074.6,25.3,1073.8,5.9z"/>
	</g>
	<g class="st0">
		<path class="st1" d="M124.1,54v178.5H98.4V78.2H60.6c-2.6,52-4.8,92.8-8.2,114c-4.6,32.4-19.6,42.8-44.4,42.8v-23.5
			c11.2,0,16.8-6.9,19.6-25.2c2.8-18.6,5.1-58.7,8.2-132.3H124.1z"/>
		<path class="st1" d="M179.7,163.7c-20.4-6.9-31.9-25.8-31.9-52.3c0-36.5,19.9-57.4,53.3-57.4H247v178.5h-25.8V168h-15.8
			l-35.7,64.5h-28.6L179.7,163.7z M221.3,143.8V78.5h-19.9c-17.9,0-27.3,11-27.3,32.4c0,21.2,9.4,32.9,27,32.9H221.3z"/>
		<path class="st1" d="M363.1,78.5h-59.7v154h-25.8V54h85.4V78.5z"/>
		<path class="st1" d="M347.3,219.8c0-9.2,6.4-15.3,15.6-15.3s15.6,6.1,15.6,15.3c0,9.4-6.4,15.6-15.6,15.6S347.3,229.2,347.3,219.8
			z"/>
		<path class="st1" d="M395.2,180v-73.4c0-36.2,20.1-55.8,51.5-55.8c32.4,0,51.5,19.4,53,54.8h-25.5c-1.5-20.9-10.7-30.3-27.8-30.3
			c-15,0-25,9.9-25,31.4V180c0,21.2,9.9,31.1,25.5,31.1c17.3,0,26.5-9.7,28.3-30.1h25.5c-1.8,35.2-20.9,54.6-53.8,54.6
			C415.6,235.6,395.2,215.9,395.2,180z"/>
		<path class="st1" d="M622.6,232.5h-25.8v-154h-50.5v154h-25.8V54h102V232.5z"/>
		<path class="st1" d="M653,54h25.2v78c0,12.8-1,36-2.8,51.5l0.8,0.5c3.3-8.7,7.9-21.2,12.8-31.6L732.3,54h26.3v178.5h-25.2v-77.8
			c0-13.5,1-37.5,2.3-52.3l-0.8-0.5c-3.3,9.2-8.4,23-12.8,32.9L679,232.5h-26V54z"/>
		<path class="st1" d="M891.2,54v178.5h-25.8v-78.3h-50.5v78.3h-25.8V54h25.8v76h50.5V54H891.2z"/>
		<path class="st1" d="M916.7,175.9v-65.3c0-37.2,20.4-59.9,54.6-59.9s54.6,22.7,54.6,59.9v65.3c0,37.2-20.4,59.9-54.6,59.9
			S916.7,213.1,916.7,175.9z M999.3,175.9v-65.3c0-22.4-9.7-34.7-28.1-34.7c-18.6,0-28.1,12.2-28.1,34.7v65.3
			c0,22.4,9.4,34.7,28.1,34.7C989.6,210.6,999.3,198.3,999.3,175.9z"/>
		<path class="st1" d="M1051.3,54h25.2v78c0,12.8-1,36-2.8,51.5l0.8,0.5c3.3-8.7,7.9-21.2,12.8-31.6l43.4-98.4h26.3v178.5h-25.2
			v-77.8c0-13.5,1-37.5,2.3-52.3l-0.8-0.5c-3.3,9.2-8.4,23-12.8,32.9l-43.1,97.7h-26V54z M1074,6.1h17.6c0.5,8.9,5.4,13.5,13,13.5
			c7.9,0,12.8-4.6,13.3-13.5h17.6c-0.8,19.6-13,30.6-30.6,30.6C1087,36.7,1074.8,25.5,1074,6.1z"/>
	</g>
	<g class="st0">
		<path class="st1" d="M124.3,54.2v178.5H98.5V78.4H60.8c-2.6,52-4.8,92.8-8.2,114C48,224.8,33,235.3,8.3,235.3v-23.5
			c11.2,0,16.8-6.9,19.6-25.2c2.8-18.6,5.1-58.7,8.2-132.3H124.3z"/>
		<path class="st1" d="M179.9,163.9c-20.4-6.9-31.9-25.8-31.9-52.3c0-36.5,19.9-57.4,53.3-57.4h45.9v178.5h-25.8v-64.5h-15.8
			l-35.7,64.5h-28.6L179.9,163.9z M221.4,144V78.7h-19.9c-17.9,0-27.3,11-27.3,32.4c0,21.2,9.4,32.9,27,32.9H221.4z"/>
		<path class="st1" d="M363.2,78.7h-59.7v154h-25.8V54.2h85.4V78.7z"/>
		<path class="st1" d="M347.4,220c0-9.2,6.4-15.3,15.6-15.3s15.6,6.1,15.6,15.3c0,9.4-6.4,15.6-15.6,15.6S347.4,229.4,347.4,220z"/>
		<path class="st1" d="M395.3,180.2v-73.4c0-36.2,20.1-55.8,51.5-55.8c32.4,0,51.5,19.4,53,54.8h-25.5
			c-1.5-20.9-10.7-30.3-27.8-30.3c-15,0-25,9.9-25,31.4v73.4c0,21.2,9.9,31.1,25.5,31.1c17.3,0,26.5-9.7,28.3-30.1h25.5
			c-1.8,35.2-20.9,54.6-53.8,54.6C415.7,235.8,395.3,216.1,395.3,180.2z"/>
		<path class="st1" d="M622.8,232.7h-25.8v-154h-50.5v154h-25.8V54.2h102V232.7z"/>
		<path class="st1" d="M653.1,54.2h25.2v78c0,12.8-1,36-2.8,51.5l0.8,0.5c3.3-8.7,7.9-21.2,12.8-31.6l43.4-98.4h26.3v178.5h-25.2
			v-77.8c0-13.5,1-37.5,2.3-52.3l-0.8-0.5c-3.3,9.2-8.4,23-12.8,32.9l-43.1,97.7h-26V54.2z"/>
		<path class="st1" d="M891.3,54.2v178.5h-25.8v-78.3h-50.5v78.3h-25.8V54.2h25.8v76h50.5v-76H891.3z"/>
		<path class="st1" d="M916.8,176.1v-65.3c0-37.2,20.4-59.9,54.6-59.9s54.6,22.7,54.6,59.9v65.3c0,37.2-20.4,59.9-54.6,59.9
			S916.8,213.3,916.8,176.1z M999.4,176.1v-65.3c0-22.4-9.7-34.7-28.1-34.7c-18.6,0-28.1,12.2-28.1,34.7v65.3
			c0,22.4,9.4,34.7,28.1,34.7C989.7,210.8,999.4,198.5,999.4,176.1z"/>
		<path class="st1" d="M1051.5,54.2h25.2v78c0,12.8-1,36-2.8,51.5l0.8,0.5c3.3-8.7,7.9-21.2,12.8-31.6l43.4-98.4h26.3v178.5h-25.2
			v-77.8c0-13.5,1-37.5,2.3-52.3l-0.8-0.5c-3.3,9.2-8.4,23-12.8,32.9l-43.1,97.7h-26V54.2z M1074.1,6.3h17.6
			c0.5,8.9,5.4,13.5,13,13.5c7.9,0,12.8-4.6,13.3-13.5h17.6c-0.8,19.6-13,30.6-30.6,30.6C1087.2,36.9,1074.9,25.6,1074.1,6.3z"/>
	</g>
	<g class="st0">
		<path class="st1" d="M124.4,54.4v178.5H98.7V78.6H60.9c-2.6,52-4.8,92.8-8.2,114c-4.6,32.4-19.6,42.8-44.4,42.8V212
			c11.2,0,16.8-6.9,19.6-25.2c2.8-18.6,5.1-58.7,8.2-132.3H124.4z"/>
		<path class="st1" d="M180,164c-20.4-6.9-31.9-25.8-31.9-52.3c0-36.5,19.9-57.4,53.3-57.4h45.9v178.5h-25.8v-64.5h-15.8l-35.7,64.5
			h-28.6L180,164z M221.6,144.2V78.9h-19.9c-17.9,0-27.3,11-27.3,32.4c0,21.2,9.4,32.9,27,32.9H221.6z"/>
		<path class="st1" d="M363.4,78.9h-59.7v154h-25.8V54.4h85.4V78.9z"/>
		<path class="st1" d="M347.6,220.1c0-9.2,6.4-15.3,15.6-15.3s15.6,6.1,15.6,15.3c0,9.4-6.4,15.6-15.6,15.6S347.6,229.6,347.6,220.1
			z"/>
		<path class="st1" d="M395.5,180.4v-73.4c0-36.2,20.1-55.8,51.5-55.8c32.4,0,51.5,19.4,53,54.8h-25.5C473,85,463.8,75.6,446.8,75.6
			c-15,0-25,9.9-25,31.4v73.4c0,21.2,9.9,31.1,25.5,31.1c17.3,0,26.5-9.7,28.3-30.1h25.5c-1.8,35.2-20.9,54.6-53.8,54.6
			C415.9,236,395.5,216.3,395.5,180.4z"/>
		<path class="st1" d="M623,232.9h-25.8v-154h-50.5v154H521V54.4h102V232.9z"/>
		<path class="st1" d="M653.3,54.4h25.2v78c0,12.8-1,36-2.8,51.5l0.8,0.5c3.3-8.7,7.9-21.2,12.8-31.6l43.4-98.4h26.3v178.5h-25.2
			v-77.8c0-13.5,1-37.5,2.3-52.3l-0.8-0.5c-3.3,9.2-8.4,23-12.8,32.9l-43.1,97.7h-26V54.4z"/>
		<path class="st1" d="M891.5,54.4v178.5h-25.8v-78.3h-50.5v78.3h-25.8V54.4h25.8v76h50.5v-76H891.5z"/>
		<path class="st1" d="M917,176.3V111c0-37.2,20.4-59.9,54.6-59.9s54.6,22.7,54.6,59.9v65.3c0,37.2-20.4,59.9-54.6,59.9
			S917,213.5,917,176.3z M999.6,176.3V111c0-22.4-9.7-34.7-28.1-34.7c-18.6,0-28.1,12.2-28.1,34.7v65.3c0,22.4,9.4,34.7,28.1,34.7
			C989.9,211,999.6,198.7,999.6,176.3z"/>
		<path class="st1" d="M1051.6,54.4h25.2v78c0,12.8-1,36-2.8,51.5l0.8,0.5c3.3-8.7,7.9-21.2,12.8-31.6l43.4-98.4h26.3v178.5h-25.2
			v-77.8c0-13.5,1-37.5,2.3-52.3l-0.8-0.5c-3.3,9.2-8.4,23-12.8,32.9l-43.1,97.7h-26V54.4z M1074.3,6.5h17.6
			c0.5,8.9,5.4,13.5,13,13.5c7.9,0,12.8-4.6,13.3-13.5h17.6c-0.8,19.6-13,30.6-30.6,30.6C1087.3,37.1,1075.1,25.8,1074.3,6.5z"/>
	</g>
	<g class="st0">
		<path class="st1" d="M124.6,54.6v178.5H98.8V78.8H61.1c-2.6,52-4.8,92.8-8.2,114c-4.6,32.4-19.6,42.8-44.4,42.8v-23.5
			c11.2,0,16.8-6.9,19.6-25.2c2.8-18.6,5.1-58.7,8.2-132.3H124.6z"/>
		<path class="st1" d="M180.2,164.2c-20.4-6.9-31.9-25.8-31.9-52.3c0-36.5,19.9-57.4,53.3-57.4h45.9v178.5h-25.8v-64.5h-15.8
			l-35.7,64.5h-28.6L180.2,164.2z M221.8,144.3V79.1h-19.9c-17.9,0-27.3,11-27.3,32.4c0,21.2,9.4,32.9,27,32.9H221.8z"/>
		<path class="st1" d="M363.5,79.1h-59.7v154h-25.8V54.6h85.4V79.1z"/>
		<path class="st1" d="M347.7,220.3c0-9.2,6.4-15.3,15.6-15.3s15.6,6.1,15.6,15.3c0,9.4-6.4,15.6-15.6,15.6S347.7,229.8,347.7,220.3
			z"/>
		<path class="st1" d="M395.7,180.6v-73.4c0-36.2,20.1-55.8,51.5-55.8c32.4,0,51.5,19.4,53,54.8h-25.5
			c-1.5-20.9-10.7-30.3-27.8-30.3c-15,0-25,9.9-25,31.4v73.4c0,21.2,9.9,31.1,25.5,31.1c17.3,0,26.5-9.7,28.3-30.1h25.5
			c-1.8,35.2-20.9,54.6-53.8,54.6C416.1,236.1,395.7,216.5,395.7,180.6z"/>
		<path class="st1" d="M623.1,233.1h-25.8v-154h-50.5v154h-25.8V54.6h102V233.1z"/>
		<path class="st1" d="M653.5,54.6h25.2v78c0,12.8-1,36-2.8,51.5l0.8,0.5c3.3-8.7,7.9-21.2,12.8-31.6l43.4-98.4H759v178.5h-25.2
			v-77.8c0-13.5,1-37.5,2.3-52.3l-0.8-0.5c-3.3,9.2-8.4,23-12.8,32.9l-43.1,97.7h-26V54.6z"/>
		<path class="st1" d="M891.6,54.6v178.5h-25.8v-78.3h-50.5v78.3h-25.8V54.6h25.8v76h50.5v-76H891.6z"/>
		<path class="st1" d="M917.1,176.5v-65.3c0-37.2,20.4-59.9,54.6-59.9s54.6,22.7,54.6,59.9v65.3c0,37.2-20.4,59.9-54.6,59.9
			S917.1,213.7,917.1,176.5z M999.7,176.5v-65.3c0-22.4-9.7-34.7-28.1-34.7c-18.6,0-28.1,12.2-28.1,34.7v65.3
			c0,22.4,9.4,34.7,28.1,34.7C990.1,211.2,999.7,198.9,999.7,176.5z"/>
		<path class="st1" d="M1051.8,54.6h25.2v78c0,12.8-1,36-2.8,51.5l0.8,0.5c3.3-8.7,7.9-21.2,12.8-31.6l43.4-98.4h26.3v178.5h-25.2
			v-77.8c0-13.5,1-37.5,2.3-52.3l-0.8-0.5c-3.3,9.2-8.4,23-12.8,32.9l-43.1,97.7h-26V54.6z M1074.5,6.6h17.6
			c0.5,8.9,5.4,13.5,13,13.5c7.9,0,12.8-4.6,13.3-13.5h17.6c-0.8,19.6-13,30.6-30.6,30.6C1087.5,37.2,1075.2,26,1074.5,6.6z"/>
	</g>
	<g class="st0">
		<path class="st1" d="M124.8,54.8v178.5H99V79H61.3c-2.6,52-4.8,92.8-8.2,114c-4.6,32.4-19.6,42.8-44.4,42.8v-23.5
			c11.2,0,16.8-6.9,19.6-25.2c2.8-18.6,5.1-58.7,8.2-132.3H124.8z"/>
		<path class="st1" d="M180.3,164.4c-20.4-6.9-31.9-25.8-31.9-52.3c0-36.5,19.9-57.4,53.3-57.4h45.9v178.5h-25.8v-64.5h-15.8
			l-35.7,64.5h-28.6L180.3,164.4z M221.9,144.5V79.2H202c-17.9,0-27.3,11-27.3,32.4c0,21.2,9.4,32.9,27,32.9H221.9z"/>
		<path class="st1" d="M363.7,79.2H304v154h-25.8V54.8h85.4V79.2z"/>
		<path class="st1" d="M347.9,220.5c0-9.2,6.4-15.3,15.6-15.3s15.6,6.1,15.6,15.3c0,9.4-6.4,15.6-15.6,15.6S347.9,230,347.9,220.5z"
			/>
		<path class="st1" d="M395.8,180.7v-73.4c0-36.2,20.1-55.8,51.5-55.8c32.4,0,51.5,19.4,53,54.8h-25.5
			c-1.5-20.9-10.7-30.3-27.8-30.3c-15,0-25,9.9-25,31.4v73.4c0,21.2,9.9,31.1,25.5,31.1c17.3,0,26.5-9.7,28.3-30.1h25.5
			c-1.8,35.2-20.9,54.6-53.8,54.6C416.2,236.3,395.8,216.7,395.8,180.7z"/>
		<path class="st1" d="M623.3,233.3h-25.8v-154H547v154h-25.8V54.8h102V233.3z"/>
		<path class="st1" d="M653.6,54.8h25.2v78c0,12.8-1,36-2.8,51.5l0.8,0.5c3.3-8.7,7.9-21.2,12.8-31.6l43.4-98.4h26.3v178.5h-25.2
			v-77.8c0-13.5,1-37.5,2.3-52.3l-0.8-0.5c-3.3,9.2-8.4,23-12.8,32.9l-43.1,97.7h-26V54.8z"/>
		<path class="st1" d="M891.8,54.8v178.5H866V155h-50.5v78.3h-25.8V54.8h25.8v76H866v-76H891.8z"/>
		<path class="st1" d="M917.3,176.7v-65.3c0-37.2,20.4-59.9,54.6-59.9s54.6,22.7,54.6,59.9v65.3c0,37.2-20.4,59.9-54.6,59.9
			S917.3,213.9,917.3,176.7z M999.9,176.7v-65.3c0-22.4-9.7-34.7-28.1-34.7c-18.6,0-28.1,12.2-28.1,34.7v65.3
			c0,22.4,9.4,34.7,28.1,34.7C990.2,211.3,999.9,199.1,999.9,176.7z"/>
		<path class="st1" d="M1051.9,54.8h25.2v78c0,12.8-1,36-2.8,51.5l0.8,0.5c3.3-8.7,7.9-21.2,12.8-31.6l43.4-98.4h26.3v178.5h-25.2
			v-77.8c0-13.5,1-37.5,2.3-52.3l-0.8-0.5c-3.3,9.2-8.4,23-12.8,32.9l-43.1,97.7h-26V54.8z M1074.6,6.8h17.6
			c0.5,8.9,5.4,13.5,13,13.5c7.9,0,12.8-4.6,13.3-13.5h17.6c-0.8,19.6-13,30.6-30.6,30.6C1087.6,37.4,1075.4,26.2,1074.6,6.8z"/>
	</g>
	<g class="st0">
		<path class="st1" d="M124.9,55v178.5H99.2V79.2H61.4c-2.6,52-4.8,92.8-8.2,114C48.7,225.6,33.6,236,8.9,236v-23.5
			c11.2,0,16.8-6.9,19.6-25.2c2.8-18.6,5.1-58.7,8.2-132.3H124.9z"/>
		<path class="st1" d="M180.5,164.6c-20.4-6.9-31.9-25.8-31.9-52.3c0-36.5,19.9-57.4,53.3-57.4h45.9v178.5h-25.8v-64.5h-15.8
			l-35.7,64.5H142L180.5,164.6z M222.1,144.7V79.4h-19.9c-17.9,0-27.3,11-27.3,32.4c0,21.2,9.4,32.9,27,32.9H222.1z"/>
		<path class="st1" d="M363.8,79.4h-59.7v154h-25.8V55h85.4V79.4z"/>
		<path class="st1" d="M348,220.7c0-9.2,6.4-15.3,15.6-15.3s15.6,6.1,15.6,15.3c0,9.4-6.4,15.6-15.6,15.6S348,230.1,348,220.7z"/>
		<path class="st1" d="M396,180.9v-73.4c0-36.2,20.1-55.8,51.5-55.8c32.4,0,51.5,19.4,53,54.8H475c-1.5-20.9-10.7-30.3-27.8-30.3
			c-15,0-25,9.9-25,31.4v73.4c0,21.2,9.9,31.1,25.5,31.1c17.3,0,26.5-9.7,28.3-30.1h25.5c-1.8,35.2-20.9,54.6-53.8,54.6
			C416.4,236.5,396,216.9,396,180.9z"/>
		<path class="st1" d="M623.4,233.5h-25.8v-154h-50.5v154h-25.8V55h102V233.5z"/>
		<path class="st1" d="M653.8,55H679v78c0,12.8-1,36-2.8,51.5l0.8,0.5c3.3-8.7,7.9-21.2,12.8-31.6L733.1,55h26.3v178.5h-25.2v-77.8
			c0-13.5,1-37.5,2.3-52.3l-0.8-0.5c-3.3,9.2-8.4,23-12.8,32.9l-43.1,97.7h-26V55z"/>
		<path class="st1" d="M891.9,55v178.5h-25.8v-78.3h-50.5v78.3h-25.8V55h25.8v76h50.5V55H891.9z"/>
		<path class="st1" d="M917.4,176.8v-65.3c0-37.2,20.4-59.9,54.6-59.9s54.6,22.7,54.6,59.9v65.3c0,37.2-20.4,59.9-54.6,59.9
			S917.4,214.1,917.4,176.8z M1000.1,176.8v-65.3c0-22.4-9.7-34.7-28.1-34.7c-18.6,0-28.1,12.2-28.1,34.7v65.3
			c0,22.4,9.4,34.7,28.1,34.7C990.4,211.5,1000.1,199.3,1000.1,176.8z"/>
		<path class="st1" d="M1052.1,55h25.2v78c0,12.8-1,36-2.8,51.5l0.8,0.5c3.3-8.7,7.9-21.2,12.8-31.6l43.4-98.4h26.3v178.5h-25.2
			v-77.8c0-13.5,1-37.5,2.3-52.3l-0.8-0.5c-3.3,9.2-8.4,23-12.8,32.9l-43.1,97.7h-26V55z M1074.8,7h17.6c0.5,8.9,5.4,13.5,13,13.5
			c7.9,0,12.8-4.6,13.3-13.5h17.6c-0.8,19.6-13,30.6-30.6,30.6C1087.8,37.6,1075.5,26.4,1074.8,7z"/>
	</g>
	<g class="st0">
		<path class="st1" d="M125.1,55.1v178.5H99.3V79.4H61.6c-2.6,52-4.8,92.8-8.2,114c-4.6,32.4-19.6,42.8-44.4,42.8v-23.5
			c11.2,0,16.8-6.9,19.6-25.2c2.8-18.6,5.1-58.7,8.2-132.3H125.1z"/>
		<path class="st1" d="M180.7,164.8c-20.4-6.9-31.9-25.8-31.9-52.3c0-36.5,19.9-57.4,53.3-57.4H248v178.5h-25.8v-64.5h-15.8
			l-35.7,64.5h-28.6L180.7,164.8z M222.2,144.9V79.6h-19.9c-17.9,0-27.3,11-27.3,32.4c0,21.2,9.4,32.9,27,32.9H222.2z"/>
		<path class="st1" d="M364,79.6h-59.7v154h-25.8V55.1H364V79.6z"/>
		<path class="st1" d="M348.2,220.9c0-9.2,6.4-15.3,15.6-15.3s15.6,6.1,15.6,15.3c0,9.4-6.4,15.6-15.6,15.6S348.2,230.3,348.2,220.9
			z"/>
		<path class="st1" d="M396.1,181.1v-73.4c0-36.2,20.1-55.8,51.5-55.8c32.4,0,51.5,19.4,53,54.8h-25.5
			c-1.5-20.9-10.7-30.3-27.8-30.3c-15,0-25,9.9-25,31.4v73.4c0,21.2,9.9,31.1,25.5,31.1c17.3,0,26.5-9.7,28.3-30.1h25.5
			c-1.8,35.2-20.9,54.6-53.8,54.6C416.5,236.7,396.1,217.1,396.1,181.1z"/>
		<path class="st1" d="M623.6,233.6h-25.8v-154h-50.5v154h-25.8V55.1h102V233.6z"/>
		<path class="st1" d="M653.9,55.1h25.2v78c0,12.8-1,36-2.8,51.5l0.8,0.5c3.3-8.7,7.9-21.2,12.8-31.6l43.4-98.4h26.3v178.5h-25.2
			v-77.8c0-13.5,1-37.5,2.3-52.3l-0.8-0.5c-3.3,9.2-8.4,23-12.8,32.9l-43.1,97.7h-26V55.1z"/>
		<path class="st1" d="M892.1,55.1v178.5h-25.8v-78.3h-50.5v78.3h-25.8V55.1h25.8v76h50.5v-76H892.1z"/>
		<path class="st1" d="M917.6,177v-65.3c0-37.2,20.4-59.9,54.6-59.9s54.6,22.7,54.6,59.9V177c0,37.2-20.4,59.9-54.6,59.9
			S917.6,214.3,917.6,177z M1000.2,177v-65.3c0-22.4-9.7-34.7-28.1-34.7c-18.6,0-28.1,12.2-28.1,34.7V177c0,22.4,9.4,34.7,28.1,34.7
			C990.5,211.7,1000.2,199.5,1000.2,177z"/>
		<path class="st1" d="M1052.2,55.1h25.2v78c0,12.8-1,36-2.8,51.5l0.8,0.5c3.3-8.7,7.9-21.2,12.8-31.6l43.4-98.4h26.3v178.5h-25.2
			v-77.8c0-13.5,1-37.5,2.3-52.3l-0.8-0.5c-3.3,9.2-8.4,23-12.8,32.9l-43.1,97.7h-26V55.1z M1074.9,7.2h17.6
			c0.5,8.9,5.4,13.5,13,13.5c7.9,0,12.8-4.6,13.3-13.5h17.6c-0.8,19.6-13,30.6-30.6,30.6C1087.9,37.8,1075.7,26.6,1074.9,7.2z"/>
	</g>
	<g class="st0">
		<path class="st1" d="M125.2,55.3v178.5H99.5V79.6H61.7c-2.6,52-4.8,92.8-8.2,114c-4.6,32.4-19.6,42.8-44.4,42.8v-23.5
			c11.2,0,16.8-6.9,19.6-25.2c2.8-18.6,5.1-58.7,8.2-132.3H125.2z"/>
		<path class="st1" d="M180.8,165c-20.4-6.9-31.9-25.8-31.9-52.3c0-36.5,19.9-57.4,53.3-57.4h45.9v178.5h-25.8v-64.5h-15.8
			l-35.7,64.5h-28.6L180.8,165z M222.4,145.1V79.8h-19.9c-17.9,0-27.3,11-27.3,32.4c0,21.2,9.4,32.9,27,32.9H222.4z"/>
		<path class="st1" d="M364.2,79.8h-59.7v154h-25.8V55.3h85.4V79.8z"/>
		<path class="st1" d="M348.3,221.1c0-9.2,6.4-15.3,15.6-15.3s15.6,6.1,15.6,15.3c0,9.4-6.4,15.6-15.6,15.6S348.3,230.5,348.3,221.1
			z"/>
		<path class="st1" d="M396.3,181.3v-73.4c0-36.2,20.1-55.8,51.5-55.8c32.4,0,51.5,19.4,53,54.8h-25.5
			c-1.5-20.9-10.7-30.3-27.8-30.3c-15,0-25,9.9-25,31.4v73.4c0,21.2,9.9,31.1,25.5,31.1c17.3,0,26.5-9.7,28.3-30.1h25.5
			c-1.8,35.2-20.9,54.6-53.8,54.6C416.7,236.9,396.3,217.3,396.3,181.3z"/>
		<path class="st1" d="M623.7,233.8H598v-154h-50.5v154h-25.8V55.3h102V233.8z"/>
		<path class="st1" d="M654.1,55.3h25.2v78c0,12.8-1,36-2.8,51.5l0.8,0.5c3.3-8.7,7.9-21.2,12.8-31.6l43.4-98.4h26.3v178.5h-25.2
			v-77.8c0-13.5,1-37.5,2.3-52.3l-0.8-0.5c-3.3,9.2-8.4,23-12.8,32.9l-43.1,97.7h-26V55.3z"/>
		<path class="st1" d="M892.3,55.3v178.5h-25.8v-78.3H816v78.3h-25.8V55.3H816v76h50.5v-76H892.3z"/>
		<path class="st1" d="M917.7,177.2v-65.3c0-37.2,20.4-59.9,54.6-59.9s54.6,22.7,54.6,59.9v65.3c0,37.2-20.4,59.9-54.6,59.9
			S917.7,214.5,917.7,177.2z M1000.4,177.2v-65.3c0-22.4-9.7-34.7-28.1-34.7c-18.6,0-28.1,12.2-28.1,34.7v65.3
			c0,22.4,9.4,34.7,28.1,34.7C990.7,211.9,1000.4,199.7,1000.4,177.2z"/>
		<path class="st1" d="M1052.4,55.3h25.2v78c0,12.8-1,36-2.8,51.5l0.8,0.5c3.3-8.7,7.9-21.2,12.8-31.6l43.4-98.4h26.3v178.5h-25.2
			v-77.8c0-13.5,1-37.5,2.3-52.3l-0.8-0.5c-3.3,9.2-8.4,23-12.8,32.9l-43.1,97.7h-26V55.3z M1075.1,7.4h17.6
			c0.5,8.9,5.4,13.5,13,13.5c7.9,0,12.8-4.6,13.3-13.5h17.6c-0.8,19.6-13,30.6-30.6,30.6C1088.1,38,1075.8,26.8,1075.1,7.4z"/>
	</g>
	<g class="st0">
		<path class="st1" d="M125.4,55.5V234H99.6V79.7H61.9c-2.6,52-4.8,92.8-8.2,114c-4.6,32.4-19.6,42.8-44.4,42.8v-23.5
			c11.2,0,16.8-6.9,19.6-25.2c2.8-18.6,5.1-58.7,8.2-132.3H125.4z"/>
		<path class="st1" d="M181,165.2c-20.4-6.9-31.9-25.8-31.9-52.3c0-36.5,19.9-57.4,53.3-57.4h45.9V234h-25.8v-64.5h-15.8L171,234
			h-28.6L181,165.2z M222.5,145.3V80h-19.9c-17.9,0-27.3,11-27.3,32.4c0,21.2,9.4,32.9,27,32.9H222.5z"/>
		<path class="st1" d="M364.3,80h-59.7v154h-25.8V55.5h85.4V80z"/>
		<path class="st1" d="M348.5,221.3c0-9.2,6.4-15.3,15.6-15.3s15.6,6.1,15.6,15.3c0,9.4-6.4,15.6-15.6,15.6S348.5,230.7,348.5,221.3
			z"/>
		<path class="st1" d="M396.4,181.5V108c0-36.2,20.1-55.8,51.5-55.8c32.4,0,51.5,19.4,53,54.8h-25.5c-1.5-20.9-10.7-30.3-27.8-30.3
			c-15,0-25,9.9-25,31.4v73.4c0,21.2,9.9,31.1,25.5,31.1c17.3,0,26.5-9.7,28.3-30.1H502c-1.8,35.2-20.9,54.6-53.8,54.6
			C416.8,237.1,396.4,217.4,396.4,181.5z"/>
		<path class="st1" d="M623.9,234h-25.8V80h-50.5v154h-25.8V55.5h102V234z"/>
		<path class="st1" d="M654.2,55.5h25.2v78c0,12.8-1,36-2.8,51.5l0.8,0.5c3.3-8.7,7.9-21.2,12.8-31.6l43.4-98.4h26.3V234h-25.2
			v-77.8c0-13.5,1-37.5,2.3-52.3l-0.8-0.5c-3.3,9.2-8.4,23-12.8,32.9L680.2,234h-26V55.5z"/>
		<path class="st1" d="M892.4,55.5V234h-25.8v-78.3h-50.5V234h-25.8V55.5h25.8v76h50.5v-76H892.4z"/>
		<path class="st1" d="M917.9,177.4v-65.3c0-37.2,20.4-59.9,54.6-59.9s54.6,22.7,54.6,59.9v65.3c0,37.2-20.4,59.9-54.6,59.9
			S917.9,214.6,917.9,177.4z M1000.5,177.4v-65.3c0-22.4-9.7-34.7-28.1-34.7c-18.6,0-28.1,12.2-28.1,34.7v65.3
			c0,22.4,9.4,34.7,28.1,34.7C990.8,212.1,1000.5,199.8,1000.5,177.4z"/>
		<path class="st1" d="M1052.5,55.5h25.2v78c0,12.8-1,36-2.8,51.5l0.8,0.5c3.3-8.7,7.9-21.2,12.8-31.6l43.4-98.4h26.3V234h-25.2
			v-77.8c0-13.5,1-37.5,2.3-52.3l-0.8-0.5c-3.3,9.2-8.4,23-12.8,32.9l-43.1,97.7h-26V55.5z M1075.2,7.6h17.6
			c0.5,8.9,5.4,13.5,13,13.5c7.9,0,12.8-4.6,13.3-13.5h17.6c-0.8,19.6-13,30.6-30.6,30.6C1088.2,38.2,1076,27,1075.2,7.6z"/>
	</g>
	<g class="st0">
		<path class="st1" d="M125.5,55.7v178.5H99.8V79.9H62c-2.6,52-4.8,92.8-8.2,114c-4.6,32.4-19.6,42.8-44.4,42.8v-23.5
			c11.2,0,16.8-6.9,19.6-25.2c2.8-18.6,5.1-58.7,8.2-132.3H125.5z"/>
		<path class="st1" d="M181.1,165.4c-20.4-6.9-31.9-25.8-31.9-52.3c0-36.5,19.9-57.4,53.3-57.4h45.9v178.5h-25.8v-64.5h-15.8
			l-35.7,64.5h-28.6L181.1,165.4z M222.7,145.5V80.2h-19.9c-17.9,0-27.3,11-27.3,32.4c0,21.2,9.4,32.9,27,32.9H222.7z"/>
		<path class="st1" d="M364.5,80.2h-59.7v154H279V55.7h85.4V80.2z"/>
		<path class="st1" d="M348.7,221.5c0-9.2,6.4-15.3,15.6-15.3s15.6,6.1,15.6,15.3c0,9.4-6.4,15.6-15.6,15.6S348.7,230.9,348.7,221.5
			z"/>
		<path class="st1" d="M396.6,181.7v-73.4c0-36.2,20.1-55.8,51.5-55.8c32.4,0,51.5,19.4,53,54.8h-25.5
			c-1.5-20.9-10.7-30.3-27.8-30.3c-15,0-25,9.9-25,31.4v73.4c0,21.2,9.9,31.1,25.5,31.1c17.3,0,26.5-9.7,28.3-30.1h25.5
			c-1.8,35.2-20.9,54.6-53.8,54.6C417,237.3,396.6,217.6,396.6,181.7z"/>
		<path class="st1" d="M624.1,234.2h-25.8v-154h-50.5v154h-25.8V55.7h102V234.2z"/>
		<path class="st1" d="M654.4,55.7h25.2v78c0,12.8-1,36-2.8,51.5l0.8,0.5c3.3-8.7,7.9-21.2,12.8-31.6l43.4-98.4H760v178.5h-25.2
			v-77.8c0-13.5,1-37.5,2.3-52.3l-0.8-0.5c-3.3,9.2-8.4,23-12.8,32.9l-43.1,97.7h-26V55.7z"/>
		<path class="st1" d="M892.6,55.7v178.5h-25.8v-78.3h-50.5v78.3h-25.8V55.7h25.8v76h50.5v-76H892.6z"/>
		<path class="st1" d="M918.1,177.6v-65.3c0-37.2,20.4-59.9,54.6-59.9s54.6,22.7,54.6,59.9v65.3c0,37.2-20.4,59.9-54.6,59.9
			S918.1,214.8,918.1,177.6z M1000.7,177.6v-65.3c0-22.4-9.7-34.7-28.1-34.7c-18.6,0-28.1,12.2-28.1,34.7v65.3
			c0,22.4,9.4,34.7,28.1,34.7C991,212.3,1000.7,200,1000.7,177.6z"/>
		<path class="st1" d="M1052.7,55.7h25.2v78c0,12.8-1,36-2.8,51.5l0.8,0.5c3.3-8.7,7.9-21.2,12.8-31.6l43.4-98.4h26.3v178.5H1133
			v-77.8c0-13.5,1-37.5,2.3-52.3l-0.8-0.5c-3.3,9.2-8.4,23-12.8,32.9l-43.1,97.7h-26V55.7z M1075.4,7.8h17.6
			c0.5,8.9,5.4,13.5,13,13.5c7.9,0,12.8-4.6,13.3-13.5h17.6c-0.8,19.6-13,30.6-30.6,30.6C1088.4,38.4,1076.2,27.1,1075.4,7.8z"/>
	</g>
	<g class="st0">
		<path class="st1" d="M125.7,55.9v178.5H99.9V80.1H62.2c-2.6,52-4.8,92.8-8.2,114c-4.6,32.4-19.6,42.8-44.4,42.8v-23.5
			c11.2,0,16.8-6.9,19.6-25.2c2.8-18.6,5.1-58.7,8.2-132.3H125.7z"/>
		<path class="st1" d="M181.3,165.5c-20.4-6.9-31.9-25.8-31.9-52.3c0-36.5,19.9-57.4,53.3-57.4h45.9v178.5h-25.8v-64.5H207
			l-35.7,64.5h-28.6L181.3,165.5z M222.8,145.7V80.4H203c-17.9,0-27.3,11-27.3,32.4c0,21.2,9.4,32.9,27,32.9H222.8z"/>
		<path class="st1" d="M364.6,80.4H305v154h-25.8V55.9h85.4V80.4z"/>
		<path class="st1" d="M348.8,221.6c0-9.2,6.4-15.3,15.6-15.3s15.6,6.1,15.6,15.3c0,9.4-6.4,15.6-15.6,15.6S348.8,231.1,348.8,221.6
			z"/>
		<path class="st1" d="M396.8,181.9v-73.4c0-36.2,20.1-55.8,51.5-55.8c32.4,0,51.5,19.4,53,54.8h-25.5
			c-1.5-20.9-10.7-30.3-27.8-30.3c-15,0-25,9.9-25,31.4v73.4c0,21.2,9.9,31.1,25.5,31.1c17.3,0,26.5-9.7,28.3-30.1h25.5
			c-1.8,35.2-20.9,54.6-53.8,54.6C417.2,237.5,396.8,217.8,396.8,181.9z"/>
		<path class="st1" d="M624.2,234.4h-25.8v-154H548v154h-25.8V55.9h102V234.4z"/>
		<path class="st1" d="M654.6,55.9h25.2v78c0,12.8-1,36-2.8,51.5l0.8,0.5c3.3-8.7,7.9-21.2,12.8-31.6l43.4-98.4h26.3v178.5h-25.2
			v-77.8c0-13.5,1-37.5,2.3-52.3l-0.8-0.5c-3.3,9.2-8.4,23-12.8,32.9l-43.1,97.7h-26V55.9z"/>
		<path class="st1" d="M892.7,55.9v178.5H867v-78.3h-50.5v78.3h-25.8V55.9h25.8v76H867v-76H892.7z"/>
		<path class="st1" d="M918.2,177.8v-65.3c0-37.2,20.4-59.9,54.6-59.9s54.6,22.7,54.6,59.9v65.3c0,37.2-20.4,59.9-54.6,59.9
			S918.2,215,918.2,177.8z M1000.8,177.8v-65.3c0-22.4-9.7-34.7-28.1-34.7c-18.6,0-28.1,12.2-28.1,34.7v65.3
			c0,22.4,9.4,34.7,28.1,34.7C991.1,212.5,1000.8,200.2,1000.8,177.8z"/>
		<path class="st1" d="M1052.9,55.9h25.2v78c0,12.8-1,36-2.8,51.5l0.8,0.5c3.3-8.7,7.9-21.2,12.8-31.6l43.4-98.4h26.3v178.5h-25.2
			v-77.8c0-13.5,1-37.5,2.3-52.3l-0.8-0.5c-3.3,9.2-8.4,23-12.8,32.9l-43.1,97.7h-26V55.9z M1075.6,8h17.6c0.5,8.9,5.4,13.5,13,13.5
			c7.9,0,12.8-4.6,13.3-13.5h17.6c-0.8,19.6-13,30.6-30.6,30.6C1088.6,38.6,1076.3,27.3,1075.6,8z"/>
	</g>
	<g class="st0">
		<path class="st1" d="M125.8,56.1v178.5h-25.8V80.3H62.4c-2.6,52-4.8,92.8-8.2,114c-4.6,32.4-19.6,42.8-44.4,42.8v-23.5
			c11.2,0,16.8-6.9,19.6-25.2c2.8-18.6,5.1-58.7,8.2-132.3H125.8z"/>
		<path class="st1" d="M181.4,165.7c-20.4-6.9-31.9-25.8-31.9-52.3c0-36.5,19.9-57.4,53.3-57.4h45.9v178.5H223v-64.5h-15.8
			l-35.7,64.5h-28.6L181.4,165.7z M223,145.8V80.6h-19.9c-17.9,0-27.3,11-27.3,32.4c0,21.2,9.4,32.9,27,32.9H223z"/>
		<path class="st1" d="M364.8,80.6h-59.7v154h-25.8V56.1h85.4V80.6z"/>
		<path class="st1" d="M349,221.8c0-9.2,6.4-15.3,15.6-15.3s15.6,6.1,15.6,15.3c0,9.4-6.4,15.6-15.6,15.6S349,231.3,349,221.8z"/>
		<path class="st1" d="M396.9,182.1v-73.4c0-36.2,20.1-55.8,51.5-55.8c32.4,0,51.5,19.4,53,54.8H476c-1.5-20.9-10.7-30.3-27.8-30.3
			c-15,0-25,9.9-25,31.4v73.4c0,21.2,9.9,31.1,25.5,31.1c17.3,0,26.5-9.7,28.3-30.1h25.5c-1.8,35.2-20.9,54.6-53.8,54.6
			C417.3,237.6,396.9,218,396.9,182.1z"/>
		<path class="st1" d="M624.4,234.6h-25.8v-154h-50.5v154h-25.8V56.1h102V234.6z"/>
		<path class="st1" d="M654.7,56.1H680v78c0,12.8-1,36-2.8,51.5l0.8,0.5c3.3-8.7,7.9-21.2,12.8-31.6L734,56.1h26.3v178.5H735v-77.8
			c0-13.5,1-37.5,2.3-52.3l-0.8-0.5c-3.3,9.2-8.4,23-12.8,32.9l-43.1,97.7h-26V56.1z"/>
		<path class="st1" d="M892.9,56.1v178.5h-25.8v-78.3h-50.5v78.3h-25.8V56.1h25.8v76h50.5v-76H892.9z"/>
		<path class="st1" d="M918.4,178v-65.3c0-37.2,20.4-59.9,54.6-59.9s54.6,22.7,54.6,59.9V178c0,37.2-20.4,59.9-54.6,59.9
			S918.4,215.2,918.4,178z M1001,178v-65.3c0-22.4-9.7-34.7-28.1-34.7c-18.6,0-28.1,12.2-28.1,34.7V178c0,22.4,9.4,34.7,28.1,34.7
			C991.3,212.7,1001,200.4,1001,178z"/>
		<path class="st1" d="M1053,56.1h25.2v78c0,12.8-1,36-2.8,51.5l0.8,0.5c3.3-8.7,7.9-21.2,12.8-31.6l43.4-98.4h26.3v178.5h-25.2
			v-77.8c0-13.5,1-37.5,2.3-52.3l-0.8-0.5c-3.3,9.2-8.4,23-12.8,32.9l-43.1,97.7h-26V56.1z M1075.7,8.1h17.6
			c0.5,8.9,5.4,13.5,13,13.5c7.9,0,12.8-4.6,13.3-13.5h17.6c-0.8,19.6-13,30.6-30.6,30.6C1088.7,38.7,1076.5,27.5,1075.7,8.1z"/>
	</g>
	<g class="st0">
		<path class="st1" d="M126,56.3v178.5h-25.8V80.5H62.5c-2.6,52-4.8,92.8-8.2,114c-4.6,32.4-19.6,42.8-44.4,42.8v-23.5
			c11.2,0,16.8-6.9,19.6-25.2c2.8-18.6,5.1-58.7,8.2-132.3H126z"/>
		<path class="st1" d="M181.6,165.9c-20.4-6.9-31.9-25.8-31.9-52.3c0-36.5,19.9-57.4,53.3-57.4h45.9v178.5h-25.8v-64.5h-15.8
			l-35.7,64.5h-28.6L181.6,165.9z M223.2,146V80.7h-19.9c-17.9,0-27.3,11-27.3,32.4c0,21.2,9.4,32.9,27,32.9H223.2z"/>
		<path class="st1" d="M364.9,80.7h-59.7v154h-25.8V56.3h85.4V80.7z"/>
		<path class="st1" d="M349.1,222c0-9.2,6.4-15.3,15.6-15.3s15.6,6.1,15.6,15.3c0,9.4-6.4,15.6-15.6,15.6S349.1,231.5,349.1,222z"/>
		<path class="st1" d="M397.1,182.2v-73.4c0-36.2,20.1-55.8,51.5-55.8c32.4,0,51.5,19.4,53,54.8h-25.5
			c-1.5-20.9-10.7-30.3-27.8-30.3c-15,0-25,9.9-25,31.4v73.4c0,21.2,9.9,31.1,25.5,31.1c17.3,0,26.5-9.7,28.3-30.1h25.5
			c-1.8,35.2-20.9,54.6-53.8,54.6C417.5,237.8,397.1,218.2,397.1,182.2z"/>
		<path class="st1" d="M624.5,234.8h-25.8v-154h-50.5v154h-25.8V56.3h102V234.8z"/>
		<path class="st1" d="M654.9,56.3h25.2v78c0,12.8-1,36-2.8,51.5l0.8,0.5c3.3-8.7,7.9-21.2,12.8-31.6l43.4-98.4h26.3v178.5h-25.2
			V157c0-13.5,1-37.5,2.3-52.3l-0.8-0.5c-3.3,9.2-8.4,23-12.8,32.9l-43.1,97.7h-26V56.3z"/>
		<path class="st1" d="M893,56.3v178.5h-25.8v-78.3h-50.5v78.3H791V56.3h25.8v76h50.5v-76H893z"/>
		<path class="st1" d="M918.5,178.2v-65.3c0-37.2,20.4-59.9,54.6-59.9s54.6,22.7,54.6,59.9v65.3c0,37.2-20.4,59.9-54.6,59.9
			S918.5,215.4,918.5,178.2z M1001.2,178.2v-65.3c0-22.4-9.7-34.7-28.1-34.7c-18.6,0-28.1,12.2-28.1,34.7v65.3
			c0,22.4,9.4,34.7,28.1,34.7C991.5,212.8,1001.2,200.6,1001.2,178.2z"/>
		<path class="st1" d="M1053.2,56.3h25.2v78c0,12.8-1,36-2.8,51.5l0.8,0.5c3.3-8.7,7.9-21.2,12.8-31.6l43.4-98.4h26.3v178.5h-25.2
			V157c0-13.5,1-37.5,2.3-52.3l-0.8-0.5c-3.3,9.2-8.4,23-12.8,32.9l-43.1,97.7h-26V56.3z M1075.9,8.3h17.6c0.5,8.9,5.4,13.5,13,13.5
			c7.9,0,12.8-4.6,13.3-13.5h17.6c-0.8,19.6-13,30.6-30.6,30.6C1088.9,38.9,1076.6,27.7,1075.9,8.3z"/>
	</g>
	<g class="st0">
		<path class="st1" d="M126.2,56.5V235h-25.8V80.7H62.7c-2.6,52-4.8,92.8-8.2,114c-4.6,32.4-19.6,42.8-44.4,42.8V214
			c11.2,0,16.8-6.9,19.6-25.2c2.8-18.6,5.1-58.7,8.2-132.3H126.2z"/>
		<path class="st1" d="M181.7,166.1c-20.4-6.9-31.9-25.8-31.9-52.3c0-36.5,19.9-57.4,53.3-57.4h45.9V235h-25.8v-64.5h-15.8
			L171.8,235h-28.6L181.7,166.1z M223.3,146.2V80.9h-19.9c-17.9,0-27.3,11-27.3,32.4c0,21.2,9.4,32.9,27,32.9H223.3z"/>
		<path class="st1" d="M365.1,80.9h-59.7v154h-25.8V56.5h85.4V80.9z"/>
		<path class="st1" d="M349.3,222.2c0-9.2,6.4-15.3,15.6-15.3s15.6,6.1,15.6,15.3c0,9.4-6.4,15.6-15.6,15.6S349.3,231.6,349.3,222.2
			z"/>
		<path class="st1" d="M397.2,182.4V109c0-36.2,20.1-55.8,51.5-55.8c32.4,0,51.5,19.4,53,54.8h-25.5c-1.5-20.9-10.7-30.3-27.8-30.3
			c-15,0-25,9.9-25,31.4v73.4c0,21.2,9.9,31.1,25.5,31.1c17.3,0,26.5-9.7,28.3-30.1h25.5C501,218.6,481.9,238,449,238
			C417.6,238,397.2,218.4,397.2,182.4z"/>
		<path class="st1" d="M624.7,235h-25.8v-154h-50.5v154h-25.8V56.5h102V235z"/>
		<path class="st1" d="M655,56.5h25.2v78c0,12.8-1,36-2.8,51.5l0.8,0.5c3.3-8.7,7.9-21.2,12.8-31.6l43.4-98.4h26.3V235h-25.2v-77.8
			c0-13.5,1-37.5,2.3-52.3l-0.8-0.5c-3.3,9.2-8.4,23-12.8,32.9L681,235h-26V56.5z"/>
		<path class="st1" d="M893.2,56.5V235h-25.8v-78.3h-50.5V235h-25.8V56.5h25.8v76h50.5v-76H893.2z"/>
		<path class="st1" d="M918.7,178.3v-65.3c0-37.2,20.4-59.9,54.6-59.9s54.6,22.7,54.6,59.9v65.3c0,37.2-20.4,59.9-54.6,59.9
			S918.7,215.6,918.7,178.3z M1001.3,178.3v-65.3c0-22.4-9.7-34.7-28.1-34.7c-18.6,0-28.1,12.2-28.1,34.7v65.3
			c0,22.4,9.4,34.7,28.1,34.7C991.6,213,1001.3,200.8,1001.3,178.3z"/>
		<path class="st1" d="M1053.3,56.5h25.2v78c0,12.8-1,36-2.8,51.5l0.8,0.5c3.3-8.7,7.9-21.2,12.8-31.6l43.4-98.4h26.3V235h-25.2
			v-77.8c0-13.5,1-37.5,2.3-52.3l-0.8-0.5c-3.3,9.2-8.4,23-12.8,32.9l-43.1,97.7h-26V56.5z M1076,8.5h17.6c0.5,8.9,5.4,13.5,13,13.5
			c7.9,0,12.8-4.6,13.3-13.5h17.6c-0.8,19.6-13,30.6-30.6,30.6C1089,39.1,1076.8,27.9,1076,8.5z"/>
	</g>
	<g class="st0">
		<path class="st1" d="M126.3,56.6v178.5h-25.8V80.9H62.8c-2.6,52-4.8,92.8-8.2,114c-4.6,32.4-19.6,42.8-44.4,42.8v-23.5
			c11.2,0,16.8-6.9,19.6-25.2c2.8-18.6,5.1-58.7,8.2-132.3H126.3z"/>
		<path class="st1" d="M181.9,166.3c-20.4-6.9-31.9-25.8-31.9-52.3c0-36.5,19.9-57.4,53.3-57.4h45.9v178.5h-25.8v-64.5h-15.8
			L172,235.1h-28.6L181.9,166.3z M223.5,146.4V81.1h-19.9c-17.9,0-27.3,11-27.3,32.4c0,21.2,9.4,32.9,27,32.9H223.5z"/>
		<path class="st1" d="M365.3,81.1h-59.7v154h-25.8V56.6h85.4V81.1z"/>
		<path class="st1" d="M349.4,222.4c0-9.2,6.4-15.3,15.6-15.3s15.6,6.1,15.6,15.3c0,9.4-6.4,15.6-15.6,15.6S349.4,231.8,349.4,222.4
			z"/>
		<path class="st1" d="M397.4,182.6v-73.4c0-36.2,20.1-55.8,51.5-55.8c32.4,0,51.5,19.4,53,54.8h-25.5
			c-1.5-20.9-10.7-30.3-27.8-30.3c-15,0-25,9.9-25,31.4v73.4c0,21.2,9.9,31.1,25.5,31.1c17.3,0,26.5-9.7,28.3-30.1H503
			c-1.8,35.2-20.9,54.6-53.8,54.6C417.8,238.2,397.4,218.6,397.4,182.6z"/>
		<path class="st1" d="M624.8,235.1h-25.8v-154h-50.5v154h-25.8V56.6h102V235.1z"/>
		<path class="st1" d="M655.2,56.6h25.2v78c0,12.8-1,36-2.8,51.5l0.8,0.5c3.3-8.7,7.9-21.2,12.8-31.6l43.4-98.4h26.3v178.5h-25.2
			v-77.8c0-13.5,1-37.5,2.3-52.3l-0.8-0.5c-3.3,9.2-8.4,23-12.8,32.9l-43.1,97.7h-26V56.6z"/>
		<path class="st1" d="M893.3,56.6v178.5h-25.8v-78.3h-50.5v78.3h-25.8V56.6h25.8v76h50.5v-76H893.3z"/>
		<path class="st1" d="M918.8,178.5v-65.3c0-37.2,20.4-59.9,54.6-59.9S1028,76,1028,113.3v65.3c0,37.2-20.4,59.9-54.6,59.9
			S918.8,215.8,918.8,178.5z M1001.5,178.5v-65.3c0-22.4-9.7-34.7-28.1-34.7c-18.6,0-28.1,12.2-28.1,34.7v65.3
			c0,22.4,9.4,34.7,28.1,34.7C991.8,213.2,1001.5,201,1001.5,178.5z"/>
		<path class="st1" d="M1053.5,56.6h25.2v78c0,12.8-1,36-2.8,51.5l0.8,0.5c3.3-8.7,7.9-21.2,12.8-31.6l43.4-98.4h26.3v178.5h-25.2
			v-77.8c0-13.5,1-37.5,2.3-52.3l-0.8-0.5c-3.3,9.2-8.4,23-12.8,32.9l-43.1,97.7h-26V56.6z M1076.2,8.7h17.6
			c0.5,8.9,5.4,13.5,13,13.5c7.9,0,12.8-4.6,13.3-13.5h17.6c-0.8,19.6-13,30.6-30.6,30.6C1089.2,39.3,1076.9,28.1,1076.2,8.7z"/>
	</g>
	<g class="st0">
		<path class="st1" d="M126.5,56.8v178.5h-25.8V81.1H63c-2.6,52-4.8,92.8-8.2,114c-4.6,32.4-19.6,42.8-44.4,42.8v-23.5
			c11.2,0,16.8-6.9,19.6-25.2c2.8-18.6,5.1-58.7,8.2-132.3H126.5z"/>
		<path class="st1" d="M182.1,166.5c-20.4-6.9-31.9-25.8-31.9-52.3c0-36.5,19.9-57.4,53.3-57.4h45.9v178.5h-25.8v-64.5h-15.8
			l-35.7,64.5h-28.6L182.1,166.5z M223.6,146.6V81.3h-19.9c-17.9,0-27.3,11-27.3,32.4c0,21.2,9.4,32.9,27,32.9H223.6z"/>
		<path class="st1" d="M365.4,81.3h-59.7v154H280V56.8h85.4V81.3z"/>
		<path class="st1" d="M349.6,222.6c0-9.2,6.4-15.3,15.6-15.3s15.6,6.1,15.6,15.3c0,9.4-6.4,15.6-15.6,15.6S349.6,232,349.6,222.6z"
			/>
		<path class="st1" d="M397.5,182.8v-73.4c0-36.2,20.1-55.8,51.5-55.8c32.4,0,51.5,19.4,53,54.8h-25.5C475.1,87.4,465.9,78,448.8,78
			c-15,0-25,9.9-25,31.4v73.4c0,21.2,9.9,31.1,25.5,31.1c17.3,0,26.5-9.7,28.3-30.1h25.5c-1.8,35.2-20.9,54.6-53.8,54.6
			C417.9,238.4,397.5,218.8,397.5,182.8z"/>
		<path class="st1" d="M625,235.3h-25.8v-154h-50.5v154H523V56.8h102V235.3z"/>
		<path class="st1" d="M655.3,56.8h25.2v78c0,12.8-1,36-2.8,51.5l0.8,0.5c3.3-8.7,7.9-21.2,12.8-31.6l43.4-98.4h26.3v178.5h-25.2
			v-77.8c0-13.5,1-37.5,2.3-52.3l-0.8-0.5c-3.3,9.2-8.4,23-12.8,32.9l-43.1,97.7h-26V56.8z"/>
		<path class="st1" d="M893.5,56.8v178.5h-25.8V157h-50.5v78.3h-25.8V56.8h25.8v76h50.5v-76H893.5z"/>
		<path class="st1" d="M919,178.7v-65.3c0-37.2,20.4-59.9,54.6-59.9s54.6,22.7,54.6,59.9v65.3c0,37.2-20.4,59.9-54.6,59.9
			S919,216,919,178.7z M1001.6,178.7v-65.3c0-22.4-9.7-34.7-28.1-34.7c-18.6,0-28.1,12.2-28.1,34.7v65.3c0,22.4,9.4,34.7,28.1,34.7
			C991.9,213.4,1001.6,201.2,1001.6,178.7z"/>
		<path class="st1" d="M1053.6,56.8h25.2v78c0,12.8-1,36-2.8,51.5l0.8,0.5c3.3-8.7,7.9-21.2,12.8-31.6l43.4-98.4h26.3v178.5H1134
			v-77.8c0-13.5,1-37.5,2.3-52.3l-0.8-0.5c-3.3,9.2-8.4,23-12.8,32.9l-43.1,97.7h-26V56.8z M1076.3,8.9h17.6
			c0.5,8.9,5.4,13.5,13,13.5c7.9,0,12.8-4.6,13.3-13.5h17.6c-0.8,19.6-13,30.6-30.6,30.6C1089.3,39.5,1077.1,28.3,1076.3,8.9z"/>
	</g>
	<g class="st0">
		<path class="st1" d="M126.6,57v178.5h-25.8V81.2H63.1c-2.6,52-4.8,92.8-8.2,114c-4.6,32.4-19.6,42.8-44.4,42.8v-23.5
			c11.2,0,16.8-6.9,19.6-25.2c2.8-18.6,5.1-58.7,8.2-132.3H126.6z"/>
		<path class="st1" d="M182.2,166.7c-20.4-6.9-31.9-25.8-31.9-52.3c0-36.5,19.9-57.4,53.3-57.4h45.9v178.5h-25.8V171H208l-35.7,64.5
			h-28.6L182.2,166.7z M223.8,146.8V81.5h-19.9c-17.9,0-27.3,11-27.3,32.4c0,21.2,9.4,32.9,27,32.9H223.8z"/>
		<path class="st1" d="M365.6,81.5h-59.7v154h-25.8V57h85.4V81.5z"/>
		<path class="st1" d="M349.8,222.8c0-9.2,6.4-15.3,15.6-15.3s15.6,6.1,15.6,15.3c0,9.4-6.4,15.6-15.6,15.6S349.8,232.2,349.8,222.8
			z"/>
		<path class="st1" d="M397.7,183v-73.4c0-36.2,20.1-55.8,51.5-55.8c32.4,0,51.5,19.4,53,54.8h-25.5c-1.5-20.9-10.7-30.3-27.8-30.3
			c-15,0-25,9.9-25,31.4V183c0,21.2,9.9,31.1,25.5,31.1c17.3,0,26.5-9.7,28.3-30.1h25.5c-1.8,35.2-20.9,54.6-53.8,54.6
			C418.1,238.6,397.7,218.9,397.7,183z"/>
		<path class="st1" d="M625.1,235.5h-25.8v-154h-50.5v154h-25.8V57h102V235.5z"/>
		<path class="st1" d="M655.5,57h25.2v78c0,12.8-1,36-2.8,51.5l0.8,0.5c3.3-8.7,7.9-21.2,12.8-31.6L734.8,57h26.3v178.5h-25.2v-77.8
			c0-13.5,1-37.5,2.3-52.3l-0.8-0.5c-3.3,9.2-8.4,23-12.8,32.9l-43.1,97.7h-26V57z"/>
		<path class="st1" d="M893.7,57v178.5h-25.8v-78.3h-50.5v78.3h-25.8V57h25.8v76h50.5V57H893.7z"/>
		<path class="st1" d="M919.2,178.9v-65.3c0-37.2,20.4-59.9,54.6-59.9s54.6,22.7,54.6,59.9v65.3c0,37.2-20.4,59.9-54.6,59.9
			S919.2,216.1,919.2,178.9z M1001.8,178.9v-65.3c0-22.4-9.7-34.7-28.1-34.7c-18.6,0-28.1,12.2-28.1,34.7v65.3
			c0,22.4,9.4,34.7,28.1,34.7C992.1,213.6,1001.8,201.3,1001.8,178.9z"/>
		<path class="st1" d="M1053.8,57h25.2v78c0,12.8-1,36-2.8,51.5l0.8,0.5c3.3-8.7,7.9-21.2,12.8-31.6l43.4-98.4h26.3v178.5h-25.2
			v-77.8c0-13.5,1-37.5,2.3-52.3l-0.8-0.5c-3.3,9.2-8.4,23-12.8,32.9l-43.1,97.7h-26V57z M1076.5,9.1h17.6c0.5,8.9,5.4,13.5,13,13.5
			c7.9,0,12.8-4.6,13.3-13.5h17.6c-0.8,19.6-13,30.6-30.6,30.6C1089.5,39.7,1077.3,28.5,1076.5,9.1z"/>
	</g>
	<g class="st0">
		<path class="st1" d="M126.8,57.2v178.5H101V81.4H63.3c-2.6,52-4.8,92.8-8.2,114c-4.6,32.4-19.6,42.8-44.4,42.8v-23.5
			c11.2,0,16.8-6.9,19.6-25.2c2.8-18.6,5.1-58.7,8.2-132.3H126.8z"/>
		<path class="st1" d="M182.4,166.9c-20.4-6.9-31.9-25.8-31.9-52.3c0-36.5,19.9-57.4,53.3-57.4h45.9v178.5h-25.8v-64.5h-15.8
			l-35.7,64.5h-28.6L182.4,166.9z M223.9,147V81.7H204c-17.9,0-27.3,11-27.3,32.4c0,21.2,9.4,32.9,27,32.9H223.9z"/>
		<path class="st1" d="M365.7,81.7H306v154h-25.8V57.2h85.4V81.7z"/>
		<path class="st1" d="M349.9,223c0-9.2,6.4-15.3,15.6-15.3S381,213.8,381,223c0,9.4-6.4,15.6-15.6,15.6S349.9,232.4,349.9,223z"/>
		<path class="st1" d="M397.8,183.2v-73.4c0-36.2,20.1-55.8,51.5-55.8c32.4,0,51.5,19.4,53,54.8h-25.5
			c-1.5-20.9-10.7-30.3-27.8-30.3c-15,0-25,9.9-25,31.4v73.4c0,21.2,9.9,31.1,25.5,31.1c17.3,0,26.5-9.7,28.3-30.1h25.5
			c-1.8,35.2-20.9,54.6-53.8,54.6C418.2,238.8,397.8,219.1,397.8,183.2z"/>
		<path class="st1" d="M625.3,235.7h-25.8v-154h-50.5v154h-25.8V57.2h102V235.7z"/>
		<path class="st1" d="M655.6,57.2h25.2v78c0,12.8-1,36-2.8,51.5l0.8,0.5c3.3-8.7,7.9-21.2,12.8-31.6L735,57.2h26.3v178.5H736v-77.8
			c0-13.5,1-37.5,2.3-52.3l-0.8-0.5c-3.3,9.2-8.4,23-12.8,32.9l-43.1,97.7h-26V57.2z"/>
		<path class="st1" d="M893.8,57.2v178.5h-25.8v-78.3h-50.5v78.3h-25.8V57.2h25.8v76h50.5v-76H893.8z"/>
		<path class="st1" d="M919.3,179.1v-65.3c0-37.2,20.4-59.9,54.6-59.9s54.6,22.7,54.6,59.9v65.3c0,37.2-20.4,59.9-54.6,59.9
			S919.3,216.3,919.3,179.1z M1001.9,179.1v-65.3c0-22.4-9.7-34.7-28.1-34.7c-18.6,0-28.1,12.2-28.1,34.7v65.3
			c0,22.4,9.4,34.7,28.1,34.7C992.2,213.8,1001.9,201.5,1001.9,179.1z"/>
		<path class="st1" d="M1054,57.2h25.2v78c0,12.8-1,36-2.8,51.5l0.8,0.5c3.3-8.7,7.9-21.2,12.8-31.6l43.4-98.4h26.3v178.5h-25.2
			v-77.8c0-13.5,1-37.5,2.3-52.3l-0.8-0.5c-3.3,9.2-8.4,23-12.8,32.9l-43.1,97.7h-26V57.2z M1076.6,9.3h17.6
			c0.5,8.9,5.4,13.5,13,13.5c7.9,0,12.8-4.6,13.3-13.5h17.6c-0.8,19.6-13,30.6-30.6,30.6C1089.7,39.9,1077.4,28.6,1076.6,9.3z"/>
	</g>
	<g class="st0">
		<path class="st1" d="M126.9,57.4v178.5h-25.8V81.6H63.4c-2.6,52-4.8,92.8-8.2,114c-4.6,32.4-19.6,42.8-44.4,42.8V215
			c11.2,0,16.8-6.9,19.6-25.2c2.8-18.6,5.1-58.7,8.2-132.3H126.9z"/>
		<path class="st1" d="M182.5,167c-20.4-6.9-31.9-25.8-31.9-52.3c0-36.5,19.9-57.4,53.3-57.4h45.9v178.5h-25.8v-64.5h-15.8
			l-35.7,64.5H144L182.5,167z M224.1,147.2V81.9h-19.9c-17.9,0-27.3,11-27.3,32.4c0,21.2,9.4,32.9,27,32.9H224.1z"/>
		<path class="st1" d="M365.9,81.9h-59.7v154h-25.8V57.4h85.4V81.9z"/>
		<path class="st1" d="M350.1,223.1c0-9.2,6.4-15.3,15.6-15.3s15.6,6.1,15.6,15.3c0,9.4-6.4,15.6-15.6,15.6S350.1,232.6,350.1,223.1
			z"/>
		<path class="st1" d="M398,183.4v-73.4c0-36.2,20.1-55.8,51.5-55.8c32.4,0,51.5,19.4,53,54.8h-25.5c-1.5-20.9-10.7-30.3-27.8-30.3
			c-15,0-25,9.9-25,31.4v73.4c0,21.2,9.9,31.1,25.5,31.1c17.3,0,26.5-9.7,28.3-30.1h25.5c-1.8,35.2-20.9,54.6-53.8,54.6
			C418.4,239,398,219.3,398,183.4z"/>
		<path class="st1" d="M625.5,235.9h-25.8v-154h-50.5v154h-25.8V57.4h102V235.9z"/>
		<path class="st1" d="M655.8,57.4H681v78c0,12.8-1,36-2.8,51.5l0.8,0.5c3.3-8.7,7.9-21.2,12.8-31.6l43.4-98.4h26.3v178.5h-25.2
			v-77.8c0-13.5,1-37.5,2.3-52.3l-0.8-0.5c-3.3,9.2-8.4,23-12.8,32.9l-43.1,97.7h-26V57.4z"/>
		<path class="st1" d="M894,57.4v178.5h-25.8v-78.3h-50.5v78.3H792V57.4h25.8v76h50.5v-76H894z"/>
		<path class="st1" d="M919.5,179.3V114c0-37.2,20.4-59.9,54.6-59.9s54.6,22.7,54.6,59.9v65.3c0,37.2-20.4,59.9-54.6,59.9
			S919.5,216.5,919.5,179.3z M1002.1,179.3V114c0-22.4-9.7-34.7-28.1-34.7c-18.6,0-28.1,12.2-28.1,34.7v65.3
			c0,22.4,9.4,34.7,28.1,34.7C992.4,214,1002.1,201.7,1002.1,179.3z"/>
		<path class="st1" d="M1054.1,57.4h25.2v78c0,12.8-1,36-2.8,51.5l0.8,0.5c3.3-8.7,7.9-21.2,12.8-31.6l43.4-98.4h26.3v178.5h-25.2
			v-77.8c0-13.5,1-37.5,2.3-52.3l-0.8-0.5c-3.3,9.2-8.4,23-12.8,32.9l-43.1,97.7h-26V57.4z M1076.8,9.5h17.6
			c0.5,8.9,5.4,13.5,13,13.5c7.9,0,12.8-4.6,13.3-13.5h17.6c-0.8,19.6-13,30.6-30.6,30.6C1089.8,40.1,1077.6,28.8,1076.8,9.5z"/>
	</g>
	<g class="st0">
		<path class="st1" d="M127.1,57.6v178.5h-25.8V81.8H63.6c-2.6,52-4.8,92.8-8.2,114c-4.6,32.4-19.6,42.8-44.4,42.8v-23.5
			c11.2,0,16.8-6.9,19.6-25.2c2.8-18.6,5.1-58.7,8.2-132.3H127.1z"/>
		<path class="st1" d="M182.7,167.2c-20.4-6.9-31.9-25.8-31.9-52.3c0-36.5,19.9-57.4,53.3-57.4H250v178.5h-25.8v-64.5h-15.8
			l-35.7,64.5h-28.6L182.7,167.2z M224.3,147.3V82.1h-19.9c-17.9,0-27.3,11-27.3,32.4c0,21.2,9.4,32.9,27,32.9H224.3z"/>
		<path class="st1" d="M366,82.1h-59.7v154h-25.8V57.6H366V82.1z"/>
		<path class="st1" d="M350.2,223.3c0-9.2,6.4-15.3,15.6-15.3s15.6,6.1,15.6,15.3c0,9.4-6.4,15.6-15.6,15.6S350.2,232.8,350.2,223.3
			z"/>
		<path class="st1" d="M398.2,183.6v-73.4c0-36.2,20.1-55.8,51.5-55.8c32.4,0,51.5,19.4,53,54.8h-25.5
			c-1.5-20.9-10.7-30.3-27.8-30.3c-15,0-25,9.9-25,31.4v73.4c0,21.2,9.9,31.1,25.5,31.1c17.3,0,26.5-9.7,28.3-30.1h25.5
			c-1.8,35.2-20.9,54.6-53.8,54.6C418.6,239.1,398.2,219.5,398.2,183.6z"/>
		<path class="st1" d="M625.6,236.1h-25.8v-154h-50.5v154h-25.8V57.6h102V236.1z"/>
		<path class="st1" d="M656,57.6h25.2v78c0,12.8-1,36-2.8,51.5l0.8,0.5c3.3-8.7,7.9-21.2,12.8-31.6l43.4-98.4h26.3v178.5h-25.2
			v-77.8c0-13.5,1-37.5,2.3-52.3l-0.8-0.5c-3.3,9.2-8.4,23-12.8,32.9L682,236.1h-26V57.6z"/>
		<path class="st1" d="M894.1,57.6v178.5h-25.8v-78.3h-50.5v78.3h-25.8V57.6h25.8v76h50.5v-76H894.1z"/>
		<path class="st1" d="M919.6,179.5v-65.3c0-37.2,20.4-59.9,54.6-59.9s54.6,22.7,54.6,59.9v65.3c0,37.2-20.4,59.9-54.6,59.9
			S919.6,216.7,919.6,179.5z M1002.2,179.5v-65.3c0-22.4-9.7-34.7-28.1-34.7c-18.6,0-28.1,12.2-28.1,34.7v65.3
			c0,22.4,9.4,34.7,28.1,34.7C992.6,214.2,1002.2,201.9,1002.2,179.5z"/>
		<path class="st1" d="M1054.3,57.6h25.2v78c0,12.8-1,36-2.8,51.5l0.8,0.5c3.3-8.7,7.9-21.2,12.8-31.6l43.4-98.4h26.3v178.5h-25.2
			v-77.8c0-13.5,1-37.5,2.3-52.3l-0.8-0.5c-3.3,9.2-8.4,23-12.8,32.9l-43.1,97.7h-26V57.6z M1077,9.6h17.6c0.5,8.9,5.4,13.5,13,13.5
			c7.9,0,12.8-4.6,13.3-13.5h17.6c-0.8,19.6-13,30.6-30.6,30.6C1090,40.2,1077.7,29,1077,9.6z"/>
	</g>
	<g class="st0">
		<path class="st1" d="M127.3,57.8v178.5h-25.8V82H63.8c-2.6,52-4.8,92.8-8.2,114C51,228.4,36,238.8,11.2,238.8v-23.5
			c11.2,0,16.8-6.9,19.6-25.2c2.8-18.6,5.1-58.7,8.2-132.3H127.3z"/>
		<path class="st1" d="M182.8,167.4c-20.4-6.9-31.9-25.8-31.9-52.3c0-36.5,19.9-57.4,53.3-57.4h45.9v178.5h-25.8v-64.5h-15.8
			l-35.7,64.5h-28.6L182.8,167.4z M224.4,147.5V82.2h-19.9c-17.9,0-27.3,11-27.3,32.4c0,21.2,9.4,32.9,27,32.9H224.4z"/>
		<path class="st1" d="M366.2,82.2h-59.7v154h-25.8V57.8h85.4V82.2z"/>
		<path class="st1" d="M350.4,223.5c0-9.2,6.4-15.3,15.6-15.3s15.6,6.1,15.6,15.3c0,9.4-6.4,15.6-15.6,15.6S350.4,233,350.4,223.5z"
			/>
		<path class="st1" d="M398.3,183.7v-73.4c0-36.2,20.1-55.8,51.5-55.8c32.4,0,51.5,19.4,53,54.8h-25.5
			c-1.5-20.9-10.7-30.3-27.8-30.3c-15,0-25,9.9-25,31.4v73.4c0,21.2,9.9,31.1,25.5,31.1c17.3,0,26.5-9.7,28.3-30.1h25.5
			c-1.8,35.2-20.9,54.6-53.8,54.6C418.7,239.3,398.3,219.7,398.3,183.7z"/>
		<path class="st1" d="M625.8,236.3H600v-154h-50.5v154h-25.8V57.8h102V236.3z"/>
		<path class="st1" d="M656.1,57.8h25.2v78c0,12.8-1,36-2.8,51.5l0.8,0.5c3.3-8.7,7.9-21.2,12.8-31.6l43.4-98.4h26.3v178.5h-25.2
			v-77.8c0-13.5,1-37.5,2.3-52.3l-0.8-0.5c-3.3,9.2-8.4,23-12.8,32.9l-43.1,97.7h-26V57.8z"/>
		<path class="st1" d="M894.3,57.8v178.5h-25.8V158H818v78.3h-25.8V57.8H818v76h50.5v-76H894.3z"/>
		<path class="st1" d="M919.8,179.7v-65.3c0-37.2,20.4-59.9,54.6-59.9s54.6,22.7,54.6,59.9v65.3c0,37.2-20.4,59.9-54.6,59.9
			S919.8,216.9,919.8,179.7z M1002.4,179.7v-65.3c0-22.4-9.7-34.7-28.1-34.7c-18.6,0-28.1,12.2-28.1,34.7v65.3
			c0,22.4,9.4,34.7,28.1,34.7C992.7,214.3,1002.4,202.1,1002.4,179.7z"/>
		<path class="st1" d="M1054.4,57.8h25.2v78c0,12.8-1,36-2.8,51.5l0.8,0.5c3.3-8.7,7.9-21.2,12.8-31.6l43.4-98.4h26.3v178.5h-25.2
			v-77.8c0-13.5,1-37.5,2.3-52.3l-0.8-0.5c-3.3,9.2-8.4,23-12.8,32.9l-43.1,97.7h-26V57.8z M1077.1,9.8h17.6
			c0.5,8.9,5.4,13.5,13,13.5c7.9,0,12.8-4.6,13.3-13.5h17.6c-0.8,19.6-13,30.6-30.6,30.6C1090.1,40.4,1077.9,29.2,1077.1,9.8z"/>
	</g>
	<g class="st0">
		<path class="st1" d="M127.4,58v178.5h-25.8V82.2H63.9c-2.6,52-4.8,92.8-8.2,114C51.2,228.6,36.1,239,11.4,239v-23.5
			c11.2,0,16.8-6.9,19.6-25.2c2.8-18.6,5.1-58.7,8.2-132.3H127.4z"/>
		<path class="st1" d="M183,167.6c-20.4-6.9-31.9-25.8-31.9-52.3c0-36.5,19.9-57.4,53.3-57.4h45.9v178.5h-25.8v-64.5h-15.8
			l-35.7,64.5h-28.6L183,167.6z M224.6,147.7V82.4h-19.9c-17.9,0-27.3,11-27.3,32.4c0,21.2,9.4,32.9,27,32.9H224.6z"/>
		<path class="st1" d="M366.3,82.4h-59.7v154h-25.8V58h85.4V82.4z"/>
		<path class="st1" d="M350.5,223.7c0-9.2,6.4-15.3,15.6-15.3s15.6,6.1,15.6,15.3c0,9.4-6.4,15.6-15.6,15.6S350.5,233.1,350.5,223.7
			z"/>
		<path class="st1" d="M398.5,183.9v-73.4c0-36.2,20.1-55.8,51.5-55.8c32.4,0,51.5,19.4,53,54.8h-25.5
			c-1.5-20.9-10.7-30.3-27.8-30.3c-15,0-25,9.9-25,31.4v73.4c0,21.2,9.9,31.1,25.5,31.1c17.3,0,26.5-9.7,28.3-30.1H504
			c-1.8,35.2-20.9,54.6-53.8,54.6C418.9,239.5,398.5,219.9,398.5,183.9z"/>
		<path class="st1" d="M625.9,236.5h-25.8v-154h-50.5v154h-25.8V58h102V236.5z"/>
		<path class="st1" d="M656.3,58h25.2v78c0,12.8-1,36-2.8,51.5l0.8,0.5c3.3-8.7,7.9-21.2,12.8-31.6L735.6,58h26.3v178.5h-25.2v-77.8
			c0-13.5,1-37.5,2.3-52.3l-0.8-0.5c-3.3,9.2-8.4,23-12.8,32.9l-43.1,97.7h-26V58z"/>
		<path class="st1" d="M894.4,58v178.5h-25.8v-78.3h-50.5v78.3h-25.8V58h25.8v76h50.5V58H894.4z"/>
		<path class="st1" d="M919.9,179.8v-65.3c0-37.2,20.4-59.9,54.6-59.9s54.6,22.7,54.6,59.9v65.3c0,37.2-20.4,59.9-54.6,59.9
			S919.9,217.1,919.9,179.8z M1002.6,179.8v-65.3c0-22.4-9.7-34.7-28.1-34.7c-18.6,0-28.1,12.2-28.1,34.7v65.3
			c0,22.4,9.4,34.7,28.1,34.7C992.9,214.5,1002.6,202.3,1002.6,179.8z"/>
		<path class="st1" d="M1054.6,58h25.2v78c0,12.8-1,36-2.8,51.5l0.8,0.5c3.3-8.7,7.9-21.2,12.8-31.6l43.4-98.4h26.3v178.5h-25.2
			v-77.8c0-13.5,1-37.5,2.3-52.3l-0.8-0.5c-3.3,9.2-8.4,23-12.8,32.9l-43.1,97.7h-26V58z M1077.3,10h17.6c0.5,8.9,5.4,13.5,13,13.5
			c7.9,0,12.8-4.6,13.3-13.5h17.6c-0.8,19.6-13,30.6-30.6,30.6C1090.3,40.6,1078,29.4,1077.3,10z"/>
	</g>
	<g class="st0">
		<path class="st1" d="M127.6,58.1v178.5h-25.8V82.4H64.1c-2.6,52-4.8,92.8-8.2,114c-4.6,32.4-19.6,42.8-44.4,42.8v-23.5
			c11.2,0,16.8-6.9,19.6-25.2c2.8-18.6,5.1-58.7,8.2-132.3H127.6z"/>
		<path class="st1" d="M183.2,167.8c-20.4-6.9-31.9-25.8-31.9-52.3c0-36.5,19.9-57.4,53.3-57.4h45.9v178.5h-25.8v-64.5h-15.8
			l-35.7,64.5h-28.6L183.2,167.8z M224.7,147.9V82.6h-19.9c-17.9,0-27.3,11-27.3,32.4c0,21.2,9.4,32.9,27,32.9H224.7z"/>
		<path class="st1" d="M366.5,82.6h-59.7v154h-25.8V58.1h85.4V82.6z"/>
		<path class="st1" d="M350.7,223.9c0-9.2,6.4-15.3,15.6-15.3s15.6,6.1,15.6,15.3c0,9.4-6.4,15.6-15.6,15.6S350.7,233.3,350.7,223.9
			z"/>
		<path class="st1" d="M398.6,184.1v-73.4c0-36.2,20.1-55.8,51.5-55.8c32.4,0,51.5,19.4,53,54.8h-25.5
			c-1.5-20.9-10.7-30.3-27.8-30.3c-15,0-25,9.9-25,31.4v73.4c0,21.2,9.9,31.1,25.5,31.1c17.3,0,26.5-9.7,28.3-30.1h25.5
			c-1.8,35.2-20.9,54.6-53.8,54.6C419,239.7,398.6,220.1,398.6,184.1z"/>
		<path class="st1" d="M626.1,236.6h-25.8v-154h-50.5v154h-25.8V58.1h102V236.6z"/>
		<path class="st1" d="M656.4,58.1h25.2v78c0,12.8-1,36-2.8,51.5l0.8,0.5c3.3-8.7,7.9-21.2,12.8-31.6l43.4-98.4H762v178.5h-25.2
			v-77.8c0-13.5,1-37.5,2.3-52.3l-0.8-0.5c-3.3,9.2-8.4,23-12.8,32.9l-43.1,97.7h-26V58.1z"/>
		<path class="st1" d="M894.6,58.1v178.5h-25.8v-78.3h-50.5v78.3h-25.8V58.1h25.8v76h50.5v-76H894.6z"/>
		<path class="st1" d="M920.1,180v-65.3c0-37.2,20.4-59.9,54.6-59.9s54.6,22.7,54.6,59.9V180c0,37.2-20.4,59.9-54.6,59.9
			S920.1,217.3,920.1,180z M1002.7,180v-65.3c0-22.4-9.7-34.7-28.1-34.7c-18.6,0-28.1,12.2-28.1,34.7V180c0,22.4,9.4,34.7,28.1,34.7
			C993,214.7,1002.7,202.5,1002.7,180z"/>
		<path class="st1" d="M1054.7,58.1h25.2v78c0,12.8-1,36-2.8,51.5l0.8,0.5c3.3-8.7,7.9-21.2,12.8-31.6l43.4-98.4h26.3v178.5h-25.2
			v-77.8c0-13.5,1-37.5,2.3-52.3l-0.8-0.5c-3.3,9.2-8.4,23-12.8,32.9l-43.1,97.7h-26V58.1z M1077.4,10.2h17.6
			c0.5,8.9,5.4,13.5,13,13.5c7.9,0,12.8-4.6,13.3-13.5h17.6c-0.8,19.6-13,30.6-30.6,30.6C1090.4,40.8,1078.2,29.6,1077.4,10.2z"/>
	</g>
	<g class="st0">
		<path class="st1" d="M127.7,58.3v178.5H102V82.6H64.2c-2.6,52-4.8,92.8-8.2,114c-4.6,32.4-19.6,42.8-44.4,42.8v-23.5
			c11.2,0,16.8-6.9,19.6-25.2c2.8-18.6,5.1-58.7,8.2-132.3H127.7z"/>
		<path class="st1" d="M183.3,168c-20.4-6.9-31.9-25.8-31.9-52.3c0-36.5,19.9-57.4,53.3-57.4h45.9v178.5h-25.8v-64.5h-15.8
			l-35.7,64.5h-28.6L183.3,168z M224.9,148.1V82.8H205c-17.9,0-27.3,11-27.3,32.4c0,21.2,9.4,32.9,27,32.9H224.9z"/>
		<path class="st1" d="M366.7,82.8H307v154h-25.8V58.3h85.4V82.8z"/>
		<path class="st1" d="M350.8,224.1c0-9.2,6.4-15.3,15.6-15.3s15.6,6.1,15.6,15.3c0,9.4-6.4,15.6-15.6,15.6S350.8,233.5,350.8,224.1
			z"/>
		<path class="st1" d="M398.8,184.3v-73.4c0-36.2,20.1-55.8,51.5-55.8c32.4,0,51.5,19.4,53,54.8h-25.5
			c-1.5-20.9-10.7-30.3-27.8-30.3c-15,0-25,9.9-25,31.4v73.4c0,21.2,9.9,31.1,25.5,31.1c17.3,0,26.5-9.7,28.3-30.1h25.5
			c-1.8,35.2-20.9,54.6-53.8,54.6C419.2,239.9,398.8,220.3,398.8,184.3z"/>
		<path class="st1" d="M626.2,236.8h-25.8v-154H550v154h-25.8V58.3h102V236.8z"/>
		<path class="st1" d="M656.6,58.3h25.2v78c0,12.8-1,36-2.8,51.5l0.8,0.5c3.3-8.7,7.9-21.2,12.8-31.6l43.4-98.4h26.3v178.5h-25.2
			v-77.8c0-13.5,1-37.5,2.3-52.3l-0.8-0.5c-3.3,9.2-8.4,23-12.8,32.9l-43.1,97.7h-26V58.3z"/>
		<path class="st1" d="M894.8,58.3v178.5H869v-78.3h-50.5v78.3h-25.8V58.3h25.8v76H869v-76H894.8z"/>
		<path class="st1" d="M920.2,180.2v-65.3c0-37.2,20.4-59.9,54.6-59.9s54.6,22.7,54.6,59.9v65.3c0,37.2-20.4,59.9-54.6,59.9
			S920.2,217.5,920.2,180.2z M1002.9,180.2v-65.3c0-22.4-9.7-34.7-28.1-34.7c-18.6,0-28.1,12.2-28.1,34.7v65.3
			c0,22.4,9.4,34.7,28.1,34.7C993.2,214.9,1002.9,202.7,1002.9,180.2z"/>
		<path class="st1" d="M1054.9,58.3h25.2v78c0,12.8-1,36-2.8,51.5l0.8,0.5c3.3-8.7,7.9-21.2,12.8-31.6l43.4-98.4h26.3v178.5h-25.2
			v-77.8c0-13.5,1-37.5,2.3-52.3l-0.8-0.5c-3.3,9.2-8.4,23-12.8,32.9l-43.1,97.7h-26V58.3z M1077.6,10.4h17.6
			c0.5,8.9,5.4,13.5,13,13.5c7.9,0,12.8-4.6,13.3-13.5h17.6c-0.8,19.6-13,30.6-30.6,30.6C1090.6,41,1078.3,29.8,1077.6,10.4z"/>
	</g>
	<g class="st0">
		<path class="st1" d="M127.9,58.5V237h-25.8V82.7H64.4c-2.6,52-4.8,92.8-8.2,114c-4.6,32.4-19.6,42.8-44.4,42.8v-23.5
			c11.2,0,16.8-6.9,19.6-25.2c2.8-18.6,5.1-58.7,8.2-132.3H127.9z"/>
		<path class="st1" d="M183.5,168.2c-20.4-6.9-31.9-25.8-31.9-52.3c0-36.5,19.9-57.4,53.3-57.4h45.9V237H225v-64.5h-15.8L173.5,237
			H145L183.5,168.2z M225,148.3V83h-19.9c-17.9,0-27.3,11-27.3,32.4c0,21.2,9.4,32.9,27,32.9H225z"/>
		<path class="st1" d="M366.8,83h-59.7v154h-25.8V58.5h85.4V83z"/>
		<path class="st1" d="M351,224.3c0-9.2,6.4-15.3,15.6-15.3s15.6,6.1,15.6,15.3c0,9.4-6.4,15.6-15.6,15.6S351,233.7,351,224.3z"/>
		<path class="st1" d="M398.9,184.5V111c0-36.2,20.1-55.8,51.5-55.8c32.4,0,51.5,19.4,53,54.8H478c-1.5-20.9-10.7-30.3-27.8-30.3
			c-15,0-25,9.9-25,31.4v73.4c0,21.2,9.9,31.1,25.5,31.1c17.3,0,26.5-9.7,28.3-30.1h25.5c-1.8,35.2-20.9,54.6-53.8,54.6
			C419.3,240.1,398.9,220.4,398.9,184.5z"/>
		<path class="st1" d="M626.4,237h-25.8V83h-50.5v154h-25.8V58.5h102V237z"/>
		<path class="st1" d="M656.7,58.5H682v78c0,12.8-1,36-2.8,51.5l0.8,0.5c3.3-8.7,7.9-21.2,12.8-31.6L736,58.5h26.3V237h-25.2v-77.8
			c0-13.5,1-37.5,2.3-52.3l-0.8-0.5c-3.3,9.2-8.4,23-12.8,32.9L682.7,237h-26V58.5z"/>
		<path class="st1" d="M894.9,58.5V237h-25.8v-78.3h-50.5V237h-25.8V58.5h25.8v76h50.5v-76H894.9z"/>
		<path class="st1" d="M920.4,180.4v-65.3c0-37.2,20.4-59.9,54.6-59.9s54.6,22.7,54.6,59.9v65.3c0,37.2-20.4,59.9-54.6,59.9
			S920.4,217.6,920.4,180.4z M1003,180.4v-65.3c0-22.4-9.7-34.7-28.1-34.7c-18.6,0-28.1,12.2-28.1,34.7v65.3
			c0,22.4,9.4,34.7,28.1,34.7C993.3,215.1,1003,202.8,1003,180.4z"/>
		<path class="st1" d="M1055,58.5h25.2v78c0,12.8-1,36-2.8,51.5l0.8,0.5c3.3-8.7,7.9-21.2,12.8-31.6l43.4-98.4h26.3V237h-25.2v-77.8
			c0-13.5,1-37.5,2.3-52.3l-0.8-0.5c-3.3,9.2-8.4,23-12.8,32.9l-43.1,97.7h-26V58.5z M1077.7,10.6h17.6c0.5,8.9,5.4,13.5,13,13.5
			c7.9,0,12.8-4.6,13.3-13.5h17.6c-0.8,19.6-13,30.6-30.6,30.6C1090.7,41.2,1078.5,30,1077.7,10.6z"/>
	</g>
	<g class="st0">
		<path class="st1" d="M128,58.7v178.5h-25.8V82.9H64.5c-2.6,52-4.8,92.8-8.2,114c-4.6,32.4-19.6,42.8-44.4,42.8v-23.5
			c11.2,0,16.8-6.9,19.6-25.2c2.8-18.6,5.1-58.7,8.2-132.3H128z"/>
		<path class="st1" d="M183.6,168.4c-20.4-6.9-31.9-25.8-31.9-52.3c0-36.5,19.9-57.4,53.3-57.4h45.9v178.5h-25.8v-64.5h-15.8
			l-35.7,64.5h-28.6L183.6,168.4z M225.2,148.5V83.2h-19.9c-17.9,0-27.3,11-27.3,32.4c0,21.2,9.4,32.9,27,32.9H225.2z"/>
		<path class="st1" d="M367,83.2h-59.7v154h-25.8V58.7H367V83.2z"/>
		<path class="st1" d="M351.2,224.5c0-9.2,6.4-15.3,15.6-15.3s15.6,6.1,15.6,15.3c0,9.4-6.4,15.6-15.6,15.6S351.2,233.9,351.2,224.5
			z"/>
		<path class="st1" d="M399.1,184.7v-73.4c0-36.2,20.1-55.8,51.5-55.8c32.4,0,51.5,19.4,53,54.8h-25.5
			c-1.5-20.9-10.7-30.3-27.8-30.3c-15,0-25,9.9-25,31.4v73.4c0,21.2,9.9,31.1,25.5,31.1c17.3,0,26.5-9.7,28.3-30.1h25.5
			c-1.8,35.2-20.9,54.6-53.8,54.6C419.5,240.3,399.1,220.6,399.1,184.7z"/>
		<path class="st1" d="M626.6,237.2h-25.8v-154h-50.5v154h-25.8V58.7h102V237.2z"/>
		<path class="st1" d="M656.9,58.7h25.2v78c0,12.8-1,36-2.8,51.5l0.8,0.5c3.3-8.7,7.9-21.2,12.8-31.6l43.4-98.4h26.3v178.5h-25.2
			v-77.8c0-13.5,1-37.5,2.3-52.3l-0.8-0.5c-3.3,9.2-8.4,23-12.8,32.9l-43.1,97.7h-26V58.7z"/>
		<path class="st1" d="M895.1,58.7v178.5h-25.8v-78.3h-50.5v78.3h-25.8V58.7h25.8v76h50.5v-76H895.1z"/>
		<path class="st1" d="M920.6,180.6v-65.3c0-37.2,20.4-59.9,54.6-59.9s54.6,22.7,54.6,59.9v65.3c0,37.2-20.4,59.9-54.6,59.9
			S920.6,217.8,920.6,180.6z M1003.2,180.6v-65.3c0-22.4-9.7-34.7-28.1-34.7c-18.6,0-28.1,12.2-28.1,34.7v65.3
			c0,22.4,9.4,34.7,28.1,34.7C993.5,215.3,1003.2,203,1003.2,180.6z"/>
		<path class="st1" d="M1055.2,58.7h25.2v78c0,12.8-1,36-2.8,51.5l0.8,0.5c3.3-8.7,7.9-21.2,12.8-31.6l43.4-98.4h26.3v178.5h-25.2
			v-77.8c0-13.5,1-37.5,2.3-52.3l-0.8-0.5c-3.3,9.2-8.4,23-12.8,32.9l-43.1,97.7h-26V58.7z M1077.9,10.8h17.6
			c0.5,8.9,5.4,13.5,13,13.5c7.9,0,12.8-4.6,13.3-13.5h17.6c-0.8,19.6-13,30.6-30.6,30.6C1090.9,41.4,1078.7,30.1,1077.9,10.8z"/>
	</g>
	<g class="st0">
		<path class="st1" d="M128.2,58.9v178.5h-25.8V83.1H64.7c-2.6,52-4.8,92.8-8.2,114c-4.6,32.4-19.6,42.8-44.4,42.8v-23.5
			c11.2,0,16.8-6.9,19.6-25.2c2.8-18.6,5.1-58.7,8.2-132.3H128.2z"/>
		<path class="st1" d="M183.8,168.5c-20.4-6.9-31.9-25.8-31.9-52.3c0-36.5,19.9-57.4,53.3-57.4h45.9v178.5h-25.8v-64.5h-15.8
			l-35.7,64.5h-28.6L183.8,168.5z M225.3,148.7V83.4h-19.9c-17.9,0-27.3,11-27.3,32.4c0,21.2,9.4,32.9,27,32.9H225.3z"/>
		<path class="st1" d="M367.1,83.4h-59.7v154h-25.8V58.9h85.4V83.4z"/>
		<path class="st1" d="M351.3,224.6c0-9.2,6.4-15.3,15.6-15.3s15.6,6.1,15.6,15.3c0,9.4-6.4,15.6-15.6,15.6S351.3,234.1,351.3,224.6
			z"/>
		<path class="st1" d="M399.3,184.9v-73.4c0-36.2,20.1-55.8,51.5-55.8c32.4,0,51.5,19.4,53,54.8h-25.5
			c-1.5-20.9-10.7-30.3-27.8-30.3c-15,0-25,9.9-25,31.4v73.4c0,21.2,9.9,31.1,25.5,31.1c17.3,0,26.5-9.7,28.3-30.1h25.5
			c-1.8,35.2-20.9,54.6-53.8,54.6C419.7,240.5,399.3,220.8,399.3,184.9z"/>
		<path class="st1" d="M626.7,237.4H601v-154h-50.5v154h-25.8V58.9h102V237.4z"/>
		<path class="st1" d="M657.1,58.9h25.2v78c0,12.8-1,36-2.8,51.5l0.8,0.5c3.3-8.7,7.9-21.2,12.8-31.6l43.4-98.4h26.3v178.5h-25.2
			v-77.8c0-13.5,1-37.5,2.3-52.3l-0.8-0.5c-3.3,9.2-8.4,23-12.8,32.9l-43.1,97.7h-26V58.9z"/>
		<path class="st1" d="M895.2,58.9v178.5h-25.8v-78.3H819v78.3h-25.8V58.9H819v76h50.5v-76H895.2z"/>
		<path class="st1" d="M920.7,180.8v-65.3c0-37.2,20.4-59.9,54.6-59.9s54.6,22.7,54.6,59.9v65.3c0,37.2-20.4,59.9-54.6,59.9
			S920.7,218,920.7,180.8z M1003.3,180.8v-65.3c0-22.4-9.7-34.7-28.1-34.7c-18.6,0-28.1,12.2-28.1,34.7v65.3
			c0,22.4,9.4,34.7,28.1,34.7C993.6,215.5,1003.3,203.2,1003.3,180.8z"/>
		<path class="st1" d="M1055.4,58.9h25.2v78c0,12.8-1,36-2.8,51.5l0.8,0.5c3.3-8.7,7.9-21.2,12.8-31.6l43.4-98.4h26.3v178.5h-25.2
			v-77.8c0-13.5,1-37.5,2.3-52.3l-0.8-0.5c-3.3,9.2-8.4,23-12.8,32.9l-43.1,97.7h-26V58.9z M1078.1,11h17.6
			c0.5,8.9,5.4,13.5,13,13.5c7.9,0,12.8-4.6,13.3-13.5h17.6c-0.8,19.6-13,30.6-30.6,30.6C1091.1,41.6,1078.8,30.3,1078.1,11z"/>
	</g>
	<g class="st0">
		<path class="st1" d="M128.3,59.1v178.5h-25.8V83.3H64.9c-2.6,52-4.8,92.8-8.2,114c-4.6,32.4-19.6,42.8-44.4,42.8v-23.5
			c11.2,0,16.8-6.9,19.6-25.2c2.8-18.6,5.1-58.7,8.2-132.3H128.3z"/>
		<path class="st1" d="M183.9,168.7c-20.4-6.9-31.9-25.8-31.9-52.3c0-36.5,19.9-57.4,53.3-57.4h45.9v178.5h-25.8v-64.5h-15.8
			L174,237.6h-28.6L183.9,168.7z M225.5,148.8V83.6h-19.9c-17.9,0-27.3,11-27.3,32.4c0,21.2,9.4,32.9,27,32.9H225.5z"/>
		<path class="st1" d="M367.3,83.6h-59.7v154h-25.8V59.1h85.4V83.6z"/>
		<path class="st1" d="M351.5,224.8c0-9.2,6.4-15.3,15.6-15.3s15.6,6.1,15.6,15.3c0,9.4-6.4,15.6-15.6,15.6S351.5,234.3,351.5,224.8
			z"/>
		<path class="st1" d="M399.4,185.1v-73.4c0-36.2,20.1-55.8,51.5-55.8c32.4,0,51.5,19.4,53,54.8h-25.5
			c-1.5-20.9-10.7-30.3-27.8-30.3c-15,0-25,9.9-25,31.4v73.4c0,21.2,9.9,31.1,25.5,31.1c17.3,0,26.5-9.7,28.3-30.1H505
			c-1.8,35.2-20.9,54.6-53.8,54.6C419.8,240.6,399.4,221,399.4,185.1z"/>
		<path class="st1" d="M626.9,237.6h-25.8v-154h-50.5v154h-25.8V59.1h102V237.6z"/>
		<path class="st1" d="M657.2,59.1h25.2v78c0,12.8-1,36-2.8,51.5l0.8,0.5c3.3-8.7,7.9-21.2,12.8-31.6l43.4-98.4h26.3v178.5h-25.2
			v-77.8c0-13.5,1-37.5,2.3-52.3l-0.8-0.5c-3.3,9.2-8.4,23-12.8,32.9l-43.1,97.7h-26V59.1z"/>
		<path class="st1" d="M895.4,59.1v178.5h-25.8v-78.3h-50.5v78.3h-25.8V59.1h25.8v76h50.5v-76H895.4z"/>
		<path class="st1" d="M920.9,181v-65.3c0-37.2,20.4-59.9,54.6-59.9s54.6,22.7,54.6,59.9V181c0,37.2-20.4,59.9-54.6,59.9
			S920.9,218.2,920.9,181z M1003.5,181v-65.3c0-22.4-9.7-34.7-28.1-34.7c-18.6,0-28.1,12.2-28.1,34.7V181c0,22.4,9.4,34.7,28.1,34.7
			C993.8,215.7,1003.5,203.4,1003.5,181z"/>
		<path class="st1" d="M1055.5,59.1h25.2v78c0,12.8-1,36-2.8,51.5l0.8,0.5c3.3-8.7,7.9-21.2,12.8-31.6l43.4-98.4h26.3v178.5h-25.2
			v-77.8c0-13.5,1-37.5,2.3-52.3l-0.8-0.5c-3.3,9.2-8.4,23-12.8,32.9l-43.1,97.7h-26V59.1z M1078.2,11.1h17.6
			c0.5,8.9,5.4,13.5,13,13.5c7.9,0,12.8-4.6,13.3-13.5h17.6c-0.8,19.6-13,30.6-30.6,30.6C1091.2,41.7,1079,30.5,1078.2,11.1z"/>
	</g>
	<g class="st0">
		<path class="st1" d="M128.5,59.3v178.5h-25.8V83.5H65c-2.6,52-4.8,92.8-8.2,114c-4.6,32.4-19.6,42.8-44.4,42.8v-23.5
			c11.2,0,16.8-6.9,19.6-25.2c2.8-18.6,5.1-58.7,8.2-132.3H128.5z"/>
		<path class="st1" d="M184.1,168.9c-20.4-6.9-31.9-25.8-31.9-52.3c0-36.5,19.9-57.4,53.3-57.4h45.9v178.5h-25.8v-64.5h-15.8
			l-35.7,64.5h-28.6L184.1,168.9z M225.7,149V83.7h-19.9c-17.9,0-27.3,11-27.3,32.4c0,21.2,9.4,32.9,27,32.9H225.7z"/>
		<path class="st1" d="M367.4,83.7h-59.7v154H282V59.3h85.4V83.7z"/>
		<path class="st1" d="M351.6,225c0-9.2,6.4-15.3,15.6-15.3s15.6,6.1,15.6,15.3c0,9.4-6.4,15.6-15.6,15.6S351.6,234.5,351.6,225z"/>
		<path class="st1" d="M399.6,185.2v-73.4c0-36.2,20.1-55.8,51.5-55.8c32.4,0,51.5,19.4,53,54.8h-25.5
			c-1.5-20.9-10.7-30.3-27.8-30.3c-15,0-25,9.9-25,31.4v73.4c0,21.2,9.9,31.1,25.5,31.1c17.3,0,26.5-9.7,28.3-30.1h25.5
			c-1.8,35.2-20.9,54.6-53.8,54.6C420,240.8,399.6,221.2,399.6,185.2z"/>
		<path class="st1" d="M627,237.8h-25.8v-154h-50.5v154H525V59.3h102V237.8z"/>
		<path class="st1" d="M657.4,59.3h25.2v78c0,12.8-1,36-2.8,51.5l0.8,0.5c3.3-8.7,7.9-21.2,12.8-31.6l43.4-98.4h26.3v178.5h-25.2
			V160c0-13.5,1-37.5,2.3-52.3l-0.8-0.5c-3.3,9.2-8.4,23-12.8,32.9l-43.1,97.7h-26V59.3z"/>
		<path class="st1" d="M895.5,59.3v178.5h-25.8v-78.3h-50.5v78.3h-25.8V59.3h25.8v76h50.5v-76H895.5z"/>
		<path class="st1" d="M921,181.2v-65.3c0-37.2,20.4-59.9,54.6-59.9s54.6,22.7,54.6,59.9v65.3c0,37.2-20.4,59.9-54.6,59.9
			S921,218.4,921,181.2z M1003.7,181.2v-65.3c0-22.4-9.7-34.7-28.1-34.7c-18.6,0-28.1,12.2-28.1,34.7v65.3
			c0,22.4,9.4,34.7,28.1,34.7C994,215.8,1003.7,203.6,1003.7,181.2z"/>
		<path class="st1" d="M1055.7,59.3h25.2v78c0,12.8-1,36-2.8,51.5l0.8,0.5c3.3-8.7,7.9-21.2,12.8-31.6l43.4-98.4h26.3v178.5H1136
			V160c0-13.5,1-37.5,2.3-52.3l-0.8-0.5c-3.3,9.2-8.4,23-12.8,32.9l-43.1,97.7h-26V59.3z M1078.4,11.3h17.6
			c0.5,8.9,5.4,13.5,13,13.5c7.9,0,12.8-4.6,13.3-13.5h17.6c-0.8,19.6-13,30.6-30.6,30.6C1091.4,41.9,1079.1,30.7,1078.4,11.3z"/>
	</g>
	<g class="st0">
		<path class="st1" d="M128.7,59.5V238h-25.8V83.7H65.2c-2.6,52-4.8,92.8-8.2,114c-4.6,32.4-19.6,42.8-44.4,42.8V217
			c11.2,0,16.8-6.9,19.6-25.2c2.8-18.6,5.1-58.7,8.2-132.3H128.7z"/>
		<path class="st1" d="M184.2,169.1c-20.4-6.9-31.9-25.8-31.9-52.3c0-36.5,19.9-57.4,53.3-57.4h45.9V238h-25.8v-64.5H210L174.3,238
			h-28.6L184.2,169.1z M225.8,149.2V83.9h-19.9c-17.9,0-27.3,11-27.3,32.4c0,21.2,9.4,32.9,27,32.9H225.8z"/>
		<path class="st1" d="M367.6,83.9h-59.7v154h-25.8V59.5h85.4V83.9z"/>
		<path class="st1" d="M351.8,225.2c0-9.2,6.4-15.3,15.6-15.3s15.6,6.1,15.6,15.3c0,9.4-6.4,15.6-15.6,15.6S351.8,234.6,351.8,225.2
			z"/>
		<path class="st1" d="M399.7,185.4V112c0-36.2,20.1-55.8,51.5-55.8c32.4,0,51.5,19.4,53,54.8h-25.5c-1.5-20.9-10.7-30.3-27.8-30.3
			c-15,0-25,9.9-25,31.4v73.4c0,21.2,9.9,31.1,25.5,31.1c17.3,0,26.5-9.7,28.3-30.1h25.5c-1.8,35.2-20.9,54.6-53.8,54.6
			C420.1,241,399.7,221.4,399.7,185.4z"/>
		<path class="st1" d="M627.2,238h-25.8v-154h-50.5v154h-25.8V59.5h102V238z"/>
		<path class="st1" d="M657.5,59.5h25.2v78c0,12.8-1,36-2.8,51.5l0.8,0.5c3.3-8.7,7.9-21.2,12.8-31.6l43.4-98.4h26.3V238h-25.2
			v-77.8c0-13.5,1-37.5,2.3-52.3l-0.8-0.5c-3.3,9.2-8.4,23-12.8,32.9L683.5,238h-26V59.5z"/>
		<path class="st1" d="M895.7,59.5V238h-25.8v-78.3h-50.5V238h-25.8V59.5h25.8v76h50.5v-76H895.7z"/>
		<path class="st1" d="M921.2,181.3v-65.3c0-37.2,20.4-59.9,54.6-59.9s54.6,22.7,54.6,59.9v65.3c0,37.2-20.4,59.9-54.6,59.9
			S921.2,218.6,921.2,181.3z M1003.8,181.3v-65.3c0-22.4-9.7-34.7-28.1-34.7c-18.6,0-28.1,12.2-28.1,34.7v65.3
			c0,22.4,9.4,34.7,28.1,34.7C994.1,216,1003.8,203.8,1003.8,181.3z"/>
		<path class="st1" d="M1055.8,59.5h25.2v78c0,12.8-1,36-2.8,51.5l0.8,0.5c3.3-8.7,7.9-21.2,12.8-31.6l43.4-98.4h26.3V238h-25.2
			v-77.8c0-13.5,1-37.5,2.3-52.3l-0.8-0.5c-3.3,9.2-8.4,23-12.8,32.9l-43.1,97.7h-26V59.5z M1078.5,11.5h17.6
			c0.5,8.9,5.4,13.5,13,13.5c7.9,0,12.8-4.6,13.3-13.5h17.6c-0.8,19.6-13,30.6-30.6,30.6C1091.5,42.1,1079.3,30.9,1078.5,11.5z"/>
	</g>
	<g class="st0">
		<path class="st1" d="M128.8,59.6v178.5h-25.8V83.9H65.3c-2.6,52-4.8,92.8-8.2,114c-4.6,32.4-19.6,42.8-44.4,42.8v-23.5
			c11.2,0,16.8-6.9,19.6-25.2c2.8-18.6,5.1-58.7,8.2-132.3H128.8z"/>
		<path class="st1" d="M184.4,169.3c-20.4-6.9-31.9-25.8-31.9-52.3c0-36.5,19.9-57.4,53.3-57.4h45.9v178.5H226v-64.5h-15.8
			l-35.7,64.5h-28.6L184.4,169.3z M226,149.4V84.1h-19.9c-17.9,0-27.3,11-27.3,32.4c0,21.2,9.4,32.9,27,32.9H226z"/>
		<path class="st1" d="M367.8,84.1h-59.7v154h-25.8V59.6h85.4V84.1z"/>
		<path class="st1" d="M351.9,225.4c0-9.2,6.4-15.3,15.6-15.3s15.6,6.1,15.6,15.3c0,9.4-6.4,15.6-15.6,15.6S351.9,234.8,351.9,225.4
			z"/>
		<path class="st1" d="M399.9,185.6v-73.4c0-36.2,20.1-55.8,51.5-55.8c32.4,0,51.5,19.4,53,54.8h-25.5
			c-1.5-20.9-10.7-30.3-27.8-30.3c-15,0-25,9.9-25,31.4v73.4c0,21.2,9.9,31.1,25.5,31.1c17.3,0,26.5-9.7,28.3-30.1h25.5
			c-1.8,35.2-20.9,54.6-53.8,54.6C420.3,241.2,399.9,221.6,399.9,185.6z"/>
		<path class="st1" d="M627.3,238.1h-25.8v-154h-50.5v154h-25.8V59.6h102V238.1z"/>
		<path class="st1" d="M657.7,59.6h25.2v78c0,12.8-1,36-2.8,51.5l0.8,0.5c3.3-8.7,7.9-21.2,12.8-31.6L737,59.6h26.3v178.5H738v-77.8
			c0-13.5,1-37.5,2.3-52.3l-0.8-0.5c-3.3,9.2-8.4,23-12.8,32.9l-43.1,97.7h-26V59.6z"/>
		<path class="st1" d="M895.8,59.6v178.5h-25.8v-78.3h-50.5v78.3h-25.8V59.6h25.8v76h50.5v-76H895.8z"/>
		<path class="st1" d="M921.3,181.5v-65.3c0-37.2,20.4-59.9,54.6-59.9s54.6,22.7,54.6,59.9v65.3c0,37.2-20.4,59.9-54.6,59.9
			S921.3,218.8,921.3,181.5z M1004,181.5v-65.3c0-22.4-9.7-34.7-28.1-34.7c-18.6,0-28.1,12.2-28.1,34.7v65.3
			c0,22.4,9.4,34.7,28.1,34.7C994.3,216.2,1004,204,1004,181.5z"/>
		<path class="st1" d="M1056,59.6h25.2v78c0,12.8-1,36-2.8,51.5l0.8,0.5c3.3-8.7,7.9-21.2,12.8-31.6l43.4-98.4h26.3v178.5h-25.2
			v-77.8c0-13.5,1-37.5,2.3-52.3l-0.8-0.5c-3.3,9.2-8.4,23-12.8,32.9l-43.1,97.7h-26V59.6z M1078.7,11.7h17.6
			c0.5,8.9,5.4,13.5,13,13.5c7.9,0,12.8-4.6,13.3-13.5h17.6c-0.8,19.6-13,30.6-30.6,30.6C1091.7,42.3,1079.4,31.1,1078.7,11.7z"/>
	</g>
	<g class="st0">
		<path class="st1" d="M129,59.8v178.5h-25.8V84.1H65.5c-2.6,52-4.8,92.8-8.2,114c-4.6,32.4-19.6,42.8-44.4,42.8v-23.5
			c11.2,0,16.8-6.9,19.6-25.2c2.8-18.6,5.1-58.7,8.2-132.3H129z"/>
		<path class="st1" d="M184.6,169.5c-20.4-6.9-31.9-25.8-31.9-52.3c0-36.5,19.9-57.4,53.3-57.4h45.9v178.5h-25.8v-64.5h-15.8
			l-35.7,64.5h-28.6L184.6,169.5z M226.1,149.6V84.3h-19.9c-17.9,0-27.3,11-27.3,32.4c0,21.2,9.4,32.9,27,32.9H226.1z"/>
		<path class="st1" d="M367.9,84.3h-59.7v154h-25.8V59.8h85.4V84.3z"/>
		<path class="st1" d="M352.1,225.6c0-9.2,6.4-15.3,15.6-15.3s15.6,6.1,15.6,15.3c0,9.4-6.4,15.6-15.6,15.6S352.1,235,352.1,225.6z"
			/>
		<path class="st1" d="M400,185.8v-73.4c0-36.2,20.1-55.8,51.5-55.8c32.4,0,51.5,19.4,53,54.8h-25.5C477.6,90.4,468.4,81,451.3,81
			c-15,0-25,9.9-25,31.4v73.4c0,21.2,9.9,31.1,25.5,31.1c17.3,0,26.5-9.7,28.3-30.1h25.5c-1.8,35.2-20.9,54.6-53.8,54.6
			C420.4,241.4,400,221.8,400,185.8z"/>
		<path class="st1" d="M627.5,238.3h-25.8v-154h-50.5v154h-25.8V59.8h102V238.3z"/>
		<path class="st1" d="M657.8,59.8h25.2v78c0,12.8-1,36-2.8,51.5l0.8,0.5c3.3-8.7,7.9-21.2,12.8-31.6l43.4-98.4h26.3v178.5h-25.2
			v-77.8c0-13.5,1-37.5,2.3-52.3l-0.8-0.5c-3.3,9.2-8.4,23-12.8,32.9l-43.1,97.7h-26V59.8z"/>
		<path class="st1" d="M896,59.8v178.5h-25.8V160h-50.5v78.3H794V59.8h25.8v76h50.5v-76H896z"/>
		<path class="st1" d="M921.5,181.7v-65.3c0-37.2,20.4-59.9,54.6-59.9s54.6,22.7,54.6,59.9v65.3c0,37.2-20.4,59.9-54.6,59.9
			S921.5,219,921.5,181.7z M1004.1,181.7v-65.3c0-22.4-9.7-34.7-28.1-34.7c-18.6,0-28.1,12.2-28.1,34.7v65.3
			c0,22.4,9.4,34.7,28.1,34.7C994.4,216.4,1004.1,204.2,1004.1,181.7z"/>
		<path class="st1" d="M1056.1,59.8h25.2v78c0,12.8-1,36-2.8,51.5l0.8,0.5c3.3-8.7,7.9-21.2,12.8-31.6l43.4-98.4h26.3v178.5h-25.2
			v-77.8c0-13.5,1-37.5,2.3-52.3l-0.8-0.5c-3.3,9.2-8.4,23-12.8,32.9l-43.1,97.7h-26V59.8z M1078.8,11.9h17.6
			c0.5,8.9,5.4,13.5,13,13.5c7.9,0,12.8-4.6,13.3-13.5h17.6c-0.8,19.6-13,30.6-30.6,30.6C1091.8,42.5,1079.6,31.3,1078.8,11.9z"/>
	</g>
	<g class="st0">
		<path class="st1" d="M129.1,60v178.5h-25.8V84.2H65.6c-2.6,52-4.8,92.8-8.2,114c-4.6,32.4-19.6,42.8-44.4,42.8v-23.5
			c11.2,0,16.8-6.9,19.6-25.2c2.8-18.6,5.1-58.7,8.2-132.3H129.1z"/>
		<path class="st1" d="M184.7,169.7c-20.4-6.9-31.9-25.8-31.9-52.3c0-36.5,19.9-57.4,53.3-57.4H252v178.5h-25.8V174h-15.8
			l-35.7,64.5h-28.6L184.7,169.7z M226.3,149.8V84.5h-19.9c-17.9,0-27.3,11-27.3,32.4c0,21.2,9.4,32.9,27,32.9H226.3z"/>
		<path class="st1" d="M368.1,84.5h-59.7v154h-25.8V60h85.4V84.5z"/>
		<path class="st1" d="M352.3,225.8c0-9.2,6.4-15.3,15.6-15.3s15.6,6.1,15.6,15.3c0,9.4-6.4,15.6-15.6,15.6S352.3,235.2,352.3,225.8
			z"/>
		<path class="st1" d="M400.2,186v-73.4c0-36.2,20.1-55.8,51.5-55.8c32.4,0,51.5,19.4,53,54.8h-25.5c-1.5-20.9-10.7-30.3-27.8-30.3
			c-15,0-25,9.9-25,31.4V186c0,21.2,9.9,31.1,25.5,31.1c17.3,0,26.5-9.7,28.3-30.1h25.5c-1.8,35.2-20.9,54.6-53.8,54.6
			C420.6,241.6,400.2,221.9,400.2,186z"/>
		<path class="st1" d="M627.6,238.5h-25.8v-154h-50.5v154h-25.8V60h102V238.5z"/>
		<path class="st1" d="M658,60h25.2v78c0,12.8-1,36-2.8,51.5l0.8,0.5c3.3-8.7,7.9-21.2,12.8-31.6L737.3,60h26.3v178.5h-25.2v-77.8
			c0-13.5,1-37.5,2.3-52.3l-0.8-0.5c-3.3,9.2-8.4,23-12.8,32.9L684,238.5h-26V60z"/>
		<path class="st1" d="M896.2,60v178.5h-25.8v-78.3h-50.5v78.3h-25.8V60h25.8v76h50.5V60H896.2z"/>
		<path class="st1" d="M921.7,181.9v-65.3c0-37.2,20.4-59.9,54.6-59.9s54.6,22.7,54.6,59.9v65.3c0,37.2-20.4,59.9-54.6,59.9
			S921.7,219.1,921.7,181.9z M1004.3,181.9v-65.3c0-22.4-9.7-34.7-28.1-34.7c-18.6,0-28.1,12.2-28.1,34.7v65.3
			c0,22.4,9.4,34.7,28.1,34.7C994.6,216.6,1004.3,204.3,1004.3,181.9z"/>
		<path class="st1" d="M1056.3,60h25.2v78c0,12.8-1,36-2.8,51.5l0.8,0.5c3.3-8.7,7.9-21.2,12.8-31.6l43.4-98.4h26.3v178.5h-25.2
			v-77.8c0-13.5,1-37.5,2.3-52.3l-0.8-0.5c-3.3,9.2-8.4,23-12.8,32.9l-43.1,97.7h-26V60z M1079,12.1h17.6c0.5,8.9,5.4,13.5,13,13.5
			c7.9,0,12.8-4.6,13.3-13.5h17.6c-0.8,19.6-13,30.6-30.6,30.6C1092,42.7,1079.8,31.5,1079,12.1z"/>
	</g>
	<g class="st0">
		<path class="st1" d="M129.3,60.2v178.5h-25.8V84.4H65.8c-2.6,52-4.8,92.8-8.2,114C53,230.8,38,241.3,13.3,241.3v-23.5
			c11.2,0,16.8-6.9,19.6-25.2c2.8-18.6,5.1-58.7,8.2-132.3H129.3z"/>
		<path class="st1" d="M184.9,169.9c-20.4-6.9-31.9-25.8-31.9-52.3c0-36.5,19.9-57.4,53.3-57.4h45.9v178.5h-25.8v-64.5h-15.8
			l-35.7,64.5h-28.6L184.9,169.9z M226.4,150V84.7h-19.9c-17.9,0-27.3,11-27.3,32.4c0,21.2,9.4,32.9,27,32.9H226.4z"/>
		<path class="st1" d="M368.2,84.7h-59.7v154h-25.8V60.2h85.4V84.7z"/>
		<path class="st1" d="M352.4,226c0-9.2,6.4-15.3,15.6-15.3s15.6,6.1,15.6,15.3c0,9.4-6.4,15.6-15.6,15.6S352.4,235.4,352.4,226z"/>
		<path class="st1" d="M400.3,186.2v-73.4c0-36.2,20.1-55.8,51.5-55.8c32.4,0,51.5,19.4,53,54.8h-25.5
			c-1.5-20.9-10.7-30.3-27.8-30.3c-15,0-25,9.9-25,31.4v73.4c0,21.2,9.9,31.1,25.5,31.1c17.3,0,26.5-9.7,28.3-30.1h25.5
			c-1.8,35.2-20.9,54.6-53.8,54.6C420.7,241.8,400.3,222.1,400.3,186.2z"/>
		<path class="st1" d="M627.8,238.7h-25.8v-154h-50.5v154h-25.8V60.2h102V238.7z"/>
		<path class="st1" d="M658.1,60.2h25.2v78c0,12.8-1,36-2.8,51.5l0.8,0.5c3.3-8.7,7.9-21.2,12.8-31.6l43.4-98.4h26.3v178.5h-25.2
			v-77.8c0-13.5,1-37.5,2.3-52.3l-0.8-0.5c-3.3,9.2-8.4,23-12.8,32.9l-43.1,97.7h-26V60.2z"/>
		<path class="st1" d="M896.3,60.2v178.5h-25.8v-78.3h-50.5v78.3h-25.8V60.2h25.8v76h50.5v-76H896.3z"/>
		<path class="st1" d="M921.8,182.1v-65.3c0-37.2,20.4-59.9,54.6-59.9s54.6,22.7,54.6,59.9v65.3c0,37.2-20.4,59.9-54.6,59.9
			S921.8,219.3,921.8,182.1z M1004.4,182.1v-65.3c0-22.4-9.7-34.7-28.1-34.7c-18.6,0-28.1,12.2-28.1,34.7v65.3
			c0,22.4,9.4,34.7,28.1,34.7C994.7,216.8,1004.4,204.5,1004.4,182.1z"/>
		<path class="st1" d="M1056.5,60.2h25.2v78c0,12.8-1,36-2.8,51.5l0.8,0.5c3.3-8.7,7.9-21.2,12.8-31.6l43.4-98.4h26.3v178.5h-25.2
			v-77.8c0-13.5,1-37.5,2.3-52.3l-0.8-0.5c-3.3,9.2-8.4,23-12.8,32.9l-43.1,97.7h-26V60.2z M1079.1,12.3h17.6
			c0.5,8.9,5.4,13.5,13,13.5c7.9,0,12.8-4.6,13.3-13.5h17.6c-0.8,19.6-13,30.6-30.6,30.6C1092.2,42.9,1079.9,31.6,1079.1,12.3z"/>
	</g>
	<g class="st0">
		<path class="st1" d="M129.4,60.4v178.5h-25.8V84.6H65.9c-2.6,52-4.8,92.8-8.2,114c-4.6,32.4-19.6,42.8-44.4,42.8V218
			c11.2,0,16.8-6.9,19.6-25.2c2.8-18.6,5.1-58.7,8.2-132.3H129.4z"/>
		<path class="st1" d="M185,170c-20.4-6.9-31.9-25.8-31.9-52.3c0-36.5,19.9-57.4,53.3-57.4h45.9v178.5h-25.8v-64.5h-15.8l-35.7,64.5
			h-28.6L185,170z M226.6,150.2V84.9h-19.9c-17.9,0-27.3,11-27.3,32.4c0,21.2,9.4,32.9,27,32.9H226.6z"/>
		<path class="st1" d="M368.4,84.9h-59.7v154h-25.8V60.4h85.4V84.9z"/>
		<path class="st1" d="M352.6,226.1c0-9.2,6.4-15.3,15.6-15.3s15.6,6.1,15.6,15.3c0,9.4-6.4,15.6-15.6,15.6S352.6,235.6,352.6,226.1
			z"/>
		<path class="st1" d="M400.5,186.4v-73.4c0-36.2,20.1-55.8,51.5-55.8c32.4,0,51.5,19.4,53,54.8h-25.5C478,91,468.8,81.6,451.8,81.6
			c-15,0-25,9.9-25,31.4v73.4c0,21.2,9.9,31.1,25.5,31.1c17.3,0,26.5-9.7,28.3-30.1h25.5c-1.8,35.2-20.9,54.6-53.8,54.6
			C420.9,242,400.5,222.3,400.5,186.4z"/>
		<path class="st1" d="M628,238.9h-25.8v-154h-50.5v154H526V60.4h102V238.9z"/>
		<path class="st1" d="M658.3,60.4h25.2v78c0,12.8-1,36-2.8,51.5l0.8,0.5c3.3-8.7,7.9-21.2,12.8-31.6l43.4-98.4h26.3v178.5h-25.2
			v-77.8c0-13.5,1-37.5,2.3-52.3l-0.8-0.5c-3.3,9.2-8.4,23-12.8,32.9l-43.1,97.7h-26V60.4z"/>
		<path class="st1" d="M896.5,60.4v178.5h-25.8v-78.3h-50.5v78.3h-25.8V60.4h25.8v76h50.5v-76H896.5z"/>
		<path class="st1" d="M922,182.3V117c0-37.2,20.4-59.9,54.6-59.9s54.6,22.7,54.6,59.9v65.3c0,37.2-20.4,59.9-54.6,59.9
			S922,219.5,922,182.3z M1004.6,182.3V117c0-22.4-9.7-34.7-28.1-34.7c-18.6,0-28.1,12.2-28.1,34.7v65.3c0,22.4,9.4,34.7,28.1,34.7
			C994.9,217,1004.6,204.7,1004.6,182.3z"/>
		<path class="st1" d="M1056.6,60.4h25.2v78c0,12.8-1,36-2.8,51.5l0.8,0.5c3.3-8.7,7.9-21.2,12.8-31.6l43.4-98.4h26.3v178.5h-25.2
			v-77.8c0-13.5,1-37.5,2.3-52.3l-0.8-0.5c-3.3,9.2-8.4,23-12.8,32.9l-43.1,97.7h-26V60.4z M1079.3,12.5h17.6
			c0.5,8.9,5.4,13.5,13,13.5c7.9,0,12.8-4.6,13.3-13.5h17.6c-0.8,19.6-13,30.6-30.6,30.6C1092.3,43.1,1080.1,31.8,1079.3,12.5z"/>
	</g>
	<g class="st0">
		<path class="st2" d="M122.5,52.1v178.5H96.8V76.3H59c-2.6,52-4.8,92.8-8.2,114c-4.6,32.4-19.6,42.8-44.4,42.8v-23.5
			c11.2,0,16.8-6.9,19.6-25.2c2.8-18.6,5.1-58.7,8.2-132.3H122.5z"/>
		<path class="st2" d="M178.1,161.8c-20.4-6.9-31.9-25.8-31.9-52.3c0-36.5,19.9-57.4,53.3-57.4h45.9v178.5h-25.8v-64.5h-15.8
			l-35.7,64.5h-28.6L178.1,161.8z M219.7,141.9V76.6h-19.9c-17.9,0-27.3,11-27.3,32.4c0,21.2,9.4,32.9,27,32.9H219.7z"/>
		<path class="st2" d="M361.5,76.6h-59.7v154H276V52.1h85.4V76.6z"/>
		<path class="st2" d="M345.7,217.9c0-9.2,6.4-15.3,15.6-15.3s15.6,6.1,15.6,15.3c0,9.4-6.4,15.6-15.6,15.6S345.7,227.3,345.7,217.9
			z"/>
		<path class="st2" d="M393.6,178.1v-73.4c0-36.2,20.1-55.8,51.5-55.8c32.4,0,51.5,19.4,53,54.8h-25.5
			c-1.5-20.9-10.7-30.3-27.8-30.3c-15,0-25,9.9-25,31.4v73.4c0,21.2,9.9,31.1,25.5,31.1c17.3,0,26.5-9.7,28.3-30.1h25.5
			c-1.8,35.2-20.9,54.6-53.8,54.6C414,233.7,393.6,214,393.6,178.1z"/>
		<path class="st2" d="M621.1,230.6h-25.8v-154h-50.5v154h-25.8V52.1h102V230.6z"/>
		<path class="st2" d="M651.4,52.1h25.2v78c0,12.8-1,36-2.8,51.5l0.8,0.5c3.3-8.7,7.9-21.2,12.8-31.6l43.4-98.4H757v178.5h-25.2
			v-77.8c0-13.5,1-37.5,2.3-52.3l-0.8-0.5c-3.3,9.2-8.4,23-12.8,32.9l-43.1,97.7h-26V52.1z"/>
		<path class="st2" d="M889.6,52.1v178.5h-25.8v-78.3h-50.5v78.3h-25.8V52.1h25.8v76h50.5v-76H889.6z"/>
		<path class="st2" d="M915.1,174v-65.3c0-37.2,20.4-59.9,54.6-59.9s54.6,22.7,54.6,59.9V174c0,37.2-20.4,59.9-54.6,59.9
			S915.1,211.2,915.1,174z M997.7,174v-65.3c0-22.4-9.7-34.7-28.1-34.7c-18.6,0-28.1,12.2-28.1,34.7V174c0,22.4,9.4,34.7,28.1,34.7
			C988,208.7,997.7,196.5,997.7,174z"/>
		<path class="st2" d="M1049.7,52.1h25.2v78c0,12.8-1,36-2.8,51.5l0.8,0.5c3.3-8.7,7.9-21.2,12.8-31.6l43.4-98.4h26.3v178.5H1130
			v-77.8c0-13.5,1-37.5,2.3-52.3l-0.8-0.5c-3.3,9.2-8.4,23-12.8,32.9l-43.1,97.7h-26V52.1z M1072.4,4.2h17.6
			c0.5,8.9,5.4,13.5,13,13.5c7.9,0,12.8-4.6,13.3-13.5h17.6c-0.8,19.6-13,30.6-30.6,30.6C1085.4,34.8,1073.2,23.6,1072.4,4.2z"/>
	</g>
</g>
</svg>
