<svg xmlns="http://www.w3.org/2000/svg" width="13" height="13"><g fill="#FFF"><path d="M6.497 4.283c-1.22 0-2.213.993-2.213 2.213 0 1.22.993 2.213 2.213 2.213 1.22 0 2.212-.993 2.212-2.213 0-1.22-.992-2.213-2.212-2.213z"/><path d="M12.62 6.115H11.22a4.748 4.748 0 0 0-4.344-4.344V.381a.38.38 0 0 0-.761 0v1.39a4.748 4.748 0 0 0-4.344 4.344H.38a.38.38 0 0 0 0 .762h1.39a4.748 4.748 0 0 0 4.345 4.344v1.39a.38.38 0 0 0 .761 0v-1.39a4.748 4.748 0 0 0 4.344-4.344h1.398a.38.38 0 0 0 0-.762zm-6.123 4.36a3.983 3.983 0 0 1-3.98-3.979 3.983 3.983 0 0 1 3.98-3.979 3.983 3.983 0 0 1 3.978 3.979 3.983 3.983 0 0 1-3.978 3.979z"/></g></svg>