<svg xmlns="http://www.w3.org/2000/svg" width="14" height="14"><path fill="#FFF" fill-rule="evenodd" d="M7 9.258a2.258 2.258 0 1 1 0-4.516 2.258 2.258 0 0 1 0 4.516M10.31 0C12.34 0 14 1.696 14 3.768v6.463C14 12.304 12.34 14 10.31 14H3.69C1.66 14 0 12.304 0 10.231V3.768C0 1.696 1.66 0 3.69 0h6.62zm2.437 10.138V3.862c0-1.435-1.15-2.609-2.555-2.609H3.808c-1.405 0-2.555 1.174-2.555 2.609v6.276c0 1.435 1.15 2.609 2.555 2.609h6.384c1.405 0 2.555-1.174 2.555-2.61zM7 3.5a3.5 3.5 0 1 1 0 7 3.5 3.5 0 0 1 0-7zm4.375 0a.875.875 0 1 1-1.75 0 .875.875 0 0 1 1.75 0z"/></svg>