<svg xmlns="http://www.w3.org/2000/svg" xmlns:xlink="http://www.w3.org/1999/xlink" width="110" height="25"><defs><path id="a" d="M0 .076h11.088v19.58H0z"/><path id="c" d="M.017.304h9.748v23.908H.017z"/></defs><g fill="none" fill-rule="evenodd"><g transform="translate(0 4.868)"><mask id="b" fill="#fff"><use xlink:href="#a"/></mask><path fill="#FFF" d="M0 16.862c.353 0 .647-.018.88-.056.232-.037.423-.125.572-.265.149-.14.256-.345.321-.615a5.8 5.8 0 0 0 .126-1.075L2.402.076h8.686v19.551H7.96V2.87H5.279l-.336 11.815c-.055 1.787-.433 3.063-1.13 3.826-.699.764-1.812 1.145-3.338 1.145H0v-2.793z" mask="url(#b)"/></g><path fill="#FFF" d="M17.875 7.737c-.54 0-.935.159-1.187.475-.251.317-.377.829-.377 1.536v1.928c0 .782.163 1.322.489 1.62.325.298.777.447 1.354.447h1.201V7.737h-1.48zm-5 16.759c.15-.373.243-.74.28-1.104.037-.363.056-.786.056-1.27v-3.017c0-1.024.144-1.894.433-2.611.288-.717.824-1.234 1.606-1.55-1.341-.633-2.011-1.956-2.011-3.967V9.441c0-1.508.358-2.634 1.075-3.38.717-.744 1.876-1.117 3.477-1.117h4.637v19.552h-3.073v-7.96h-1.06c-.709 0-1.22.186-1.537.558-.317.373-.475 1.015-.475 1.928v3.072c0 .39-.005.717-.014.977-.01.261-.028.475-.056.643a2.81 2.81 0 0 1-.098.419 8.962 8.962 0 0 0-.111.363h-3.128zM24.69 24.496V4.945h8.1v2.792h-5.028v16.759zM51.309 16.963v2.598c0 1.583-.387 2.797-1.16 3.645-.773.847-1.913 1.27-3.42 1.27-1.51 0-2.65-.423-3.422-1.27-.773-.848-1.16-2.062-1.16-3.645V9.394c0-1.582.387-2.797 1.16-3.645.772-.847 1.913-1.27 3.421-1.27 1.508 0 2.648.423 3.422 1.27.772.848 1.159 2.063 1.159 3.645v1.9h-2.905V9.197c0-.706-.145-1.205-.433-1.494-.29-.288-.675-.432-1.16-.432-.483 0-.87.144-1.158.432-.29.289-.433.788-.433 1.494v10.558c0 .708.144 1.201.433 1.48.288.28.675.42 1.159.42s.87-.14 1.159-.42c.288-.279.433-.772.433-1.48v-2.793h2.905zM56.252 24.253H53.18V4.702h9.691v19.551h-3.128V7.494h-3.491zM68.261 24.253h-3.156V4.702h2.737v12.373l1.117-4.302 2.514-8.071h3.38v19.551h-2.765v-13.77l-1.257 4.805zM80.103 24.253h-3.072V4.702h3.072v8.379h3.492v-8.38h3.128v19.552h-3.128v-8.38h-3.492zM91.778 19.756c0 .708.144 1.206.433 1.495.288.288.675.432 1.16.432.483 0 .87-.144 1.158-.432.288-.29.433-.787.433-1.495V9.2c0-.708-.145-1.206-.433-1.495-.289-.288-.675-.433-1.159-.433s-.87.145-1.159.433c-.289.29-.433.787-.433 1.495v10.557zM88.706 9.394c0-1.582.4-2.797 1.2-3.645.801-.847 1.955-1.27 3.464-1.27 1.508 0 2.662.423 3.463 1.27.8.848 1.201 2.063 1.201 3.645V19.56c0 1.582-.4 2.798-1.2 3.645-.802.847-1.956 1.27-3.464 1.27-1.509 0-2.663-.423-3.464-1.27-.8-.847-1.2-2.063-1.2-3.645V9.394z"/><g transform="translate(100 .04)"><mask id="d" fill="#fff"><use xlink:href="#c"/></mask><path fill="#FFF" d="M8.2.304c0 .95-.27 1.703-.81 2.262-.54.559-1.359.838-2.457.838-1.08 0-1.876-.279-2.388-.838-.513-.559-.787-1.312-.824-2.262h1.9c.036.521.162.866.376 1.033.214.168.526.252.936.252.428 0 .758-.084.992-.252.232-.167.367-.512.404-1.033h1.872zM3.175 24.212H.017V4.661h2.738v12.373l1.116-4.301L6.385 4.66h3.38v19.551H7v-13.77l-1.257 4.805-2.57 8.965z" mask="url(#d)"/></g><path fill="#FFF" d="M38.522 21.48a2.866 2.866 0 1 1-5.732 0 2.866 2.866 0 0 1 5.732 0"/></g></svg>