<svg version="1.1" id="Слой_1" xmlns="http://www.w3.org/2000/svg" x="0" y="0" viewBox="0 0 1588.3 251.8" xml:space="preserve"><style>.st0{enable-background:new}.st1{fill:#ff001b}</style><g class="st0"><path class="st1" d="M42.6 58.2h127.9v182.5h-36.9V89.1H78.7V167c0 22.3-.7 37.9-2.2 46.8-1.5 8.8-5.1 15.7-10.9 20.7-5.8 4.9-14.8 7.4-27.1 7.4-4.3 0-12.2-.4-23.5-1.2v-28.5l8.2.1c7.7 0 12.9-1 15.6-3.1 2.7-2.1 4-7.2 4-15.3l-.1-31.4V58.2zM309.8 240.8v-76.2h-7.5c-11.6 0-19.8 1.7-24.6 5.2-4.8 3.5-12.9 13.9-24.5 31.3l-26.6 39.7h-44.1l22.3-35.6c8.8-14.1 15.8-24 21-29.7 5.2-5.7 11.8-10.8 19.7-15.3-17-2.7-29.3-8.6-36.9-17.7-7.6-9.2-11.3-20.1-11.3-32.9 0-11.1 2.8-21 8.4-29.6 5.6-8.6 13-14.4 22.2-17.3 9.2-2.9 22.9-4.4 41.2-4.4h77.6v182.5H309.8zM309.8 89.1H281c-14.6 0-24.2.3-28.8 1-4.6.7-8.6 2.9-11.9 6.7-3.3 3.8-5 8.8-5 14.9 0 6.4 1.6 11.5 4.8 15.3 3.2 3.8 7.3 6.1 12.2 7 4.9.9 15 1.4 30.2 1.4h27.3V89.1zM377.8 58.2h123.6v30.6h-86.8v151.9h-36.9V58.2zM480.5 240.8v-35h35v35H480.5zM660.5 173.6l35.7 11.3c-5.5 19.9-14.6 34.7-27.3 44.4-12.7 9.7-28.9 14.5-48.5 14.5-24.2 0-44.2-8.3-59.8-24.8-15.6-16.6-23.4-39.2-23.4-67.9 0-30.4 7.8-54 23.5-70.8 15.7-16.8 36.3-25.2 61.9-25.2 22.3 0 40.5 6.6 54.4 19.8 8.3 7.8 14.5 19 18.7 33.6l-36.5 8.7c-2.2-9.5-6.7-16.9-13.5-22.4-6.8-5.5-15.2-8.2-25-8.2-13.5 0-24.5 4.9-32.9 14.6-8.4 9.7-12.6 25.4-12.6 47.2 0 23.1 4.1 39.5 12.5 49.3 8.3 9.8 19.1 14.7 32.4 14.7 9.8 0 18.2-3.1 25.3-9.3C652.3 196.8 657.4 187 660.5 173.6zM720.4 58.2h145.2v182.5h-36.9V88.8h-71.5v151.9h-36.9V58.2zM895.8 58.2h34.5v121.5l74-121.5h36.7v182.5h-34.5V121.6l-73.8 119.2h-36.9V58.2zM1070.8 240.8V58.2h36.9v71.8h72.2V58.2h36.9v182.5h-36.9v-79.8h-72.2v79.8H1070.8zM1239.4 150.6c0-18.6 2.8-34.2 8.3-46.8 4.1-9.3 9.8-17.6 17-25 7.2-7.4 15-12.9 23.6-16.4 11.4-4.8 24.5-7.2 39.3-7.2 26.9 0 48.4 8.3 64.6 25 16.1 16.7 24.2 39.9 24.2 69.6 0 29.5-8 52.5-24 69.2-16 16.6-37.4 25-64.2 25-27.1 0-48.7-8.3-64.7-24.8C1247.5 202.5 1239.4 179.7 1239.4 150.6zM1277.4 149.4c0 20.7 4.8 36.3 14.3 47 9.5 10.7 21.7 16 36.4 16 14.7 0 26.7-5.3 36.2-15.9 9.4-10.6 14.1-26.5 14.1-47.6 0-20.9-4.6-36.5-13.8-46.8-9.2-10.3-21.4-15.4-36.5-15.4-15.2 0-27.4 5.2-36.7 15.6C1282.1 112.6 1277.4 128.4 1277.4 149.4zM1437.9 58.2h34.5v121.5l74-121.5h36.7v182.5h-34.5V121.6l-73.8 119.2h-36.9V58.2zM1532.5 12.8h17.1c-1 11.3-5 20.2-11.9 26.6-6.9 6.4-15.9 9.6-27 9.6-11 0-20-3.2-27-9.6-6.9-6.4-10.9-15.3-11.9-26.6h17.1c.6 5.9 2.7 10.4 6.2 13.4 3.6 3 8.8 4.5 15.6 4.5 6.8 0 12-1.5 15.6-4.5C1529.8 23.1 1531.9 18.7 1532.5 12.8z"/></g><g class="st0"><path class="st1" d="M41.6 57.2h127.9v182.5h-36.9V88.1H77.7V166c0 22.3-.7 37.9-2.2 46.8-1.5 8.8-5.1 15.7-10.9 20.7-5.8 4.9-14.8 7.4-27.1 7.4-4.3 0-12.2-.4-23.5-1.2v-28.5l8.2.1c7.7 0 12.9-1 15.6-3.1 2.7-2.1 4-7.2 4-15.3l-.1-31.4V57.2zM308.8 239.8v-76.2h-7.5c-11.6 0-19.8 1.7-24.6 5.2-4.8 3.5-12.9 13.9-24.5 31.3l-26.6 39.7h-44.1l22.3-35.6c8.8-14.1 15.8-24 21-29.7 5.2-5.7 11.8-10.8 19.7-15.3-17-2.7-29.3-8.6-36.9-17.7-7.6-9.2-11.3-20.1-11.3-32.9 0-11.1 2.8-21 8.4-29.6 5.6-8.6 13-14.4 22.2-17.3 9.2-2.9 22.9-4.4 41.2-4.4h77.6v182.5H308.8zM308.8 88.1H280c-14.6 0-24.2.3-28.8 1-4.6.7-8.6 2.9-11.9 6.7-3.3 3.8-5 8.8-5 14.9 0 6.4 1.6 11.5 4.8 15.3 3.2 3.8 7.3 6.1 12.2 7 4.9.9 15 1.4 30.2 1.4h27.3V88.1zM376.8 57.2h123.6v30.6h-86.8v151.9h-36.9V57.2zM479.5 239.8v-35h35v35H479.5zM659.5 172.6l35.7 11.3c-5.5 19.9-14.6 34.7-27.3 44.4-12.7 9.7-28.9 14.5-48.5 14.5-24.2 0-44.2-8.3-59.8-24.8-15.6-16.6-23.4-39.2-23.4-67.9 0-30.4 7.8-54 23.5-70.8 15.7-16.8 36.3-25.2 61.9-25.2 22.3 0 40.5 6.6 54.4 19.8 8.3 7.8 14.5 19 18.7 33.6l-36.5 8.7c-2.2-9.5-6.7-16.9-13.5-22.4-6.8-5.5-15.2-8.2-25-8.2-13.5 0-24.5 4.9-32.9 14.6-8.4 9.7-12.6 25.4-12.6 47.2 0 23.1 4.1 39.5 12.5 49.3 8.3 9.8 19.1 14.7 32.4 14.7 9.8 0 18.2-3.1 25.3-9.3C651.3 195.8 656.4 186 659.5 172.6zM719.4 57.2h145.2v182.5h-36.9V87.8h-71.5v151.9h-36.9V57.2zM894.8 57.2h34.5v121.5l74-121.5h36.7v182.5h-34.5V120.6l-73.8 119.2h-36.9V57.2zM1069.8 239.8V57.2h36.9v71.8h72.2V57.2h36.9v182.5h-36.9v-79.8h-72.2v79.8H1069.8zM1238.4 149.6c0-18.6 2.8-34.2 8.3-46.8 4.1-9.3 9.8-17.6 17-25 7.2-7.4 15-12.9 23.6-16.4 11.4-4.8 24.5-7.2 39.3-7.2 26.9 0 48.4 8.3 64.6 25 16.1 16.7 24.2 39.9 24.2 69.6 0 29.5-8 52.5-24 69.2-16 16.6-37.4 25-64.2 25-27.1 0-48.7-8.3-64.7-24.8C1246.5 201.5 1238.4 178.7 1238.4 149.6zM1276.4 148.4c0 20.7 4.8 36.3 14.3 47 9.5 10.7 21.7 16 36.4 16 14.7 0 26.7-5.3 36.2-15.9 9.4-10.6 14.1-26.5 14.1-47.6 0-20.9-4.6-36.5-13.8-46.8-9.2-10.3-21.4-15.4-36.5-15.4-15.2 0-27.4 5.2-36.7 15.6C1281.1 111.6 1276.4 127.4 1276.4 148.4zM1436.9 57.2h34.5v121.5l74-121.5h36.7v182.5h-34.5V120.6l-73.8 119.2h-36.9V57.2zM1531.5 11.8h17.1c-1 11.3-5 20.2-11.9 26.6-6.9 6.4-15.9 9.6-27 9.6-11 0-20-3.2-27-9.6-6.9-6.4-10.9-15.3-11.9-26.6h17.1c.6 5.9 2.7 10.4 6.2 13.4 3.6 3 8.8 4.5 15.6 4.5 6.8 0 12-1.5 15.6-4.5C1528.8 22.1 1530.9 17.7 1531.5 11.8z"/></g><g class="st0"><path class="st1" d="M40.6 56.2h127.9v182.5h-36.9V87.1H76.7V165c0 22.3-.7 37.9-2.2 46.8-1.5 8.8-5.1 15.7-10.9 20.7-5.8 4.9-14.8 7.4-27.1 7.4-4.3 0-12.2-.4-23.5-1.2v-28.5l8.2.1c7.7 0 12.9-1 15.6-3.1 2.7-2.1 4-7.2 4-15.3l-.1-31.4V56.2zM307.8 238.8v-76.2h-7.5c-11.6 0-19.8 1.7-24.6 5.2-4.8 3.5-12.9 13.9-24.5 31.3l-26.6 39.7h-44.1l22.3-35.6c8.8-14.1 15.8-24 21-29.7 5.2-5.7 11.8-10.8 19.7-15.3-17-2.7-29.3-8.6-36.9-17.7-7.6-9.2-11.3-20.1-11.3-32.9 0-11.1 2.8-21 8.4-29.6 5.6-8.6 13-14.4 22.2-17.3 9.2-2.9 22.9-4.4 41.2-4.4h77.6v182.5H307.8zM307.8 87.1H279c-14.6 0-24.2.3-28.8 1-4.6.7-8.6 2.9-11.9 6.7-3.3 3.8-5 8.8-5 14.9 0 6.4 1.6 11.5 4.8 15.3 3.2 3.8 7.3 6.1 12.2 7 4.9.9 15 1.4 30.2 1.4h27.3V87.1zM375.8 56.2h123.6v30.6h-86.8v151.9h-36.9V56.2zM478.5 238.8v-35h35v35H478.5zM658.5 171.6l35.7 11.3c-5.5 19.9-14.6 34.7-27.3 44.4-12.7 9.7-28.9 14.5-48.5 14.5-24.2 0-44.2-8.3-59.8-24.8-15.6-16.6-23.4-39.2-23.4-67.9 0-30.4 7.8-54 23.5-70.8 15.7-16.8 36.3-25.2 61.9-25.2 22.3 0 40.5 6.6 54.4 19.8 8.3 7.8 14.5 19 18.7 33.6l-36.5 8.7c-2.2-9.5-6.7-16.9-13.5-22.4-6.8-5.5-15.2-8.2-25-8.2-13.5 0-24.5 4.9-32.9 14.6-8.4 9.7-12.6 25.4-12.6 47.2 0 23.1 4.1 39.5 12.5 49.3 8.3 9.8 19.1 14.7 32.4 14.7 9.8 0 18.2-3.1 25.3-9.3C650.3 194.8 655.4 185 658.5 171.6zM718.4 56.2h145.2v182.5h-36.9V86.8h-71.5v151.9h-36.9V56.2zM893.8 56.2h34.5v121.5l74-121.5h36.7v182.5h-34.5V119.6l-73.8 119.2h-36.9V56.2zM1068.8 238.8V56.2h36.9v71.8h72.2V56.2h36.9v182.5h-36.9v-79.8h-72.2v79.8H1068.8zM1237.4 148.6c0-18.6 2.8-34.2 8.3-46.8 4.1-9.3 9.8-17.6 17-25 7.2-7.4 15-12.9 23.6-16.4 11.4-4.8 24.5-7.2 39.3-7.2 26.9 0 48.4 8.3 64.6 25 16.1 16.7 24.2 39.9 24.2 69.6 0 29.5-8 52.5-24 69.2-16 16.6-37.4 25-64.2 25-27.1 0-48.7-8.3-64.7-24.8C1245.5 200.5 1237.4 177.7 1237.4 148.6zM1275.4 147.4c0 20.7 4.8 36.3 14.3 47 9.5 10.7 21.7 16 36.4 16 14.7 0 26.7-5.3 36.2-15.9 9.4-10.6 14.1-26.5 14.1-47.6 0-20.9-4.6-36.5-13.8-46.8-9.2-10.3-21.4-15.4-36.5-15.4-15.2 0-27.4 5.2-36.7 15.6C1280.1 110.6 1275.4 126.4 1275.4 147.4zM1435.9 56.2h34.5v121.5l74-121.5h36.7v182.5h-34.5V119.6l-73.8 119.2h-36.9V56.2zM1530.5 10.8h17.1c-1 11.3-5 20.2-11.9 26.6-6.9 6.4-15.9 9.6-27 9.6-11 0-20-3.2-27-9.6-6.9-6.4-10.9-15.3-11.9-26.6h17.1c.6 5.9 2.7 10.4 6.2 13.4 3.6 3 8.8 4.5 15.6 4.5 6.8 0 12-1.5 15.6-4.5C1527.8 21.1 1529.9 16.7 1530.5 10.8z"/></g><g class="st0"><path class="st1" d="M39.6 55.2h127.9v182.5h-36.9V86.1H75.7V164c0 22.3-.7 37.9-2.2 46.8-1.5 8.8-5.1 15.7-10.9 20.7-5.8 4.9-14.8 7.4-27.1 7.4-4.3 0-12.2-.4-23.5-1.2v-28.5l8.2.1c7.7 0 12.9-1 15.6-3.1 2.7-2.1 4-7.2 4-15.3l-.1-31.4V55.2zM306.8 237.8v-76.2h-7.5c-11.6 0-19.8 1.7-24.6 5.2-4.8 3.5-12.9 13.9-24.5 31.3l-26.6 39.7h-44.1l22.3-35.6c8.8-14.1 15.8-24 21-29.7 5.2-5.7 11.8-10.8 19.7-15.3-17-2.7-29.3-8.6-36.9-17.7-7.6-9.2-11.3-20.1-11.3-32.9 0-11.1 2.8-21 8.4-29.6 5.6-8.6 13-14.4 22.2-17.3 9.2-2.9 22.9-4.4 41.2-4.4h77.6v182.5H306.8zM306.8 86.1H278c-14.6 0-24.2.3-28.8 1-4.6.7-8.6 2.9-11.9 6.7-3.3 3.8-5 8.8-5 14.9 0 6.4 1.6 11.5 4.8 15.3 3.2 3.8 7.3 6.1 12.2 7 4.9.9 15 1.4 30.2 1.4h27.3V86.1zM374.8 55.2h123.6v30.6h-86.8v151.9h-36.9V55.2zM477.5 237.8v-35h35v35H477.5zM657.5 170.6l35.7 11.3c-5.5 19.9-14.6 34.7-27.3 44.4-12.7 9.7-28.9 14.5-48.5 14.5-24.2 0-44.2-8.3-59.8-24.8-15.6-16.6-23.4-39.2-23.4-67.9 0-30.4 7.8-54 23.5-70.8 15.7-16.8 36.3-25.2 61.9-25.2 22.3 0 40.5 6.6 54.4 19.8 8.3 7.8 14.5 19 18.7 33.6l-36.5 8.7c-2.2-9.5-6.7-16.9-13.5-22.4-6.8-5.5-15.2-8.2-25-8.2-13.5 0-24.5 4.9-32.9 14.6-8.4 9.7-12.6 25.4-12.6 47.2 0 23.1 4.1 39.5 12.5 49.3 8.3 9.8 19.1 14.7 32.4 14.7 9.8 0 18.2-3.1 25.3-9.3C649.3 193.8 654.4 184 657.5 170.6zM717.4 55.2h145.2v182.5h-36.9V85.8h-71.5v151.9h-36.9V55.2zM892.8 55.2h34.5v121.5l74-121.5h36.7v182.5h-34.5V118.6l-73.8 119.2h-36.9V55.2zM1067.8 237.8V55.2h36.9v71.8h72.2V55.2h36.9v182.5h-36.9v-79.8h-72.2v79.8H1067.8zM1236.4 147.6c0-18.6 2.8-34.2 8.3-46.8 4.1-9.3 9.8-17.6 17-25 7.2-7.4 15-12.9 23.6-16.4 11.4-4.8 24.5-7.2 39.3-7.2 26.9 0 48.4 8.3 64.6 25 16.1 16.7 24.2 39.9 24.2 69.6 0 29.5-8 52.5-24 69.2-16 16.6-37.4 25-64.2 25-27.1 0-48.7-8.3-64.7-24.8C1244.5 199.5 1236.4 176.7 1236.4 147.6zM1274.4 146.4c0 20.7 4.8 36.3 14.3 47 9.5 10.7 21.7 16 36.4 16 14.7 0 26.7-5.3 36.2-15.9 9.4-10.6 14.1-26.5 14.1-47.6 0-20.9-4.6-36.5-13.8-46.8-9.2-10.3-21.4-15.4-36.5-15.4-15.2 0-27.4 5.2-36.7 15.6C1279.1 109.6 1274.4 125.4 1274.4 146.4zM1434.9 55.2h34.5v121.5l74-121.5h36.7v182.5h-34.5V118.6l-73.8 119.2h-36.9V55.2zM1529.5 9.8h17.1c-1 11.3-5 20.2-11.9 26.6-6.9 6.4-15.9 9.6-27 9.6-11 0-20-3.2-27-9.6-6.9-6.4-10.9-15.3-11.9-26.6h17.1c.6 5.9 2.7 10.4 6.2 13.4 3.6 3 8.8 4.5 15.6 4.5 6.8 0 12-1.5 15.6-4.5C1526.8 20.1 1528.9 15.7 1529.5 9.8z"/></g><g class="st0"><path class="st1" d="M38.6 54.2h127.9v182.5h-36.9V85.1H74.7V163c0 22.3-.7 37.9-2.2 46.8-1.5 8.8-5.1 15.7-10.9 20.7-5.8 4.9-14.8 7.4-27.1 7.4-4.3 0-12.2-.4-23.5-1.2v-28.5l8.2.1c7.7 0 12.9-1 15.6-3.1 2.7-2.1 4-7.2 4-15.3l-.1-31.4V54.2zM305.8 236.8v-76.2h-7.5c-11.6 0-19.8 1.7-24.6 5.2-4.8 3.5-12.9 13.9-24.5 31.3l-26.6 39.7h-44.1l22.3-35.6c8.8-14.1 15.8-24 21-29.7 5.2-5.7 11.8-10.8 19.7-15.3-17-2.7-29.3-8.6-36.9-17.7-7.6-9.2-11.3-20.1-11.3-32.9 0-11.1 2.8-21 8.4-29.6 5.6-8.6 13-14.4 22.2-17.3 9.2-2.9 22.9-4.4 41.2-4.4h77.6v182.5H305.8zM305.8 85.1H277c-14.6 0-24.2.3-28.8 1-4.6.7-8.6 2.9-11.9 6.7-3.3 3.8-5 8.8-5 14.9 0 6.4 1.6 11.5 4.8 15.3 3.2 3.8 7.3 6.1 12.2 7 4.9.9 15 1.4 30.2 1.4h27.3V85.1zM373.8 54.2h123.6v30.6h-86.8v151.9h-36.9V54.2zM476.5 236.8v-35h35v35H476.5zM656.5 169.6l35.7 11.3c-5.5 19.9-14.6 34.7-27.3 44.4-12.7 9.7-28.9 14.5-48.5 14.5-24.2 0-44.2-8.3-59.8-24.8-15.6-16.6-23.4-39.2-23.4-67.9 0-30.4 7.8-54 23.5-70.8 15.7-16.8 36.3-25.2 61.9-25.2 22.3 0 40.5 6.6 54.4 19.8 8.3 7.8 14.5 19 18.7 33.6l-36.5 8.7c-2.2-9.5-6.7-16.9-13.5-22.4-6.8-5.5-15.2-8.2-25-8.2-13.5 0-24.5 4.9-32.9 14.6-8.4 9.7-12.6 25.4-12.6 47.2 0 23.1 4.1 39.5 12.5 49.3 8.3 9.8 19.1 14.7 32.4 14.7 9.8 0 18.2-3.1 25.3-9.3C648.3 192.8 653.4 183 656.5 169.6zM716.4 54.2h145.2v182.5h-36.9V84.8h-71.5v151.9h-36.9V54.2zM891.8 54.2h34.5v121.5l74-121.5h36.7v182.5h-34.5V117.6l-73.8 119.2h-36.9V54.2zM1066.8 236.8V54.2h36.9v71.8h72.2V54.2h36.9v182.5h-36.9v-79.8h-72.2v79.8H1066.8zM1235.4 146.6c0-18.6 2.8-34.2 8.3-46.8 4.1-9.3 9.8-17.6 17-25 7.2-7.4 15-12.9 23.6-16.4 11.4-4.8 24.5-7.2 39.3-7.2 26.9 0 48.4 8.3 64.6 25 16.1 16.7 24.2 39.9 24.2 69.6 0 29.5-8 52.5-24 69.2-16 16.6-37.4 25-64.2 25-27.1 0-48.7-8.3-64.7-24.8C1243.5 198.5 1235.4 175.7 1235.4 146.6zM1273.4 145.4c0 20.7 4.8 36.3 14.3 47 9.5 10.7 21.7 16 36.4 16 14.7 0 26.7-5.3 36.2-15.9 9.4-10.6 14.1-26.5 14.1-47.6 0-20.9-4.6-36.5-13.8-46.8-9.2-10.3-21.4-15.4-36.5-15.4-15.2 0-27.4 5.2-36.7 15.6C1278.1 108.6 1273.4 124.4 1273.4 145.4zM1433.9 54.2h34.5v121.5l74-121.5h36.7v182.5h-34.5V117.6l-73.8 119.2h-36.9V54.2zM1528.5 8.8h17.1c-1 11.3-5 20.2-11.9 26.6-6.9 6.4-15.9 9.6-27 9.6-11 0-20-3.2-27-9.6-6.9-6.4-10.9-15.3-11.9-26.6h17.1c.6 5.9 2.7 10.4 6.2 13.4 3.6 3 8.8 4.5 15.6 4.5 6.8 0 12-1.5 15.6-4.5C1525.8 19.1 1527.9 14.7 1528.5 8.8z"/></g><g class="st0"><path class="st1" d="M37.6 53.2h127.9v182.5h-36.9V84.1H73.7V162c0 22.3-.7 37.9-2.2 46.8-1.5 8.8-5.1 15.7-10.9 20.7-5.8 4.9-14.8 7.4-27.1 7.4-4.3 0-12.2-.4-23.5-1.2v-28.5l8.2.1c7.7 0 12.9-1 15.6-3.1 2.7-2.1 4-7.2 4-15.3l-.1-31.4V53.2zM304.8 235.8v-76.2h-7.5c-11.6 0-19.8 1.7-24.6 5.2-4.8 3.5-12.9 13.9-24.5 31.3l-26.6 39.7h-44.1l22.3-35.6c8.8-14.1 15.8-24 21-29.7 5.2-5.7 11.8-10.8 19.7-15.3-17-2.7-29.3-8.6-36.9-17.7-7.6-9.2-11.3-20.1-11.3-32.9 0-11.1 2.8-21 8.4-29.6 5.6-8.6 13-14.4 22.2-17.3 9.2-2.9 22.9-4.4 41.2-4.4h77.6v182.5H304.8zM304.8 84.1H276c-14.6 0-24.2.3-28.8 1-4.6.7-8.6 2.9-11.9 6.7-3.3 3.8-5 8.8-5 14.9 0 6.4 1.6 11.5 4.8 15.3 3.2 3.8 7.3 6.1 12.2 7 4.9.9 15 1.4 30.2 1.4h27.3V84.1zM372.8 53.2h123.6v30.6h-86.8v151.9h-36.9V53.2zM475.5 235.8v-35h35v35H475.5zM655.5 168.6l35.7 11.3c-5.5 19.9-14.6 34.7-27.3 44.4-12.7 9.7-28.9 14.5-48.5 14.5-24.2 0-44.2-8.3-59.8-24.8-15.6-16.6-23.4-39.2-23.4-67.9 0-30.4 7.8-54 23.5-70.8 15.7-16.8 36.3-25.2 61.9-25.2 22.3 0 40.5 6.6 54.4 19.8 8.3 7.8 14.5 19 18.7 33.6l-36.5 8.7c-2.2-9.5-6.7-16.9-13.5-22.4-6.8-5.5-15.2-8.2-25-8.2-13.5 0-24.5 4.9-32.9 14.6-8.4 9.7-12.6 25.4-12.6 47.2 0 23.1 4.1 39.5 12.5 49.3 8.3 9.8 19.1 14.7 32.4 14.7 9.8 0 18.2-3.1 25.3-9.3C647.3 191.8 652.4 182 655.5 168.6zM715.4 53.2h145.2v182.5h-36.9V83.8h-71.5v151.9h-36.9V53.2zM890.8 53.2h34.5v121.5l74-121.5h36.7v182.5h-34.5V116.6l-73.8 119.2h-36.9V53.2zM1065.8 235.8V53.2h36.9v71.8h72.2V53.2h36.9v182.5h-36.9v-79.8h-72.2v79.8H1065.8zM1234.4 145.6c0-18.6 2.8-34.2 8.3-46.8 4.1-9.3 9.8-17.6 17-25 7.2-7.4 15-12.9 23.6-16.4 11.4-4.8 24.5-7.2 39.3-7.2 26.9 0 48.4 8.3 64.6 25 16.1 16.7 24.2 39.9 24.2 69.6 0 29.5-8 52.5-24 69.2-16 16.6-37.4 25-64.2 25-27.1 0-48.7-8.3-64.7-24.8C1242.5 197.5 1234.4 174.7 1234.4 145.6zM1272.4 144.4c0 20.7 4.8 36.3 14.3 47 9.5 10.7 21.7 16 36.4 16 14.7 0 26.7-5.3 36.2-15.9 9.4-10.6 14.1-26.5 14.1-47.6 0-20.9-4.6-36.5-13.8-46.8-9.2-10.3-21.4-15.4-36.5-15.4-15.2 0-27.4 5.2-36.7 15.6C1277.1 107.6 1272.4 123.4 1272.4 144.4zM1432.9 53.2h34.5v121.5l74-121.5h36.7v182.5h-34.5V116.6l-73.8 119.2h-36.9V53.2zM1527.5 7.8h17.1c-1 11.3-5 20.2-11.9 26.6-6.9 6.4-15.9 9.6-27 9.6-11 0-20-3.2-27-9.6-6.9-6.4-10.9-15.3-11.9-26.6h17.1c.6 5.9 2.7 10.4 6.2 13.4 3.6 3 8.8 4.5 15.6 4.5 6.8 0 12-1.5 15.6-4.5C1524.8 18.1 1526.9 13.7 1527.5 7.8z"/></g><g class="st0"><path class="st1" d="M36.6 52.2h127.9v182.5h-36.9V83.1H72.7V161c0 22.3-.7 37.9-2.2 46.8-1.5 8.8-5.1 15.7-10.9 20.7-5.8 4.9-14.8 7.4-27.1 7.4-4.3 0-12.2-.4-23.5-1.2v-28.5l8.2.1c7.7 0 12.9-1 15.6-3.1 2.7-2.1 4-7.2 4-15.3l-.1-31.4V52.2zM303.8 234.8v-76.2h-7.5c-11.6 0-19.8 1.7-24.6 5.2-4.8 3.5-12.9 13.9-24.5 31.3l-26.6 39.7h-44.1l22.3-35.6c8.8-14.1 15.8-24 21-29.7 5.2-5.7 11.8-10.8 19.7-15.3-17-2.7-29.3-8.6-36.9-17.7-7.6-9.2-11.3-20.1-11.3-32.9 0-11.1 2.8-21 8.4-29.6 5.6-8.6 13-14.4 22.2-17.3 9.2-2.9 22.9-4.4 41.2-4.4h77.6v182.5H303.8zM303.8 83.1H275c-14.6 0-24.2.3-28.8 1-4.6.7-8.6 2.9-11.9 6.7-3.3 3.8-5 8.8-5 14.9 0 6.4 1.6 11.5 4.8 15.3 3.2 3.8 7.3 6.1 12.2 7 4.9.9 15 1.4 30.2 1.4h27.3V83.1zM371.8 52.2h123.6v30.6h-86.8v151.9h-36.9V52.2zM474.5 234.8v-35h35v35H474.5zM654.5 167.6l35.7 11.3c-5.5 19.9-14.6 34.7-27.3 44.4-12.7 9.7-28.9 14.5-48.5 14.5-24.2 0-44.2-8.3-59.8-24.8-15.6-16.6-23.4-39.2-23.4-67.9 0-30.4 7.8-54 23.5-70.8 15.7-16.8 36.3-25.2 61.9-25.2 22.3 0 40.5 6.6 54.4 19.8 8.3 7.8 14.5 19 18.7 33.6l-36.5 8.7c-2.2-9.5-6.7-16.9-13.5-22.4-6.8-5.5-15.2-8.2-25-8.2-13.5 0-24.5 4.9-32.9 14.6-8.4 9.7-12.6 25.4-12.6 47.2 0 23.1 4.1 39.5 12.5 49.3 8.3 9.8 19.1 14.7 32.4 14.7 9.8 0 18.2-3.1 25.3-9.3C646.3 190.8 651.4 181 654.5 167.6zM714.4 52.2h145.2v182.5h-36.9V82.8h-71.5v151.9h-36.9V52.2zM889.8 52.2h34.5v121.5l74-121.5h36.7v182.5h-34.5V115.6l-73.8 119.2h-36.9V52.2zM1064.8 234.8V52.2h36.9v71.8h72.2V52.2h36.9v182.5h-36.9v-79.8h-72.2v79.8H1064.8zM1233.4 144.6c0-18.6 2.8-34.2 8.3-46.8 4.1-9.3 9.8-17.6 17-25 7.2-7.4 15-12.9 23.6-16.4 11.4-4.8 24.5-7.2 39.3-7.2 26.9 0 48.4 8.3 64.6 25 16.1 16.7 24.2 39.9 24.2 69.6 0 29.5-8 52.5-24 69.2-16 16.6-37.4 25-64.2 25-27.1 0-48.7-8.3-64.7-24.8C1241.5 196.5 1233.4 173.7 1233.4 144.6zM1271.4 143.4c0 20.7 4.8 36.3 14.3 47 9.5 10.7 21.7 16 36.4 16 14.7 0 26.7-5.3 36.2-15.9 9.4-10.6 14.1-26.5 14.1-47.6 0-20.9-4.6-36.5-13.8-46.8-9.2-10.3-21.4-15.4-36.5-15.4-15.2 0-27.4 5.2-36.7 15.6C1276.1 106.6 1271.4 122.4 1271.4 143.4zM1431.9 52.2h34.5v121.5l74-121.5h36.7v182.5h-34.5V115.6l-73.8 119.2h-36.9V52.2zM1526.5 6.8h17.1c-1 11.3-5 20.2-11.9 26.6-6.9 6.4-15.9 9.6-27 9.6-11 0-20-3.2-27-9.6-6.9-6.4-10.9-15.3-11.9-26.6h17.1c.6 5.9 2.7 10.4 6.2 13.4 3.6 3 8.8 4.5 15.6 4.5 6.8 0 12-1.5 15.6-4.5C1523.8 17.1 1525.9 12.7 1526.5 6.8z"/></g><g class="st0"><path class="st1" d="M35.6 51.2h127.9v182.5h-36.9V82.1H71.7V160c0 22.3-.7 37.9-2.2 46.8-1.5 8.8-5.1 15.7-10.9 20.7-5.8 4.9-14.8 7.4-27.1 7.4-4.3 0-12.2-.4-23.5-1.2v-28.5l8.2.1c7.7 0 12.9-1 15.6-3.1 2.7-2.1 4-7.2 4-15.3l-.1-31.4V51.2zM302.8 233.8v-76.2h-7.5c-11.6 0-19.8 1.7-24.6 5.2-4.8 3.5-12.9 13.9-24.5 31.3l-26.6 39.7h-44.1l22.3-35.6c8.8-14.1 15.8-24 21-29.7 5.2-5.7 11.8-10.8 19.7-15.3-17-2.7-29.3-8.6-36.9-17.7-7.6-9.2-11.3-20.1-11.3-32.9 0-11.1 2.8-21 8.4-29.6 5.6-8.6 13-14.4 22.2-17.3 9.2-2.9 22.9-4.4 41.2-4.4h77.6v182.5H302.8zM302.8 82.1H274c-14.6 0-24.2.3-28.8 1-4.6.7-8.6 2.9-11.9 6.7-3.3 3.8-5 8.8-5 14.9 0 6.4 1.6 11.5 4.8 15.3 3.2 3.8 7.3 6.1 12.2 7 4.9.9 15 1.4 30.2 1.4h27.3V82.1zM370.8 51.2h123.6v30.6h-86.8v151.9h-36.9V51.2zM473.5 233.8v-35h35v35H473.5zM653.5 166.6l35.7 11.3c-5.5 19.9-14.6 34.7-27.3 44.4-12.7 9.7-28.9 14.5-48.5 14.5-24.2 0-44.2-8.3-59.8-24.8-15.6-16.6-23.4-39.2-23.4-67.9 0-30.4 7.8-54 23.5-70.8 15.7-16.8 36.3-25.2 61.9-25.2 22.3 0 40.5 6.6 54.4 19.8 8.3 7.8 14.5 19 18.7 33.6l-36.5 8.7c-2.2-9.5-6.7-16.9-13.5-22.4-6.8-5.5-15.2-8.2-25-8.2-13.5 0-24.5 4.9-32.9 14.6-8.4 9.7-12.6 25.4-12.6 47.2 0 23.1 4.1 39.5 12.5 49.3 8.3 9.8 19.1 14.7 32.4 14.7 9.8 0 18.2-3.1 25.3-9.3C645.3 189.8 650.4 180 653.5 166.6zM713.4 51.2h145.2v182.5h-36.9V81.8h-71.5v151.9h-36.9V51.2zM888.8 51.2h34.5v121.5l74-121.5h36.7v182.5h-34.5V114.6l-73.8 119.2h-36.9V51.2zM1063.8 233.8V51.2h36.9v71.8h72.2V51.2h36.9v182.5h-36.9v-79.8h-72.2v79.8H1063.8zM1232.4 143.6c0-18.6 2.8-34.2 8.3-46.8 4.1-9.3 9.8-17.6 17-25 7.2-7.4 15-12.9 23.6-16.4 11.4-4.8 24.5-7.2 39.3-7.2 26.9 0 48.4 8.3 64.6 25 16.1 16.7 24.2 39.9 24.2 69.6 0 29.5-8 52.5-24 69.2-16 16.6-37.4 25-64.2 25-27.1 0-48.7-8.3-64.7-24.8C1240.5 195.5 1232.4 172.7 1232.4 143.6zM1270.4 142.4c0 20.7 4.8 36.3 14.3 47 9.5 10.7 21.7 16 36.4 16 14.7 0 26.7-5.3 36.2-15.9 9.4-10.6 14.1-26.5 14.1-47.6 0-20.9-4.6-36.5-13.8-46.8-9.2-10.3-21.4-15.4-36.5-15.4-15.2 0-27.4 5.2-36.7 15.6C1275.1 105.6 1270.4 121.4 1270.4 142.4zM1430.9 51.2h34.5v121.5l74-121.5h36.7v182.5h-34.5V114.6l-73.8 119.2h-36.9V51.2zM1525.5 5.8h17.1c-1 11.3-5 20.2-11.9 26.6-6.9 6.4-15.9 9.6-27 9.6-11 0-20-3.2-27-9.6-6.9-6.4-10.9-15.3-11.9-26.6h17.1c.6 5.9 2.7 10.4 6.2 13.4 3.6 3 8.8 4.5 15.6 4.5 6.8 0 12-1.5 15.6-4.5C1522.8 16.1 1524.9 11.7 1525.5 5.8z"/></g><g class="st0"><path class="st1" d="M34.6 50.2h127.9v182.5h-36.9V81.1H70.7V159c0 22.3-.7 37.9-2.2 46.8-1.5 8.8-5.1 15.7-10.9 20.7-5.8 4.9-14.8 7.4-27.1 7.4-4.3 0-12.2-.4-23.5-1.2v-28.5l8.2.1c7.7 0 12.9-1 15.6-3.1 2.7-2.1 4-7.2 4-15.3l-.1-31.4V50.2zM301.8 232.8v-76.2h-7.5c-11.6 0-19.8 1.7-24.6 5.2-4.8 3.5-12.9 13.9-24.5 31.3l-26.6 39.7h-44.1l22.3-35.6c8.8-14.1 15.8-24 21-29.7 5.2-5.7 11.8-10.8 19.7-15.3-17-2.7-29.3-8.6-36.9-17.7-7.6-9.2-11.3-20.1-11.3-32.9 0-11.1 2.8-21 8.4-29.6 5.6-8.6 13-14.4 22.2-17.3 9.2-2.9 22.9-4.4 41.2-4.4h77.6v182.5H301.8zM301.8 81.1H273c-14.6 0-24.2.3-28.8 1-4.6.7-8.6 2.9-11.9 6.7-3.3 3.8-5 8.8-5 14.9 0 6.4 1.6 11.5 4.8 15.3 3.2 3.8 7.3 6.1 12.2 7 4.9.9 15 1.4 30.2 1.4h27.3V81.1zM369.8 50.2h123.6v30.6h-86.8v151.9h-36.9V50.2zM472.5 232.8v-35h35v35H472.5zM652.5 165.6l35.7 11.3c-5.5 19.9-14.6 34.7-27.3 44.4-12.7 9.7-28.9 14.5-48.5 14.5-24.2 0-44.2-8.3-59.8-24.8-15.6-16.6-23.4-39.2-23.4-67.9 0-30.4 7.8-54 23.5-70.8 15.7-16.8 36.3-25.2 61.9-25.2 22.3 0 40.5 6.6 54.4 19.8 8.3 7.8 14.5 19 18.7 33.6l-36.5 8.7c-2.2-9.5-6.7-16.9-13.5-22.4-6.8-5.5-15.2-8.2-25-8.2-13.5 0-24.5 4.9-32.9 14.6-8.4 9.7-12.6 25.4-12.6 47.2 0 23.1 4.1 39.5 12.5 49.3 8.3 9.8 19.1 14.7 32.4 14.7 9.8 0 18.2-3.1 25.3-9.3C644.3 188.8 649.4 179 652.5 165.6zM712.4 50.2h145.2v182.5h-36.9V80.8h-71.5v151.9h-36.9V50.2zM887.8 50.2h34.5v121.5l74-121.5h36.7v182.5h-34.5V113.6l-73.8 119.2h-36.9V50.2zM1062.8 232.8V50.2h36.9v71.8h72.2V50.2h36.9v182.5h-36.9v-79.8h-72.2v79.8H1062.8zM1231.4 142.6c0-18.6 2.8-34.2 8.3-46.8 4.1-9.3 9.8-17.6 17-25 7.2-7.4 15-12.9 23.6-16.4 11.4-4.8 24.5-7.2 39.3-7.2 26.9 0 48.4 8.3 64.6 25 16.1 16.7 24.2 39.9 24.2 69.6 0 29.5-8 52.5-24 69.2-16 16.6-37.4 25-64.2 25-27.1 0-48.7-8.3-64.7-24.8C1239.5 194.5 1231.4 171.7 1231.4 142.6zM1269.4 141.4c0 20.7 4.8 36.3 14.3 47 9.5 10.7 21.7 16 36.4 16 14.7 0 26.7-5.3 36.2-15.9 9.4-10.6 14.1-26.5 14.1-47.6 0-20.9-4.6-36.5-13.8-46.8-9.2-10.3-21.4-15.4-36.5-15.4-15.2 0-27.4 5.2-36.7 15.6C1274.1 104.6 1269.4 120.4 1269.4 141.4zM1429.9 50.2h34.5v121.5l74-121.5h36.7v182.5h-34.5V113.6l-73.8 119.2h-36.9V50.2zM1524.5 4.8h17.1c-1 11.3-5 20.2-11.9 26.6-6.9 6.4-15.9 9.6-27 9.6-11 0-20-3.2-27-9.6-6.9-6.4-10.9-15.3-11.9-26.6h17.1c.6 5.9 2.7 10.4 6.2 13.4 3.6 3 8.8 4.5 15.6 4.5 6.8 0 12-1.5 15.6-4.5C1521.8 15.1 1523.9 10.7 1524.5 4.8z"/></g><g class="st0"><path class="st1" d="M33.6 49.2h127.9v182.5h-36.9V80.1H69.7V158c0 22.3-.7 37.9-2.2 46.8-1.5 8.8-5.1 15.7-10.9 20.7-5.8 4.9-14.8 7.4-27.1 7.4-4.3 0-12.2-.4-23.5-1.2v-28.5l8.2.1c7.7 0 12.9-1 15.6-3.1 2.7-2.1 4-7.2 4-15.3l-.1-31.4V49.2zM300.8 231.8v-76.2h-7.5c-11.6 0-19.8 1.7-24.6 5.2-4.8 3.5-12.9 13.9-24.5 31.3l-26.6 39.7h-44.1l22.3-35.6c8.8-14.1 15.8-24 21-29.7 5.2-5.7 11.8-10.8 19.7-15.3-17-2.7-29.3-8.6-36.9-17.7-7.6-9.2-11.3-20.1-11.3-32.9 0-11.1 2.8-21 8.4-29.6 5.6-8.6 13-14.4 22.2-17.3 9.2-2.9 22.9-4.4 41.2-4.4h77.6v182.5H300.8zM300.8 80.1H272c-14.6 0-24.2.3-28.8 1-4.6.7-8.6 2.9-11.9 6.7-3.3 3.8-5 8.8-5 14.9 0 6.4 1.6 11.5 4.8 15.3 3.2 3.8 7.3 6.1 12.2 7 4.9.9 15 1.4 30.2 1.4h27.3V80.1zM368.8 49.2h123.6v30.6h-86.8v151.9h-36.9V49.2zM471.5 231.8v-35h35v35H471.5zM651.5 164.6l35.7 11.3c-5.5 19.9-14.6 34.7-27.3 44.4-12.7 9.7-28.9 14.5-48.5 14.5-24.2 0-44.2-8.3-59.8-24.8-15.6-16.6-23.4-39.2-23.4-67.9 0-30.4 7.8-54 23.5-70.8 15.7-16.8 36.3-25.2 61.9-25.2 22.3 0 40.5 6.6 54.4 19.8 8.3 7.8 14.5 19 18.7 33.6l-36.5 8.7c-2.2-9.5-6.7-16.9-13.5-22.4-6.8-5.5-15.2-8.2-25-8.2-13.5 0-24.5 4.9-32.9 14.6-8.4 9.7-12.6 25.4-12.6 47.2 0 23.1 4.1 39.5 12.5 49.3 8.3 9.8 19.1 14.7 32.4 14.7 9.8 0 18.2-3.1 25.3-9.3C643.3 187.8 648.4 178 651.5 164.6zM711.4 49.2h145.2v182.5h-36.9V79.8h-71.5v151.9h-36.9V49.2zM886.8 49.2h34.5v121.5l74-121.5h36.7v182.5h-34.5V112.6l-73.8 119.2h-36.9V49.2zM1061.8 231.8V49.2h36.9v71.8h72.2V49.2h36.9v182.5h-36.9v-79.8h-72.2v79.8H1061.8zM1230.4 141.6c0-18.6 2.8-34.2 8.3-46.8 4.1-9.3 9.8-17.6 17-25 7.2-7.4 15-12.9 23.6-16.4 11.4-4.8 24.5-7.2 39.3-7.2 26.9 0 48.4 8.3 64.6 25 16.1 16.7 24.2 39.9 24.2 69.6 0 29.5-8 52.5-24 69.2-16 16.6-37.4 25-64.2 25-27.1 0-48.7-8.3-64.7-24.8C1238.5 193.5 1230.4 170.7 1230.4 141.6zM1268.4 140.4c0 20.7 4.8 36.3 14.3 47 9.5 10.7 21.7 16 36.4 16 14.7 0 26.7-5.3 36.2-15.9 9.4-10.6 14.1-26.5 14.1-47.6 0-20.9-4.6-36.5-13.8-46.8-9.2-10.3-21.4-15.4-36.5-15.4-15.2 0-27.4 5.2-36.7 15.6C1273.1 103.6 1268.4 119.4 1268.4 140.4zM1428.9 49.2h34.5v121.5l74-121.5h36.7v182.5h-34.5V112.6l-73.8 119.2h-36.9V49.2zM1523.5 3.8h17.1c-1 11.3-5 20.2-11.9 26.6-6.9 6.4-15.9 9.6-27 9.6-11 0-20-3.2-27-9.6-6.9-6.4-10.9-15.3-11.9-26.6h17.1c.6 5.9 2.7 10.4 6.2 13.4 3.6 3 8.8 4.5 15.6 4.5 6.8 0 12-1.5 15.6-4.5C1520.8 14.1 1522.9 9.7 1523.5 3.8z"/></g><g class="st0"><path class="st1" d="M32.6 48.2h127.9v182.5h-36.9V79.1H68.7V157c0 22.3-.7 37.9-2.2 46.8-1.5 8.8-5.1 15.7-10.9 20.7-5.8 4.9-14.8 7.4-27.1 7.4-4.3 0-12.2-.4-23.5-1.2v-28.5l8.2.1c7.7 0 12.9-1 15.6-3.1 2.7-2.1 4-7.2 4-15.3l-.1-31.4V48.2zM299.8 230.8v-76.2h-7.5c-11.6 0-19.8 1.7-24.6 5.2-4.8 3.5-12.9 13.9-24.5 31.3l-26.6 39.7h-44.1l22.3-35.6c8.8-14.1 15.8-24 21-29.7 5.2-5.7 11.8-10.8 19.7-15.3-17-2.7-29.3-8.6-36.9-17.7-7.6-9.2-11.3-20.1-11.3-32.9 0-11.1 2.8-21 8.4-29.6 5.6-8.6 13-14.4 22.2-17.3 9.2-2.9 22.9-4.4 41.2-4.4h77.6v182.5H299.8zM299.8 79.1H271c-14.6 0-24.2.3-28.8 1-4.6.7-8.6 2.9-11.9 6.7-3.3 3.8-5 8.8-5 14.9 0 6.4 1.6 11.5 4.8 15.3 3.2 3.8 7.3 6.1 12.2 7 4.9.9 15 1.4 30.2 1.4h27.3V79.1zM367.8 48.2h123.6v30.6h-86.8v151.9h-36.9V48.2zM470.5 230.8v-35h35v35H470.5zM650.5 163.6l35.7 11.3c-5.5 19.9-14.6 34.7-27.3 44.4-12.7 9.7-28.9 14.5-48.5 14.5-24.2 0-44.2-8.3-59.8-24.8-15.6-16.6-23.4-39.2-23.4-67.9 0-30.4 7.8-54 23.5-70.8 15.7-16.8 36.3-25.2 61.9-25.2 22.3 0 40.5 6.6 54.4 19.8 8.3 7.8 14.5 19 18.7 33.6l-36.5 8.7c-2.2-9.5-6.7-16.9-13.5-22.4-6.8-5.5-15.2-8.2-25-8.2-13.5 0-24.5 4.9-32.9 14.6-8.4 9.7-12.6 25.4-12.6 47.2 0 23.1 4.1 39.5 12.5 49.3 8.3 9.8 19.1 14.7 32.4 14.7 9.8 0 18.2-3.1 25.3-9.3C642.3 186.8 647.4 177 650.5 163.6zM710.4 48.2h145.2v182.5h-36.9V78.8h-71.5v151.9h-36.9V48.2zM885.8 48.2h34.5v121.5l74-121.5h36.7v182.5h-34.5V111.6l-73.8 119.2h-36.9V48.2zM1060.8 230.8V48.2h36.9v71.8h72.2V48.2h36.9v182.5h-36.9v-79.8h-72.2v79.8H1060.8zM1229.4 140.6c0-18.6 2.8-34.2 8.3-46.8 4.1-9.3 9.8-17.6 17-25 7.2-7.4 15-12.9 23.6-16.4 11.4-4.8 24.5-7.2 39.3-7.2 26.9 0 48.4 8.3 64.6 25 16.1 16.7 24.2 39.9 24.2 69.6 0 29.5-8 52.5-24 69.2-16 16.6-37.4 25-64.2 25-27.1 0-48.7-8.3-64.7-24.8C1237.5 192.5 1229.4 169.7 1229.4 140.6zM1267.4 139.4c0 20.7 4.8 36.3 14.3 47 9.5 10.7 21.7 16 36.4 16 14.7 0 26.7-5.3 36.2-15.9 9.4-10.6 14.1-26.5 14.1-47.6 0-20.9-4.6-36.5-13.8-46.8-9.2-10.3-21.4-15.4-36.5-15.4-15.2 0-27.4 5.2-36.7 15.6C1272.1 102.6 1267.4 118.4 1267.4 139.4zM1427.9 48.2h34.5v121.5l74-121.5h36.7v182.5h-34.5V111.6l-73.8 119.2h-36.9V48.2zM1522.5 2.8h17.1c-1 11.3-5 20.2-11.9 26.6-6.9 6.4-15.9 9.6-27 9.6-11 0-20-3.2-27-9.6-6.9-6.4-10.9-15.3-11.9-26.6h17.1c.6 5.9 2.7 10.4 6.2 13.4 3.6 3 8.8 4.5 15.6 4.5 6.8 0 12-1.5 15.6-4.5C1519.8 13.1 1521.9 8.7 1522.5 2.8z"/></g><text transform="translate(0 229.75)" letter-spacing="-7" font-size="255" font-family="Arial-BoldMT" fill="#fff">ЛЯГ.СПИНОЙ</text></svg>