<svg version="1.1" id="Слой_1" xmlns="http://www.w3.org/2000/svg" x="0" y="0" viewBox="0 0 1180.3 245.2" xml:space="preserve"><style>.st0{enable-background:new}.st1{fill:#f40606}.st2{fill:#fff}</style><g class="st0"><path class="st1" d="M123 52.7v178.5H97.3V76.9H59.5c-2.6 52-4.8 92.8-8.2 114-4.6 32.4-19.6 42.8-44.4 42.8v-23.5c11.2 0 16.8-6.9 19.6-25.2 2.8-18.6 5.1-58.7 8.2-132.3H123zM178.6 162.4c-20.4-6.9-31.9-25.8-31.9-52.3 0-36.5 19.9-57.4 53.3-57.4h45.9v178.5h-25.8v-64.5h-15.8l-35.7 64.5h-28.6L178.6 162.4zM220.2 142.5V77.2h-19.9c-17.9 0-27.3 11-27.3 32.4 0 21.2 9.4 32.9 27 32.9H220.2zM362 77.2h-59.7v154h-25.8V52.7H362V77.2zM346.2 218.5c0-9.2 6.4-15.3 15.6-15.3s15.6 6.1 15.6 15.3c0 9.4-6.4 15.6-15.6 15.6S346.2 227.9 346.2 218.5zM394.1 178.7v-73.4c0-36.2 20.1-55.8 51.5-55.8 32.4 0 51.5 19.4 53 54.8h-25.5c-1.5-20.9-10.7-30.3-27.8-30.3-15 0-25 9.9-25 31.4v73.4c0 21.2 9.9 31.1 25.5 31.1 17.3 0 26.5-9.7 28.3-30.1h25.5c-1.8 35.2-20.9 54.6-53.8 54.6C414.5 234.3 394.1 214.6 394.1 178.7zM621.6 231.2h-25.8v-154h-50.5v154h-25.8V52.7h102V231.2zM651.9 52.7h25.2v78c0 12.8-1 36-2.8 51.5l.8.5c3.3-8.7 7.9-21.2 12.8-31.6l43.4-98.4h26.3v178.5h-25.2v-77.8c0-13.5 1-37.5 2.3-52.3l-.8-.5c-3.3 9.2-8.4 23-12.8 32.9l-43.1 97.7h-26V52.7zM890.1 52.7v178.5h-25.8v-78.3h-50.5v78.3h-25.8V52.7h25.8v76h50.5v-76H890.1zM915.6 174.6v-65.3c0-37.2 20.4-59.9 54.6-59.9s54.6 22.7 54.6 59.9v65.3c0 37.2-20.4 59.9-54.6 59.9S915.6 211.8 915.6 174.6zM998.2 174.6v-65.3c0-22.4-9.7-34.7-28.1-34.7-18.6 0-28.1 12.2-28.1 34.7v65.3c0 22.4 9.4 34.7 28.1 34.7C988.5 209.3 998.2 197 998.2 174.6zM1050.2 52.7h25.2v78c0 12.8-1 36-2.8 51.5l.8.5c3.3-8.7 7.9-21.2 12.8-31.6l43.4-98.4h26.3v178.5h-25.2v-77.8c0-13.5 1-37.5 2.3-52.3l-.8-.5c-3.3 9.2-8.4 23-12.8 32.9l-43.1 97.7h-26V52.7zM1072.9 4.8h17.6c.5 8.9 5.4 13.5 13 13.5 7.9 0 12.8-4.6 13.3-13.5h17.6c-.8 19.6-13 30.6-30.6 30.6C1085.9 35.4 1073.7 24.1 1072.9 4.8z"/></g><g class="st0"><path class="st1" d="M123.2 52.9v178.5H97.4V77.1H59.7c-2.6 52-4.8 92.8-8.2 114-4.6 32.4-19.6 42.8-44.4 42.8v-23.5c11.2 0 16.8-6.9 19.6-25.2 2.8-18.6 5.1-58.7 8.2-132.3H123.2zM178.8 162.5c-20.4-6.9-31.9-25.8-31.9-52.3 0-36.5 19.9-57.4 53.3-57.4h45.9v178.5h-25.8v-64.5h-15.8l-35.7 64.5h-28.6L178.8 162.5zM220.3 142.7V77.4h-19.9c-17.9 0-27.3 11-27.3 32.4 0 21.2 9.4 32.9 27 32.9H220.3zM362.1 77.4h-59.7v154h-25.8V52.9h85.4V77.4zM346.3 218.6c0-9.2 6.4-15.3 15.6-15.3s15.6 6.1 15.6 15.3c0 9.4-6.4 15.6-15.6 15.6S346.3 228.1 346.3 218.6zM394.3 178.9v-73.4c0-36.2 20.1-55.8 51.5-55.8 32.4 0 51.5 19.4 53 54.8h-25.5c-1.5-20.9-10.7-30.3-27.8-30.3-15 0-25 9.9-25 31.4v73.4c0 21.2 9.9 31.1 25.5 31.1 17.3 0 26.5-9.7 28.3-30.1h25.5c-1.8 35.2-20.9 54.6-53.8 54.6C414.7 234.5 394.3 214.8 394.3 178.9zM621.7 231.4H596v-154h-50.5v154h-25.8V52.9h102V231.4zM652.1 52.9h25.2v78c0 12.8-1 36-2.8 51.5l.8.5c3.3-8.7 7.9-21.2 12.8-31.6l43.4-98.4h26.3v178.5h-25.2v-77.8c0-13.5 1-37.5 2.3-52.3l-.8-.5c-3.3 9.2-8.4 23-12.8 32.9l-43.1 97.7h-26V52.9zM890.2 52.9v178.5h-25.8v-78.3H814v78.3h-25.8V52.9H814v76h50.5v-76H890.2zM915.7 174.8v-65.3c0-37.2 20.4-59.9 54.6-59.9s54.6 22.7 54.6 59.9v65.3c0 37.2-20.4 59.9-54.6 59.9S915.7 212 915.7 174.8zM998.3 174.8v-65.3c0-22.4-9.7-34.7-28.1-34.7-18.6 0-28.1 12.2-28.1 34.7v65.3c0 22.4 9.4 34.7 28.1 34.7C988.6 209.5 998.3 197.2 998.3 174.8zM1050.4 52.9h25.2v78c0 12.8-1 36-2.8 51.5l.8.5c3.3-8.7 7.9-21.2 12.8-31.6l43.4-98.4h26.3v178.5h-25.2v-77.8c0-13.5 1-37.5 2.3-52.3l-.8-.5c-3.3 9.2-8.4 23-12.8 32.9l-43.1 97.7h-26V52.9zM1073.1 5h17.6c.5 8.9 5.4 13.5 13 13.5 7.9 0 12.8-4.6 13.3-13.5h17.6c-.8 19.6-13 30.6-30.6 30.6C1086.1 35.6 1073.8 24.3 1073.1 5z"/></g><g class="st0"><path class="st1" d="M123.3 53.1v178.5H97.6V77.3H59.9c-2.6 52-4.8 92.8-8.2 114-4.6 32.4-19.6 42.8-44.4 42.8v-23.5c11.2 0 16.8-6.9 19.6-25.2 2.8-18.6 5.1-58.7 8.2-132.3H123.3zM178.9 162.7c-20.4-6.9-31.9-25.8-31.9-52.3 0-36.5 19.9-57.4 53.3-57.4h45.9v178.5h-25.8v-64.5h-15.8L169 231.6h-28.6L178.9 162.7zM220.5 142.8V77.6h-19.9c-17.9 0-27.3 11-27.3 32.4 0 21.2 9.4 32.9 27 32.9H220.5zM362.3 77.6h-59.7v154h-25.8V53.1h85.4V77.6zM346.5 218.8c0-9.2 6.4-15.3 15.6-15.3s15.6 6.1 15.6 15.3c0 9.4-6.4 15.6-15.6 15.6S346.5 228.3 346.5 218.8zM394.4 179.1v-73.4c0-36.2 20.1-55.8 51.5-55.8 32.4 0 51.5 19.4 53 54.8h-25.5c-1.5-20.9-10.7-30.3-27.8-30.3-15 0-25 9.9-25 31.4v73.4c0 21.2 9.9 31.1 25.5 31.1 17.3 0 26.5-9.7 28.3-30.1H500c-1.8 35.2-20.9 54.6-53.8 54.6C414.8 234.6 394.4 215 394.4 179.1zM621.9 231.6h-25.8v-154h-50.5v154h-25.8V53.1h102V231.6zM652.2 53.1h25.2v78c0 12.8-1 36-2.8 51.5l.8.5c3.3-8.7 7.9-21.2 12.8-31.6l43.4-98.4h26.3v178.5h-25.2v-77.8c0-13.5 1-37.5 2.3-52.3l-.8-.5c-3.3 9.2-8.4 23-12.8 32.9l-43.1 97.7h-26V53.1zM890.4 53.1v178.5h-25.8v-78.3h-50.5v78.3h-25.8V53.1h25.8v76h50.5v-76H890.4zM915.9 175v-65.3c0-37.2 20.4-59.9 54.6-59.9s54.6 22.7 54.6 59.9V175c0 37.2-20.4 59.9-54.6 59.9S915.9 212.2 915.9 175zM998.5 175v-65.3c0-22.4-9.7-34.7-28.1-34.7-18.6 0-28.1 12.2-28.1 34.7V175c0 22.4 9.4 34.7 28.1 34.7C988.8 209.7 998.5 197.4 998.5 175zM1050.5 53.1h25.2v78c0 12.8-1 36-2.8 51.5l.8.5c3.3-8.7 7.9-21.2 12.8-31.6l43.4-98.4h26.3v178.5h-25.2v-77.8c0-13.5 1-37.5 2.3-52.3l-.8-.5c-3.3 9.2-8.4 23-12.8 32.9l-43.1 97.7h-26V53.1zM1073.2 5.1h17.6c.5 8.9 5.4 13.5 13 13.5 7.9 0 12.8-4.6 13.3-13.5h17.6c-.8 19.6-13 30.6-30.6 30.6C1086.2 35.7 1074 24.5 1073.2 5.1z"/></g><g class="st0"><path class="st1" d="M123.5 53.3v178.5H97.7V77.5H60c-2.6 52-4.8 92.8-8.2 114-4.6 32.4-19.6 42.8-44.4 42.8v-23.5c11.2 0 16.8-6.9 19.6-25.2 2.8-18.6 5.1-58.7 8.2-132.3H123.5zM179.1 162.9c-20.4-6.9-31.9-25.8-31.9-52.3 0-36.5 19.9-57.4 53.3-57.4h45.9v178.5h-25.8v-64.5h-15.8l-35.7 64.5h-28.6L179.1 162.9zM220.7 143V77.7h-19.9c-17.9 0-27.3 11-27.3 32.4 0 21.2 9.4 32.9 27 32.9H220.7zM362.4 77.7h-59.7v154H277V53.3h85.4V77.7zM346.6 219c0-9.2 6.4-15.3 15.6-15.3s15.6 6.1 15.6 15.3c0 9.4-6.4 15.6-15.6 15.6S346.6 228.5 346.6 219zM394.6 179.2v-73.4c0-36.2 20.1-55.8 51.5-55.8 32.4 0 51.5 19.4 53 54.8h-25.5c-1.5-20.9-10.7-30.3-27.8-30.3-15 0-25 9.9-25 31.4v73.4c0 21.2 9.9 31.1 25.5 31.1 17.3 0 26.5-9.7 28.3-30.1h25.5c-1.8 35.2-20.9 54.6-53.8 54.6C415 234.8 394.6 215.2 394.6 179.2zM622 231.8h-25.8v-154h-50.5v154H520V53.3h102V231.8zM652.4 53.3h25.2v78c0 12.8-1 36-2.8 51.5l.8.5c3.3-8.7 7.9-21.2 12.8-31.6l43.4-98.4h26.3v178.5h-25.2V154c0-13.5 1-37.5 2.3-52.3l-.8-.5c-3.3 9.2-8.4 23-12.8 32.9l-43.1 97.7h-26V53.3zM890.5 53.3v178.5h-25.8v-78.3h-50.5v78.3h-25.8V53.3h25.8v76h50.5v-76H890.5zM916 175.2v-65.3c0-37.2 20.4-59.9 54.6-59.9s54.6 22.7 54.6 59.9v65.3c0 37.2-20.4 59.9-54.6 59.9S916 212.4 916 175.2zM998.7 175.2v-65.3c0-22.4-9.7-34.7-28.1-34.7-18.6 0-28.1 12.2-28.1 34.7v65.3c0 22.4 9.4 34.7 28.1 34.7C989 209.8 998.7 197.6 998.7 175.2zM1050.7 53.3h25.2v78c0 12.8-1 36-2.8 51.5l.8.5c3.3-8.7 7.9-21.2 12.8-31.6l43.4-98.4h26.3v178.5H1131V154c0-13.5 1-37.5 2.3-52.3l-.8-.5c-3.3 9.2-8.4 23-12.8 32.9l-43.1 97.7h-26V53.3zM1073.4 5.3h17.6c.5 8.9 5.4 13.5 13 13.5 7.9 0 12.8-4.6 13.3-13.5h17.6c-.8 19.6-13 30.6-30.6 30.6C1086.4 35.9 1074.1 24.7 1073.4 5.3z"/></g><g class="st0"><path class="st1" d="M123.7 53.5V232H97.9V77.7H60.2c-2.6 52-4.8 92.8-8.2 114-4.6 32.4-19.6 42.8-44.4 42.8V211c11.2 0 16.8-6.9 19.6-25.2 2.8-18.6 5.1-58.7 8.2-132.3H123.7zM179.2 163.1c-20.4-6.9-31.9-25.8-31.9-52.3 0-36.5 19.9-57.4 53.3-57.4h45.9V232h-25.8v-64.5H205L169.3 232h-28.6L179.2 163.1zM220.8 143.2V77.9h-19.9c-17.9 0-27.3 11-27.3 32.4 0 21.2 9.4 32.9 27 32.9H220.8zM362.6 77.9h-59.7v154h-25.8V53.5h85.4V77.9zM346.8 219.2c0-9.2 6.4-15.3 15.6-15.3s15.6 6.1 15.6 15.3c0 9.4-6.4 15.6-15.6 15.6S346.8 228.6 346.8 219.2zM394.7 179.4V106c0-36.2 20.1-55.8 51.5-55.8 32.4 0 51.5 19.4 53 54.8h-25.5c-1.5-20.9-10.7-30.3-27.8-30.3-15 0-25 9.9-25 31.4v73.4c0 21.2 9.9 31.1 25.5 31.1 17.3 0 26.5-9.7 28.3-30.1h25.5c-1.8 35.2-20.9 54.6-53.8 54.6C415.1 235 394.7 215.4 394.7 179.4zM622.2 232h-25.8v-154h-50.5v154h-25.8V53.5h102V232zM652.5 53.5h25.2v78c0 12.8-1 36-2.8 51.5l.8.5c3.3-8.7 7.9-21.2 12.8-31.6l43.4-98.4h26.3V232h-25.2v-77.8c0-13.5 1-37.5 2.3-52.3l-.8-.5c-3.3 9.2-8.4 23-12.8 32.9L678.5 232h-26V53.5zM890.7 53.5V232h-25.8v-78.3h-50.5V232h-25.8V53.5h25.8v76h50.5v-76H890.7zM916.2 175.3v-65.3c0-37.2 20.4-59.9 54.6-59.9s54.6 22.7 54.6 59.9v65.3c0 37.2-20.4 59.9-54.6 59.9S916.2 212.6 916.2 175.3zM998.8 175.3v-65.3c0-22.4-9.7-34.7-28.1-34.7-18.6 0-28.1 12.2-28.1 34.7v65.3c0 22.4 9.4 34.7 28.1 34.7C989.1 210 998.8 197.8 998.8 175.3zM1050.8 53.5h25.2v78c0 12.8-1 36-2.8 51.5l.8.5c3.3-8.7 7.9-21.2 12.8-31.6l43.4-98.4h26.3V232h-25.2v-77.8c0-13.5 1-37.5 2.3-52.3l-.8-.5c-3.3 9.2-8.4 23-12.8 32.9l-43.1 97.7h-26V53.5zM1073.5 5.5h17.6c.5 8.9 5.4 13.5 13 13.5 7.9 0 12.8-4.6 13.3-13.5h17.6c-.8 19.6-13 30.6-30.6 30.6C1086.5 36.1 1074.3 24.9 1073.5 5.5z"/></g><g class="st0"><path class="st1" d="M123.8 53.6v178.5H98.1V77.9H60.3c-2.6 52-4.8 92.8-8.2 114-4.6 32.4-19.6 42.8-44.4 42.8v-23.5c11.2 0 16.8-6.9 19.6-25.2 2.8-18.6 5.1-58.7 8.2-132.3H123.8zM179.4 163.3c-20.4-6.9-31.9-25.8-31.9-52.3 0-36.5 19.9-57.4 53.3-57.4h45.9v178.5H221v-64.5h-15.8l-35.7 64.5h-28.6L179.4 163.3zM221 143.4V78.1h-19.9c-17.9 0-27.3 11-27.3 32.4 0 21.2 9.4 32.9 27 32.9H221zM362.8 78.1h-59.7v154h-25.8V53.6h85.4V78.1zM346.9 219.4c0-9.2 6.4-15.3 15.6-15.3s15.6 6.1 15.6 15.3c0 9.4-6.4 15.6-15.6 15.6S346.9 228.8 346.9 219.4zM394.9 179.6v-73.4c0-36.2 20.1-55.8 51.5-55.8 32.4 0 51.5 19.4 53 54.8h-25.5c-1.5-20.9-10.7-30.3-27.8-30.3-15 0-25 9.9-25 31.4v73.4c0 21.2 9.9 31.1 25.5 31.1 17.3 0 26.5-9.7 28.3-30.1h25.5c-1.8 35.2-20.9 54.6-53.8 54.6C415.3 235.2 394.9 215.6 394.9 179.6zM622.3 232.1h-25.8v-154h-50.5v154h-25.8V53.6h102V232.1zM652.7 53.6h25.2v78c0 12.8-1 36-2.8 51.5l.8.5c3.3-8.7 7.9-21.2 12.8-31.6L732 53.6h26.3v178.5H733v-77.8c0-13.5 1-37.5 2.3-52.3l-.8-.5c-3.3 9.2-8.4 23-12.8 32.9l-43.1 97.7h-26V53.6zM890.8 53.6v178.5h-25.8v-78.3h-50.5v78.3h-25.8V53.6h25.8v76h50.5v-76H890.8zM916.3 175.5v-65.3c0-37.2 20.4-59.9 54.6-59.9s54.6 22.7 54.6 59.9v65.3c0 37.2-20.4 59.9-54.6 59.9S916.3 212.8 916.3 175.5zM999 175.5v-65.3c0-22.4-9.7-34.7-28.1-34.7-18.6 0-28.1 12.2-28.1 34.7v65.3c0 22.4 9.4 34.7 28.1 34.7C989.3 210.2 999 198 999 175.5zM1051 53.6h25.2v78c0 12.8-1 36-2.8 51.5l.8.5c3.3-8.7 7.9-21.2 12.8-31.6l43.4-98.4h26.3v178.5h-25.2v-77.8c0-13.5 1-37.5 2.3-52.3l-.8-.5c-3.3 9.2-8.4 23-12.8 32.9l-43.1 97.7h-26V53.6zM1073.7 5.7h17.6c.5 8.9 5.4 13.5 13 13.5 7.9 0 12.8-4.6 13.3-13.5h17.6c-.8 19.6-13 30.6-30.6 30.6C1086.7 36.3 1074.4 25.1 1073.7 5.7z"/></g><g class="st0"><path class="st1" d="M124 53.8v178.5H98.2V78.1H60.5c-2.6 52-4.8 92.8-8.2 114-4.6 32.4-19.6 42.8-44.4 42.8v-23.5c11.2 0 16.8-6.9 19.6-25.2 2.8-18.6 5.1-58.7 8.2-132.3H124zM179.6 163.5c-20.4-6.9-31.9-25.8-31.9-52.3 0-36.5 19.9-57.4 53.3-57.4h45.9v178.5h-25.8v-64.5h-15.8l-35.7 64.5h-28.6L179.6 163.5zM221.1 143.6V78.3h-19.9c-17.9 0-27.3 11-27.3 32.4 0 21.2 9.4 32.9 27 32.9H221.1zM362.9 78.3h-59.7v154h-25.8V53.8h85.4V78.3zM347.1 219.6c0-9.2 6.4-15.3 15.6-15.3s15.6 6.1 15.6 15.3c0 9.4-6.4 15.6-15.6 15.6S347.1 229 347.1 219.6zM395 179.8v-73.4c0-36.2 20.1-55.8 51.5-55.8 32.4 0 51.5 19.4 53 54.8h-25.5C472.6 84.4 463.4 75 446.3 75c-15 0-25 9.9-25 31.4v73.4c0 21.2 9.9 31.1 25.5 31.1 17.3 0 26.5-9.7 28.3-30.1h25.5c-1.8 35.2-20.9 54.6-53.8 54.6C415.4 235.4 395 215.8 395 179.8zM622.5 232.3h-25.8v-154h-50.5v154h-25.8V53.8h102V232.3zM652.8 53.8h25.2v78c0 12.8-1 36-2.8 51.5l.8.5c3.3-8.7 7.9-21.2 12.8-31.6l43.4-98.4h26.3v178.5h-25.2v-77.8c0-13.5 1-37.5 2.3-52.3l-.8-.5c-3.3 9.2-8.4 23-12.8 32.9l-43.1 97.7h-26V53.8zM891 53.8v178.5h-25.8V154h-50.5v78.3H789V53.8h25.8v76h50.5v-76H891zM916.5 175.7v-65.3c0-37.2 20.4-59.9 54.6-59.9s54.6 22.7 54.6 59.9v65.3c0 37.2-20.4 59.9-54.6 59.9S916.5 213 916.5 175.7zM999.1 175.7v-65.3c0-22.4-9.7-34.7-28.1-34.7-18.6 0-28.1 12.2-28.1 34.7v65.3c0 22.4 9.4 34.7 28.1 34.7C989.4 210.4 999.1 198.2 999.1 175.7zM1051.1 53.8h25.2v78c0 12.8-1 36-2.8 51.5l.8.5c3.3-8.7 7.9-21.2 12.8-31.6l43.4-98.4h26.3v178.5h-25.2v-77.8c0-13.5 1-37.5 2.3-52.3l-.8-.5c-3.3 9.2-8.4 23-12.8 32.9l-43.1 97.7h-26V53.8zM1073.8 5.9h17.6c.5 8.9 5.4 13.5 13 13.5 7.9 0 12.8-4.6 13.3-13.5h17.6c-.8 19.6-13 30.6-30.6 30.6C1086.8 36.5 1074.6 25.3 1073.8 5.9z"/></g><g class="st0"><path class="st1" d="M124.1 54v178.5H98.4V78.2H60.6c-2.6 52-4.8 92.8-8.2 114-4.6 32.4-19.6 42.8-44.4 42.8v-23.5c11.2 0 16.8-6.9 19.6-25.2 2.8-18.6 5.1-58.7 8.2-132.3H124.1zM179.7 163.7c-20.4-6.9-31.9-25.8-31.9-52.3 0-36.5 19.9-57.4 53.3-57.4H247v178.5h-25.8V168h-15.8l-35.7 64.5h-28.6L179.7 163.7zM221.3 143.8V78.5h-19.9c-17.9 0-27.3 11-27.3 32.4 0 21.2 9.4 32.9 27 32.9H221.3zM363.1 78.5h-59.7v154h-25.8V54h85.4V78.5zM347.3 219.8c0-9.2 6.4-15.3 15.6-15.3s15.6 6.1 15.6 15.3c0 9.4-6.4 15.6-15.6 15.6S347.3 229.2 347.3 219.8zM395.2 180v-73.4c0-36.2 20.1-55.8 51.5-55.8 32.4 0 51.5 19.4 53 54.8h-25.5c-1.5-20.9-10.7-30.3-27.8-30.3-15 0-25 9.9-25 31.4V180c0 21.2 9.9 31.1 25.5 31.1 17.3 0 26.5-9.7 28.3-30.1h25.5c-1.8 35.2-20.9 54.6-53.8 54.6C415.6 235.6 395.2 215.9 395.2 180zM622.6 232.5h-25.8v-154h-50.5v154h-25.8V54h102V232.5zM653 54h25.2v78c0 12.8-1 36-2.8 51.5l.8.5c3.3-8.7 7.9-21.2 12.8-31.6L732.3 54h26.3v178.5h-25.2v-77.8c0-13.5 1-37.5 2.3-52.3l-.8-.5c-3.3 9.2-8.4 23-12.8 32.9L679 232.5h-26V54zM891.2 54v178.5h-25.8v-78.3h-50.5v78.3h-25.8V54h25.8v76h50.5V54H891.2zM916.7 175.9v-65.3c0-37.2 20.4-59.9 54.6-59.9s54.6 22.7 54.6 59.9v65.3c0 37.2-20.4 59.9-54.6 59.9S916.7 213.1 916.7 175.9zM999.3 175.9v-65.3c0-22.4-9.7-34.7-28.1-34.7-18.6 0-28.1 12.2-28.1 34.7v65.3c0 22.4 9.4 34.7 28.1 34.7C989.6 210.6 999.3 198.3 999.3 175.9zM1051.3 54h25.2v78c0 12.8-1 36-2.8 51.5l.8.5c3.3-8.7 7.9-21.2 12.8-31.6l43.4-98.4h26.3v178.5h-25.2v-77.8c0-13.5 1-37.5 2.3-52.3l-.8-.5c-3.3 9.2-8.4 23-12.8 32.9l-43.1 97.7h-26V54zM1074 6.1h17.6c.5 8.9 5.4 13.5 13 13.5 7.9 0 12.8-4.6 13.3-13.5h17.6c-.8 19.6-13 30.6-30.6 30.6C1087 36.7 1074.8 25.5 1074 6.1z"/></g><g class="st0"><path class="st1" d="M124.3 54.2v178.5H98.5V78.4H60.8c-2.6 52-4.8 92.8-8.2 114C48 224.8 33 235.3 8.3 235.3v-23.5c11.2 0 16.8-6.9 19.6-25.2 2.8-18.6 5.1-58.7 8.2-132.3H124.3zM179.9 163.9c-20.4-6.9-31.9-25.8-31.9-52.3 0-36.5 19.9-57.4 53.3-57.4h45.9v178.5h-25.8v-64.5h-15.8l-35.7 64.5h-28.6L179.9 163.9zM221.4 144V78.7h-19.9c-17.9 0-27.3 11-27.3 32.4 0 21.2 9.4 32.9 27 32.9H221.4zM363.2 78.7h-59.7v154h-25.8V54.2h85.4V78.7zM347.4 220c0-9.2 6.4-15.3 15.6-15.3s15.6 6.1 15.6 15.3c0 9.4-6.4 15.6-15.6 15.6S347.4 229.4 347.4 220zM395.3 180.2v-73.4c0-36.2 20.1-55.8 51.5-55.8 32.4 0 51.5 19.4 53 54.8h-25.5c-1.5-20.9-10.7-30.3-27.8-30.3-15 0-25 9.9-25 31.4v73.4c0 21.2 9.9 31.1 25.5 31.1 17.3 0 26.5-9.7 28.3-30.1h25.5c-1.8 35.2-20.9 54.6-53.8 54.6C415.7 235.8 395.3 216.1 395.3 180.2zM622.8 232.7h-25.8v-154h-50.5v154h-25.8V54.2h102V232.7zM653.1 54.2h25.2v78c0 12.8-1 36-2.8 51.5l.8.5c3.3-8.7 7.9-21.2 12.8-31.6l43.4-98.4h26.3v178.5h-25.2v-77.8c0-13.5 1-37.5 2.3-52.3l-.8-.5c-3.3 9.2-8.4 23-12.8 32.9l-43.1 97.7h-26V54.2zM891.3 54.2v178.5h-25.8v-78.3h-50.5v78.3h-25.8V54.2h25.8v76h50.5v-76H891.3zM916.8 176.1v-65.3c0-37.2 20.4-59.9 54.6-59.9s54.6 22.7 54.6 59.9v65.3c0 37.2-20.4 59.9-54.6 59.9S916.8 213.3 916.8 176.1zM999.4 176.1v-65.3c0-22.4-9.7-34.7-28.1-34.7-18.6 0-28.1 12.2-28.1 34.7v65.3c0 22.4 9.4 34.7 28.1 34.7C989.7 210.8 999.4 198.5 999.4 176.1zM1051.5 54.2h25.2v78c0 12.8-1 36-2.8 51.5l.8.5c3.3-8.7 7.9-21.2 12.8-31.6l43.4-98.4h26.3v178.5h-25.2v-77.8c0-13.5 1-37.5 2.3-52.3l-.8-.5c-3.3 9.2-8.4 23-12.8 32.9l-43.1 97.7h-26V54.2zM1074.1 6.3h17.6c.5 8.9 5.4 13.5 13 13.5 7.9 0 12.8-4.6 13.3-13.5h17.6c-.8 19.6-13 30.6-30.6 30.6C1087.2 36.9 1074.9 25.6 1074.1 6.3z"/></g><g class="st0"><path class="st1" d="M124.4 54.4v178.5H98.7V78.6H60.9c-2.6 52-4.8 92.8-8.2 114-4.6 32.4-19.6 42.8-44.4 42.8V212c11.2 0 16.8-6.9 19.6-25.2 2.8-18.6 5.1-58.7 8.2-132.3H124.4zM180 164c-20.4-6.9-31.9-25.8-31.9-52.3 0-36.5 19.9-57.4 53.3-57.4h45.9v178.5h-25.8v-64.5h-15.8l-35.7 64.5h-28.6L180 164zM221.6 144.2V78.9h-19.9c-17.9 0-27.3 11-27.3 32.4 0 21.2 9.4 32.9 27 32.9H221.6zM363.4 78.9h-59.7v154h-25.8V54.4h85.4V78.9zM347.6 220.1c0-9.2 6.4-15.3 15.6-15.3s15.6 6.1 15.6 15.3c0 9.4-6.4 15.6-15.6 15.6S347.6 229.6 347.6 220.1zM395.5 180.4v-73.4c0-36.2 20.1-55.8 51.5-55.8 32.4 0 51.5 19.4 53 54.8h-25.5C473 85 463.8 75.6 446.8 75.6c-15 0-25 9.9-25 31.4v73.4c0 21.2 9.9 31.1 25.5 31.1 17.3 0 26.5-9.7 28.3-30.1h25.5c-1.8 35.2-20.9 54.6-53.8 54.6C415.9 236 395.5 216.3 395.5 180.4zM623 232.9h-25.8v-154h-50.5v154H521V54.4h102V232.9zM653.3 54.4h25.2v78c0 12.8-1 36-2.8 51.5l.8.5c3.3-8.7 7.9-21.2 12.8-31.6l43.4-98.4h26.3v178.5h-25.2v-77.8c0-13.5 1-37.5 2.3-52.3l-.8-.5c-3.3 9.2-8.4 23-12.8 32.9l-43.1 97.7h-26V54.4zM891.5 54.4v178.5h-25.8v-78.3h-50.5v78.3h-25.8V54.4h25.8v76h50.5v-76H891.5zM917 176.3V111c0-37.2 20.4-59.9 54.6-59.9s54.6 22.7 54.6 59.9v65.3c0 37.2-20.4 59.9-54.6 59.9S917 213.5 917 176.3zM999.6 176.3V111c0-22.4-9.7-34.7-28.1-34.7-18.6 0-28.1 12.2-28.1 34.7v65.3c0 22.4 9.4 34.7 28.1 34.7C989.9 211 999.6 198.7 999.6 176.3zM1051.6 54.4h25.2v78c0 12.8-1 36-2.8 51.5l.8.5c3.3-8.7 7.9-21.2 12.8-31.6l43.4-98.4h26.3v178.5h-25.2v-77.8c0-13.5 1-37.5 2.3-52.3l-.8-.5c-3.3 9.2-8.4 23-12.8 32.9l-43.1 97.7h-26V54.4zM1074.3 6.5h17.6c.5 8.9 5.4 13.5 13 13.5 7.9 0 12.8-4.6 13.3-13.5h17.6c-.8 19.6-13 30.6-30.6 30.6C1087.3 37.1 1075.1 25.8 1074.3 6.5z"/></g><g class="st0"><path class="st1" d="M124.6 54.6v178.5H98.8V78.8H61.1c-2.6 52-4.8 92.8-8.2 114-4.6 32.4-19.6 42.8-44.4 42.8v-23.5c11.2 0 16.8-6.9 19.6-25.2 2.8-18.6 5.1-58.7 8.2-132.3H124.6zM180.2 164.2c-20.4-6.9-31.9-25.8-31.9-52.3 0-36.5 19.9-57.4 53.3-57.4h45.9v178.5h-25.8v-64.5h-15.8l-35.7 64.5h-28.6L180.2 164.2zM221.8 144.3V79.1h-19.9c-17.9 0-27.3 11-27.3 32.4 0 21.2 9.4 32.9 27 32.9H221.8zM363.5 79.1h-59.7v154h-25.8V54.6h85.4V79.1zM347.7 220.3c0-9.2 6.4-15.3 15.6-15.3s15.6 6.1 15.6 15.3c0 9.4-6.4 15.6-15.6 15.6S347.7 229.8 347.7 220.3zM395.7 180.6v-73.4c0-36.2 20.1-55.8 51.5-55.8 32.4 0 51.5 19.4 53 54.8h-25.5c-1.5-20.9-10.7-30.3-27.8-30.3-15 0-25 9.9-25 31.4v73.4c0 21.2 9.9 31.1 25.5 31.1 17.3 0 26.5-9.7 28.3-30.1h25.5c-1.8 35.2-20.9 54.6-53.8 54.6C416.1 236.1 395.7 216.5 395.7 180.6zM623.1 233.1h-25.8v-154h-50.5v154h-25.8V54.6h102V233.1zM653.5 54.6h25.2v78c0 12.8-1 36-2.8 51.5l.8.5c3.3-8.7 7.9-21.2 12.8-31.6l43.4-98.4H759v178.5h-25.2v-77.8c0-13.5 1-37.5 2.3-52.3l-.8-.5c-3.3 9.2-8.4 23-12.8 32.9l-43.1 97.7h-26V54.6zM891.6 54.6v178.5h-25.8v-78.3h-50.5v78.3h-25.8V54.6h25.8v76h50.5v-76H891.6zM917.1 176.5v-65.3c0-37.2 20.4-59.9 54.6-59.9s54.6 22.7 54.6 59.9v65.3c0 37.2-20.4 59.9-54.6 59.9S917.1 213.7 917.1 176.5zM999.7 176.5v-65.3c0-22.4-9.7-34.7-28.1-34.7-18.6 0-28.1 12.2-28.1 34.7v65.3c0 22.4 9.4 34.7 28.1 34.7C990.1 211.2 999.7 198.9 999.7 176.5zM1051.8 54.6h25.2v78c0 12.8-1 36-2.8 51.5l.8.5c3.3-8.7 7.9-21.2 12.8-31.6l43.4-98.4h26.3v178.5h-25.2v-77.8c0-13.5 1-37.5 2.3-52.3l-.8-.5c-3.3 9.2-8.4 23-12.8 32.9l-43.1 97.7h-26V54.6zM1074.5 6.6h17.6c.5 8.9 5.4 13.5 13 13.5 7.9 0 12.8-4.6 13.3-13.5h17.6c-.8 19.6-13 30.6-30.6 30.6C1087.5 37.2 1075.2 26 1074.5 6.6z"/></g><g class="st0"><path class="st1" d="M124.8 54.8v178.5H99V79H61.3c-2.6 52-4.8 92.8-8.2 114-4.6 32.4-19.6 42.8-44.4 42.8v-23.5c11.2 0 16.8-6.9 19.6-25.2 2.8-18.6 5.1-58.7 8.2-132.3H124.8zM180.3 164.4c-20.4-6.9-31.9-25.8-31.9-52.3 0-36.5 19.9-57.4 53.3-57.4h45.9v178.5h-25.8v-64.5h-15.8l-35.7 64.5h-28.6L180.3 164.4zM221.9 144.5V79.2H202c-17.9 0-27.3 11-27.3 32.4 0 21.2 9.4 32.9 27 32.9H221.9zM363.7 79.2H304v154h-25.8V54.8h85.4V79.2zM347.9 220.5c0-9.2 6.4-15.3 15.6-15.3s15.6 6.1 15.6 15.3c0 9.4-6.4 15.6-15.6 15.6S347.9 230 347.9 220.5zM395.8 180.7v-73.4c0-36.2 20.1-55.8 51.5-55.8 32.4 0 51.5 19.4 53 54.8h-25.5c-1.5-20.9-10.7-30.3-27.8-30.3-15 0-25 9.9-25 31.4v73.4c0 21.2 9.9 31.1 25.5 31.1 17.3 0 26.5-9.7 28.3-30.1h25.5c-1.8 35.2-20.9 54.6-53.8 54.6C416.2 236.3 395.8 216.7 395.8 180.7zM623.3 233.3h-25.8v-154H547v154h-25.8V54.8h102V233.3zM653.6 54.8h25.2v78c0 12.8-1 36-2.8 51.5l.8.5c3.3-8.7 7.9-21.2 12.8-31.6l43.4-98.4h26.3v178.5h-25.2v-77.8c0-13.5 1-37.5 2.3-52.3l-.8-.5c-3.3 9.2-8.4 23-12.8 32.9l-43.1 97.7h-26V54.8zM891.8 54.8v178.5H866V155h-50.5v78.3h-25.8V54.8h25.8v76H866v-76H891.8zM917.3 176.7v-65.3c0-37.2 20.4-59.9 54.6-59.9s54.6 22.7 54.6 59.9v65.3c0 37.2-20.4 59.9-54.6 59.9S917.3 213.9 917.3 176.7zM999.9 176.7v-65.3c0-22.4-9.7-34.7-28.1-34.7-18.6 0-28.1 12.2-28.1 34.7v65.3c0 22.4 9.4 34.7 28.1 34.7C990.2 211.3 999.9 199.1 999.9 176.7zM1051.9 54.8h25.2v78c0 12.8-1 36-2.8 51.5l.8.5c3.3-8.7 7.9-21.2 12.8-31.6l43.4-98.4h26.3v178.5h-25.2v-77.8c0-13.5 1-37.5 2.3-52.3l-.8-.5c-3.3 9.2-8.4 23-12.8 32.9l-43.1 97.7h-26V54.8zM1074.6 6.8h17.6c.5 8.9 5.4 13.5 13 13.5 7.9 0 12.8-4.6 13.3-13.5h17.6c-.8 19.6-13 30.6-30.6 30.6C1087.6 37.4 1075.4 26.2 1074.6 6.8z"/></g><g class="st0"><path class="st1" d="M124.9 55v178.5H99.2V79.2H61.4c-2.6 52-4.8 92.8-8.2 114C48.7 225.6 33.6 236 8.9 236v-23.5c11.2 0 16.8-6.9 19.6-25.2 2.8-18.6 5.1-58.7 8.2-132.3H124.9zM180.5 164.6c-20.4-6.9-31.9-25.8-31.9-52.3 0-36.5 19.9-57.4 53.3-57.4h45.9v178.5h-25.8v-64.5h-15.8l-35.7 64.5H142L180.5 164.6zM222.1 144.7V79.4h-19.9c-17.9 0-27.3 11-27.3 32.4 0 21.2 9.4 32.9 27 32.9H222.1zM363.8 79.4h-59.7v154h-25.8V55h85.4V79.4zM348 220.7c0-9.2 6.4-15.3 15.6-15.3s15.6 6.1 15.6 15.3c0 9.4-6.4 15.6-15.6 15.6S348 230.1 348 220.7zM396 180.9v-73.4c0-36.2 20.1-55.8 51.5-55.8 32.4 0 51.5 19.4 53 54.8H475c-1.5-20.9-10.7-30.3-27.8-30.3-15 0-25 9.9-25 31.4v73.4c0 21.2 9.9 31.1 25.5 31.1 17.3 0 26.5-9.7 28.3-30.1h25.5c-1.8 35.2-20.9 54.6-53.8 54.6C416.4 236.5 396 216.9 396 180.9zM623.4 233.5h-25.8v-154h-50.5v154h-25.8V55h102V233.5zM653.8 55H679v78c0 12.8-1 36-2.8 51.5l.8.5c3.3-8.7 7.9-21.2 12.8-31.6L733.1 55h26.3v178.5h-25.2v-77.8c0-13.5 1-37.5 2.3-52.3l-.8-.5c-3.3 9.2-8.4 23-12.8 32.9l-43.1 97.7h-26V55zM891.9 55v178.5h-25.8v-78.3h-50.5v78.3h-25.8V55h25.8v76h50.5V55H891.9zM917.4 176.8v-65.3c0-37.2 20.4-59.9 54.6-59.9s54.6 22.7 54.6 59.9v65.3c0 37.2-20.4 59.9-54.6 59.9S917.4 214.1 917.4 176.8zM1000.1 176.8v-65.3c0-22.4-9.7-34.7-28.1-34.7-18.6 0-28.1 12.2-28.1 34.7v65.3c0 22.4 9.4 34.7 28.1 34.7C990.4 211.5 1000.1 199.3 1000.1 176.8zM1052.1 55h25.2v78c0 12.8-1 36-2.8 51.5l.8.5c3.3-8.7 7.9-21.2 12.8-31.6l43.4-98.4h26.3v178.5h-25.2v-77.8c0-13.5 1-37.5 2.3-52.3l-.8-.5c-3.3 9.2-8.4 23-12.8 32.9l-43.1 97.7h-26V55zM1074.8 7h17.6c.5 8.9 5.4 13.5 13 13.5 7.9 0 12.8-4.6 13.3-13.5h17.6c-.8 19.6-13 30.6-30.6 30.6C1087.8 37.6 1075.5 26.4 1074.8 7z"/></g><g class="st0"><path class="st1" d="M125.1 55.1v178.5H99.3V79.4H61.6c-2.6 52-4.8 92.8-8.2 114-4.6 32.4-19.6 42.8-44.4 42.8v-23.5c11.2 0 16.8-6.9 19.6-25.2 2.8-18.6 5.1-58.7 8.2-132.3H125.1zM180.7 164.8c-20.4-6.9-31.9-25.8-31.9-52.3 0-36.5 19.9-57.4 53.3-57.4H248v178.5h-25.8v-64.5h-15.8l-35.7 64.5h-28.6L180.7 164.8zM222.2 144.9V79.6h-19.9c-17.9 0-27.3 11-27.3 32.4 0 21.2 9.4 32.9 27 32.9H222.2zM364 79.6h-59.7v154h-25.8V55.1H364V79.6zM348.2 220.9c0-9.2 6.4-15.3 15.6-15.3s15.6 6.1 15.6 15.3c0 9.4-6.4 15.6-15.6 15.6S348.2 230.3 348.2 220.9zM396.1 181.1v-73.4c0-36.2 20.1-55.8 51.5-55.8 32.4 0 51.5 19.4 53 54.8h-25.5c-1.5-20.9-10.7-30.3-27.8-30.3-15 0-25 9.9-25 31.4v73.4c0 21.2 9.9 31.1 25.5 31.1 17.3 0 26.5-9.7 28.3-30.1h25.5c-1.8 35.2-20.9 54.6-53.8 54.6C416.5 236.7 396.1 217.1 396.1 181.1zM623.6 233.6h-25.8v-154h-50.5v154h-25.8V55.1h102V233.6zM653.9 55.1h25.2v78c0 12.8-1 36-2.8 51.5l.8.5c3.3-8.7 7.9-21.2 12.8-31.6l43.4-98.4h26.3v178.5h-25.2v-77.8c0-13.5 1-37.5 2.3-52.3l-.8-.5c-3.3 9.2-8.4 23-12.8 32.9l-43.1 97.7h-26V55.1zM892.1 55.1v178.5h-25.8v-78.3h-50.5v78.3h-25.8V55.1h25.8v76h50.5v-76H892.1zM917.6 177v-65.3c0-37.2 20.4-59.9 54.6-59.9s54.6 22.7 54.6 59.9V177c0 37.2-20.4 59.9-54.6 59.9S917.6 214.3 917.6 177zM1000.2 177v-65.3c0-22.4-9.7-34.7-28.1-34.7-18.6 0-28.1 12.2-28.1 34.7V177c0 22.4 9.4 34.7 28.1 34.7C990.5 211.7 1000.2 199.5 1000.2 177zM1052.2 55.1h25.2v78c0 12.8-1 36-2.8 51.5l.8.5c3.3-8.7 7.9-21.2 12.8-31.6l43.4-98.4h26.3v178.5h-25.2v-77.8c0-13.5 1-37.5 2.3-52.3l-.8-.5c-3.3 9.2-8.4 23-12.8 32.9l-43.1 97.7h-26V55.1zM1074.9 7.2h17.6c.5 8.9 5.4 13.5 13 13.5 7.9 0 12.8-4.6 13.3-13.5h17.6c-.8 19.6-13 30.6-30.6 30.6C1087.9 37.8 1075.7 26.6 1074.9 7.2z"/></g><g class="st0"><path class="st1" d="M125.2 55.3v178.5H99.5V79.6H61.7c-2.6 52-4.8 92.8-8.2 114-4.6 32.4-19.6 42.8-44.4 42.8v-23.5c11.2 0 16.8-6.9 19.6-25.2 2.8-18.6 5.1-58.7 8.2-132.3H125.2zM180.8 165c-20.4-6.9-31.9-25.8-31.9-52.3 0-36.5 19.9-57.4 53.3-57.4h45.9v178.5h-25.8v-64.5h-15.8l-35.7 64.5h-28.6L180.8 165zM222.4 145.1V79.8h-19.9c-17.9 0-27.3 11-27.3 32.4 0 21.2 9.4 32.9 27 32.9H222.4zM364.2 79.8h-59.7v154h-25.8V55.3h85.4V79.8zM348.3 221.1c0-9.2 6.4-15.3 15.6-15.3s15.6 6.1 15.6 15.3c0 9.4-6.4 15.6-15.6 15.6S348.3 230.5 348.3 221.1zM396.3 181.3v-73.4c0-36.2 20.1-55.8 51.5-55.8 32.4 0 51.5 19.4 53 54.8h-25.5c-1.5-20.9-10.7-30.3-27.8-30.3-15 0-25 9.9-25 31.4v73.4c0 21.2 9.9 31.1 25.5 31.1 17.3 0 26.5-9.7 28.3-30.1h25.5c-1.8 35.2-20.9 54.6-53.8 54.6C416.7 236.9 396.3 217.3 396.3 181.3zM623.7 233.8H598v-154h-50.5v154h-25.8V55.3h102V233.8zM654.1 55.3h25.2v78c0 12.8-1 36-2.8 51.5l.8.5c3.3-8.7 7.9-21.2 12.8-31.6l43.4-98.4h26.3v178.5h-25.2v-77.8c0-13.5 1-37.5 2.3-52.3l-.8-.5c-3.3 9.2-8.4 23-12.8 32.9l-43.1 97.7h-26V55.3zM892.3 55.3v178.5h-25.8v-78.3H816v78.3h-25.8V55.3H816v76h50.5v-76H892.3zM917.7 177.2v-65.3c0-37.2 20.4-59.9 54.6-59.9s54.6 22.7 54.6 59.9v65.3c0 37.2-20.4 59.9-54.6 59.9S917.7 214.5 917.7 177.2zM1000.4 177.2v-65.3c0-22.4-9.7-34.7-28.1-34.7-18.6 0-28.1 12.2-28.1 34.7v65.3c0 22.4 9.4 34.7 28.1 34.7C990.7 211.9 1000.4 199.7 1000.4 177.2zM1052.4 55.3h25.2v78c0 12.8-1 36-2.8 51.5l.8.5c3.3-8.7 7.9-21.2 12.8-31.6l43.4-98.4h26.3v178.5h-25.2v-77.8c0-13.5 1-37.5 2.3-52.3l-.8-.5c-3.3 9.2-8.4 23-12.8 32.9l-43.1 97.7h-26V55.3zM1075.1 7.4h17.6c.5 8.9 5.4 13.5 13 13.5 7.9 0 12.8-4.6 13.3-13.5h17.6c-.8 19.6-13 30.6-30.6 30.6C1088.1 38 1075.8 26.8 1075.1 7.4z"/></g><g class="st0"><path class="st1" d="M125.4 55.5V234H99.6V79.7H61.9c-2.6 52-4.8 92.8-8.2 114-4.6 32.4-19.6 42.8-44.4 42.8v-23.5c11.2 0 16.8-6.9 19.6-25.2 2.8-18.6 5.1-58.7 8.2-132.3H125.4zM181 165.2c-20.4-6.9-31.9-25.8-31.9-52.3 0-36.5 19.9-57.4 53.3-57.4h45.9V234h-25.8v-64.5h-15.8L171 234h-28.6L181 165.2zM222.5 145.3V80h-19.9c-17.9 0-27.3 11-27.3 32.4 0 21.2 9.4 32.9 27 32.9H222.5zM364.3 80h-59.7v154h-25.8V55.5h85.4V80zM348.5 221.3c0-9.2 6.4-15.3 15.6-15.3s15.6 6.1 15.6 15.3c0 9.4-6.4 15.6-15.6 15.6S348.5 230.7 348.5 221.3zM396.4 181.5V108c0-36.2 20.1-55.8 51.5-55.8 32.4 0 51.5 19.4 53 54.8h-25.5c-1.5-20.9-10.7-30.3-27.8-30.3-15 0-25 9.9-25 31.4v73.4c0 21.2 9.9 31.1 25.5 31.1 17.3 0 26.5-9.7 28.3-30.1H502c-1.8 35.2-20.9 54.6-53.8 54.6C416.8 237.1 396.4 217.4 396.4 181.5zM623.9 234h-25.8V80h-50.5v154h-25.8V55.5h102V234zM654.2 55.5h25.2v78c0 12.8-1 36-2.8 51.5l.8.5c3.3-8.7 7.9-21.2 12.8-31.6l43.4-98.4h26.3V234h-25.2v-77.8c0-13.5 1-37.5 2.3-52.3l-.8-.5c-3.3 9.2-8.4 23-12.8 32.9L680.2 234h-26V55.5zM892.4 55.5V234h-25.8v-78.3h-50.5V234h-25.8V55.5h25.8v76h50.5v-76H892.4zM917.9 177.4v-65.3c0-37.2 20.4-59.9 54.6-59.9s54.6 22.7 54.6 59.9v65.3c0 37.2-20.4 59.9-54.6 59.9S917.9 214.6 917.9 177.4zM1000.5 177.4v-65.3c0-22.4-9.7-34.7-28.1-34.7-18.6 0-28.1 12.2-28.1 34.7v65.3c0 22.4 9.4 34.7 28.1 34.7C990.8 212.1 1000.5 199.8 1000.5 177.4zM1052.5 55.5h25.2v78c0 12.8-1 36-2.8 51.5l.8.5c3.3-8.7 7.9-21.2 12.8-31.6l43.4-98.4h26.3V234h-25.2v-77.8c0-13.5 1-37.5 2.3-52.3l-.8-.5c-3.3 9.2-8.4 23-12.8 32.9l-43.1 97.7h-26V55.5zM1075.2 7.6h17.6c.5 8.9 5.4 13.5 13 13.5 7.9 0 12.8-4.6 13.3-13.5h17.6c-.8 19.6-13 30.6-30.6 30.6C1088.2 38.2 1076 27 1075.2 7.6z"/></g><g class="st0"><path class="st1" d="M125.5 55.7v178.5H99.8V79.9H62c-2.6 52-4.8 92.8-8.2 114-4.6 32.4-19.6 42.8-44.4 42.8v-23.5c11.2 0 16.8-6.9 19.6-25.2 2.8-18.6 5.1-58.7 8.2-132.3H125.5zM181.1 165.4c-20.4-6.9-31.9-25.8-31.9-52.3 0-36.5 19.9-57.4 53.3-57.4h45.9v178.5h-25.8v-64.5h-15.8l-35.7 64.5h-28.6L181.1 165.4zM222.7 145.5V80.2h-19.9c-17.9 0-27.3 11-27.3 32.4 0 21.2 9.4 32.9 27 32.9H222.7zM364.5 80.2h-59.7v154H279V55.7h85.4V80.2zM348.7 221.5c0-9.2 6.4-15.3 15.6-15.3s15.6 6.1 15.6 15.3c0 9.4-6.4 15.6-15.6 15.6S348.7 230.9 348.7 221.5zM396.6 181.7v-73.4c0-36.2 20.1-55.8 51.5-55.8 32.4 0 51.5 19.4 53 54.8h-25.5c-1.5-20.9-10.7-30.3-27.8-30.3-15 0-25 9.9-25 31.4v73.4c0 21.2 9.9 31.1 25.5 31.1 17.3 0 26.5-9.7 28.3-30.1h25.5c-1.8 35.2-20.9 54.6-53.8 54.6C417 237.3 396.6 217.6 396.6 181.7zM624.1 234.2h-25.8v-154h-50.5v154h-25.8V55.7h102V234.2zM654.4 55.7h25.2v78c0 12.8-1 36-2.8 51.5l.8.5c3.3-8.7 7.9-21.2 12.8-31.6l43.4-98.4H760v178.5h-25.2v-77.8c0-13.5 1-37.5 2.3-52.3l-.8-.5c-3.3 9.2-8.4 23-12.8 32.9l-43.1 97.7h-26V55.7zM892.6 55.7v178.5h-25.8v-78.3h-50.5v78.3h-25.8V55.7h25.8v76h50.5v-76H892.6zM918.1 177.6v-65.3c0-37.2 20.4-59.9 54.6-59.9s54.6 22.7 54.6 59.9v65.3c0 37.2-20.4 59.9-54.6 59.9S918.1 214.8 918.1 177.6zM1000.7 177.6v-65.3c0-22.4-9.7-34.7-28.1-34.7-18.6 0-28.1 12.2-28.1 34.7v65.3c0 22.4 9.4 34.7 28.1 34.7C991 212.3 1000.7 200 1000.7 177.6zM1052.7 55.7h25.2v78c0 12.8-1 36-2.8 51.5l.8.5c3.3-8.7 7.9-21.2 12.8-31.6l43.4-98.4h26.3v178.5H1133v-77.8c0-13.5 1-37.5 2.3-52.3l-.8-.5c-3.3 9.2-8.4 23-12.8 32.9l-43.1 97.7h-26V55.7zM1075.4 7.8h17.6c.5 8.9 5.4 13.5 13 13.5 7.9 0 12.8-4.6 13.3-13.5h17.6c-.8 19.6-13 30.6-30.6 30.6C1088.4 38.4 1076.2 27.1 1075.4 7.8z"/></g><g class="st0"><path class="st1" d="M125.7 55.9v178.5H99.9V80.1H62.2c-2.6 52-4.8 92.8-8.2 114-4.6 32.4-19.6 42.8-44.4 42.8v-23.5c11.2 0 16.8-6.9 19.6-25.2 2.8-18.6 5.1-58.7 8.2-132.3H125.7zM181.3 165.5c-20.4-6.9-31.9-25.8-31.9-52.3 0-36.5 19.9-57.4 53.3-57.4h45.9v178.5h-25.8v-64.5H207l-35.7 64.5h-28.6L181.3 165.5zM222.8 145.7V80.4H203c-17.9 0-27.3 11-27.3 32.4 0 21.2 9.4 32.9 27 32.9H222.8zM364.6 80.4H305v154h-25.8V55.9h85.4V80.4zM348.8 221.6c0-9.2 6.4-15.3 15.6-15.3s15.6 6.1 15.6 15.3c0 9.4-6.4 15.6-15.6 15.6S348.8 231.1 348.8 221.6zM396.8 181.9v-73.4c0-36.2 20.1-55.8 51.5-55.8 32.4 0 51.5 19.4 53 54.8h-25.5c-1.5-20.9-10.7-30.3-27.8-30.3-15 0-25 9.9-25 31.4v73.4c0 21.2 9.9 31.1 25.5 31.1 17.3 0 26.5-9.7 28.3-30.1h25.5c-1.8 35.2-20.9 54.6-53.8 54.6C417.2 237.5 396.8 217.8 396.8 181.9zM624.2 234.4h-25.8v-154H548v154h-25.8V55.9h102V234.4zM654.6 55.9h25.2v78c0 12.8-1 36-2.8 51.5l.8.5c3.3-8.7 7.9-21.2 12.8-31.6l43.4-98.4h26.3v178.5h-25.2v-77.8c0-13.5 1-37.5 2.3-52.3l-.8-.5c-3.3 9.2-8.4 23-12.8 32.9l-43.1 97.7h-26V55.9zM892.7 55.9v178.5H867v-78.3h-50.5v78.3h-25.8V55.9h25.8v76H867v-76H892.7zM918.2 177.8v-65.3c0-37.2 20.4-59.9 54.6-59.9s54.6 22.7 54.6 59.9v65.3c0 37.2-20.4 59.9-54.6 59.9S918.2 215 918.2 177.8zM1000.8 177.8v-65.3c0-22.4-9.7-34.7-28.1-34.7-18.6 0-28.1 12.2-28.1 34.7v65.3c0 22.4 9.4 34.7 28.1 34.7C991.1 212.5 1000.8 200.2 1000.8 177.8zM1052.9 55.9h25.2v78c0 12.8-1 36-2.8 51.5l.8.5c3.3-8.7 7.9-21.2 12.8-31.6l43.4-98.4h26.3v178.5h-25.2v-77.8c0-13.5 1-37.5 2.3-52.3l-.8-.5c-3.3 9.2-8.4 23-12.8 32.9l-43.1 97.7h-26V55.9zM1075.6 8h17.6c.5 8.9 5.4 13.5 13 13.5 7.9 0 12.8-4.6 13.3-13.5h17.6c-.8 19.6-13 30.6-30.6 30.6C1088.6 38.6 1076.3 27.3 1075.6 8z"/></g><g class="st0"><path class="st1" d="M125.8 56.1v178.5h-25.8V80.3H62.4c-2.6 52-4.8 92.8-8.2 114-4.6 32.4-19.6 42.8-44.4 42.8v-23.5c11.2 0 16.8-6.9 19.6-25.2 2.8-18.6 5.1-58.7 8.2-132.3H125.8zM181.4 165.7c-20.4-6.9-31.9-25.8-31.9-52.3 0-36.5 19.9-57.4 53.3-57.4h45.9v178.5H223v-64.5h-15.8l-35.7 64.5h-28.6L181.4 165.7zM223 145.8V80.6h-19.9c-17.9 0-27.3 11-27.3 32.4 0 21.2 9.4 32.9 27 32.9H223zM364.8 80.6h-59.7v154h-25.8V56.1h85.4V80.6zM349 221.8c0-9.2 6.4-15.3 15.6-15.3s15.6 6.1 15.6 15.3c0 9.4-6.4 15.6-15.6 15.6S349 231.3 349 221.8zM396.9 182.1v-73.4c0-36.2 20.1-55.8 51.5-55.8 32.4 0 51.5 19.4 53 54.8H476c-1.5-20.9-10.7-30.3-27.8-30.3-15 0-25 9.9-25 31.4v73.4c0 21.2 9.9 31.1 25.5 31.1 17.3 0 26.5-9.7 28.3-30.1h25.5c-1.8 35.2-20.9 54.6-53.8 54.6C417.3 237.6 396.9 218 396.9 182.1zM624.4 234.6h-25.8v-154h-50.5v154h-25.8V56.1h102V234.6zM654.7 56.1H680v78c0 12.8-1 36-2.8 51.5l.8.5c3.3-8.7 7.9-21.2 12.8-31.6L734 56.1h26.3v178.5H735v-77.8c0-13.5 1-37.5 2.3-52.3l-.8-.5c-3.3 9.2-8.4 23-12.8 32.9l-43.1 97.7h-26V56.1zM892.9 56.1v178.5h-25.8v-78.3h-50.5v78.3h-25.8V56.1h25.8v76h50.5v-76H892.9zM918.4 178v-65.3c0-37.2 20.4-59.9 54.6-59.9s54.6 22.7 54.6 59.9V178c0 37.2-20.4 59.9-54.6 59.9S918.4 215.2 918.4 178zM1001 178v-65.3c0-22.4-9.7-34.7-28.1-34.7-18.6 0-28.1 12.2-28.1 34.7V178c0 22.4 9.4 34.7 28.1 34.7C991.3 212.7 1001 200.4 1001 178zM1053 56.1h25.2v78c0 12.8-1 36-2.8 51.5l.8.5c3.3-8.7 7.9-21.2 12.8-31.6l43.4-98.4h26.3v178.5h-25.2v-77.8c0-13.5 1-37.5 2.3-52.3l-.8-.5c-3.3 9.2-8.4 23-12.8 32.9l-43.1 97.7h-26V56.1zM1075.7 8.1h17.6c.5 8.9 5.4 13.5 13 13.5 7.9 0 12.8-4.6 13.3-13.5h17.6c-.8 19.6-13 30.6-30.6 30.6C1088.7 38.7 1076.5 27.5 1075.7 8.1z"/></g><g class="st0"><path class="st1" d="M126 56.3v178.5h-25.8V80.5H62.5c-2.6 52-4.8 92.8-8.2 114-4.6 32.4-19.6 42.8-44.4 42.8v-23.5c11.2 0 16.8-6.9 19.6-25.2 2.8-18.6 5.1-58.7 8.2-132.3H126zM181.6 165.9c-20.4-6.9-31.9-25.8-31.9-52.3 0-36.5 19.9-57.4 53.3-57.4h45.9v178.5h-25.8v-64.5h-15.8l-35.7 64.5h-28.6L181.6 165.9zM223.2 146V80.7h-19.9c-17.9 0-27.3 11-27.3 32.4 0 21.2 9.4 32.9 27 32.9H223.2zM364.9 80.7h-59.7v154h-25.8V56.3h85.4V80.7zM349.1 222c0-9.2 6.4-15.3 15.6-15.3s15.6 6.1 15.6 15.3c0 9.4-6.4 15.6-15.6 15.6S349.1 231.5 349.1 222zM397.1 182.2v-73.4c0-36.2 20.1-55.8 51.5-55.8 32.4 0 51.5 19.4 53 54.8h-25.5c-1.5-20.9-10.7-30.3-27.8-30.3-15 0-25 9.9-25 31.4v73.4c0 21.2 9.9 31.1 25.5 31.1 17.3 0 26.5-9.7 28.3-30.1h25.5c-1.8 35.2-20.9 54.6-53.8 54.6C417.5 237.8 397.1 218.2 397.1 182.2zM624.5 234.8h-25.8v-154h-50.5v154h-25.8V56.3h102V234.8zM654.9 56.3h25.2v78c0 12.8-1 36-2.8 51.5l.8.5c3.3-8.7 7.9-21.2 12.8-31.6l43.4-98.4h26.3v178.5h-25.2V157c0-13.5 1-37.5 2.3-52.3l-.8-.5c-3.3 9.2-8.4 23-12.8 32.9l-43.1 97.7h-26V56.3zM893 56.3v178.5h-25.8v-78.3h-50.5v78.3H791V56.3h25.8v76h50.5v-76H893zM918.5 178.2v-65.3c0-37.2 20.4-59.9 54.6-59.9s54.6 22.7 54.6 59.9v65.3c0 37.2-20.4 59.9-54.6 59.9S918.5 215.4 918.5 178.2zM1001.2 178.2v-65.3c0-22.4-9.7-34.7-28.1-34.7-18.6 0-28.1 12.2-28.1 34.7v65.3c0 22.4 9.4 34.7 28.1 34.7C991.5 212.8 1001.2 200.6 1001.2 178.2zM1053.2 56.3h25.2v78c0 12.8-1 36-2.8 51.5l.8.5c3.3-8.7 7.9-21.2 12.8-31.6l43.4-98.4h26.3v178.5h-25.2V157c0-13.5 1-37.5 2.3-52.3l-.8-.5c-3.3 9.2-8.4 23-12.8 32.9l-43.1 97.7h-26V56.3zM1075.9 8.3h17.6c.5 8.9 5.4 13.5 13 13.5 7.9 0 12.8-4.6 13.3-13.5h17.6c-.8 19.6-13 30.6-30.6 30.6C1088.9 38.9 1076.6 27.7 1075.9 8.3z"/></g><g class="st0"><path class="st1" d="M126.2 56.5V235h-25.8V80.7H62.7c-2.6 52-4.8 92.8-8.2 114-4.6 32.4-19.6 42.8-44.4 42.8V214c11.2 0 16.8-6.9 19.6-25.2 2.8-18.6 5.1-58.7 8.2-132.3H126.2zM181.7 166.1c-20.4-6.9-31.9-25.8-31.9-52.3 0-36.5 19.9-57.4 53.3-57.4h45.9V235h-25.8v-64.5h-15.8L171.8 235h-28.6L181.7 166.1zM223.3 146.2V80.9h-19.9c-17.9 0-27.3 11-27.3 32.4 0 21.2 9.4 32.9 27 32.9H223.3zM365.1 80.9h-59.7v154h-25.8V56.5h85.4V80.9zM349.3 222.2c0-9.2 6.4-15.3 15.6-15.3s15.6 6.1 15.6 15.3c0 9.4-6.4 15.6-15.6 15.6S349.3 231.6 349.3 222.2zM397.2 182.4V109c0-36.2 20.1-55.8 51.5-55.8 32.4 0 51.5 19.4 53 54.8h-25.5c-1.5-20.9-10.7-30.3-27.8-30.3-15 0-25 9.9-25 31.4v73.4c0 21.2 9.9 31.1 25.5 31.1 17.3 0 26.5-9.7 28.3-30.1h25.5C501 218.6 481.9 238 449 238 417.6 238 397.2 218.4 397.2 182.4zM624.7 235h-25.8v-154h-50.5v154h-25.8V56.5h102V235zM655 56.5h25.2v78c0 12.8-1 36-2.8 51.5l.8.5c3.3-8.7 7.9-21.2 12.8-31.6l43.4-98.4h26.3V235h-25.2v-77.8c0-13.5 1-37.5 2.3-52.3l-.8-.5c-3.3 9.2-8.4 23-12.8 32.9L681 235h-26V56.5zM893.2 56.5V235h-25.8v-78.3h-50.5V235h-25.8V56.5h25.8v76h50.5v-76H893.2zM918.7 178.3v-65.3c0-37.2 20.4-59.9 54.6-59.9s54.6 22.7 54.6 59.9v65.3c0 37.2-20.4 59.9-54.6 59.9S918.7 215.6 918.7 178.3zM1001.3 178.3v-65.3c0-22.4-9.7-34.7-28.1-34.7-18.6 0-28.1 12.2-28.1 34.7v65.3c0 22.4 9.4 34.7 28.1 34.7C991.6 213 1001.3 200.8 1001.3 178.3zM1053.3 56.5h25.2v78c0 12.8-1 36-2.8 51.5l.8.5c3.3-8.7 7.9-21.2 12.8-31.6l43.4-98.4h26.3V235h-25.2v-77.8c0-13.5 1-37.5 2.3-52.3l-.8-.5c-3.3 9.2-8.4 23-12.8 32.9l-43.1 97.7h-26V56.5zM1076 8.5h17.6c.5 8.9 5.4 13.5 13 13.5 7.9 0 12.8-4.6 13.3-13.5h17.6c-.8 19.6-13 30.6-30.6 30.6C1089 39.1 1076.8 27.9 1076 8.5z"/></g><g class="st0"><path class="st1" d="M126.3 56.6v178.5h-25.8V80.9H62.8c-2.6 52-4.8 92.8-8.2 114-4.6 32.4-19.6 42.8-44.4 42.8v-23.5c11.2 0 16.8-6.9 19.6-25.2 2.8-18.6 5.1-58.7 8.2-132.3H126.3zM181.9 166.3c-20.4-6.9-31.9-25.8-31.9-52.3 0-36.5 19.9-57.4 53.3-57.4h45.9v178.5h-25.8v-64.5h-15.8L172 235.1h-28.6L181.9 166.3zM223.5 146.4V81.1h-19.9c-17.9 0-27.3 11-27.3 32.4 0 21.2 9.4 32.9 27 32.9H223.5zM365.3 81.1h-59.7v154h-25.8V56.6h85.4V81.1zM349.4 222.4c0-9.2 6.4-15.3 15.6-15.3s15.6 6.1 15.6 15.3c0 9.4-6.4 15.6-15.6 15.6S349.4 231.8 349.4 222.4zM397.4 182.6v-73.4c0-36.2 20.1-55.8 51.5-55.8 32.4 0 51.5 19.4 53 54.8h-25.5c-1.5-20.9-10.7-30.3-27.8-30.3-15 0-25 9.9-25 31.4v73.4c0 21.2 9.9 31.1 25.5 31.1 17.3 0 26.5-9.7 28.3-30.1H503c-1.8 35.2-20.9 54.6-53.8 54.6C417.8 238.2 397.4 218.6 397.4 182.6zM624.8 235.1h-25.8v-154h-50.5v154h-25.8V56.6h102V235.1zM655.2 56.6h25.2v78c0 12.8-1 36-2.8 51.5l.8.5c3.3-8.7 7.9-21.2 12.8-31.6l43.4-98.4h26.3v178.5h-25.2v-77.8c0-13.5 1-37.5 2.3-52.3l-.8-.5c-3.3 9.2-8.4 23-12.8 32.9l-43.1 97.7h-26V56.6zM893.3 56.6v178.5h-25.8v-78.3h-50.5v78.3h-25.8V56.6h25.8v76h50.5v-76H893.3zM918.8 178.5v-65.3c0-37.2 20.4-59.9 54.6-59.9S1028 76 1028 113.3v65.3c0 37.2-20.4 59.9-54.6 59.9S918.8 215.8 918.8 178.5zM1001.5 178.5v-65.3c0-22.4-9.7-34.7-28.1-34.7-18.6 0-28.1 12.2-28.1 34.7v65.3c0 22.4 9.4 34.7 28.1 34.7C991.8 213.2 1001.5 201 1001.5 178.5zM1053.5 56.6h25.2v78c0 12.8-1 36-2.8 51.5l.8.5c3.3-8.7 7.9-21.2 12.8-31.6l43.4-98.4h26.3v178.5h-25.2v-77.8c0-13.5 1-37.5 2.3-52.3l-.8-.5c-3.3 9.2-8.4 23-12.8 32.9l-43.1 97.7h-26V56.6zM1076.2 8.7h17.6c.5 8.9 5.4 13.5 13 13.5 7.9 0 12.8-4.6 13.3-13.5h17.6c-.8 19.6-13 30.6-30.6 30.6C1089.2 39.3 1076.9 28.1 1076.2 8.7z"/></g><g class="st0"><path class="st1" d="M126.5 56.8v178.5h-25.8V81.1H63c-2.6 52-4.8 92.8-8.2 114-4.6 32.4-19.6 42.8-44.4 42.8v-23.5c11.2 0 16.8-6.9 19.6-25.2 2.8-18.6 5.1-58.7 8.2-132.3H126.5zM182.1 166.5c-20.4-6.9-31.9-25.8-31.9-52.3 0-36.5 19.9-57.4 53.3-57.4h45.9v178.5h-25.8v-64.5h-15.8l-35.7 64.5h-28.6L182.1 166.5zM223.6 146.6V81.3h-19.9c-17.9 0-27.3 11-27.3 32.4 0 21.2 9.4 32.9 27 32.9H223.6zM365.4 81.3h-59.7v154H280V56.8h85.4V81.3zM349.6 222.6c0-9.2 6.4-15.3 15.6-15.3s15.6 6.1 15.6 15.3c0 9.4-6.4 15.6-15.6 15.6S349.6 232 349.6 222.6zM397.5 182.8v-73.4c0-36.2 20.1-55.8 51.5-55.8 32.4 0 51.5 19.4 53 54.8h-25.5C475.1 87.4 465.9 78 448.8 78c-15 0-25 9.9-25 31.4v73.4c0 21.2 9.9 31.1 25.5 31.1 17.3 0 26.5-9.7 28.3-30.1h25.5c-1.8 35.2-20.9 54.6-53.8 54.6C417.9 238.4 397.5 218.8 397.5 182.8zM625 235.3h-25.8v-154h-50.5v154H523V56.8h102V235.3zM655.3 56.8h25.2v78c0 12.8-1 36-2.8 51.5l.8.5c3.3-8.7 7.9-21.2 12.8-31.6l43.4-98.4h26.3v178.5h-25.2v-77.8c0-13.5 1-37.5 2.3-52.3l-.8-.5c-3.3 9.2-8.4 23-12.8 32.9l-43.1 97.7h-26V56.8zM893.5 56.8v178.5h-25.8V157h-50.5v78.3h-25.8V56.8h25.8v76h50.5v-76H893.5zM919 178.7v-65.3c0-37.2 20.4-59.9 54.6-59.9s54.6 22.7 54.6 59.9v65.3c0 37.2-20.4 59.9-54.6 59.9S919 216 919 178.7zM1001.6 178.7v-65.3c0-22.4-9.7-34.7-28.1-34.7-18.6 0-28.1 12.2-28.1 34.7v65.3c0 22.4 9.4 34.7 28.1 34.7C991.9 213.4 1001.6 201.2 1001.6 178.7zM1053.6 56.8h25.2v78c0 12.8-1 36-2.8 51.5l.8.5c3.3-8.7 7.9-21.2 12.8-31.6l43.4-98.4h26.3v178.5H1134v-77.8c0-13.5 1-37.5 2.3-52.3l-.8-.5c-3.3 9.2-8.4 23-12.8 32.9l-43.1 97.7h-26V56.8zM1076.3 8.9h17.6c.5 8.9 5.4 13.5 13 13.5 7.9 0 12.8-4.6 13.3-13.5h17.6c-.8 19.6-13 30.6-30.6 30.6C1089.3 39.5 1077.1 28.3 1076.3 8.9z"/></g><g class="st0"><path class="st1" d="M126.6 57v178.5h-25.8V81.2H63.1c-2.6 52-4.8 92.8-8.2 114-4.6 32.4-19.6 42.8-44.4 42.8v-23.5c11.2 0 16.8-6.9 19.6-25.2 2.8-18.6 5.1-58.7 8.2-132.3H126.6zM182.2 166.7c-20.4-6.9-31.9-25.8-31.9-52.3 0-36.5 19.9-57.4 53.3-57.4h45.9v178.5h-25.8V171H208l-35.7 64.5h-28.6L182.2 166.7zM223.8 146.8V81.5h-19.9c-17.9 0-27.3 11-27.3 32.4 0 21.2 9.4 32.9 27 32.9H223.8zM365.6 81.5h-59.7v154h-25.8V57h85.4V81.5zM349.8 222.8c0-9.2 6.4-15.3 15.6-15.3s15.6 6.1 15.6 15.3c0 9.4-6.4 15.6-15.6 15.6S349.8 232.2 349.8 222.8zM397.7 183v-73.4c0-36.2 20.1-55.8 51.5-55.8 32.4 0 51.5 19.4 53 54.8h-25.5c-1.5-20.9-10.7-30.3-27.8-30.3-15 0-25 9.9-25 31.4V183c0 21.2 9.9 31.1 25.5 31.1 17.3 0 26.5-9.7 28.3-30.1h25.5c-1.8 35.2-20.9 54.6-53.8 54.6C418.1 238.6 397.7 218.9 397.7 183zM625.1 235.5h-25.8v-154h-50.5v154h-25.8V57h102V235.5zM655.5 57h25.2v78c0 12.8-1 36-2.8 51.5l.8.5c3.3-8.7 7.9-21.2 12.8-31.6L734.8 57h26.3v178.5h-25.2v-77.8c0-13.5 1-37.5 2.3-52.3l-.8-.5c-3.3 9.2-8.4 23-12.8 32.9l-43.1 97.7h-26V57zM893.7 57v178.5h-25.8v-78.3h-50.5v78.3h-25.8V57h25.8v76h50.5V57H893.7zM919.2 178.9v-65.3c0-37.2 20.4-59.9 54.6-59.9s54.6 22.7 54.6 59.9v65.3c0 37.2-20.4 59.9-54.6 59.9S919.2 216.1 919.2 178.9zM1001.8 178.9v-65.3c0-22.4-9.7-34.7-28.1-34.7-18.6 0-28.1 12.2-28.1 34.7v65.3c0 22.4 9.4 34.7 28.1 34.7C992.1 213.6 1001.8 201.3 1001.8 178.9zM1053.8 57h25.2v78c0 12.8-1 36-2.8 51.5l.8.5c3.3-8.7 7.9-21.2 12.8-31.6l43.4-98.4h26.3v178.5h-25.2v-77.8c0-13.5 1-37.5 2.3-52.3l-.8-.5c-3.3 9.2-8.4 23-12.8 32.9l-43.1 97.7h-26V57zM1076.5 9.1h17.6c.5 8.9 5.4 13.5 13 13.5 7.9 0 12.8-4.6 13.3-13.5h17.6c-.8 19.6-13 30.6-30.6 30.6C1089.5 39.7 1077.3 28.5 1076.5 9.1z"/></g><g class="st0"><path class="st1" d="M126.8 57.2v178.5H101V81.4H63.3c-2.6 52-4.8 92.8-8.2 114-4.6 32.4-19.6 42.8-44.4 42.8v-23.5c11.2 0 16.8-6.9 19.6-25.2 2.8-18.6 5.1-58.7 8.2-132.3H126.8zM182.4 166.9c-20.4-6.9-31.9-25.8-31.9-52.3 0-36.5 19.9-57.4 53.3-57.4h45.9v178.5h-25.8v-64.5h-15.8l-35.7 64.5h-28.6L182.4 166.9zM223.9 147V81.7H204c-17.9 0-27.3 11-27.3 32.4 0 21.2 9.4 32.9 27 32.9H223.9zM365.7 81.7H306v154h-25.8V57.2h85.4V81.7zM349.9 223c0-9.2 6.4-15.3 15.6-15.3S381 213.8 381 223c0 9.4-6.4 15.6-15.6 15.6S349.9 232.4 349.9 223zM397.8 183.2v-73.4c0-36.2 20.1-55.8 51.5-55.8 32.4 0 51.5 19.4 53 54.8h-25.5c-1.5-20.9-10.7-30.3-27.8-30.3-15 0-25 9.9-25 31.4v73.4c0 21.2 9.9 31.1 25.5 31.1 17.3 0 26.5-9.7 28.3-30.1h25.5c-1.8 35.2-20.9 54.6-53.8 54.6C418.2 238.8 397.8 219.1 397.8 183.2zM625.3 235.7h-25.8v-154h-50.5v154h-25.8V57.2h102V235.7zM655.6 57.2h25.2v78c0 12.8-1 36-2.8 51.5l.8.5c3.3-8.7 7.9-21.2 12.8-31.6L735 57.2h26.3v178.5H736v-77.8c0-13.5 1-37.5 2.3-52.3l-.8-.5c-3.3 9.2-8.4 23-12.8 32.9l-43.1 97.7h-26V57.2zM893.8 57.2v178.5h-25.8v-78.3h-50.5v78.3h-25.8V57.2h25.8v76h50.5v-76H893.8zM919.3 179.1v-65.3c0-37.2 20.4-59.9 54.6-59.9s54.6 22.7 54.6 59.9v65.3c0 37.2-20.4 59.9-54.6 59.9S919.3 216.3 919.3 179.1zM1001.9 179.1v-65.3c0-22.4-9.7-34.7-28.1-34.7-18.6 0-28.1 12.2-28.1 34.7v65.3c0 22.4 9.4 34.7 28.1 34.7C992.2 213.8 1001.9 201.5 1001.9 179.1zM1054 57.2h25.2v78c0 12.8-1 36-2.8 51.5l.8.5c3.3-8.7 7.9-21.2 12.8-31.6l43.4-98.4h26.3v178.5h-25.2v-77.8c0-13.5 1-37.5 2.3-52.3l-.8-.5c-3.3 9.2-8.4 23-12.8 32.9l-43.1 97.7h-26V57.2zM1076.6 9.3h17.6c.5 8.9 5.4 13.5 13 13.5 7.9 0 12.8-4.6 13.3-13.5h17.6c-.8 19.6-13 30.6-30.6 30.6C1089.7 39.9 1077.4 28.6 1076.6 9.3z"/></g><g class="st0"><path class="st1" d="M126.9 57.4v178.5h-25.8V81.6H63.4c-2.6 52-4.8 92.8-8.2 114-4.6 32.4-19.6 42.8-44.4 42.8V215c11.2 0 16.8-6.9 19.6-25.2 2.8-18.6 5.1-58.7 8.2-132.3H126.9zM182.5 167c-20.4-6.9-31.9-25.8-31.9-52.3 0-36.5 19.9-57.4 53.3-57.4h45.9v178.5h-25.8v-64.5h-15.8l-35.7 64.5H144L182.5 167zM224.1 147.2V81.9h-19.9c-17.9 0-27.3 11-27.3 32.4 0 21.2 9.4 32.9 27 32.9H224.1zM365.9 81.9h-59.7v154h-25.8V57.4h85.4V81.9zM350.1 223.1c0-9.2 6.4-15.3 15.6-15.3s15.6 6.1 15.6 15.3c0 9.4-6.4 15.6-15.6 15.6S350.1 232.6 350.1 223.1zM398 183.4v-73.4c0-36.2 20.1-55.8 51.5-55.8 32.4 0 51.5 19.4 53 54.8h-25.5c-1.5-20.9-10.7-30.3-27.8-30.3-15 0-25 9.9-25 31.4v73.4c0 21.2 9.9 31.1 25.5 31.1 17.3 0 26.5-9.7 28.3-30.1h25.5c-1.8 35.2-20.9 54.6-53.8 54.6C418.4 239 398 219.3 398 183.4zM625.5 235.9h-25.8v-154h-50.5v154h-25.8V57.4h102V235.9zM655.8 57.4H681v78c0 12.8-1 36-2.8 51.5l.8.5c3.3-8.7 7.9-21.2 12.8-31.6l43.4-98.4h26.3v178.5h-25.2v-77.8c0-13.5 1-37.5 2.3-52.3l-.8-.5c-3.3 9.2-8.4 23-12.8 32.9l-43.1 97.7h-26V57.4zM894 57.4v178.5h-25.8v-78.3h-50.5v78.3H792V57.4h25.8v76h50.5v-76H894zM919.5 179.3V114c0-37.2 20.4-59.9 54.6-59.9s54.6 22.7 54.6 59.9v65.3c0 37.2-20.4 59.9-54.6 59.9S919.5 216.5 919.5 179.3zM1002.1 179.3V114c0-22.4-9.7-34.7-28.1-34.7-18.6 0-28.1 12.2-28.1 34.7v65.3c0 22.4 9.4 34.7 28.1 34.7C992.4 214 1002.1 201.7 1002.1 179.3zM1054.1 57.4h25.2v78c0 12.8-1 36-2.8 51.5l.8.5c3.3-8.7 7.9-21.2 12.8-31.6l43.4-98.4h26.3v178.5h-25.2v-77.8c0-13.5 1-37.5 2.3-52.3l-.8-.5c-3.3 9.2-8.4 23-12.8 32.9l-43.1 97.7h-26V57.4zM1076.8 9.5h17.6c.5 8.9 5.4 13.5 13 13.5 7.9 0 12.8-4.6 13.3-13.5h17.6c-.8 19.6-13 30.6-30.6 30.6C1089.8 40.1 1077.6 28.8 1076.8 9.5z"/></g><g class="st0"><path class="st1" d="M127.1 57.6v178.5h-25.8V81.8H63.6c-2.6 52-4.8 92.8-8.2 114-4.6 32.4-19.6 42.8-44.4 42.8v-23.5c11.2 0 16.8-6.9 19.6-25.2 2.8-18.6 5.1-58.7 8.2-132.3H127.1zM182.7 167.2c-20.4-6.9-31.9-25.8-31.9-52.3 0-36.5 19.9-57.4 53.3-57.4H250v178.5h-25.8v-64.5h-15.8l-35.7 64.5h-28.6L182.7 167.2zM224.3 147.3V82.1h-19.9c-17.9 0-27.3 11-27.3 32.4 0 21.2 9.4 32.9 27 32.9H224.3zM366 82.1h-59.7v154h-25.8V57.6H366V82.1zM350.2 223.3c0-9.2 6.4-15.3 15.6-15.3s15.6 6.1 15.6 15.3c0 9.4-6.4 15.6-15.6 15.6S350.2 232.8 350.2 223.3zM398.2 183.6v-73.4c0-36.2 20.1-55.8 51.5-55.8 32.4 0 51.5 19.4 53 54.8h-25.5c-1.5-20.9-10.7-30.3-27.8-30.3-15 0-25 9.9-25 31.4v73.4c0 21.2 9.9 31.1 25.5 31.1 17.3 0 26.5-9.7 28.3-30.1h25.5c-1.8 35.2-20.9 54.6-53.8 54.6C418.6 239.1 398.2 219.5 398.2 183.6zM625.6 236.1h-25.8v-154h-50.5v154h-25.8V57.6h102V236.1zM656 57.6h25.2v78c0 12.8-1 36-2.8 51.5l.8.5c3.3-8.7 7.9-21.2 12.8-31.6l43.4-98.4h26.3v178.5h-25.2v-77.8c0-13.5 1-37.5 2.3-52.3l-.8-.5c-3.3 9.2-8.4 23-12.8 32.9L682 236.1h-26V57.6zM894.1 57.6v178.5h-25.8v-78.3h-50.5v78.3h-25.8V57.6h25.8v76h50.5v-76H894.1zM919.6 179.5v-65.3c0-37.2 20.4-59.9 54.6-59.9s54.6 22.7 54.6 59.9v65.3c0 37.2-20.4 59.9-54.6 59.9S919.6 216.7 919.6 179.5zM1002.2 179.5v-65.3c0-22.4-9.7-34.7-28.1-34.7-18.6 0-28.1 12.2-28.1 34.7v65.3c0 22.4 9.4 34.7 28.1 34.7C992.6 214.2 1002.2 201.9 1002.2 179.5zM1054.3 57.6h25.2v78c0 12.8-1 36-2.8 51.5l.8.5c3.3-8.7 7.9-21.2 12.8-31.6l43.4-98.4h26.3v178.5h-25.2v-77.8c0-13.5 1-37.5 2.3-52.3l-.8-.5c-3.3 9.2-8.4 23-12.8 32.9l-43.1 97.7h-26V57.6zM1077 9.6h17.6c.5 8.9 5.4 13.5 13 13.5 7.9 0 12.8-4.6 13.3-13.5h17.6c-.8 19.6-13 30.6-30.6 30.6C1090 40.2 1077.7 29 1077 9.6z"/></g><g class="st0"><path class="st1" d="M127.3 57.8v178.5h-25.8V82H63.8c-2.6 52-4.8 92.8-8.2 114C51 228.4 36 238.8 11.2 238.8v-23.5c11.2 0 16.8-6.9 19.6-25.2 2.8-18.6 5.1-58.7 8.2-132.3H127.3zM182.8 167.4c-20.4-6.9-31.9-25.8-31.9-52.3 0-36.5 19.9-57.4 53.3-57.4h45.9v178.5h-25.8v-64.5h-15.8l-35.7 64.5h-28.6L182.8 167.4zM224.4 147.5V82.2h-19.9c-17.9 0-27.3 11-27.3 32.4 0 21.2 9.4 32.9 27 32.9H224.4zM366.2 82.2h-59.7v154h-25.8V57.8h85.4V82.2zM350.4 223.5c0-9.2 6.4-15.3 15.6-15.3s15.6 6.1 15.6 15.3c0 9.4-6.4 15.6-15.6 15.6S350.4 233 350.4 223.5zM398.3 183.7v-73.4c0-36.2 20.1-55.8 51.5-55.8 32.4 0 51.5 19.4 53 54.8h-25.5c-1.5-20.9-10.7-30.3-27.8-30.3-15 0-25 9.9-25 31.4v73.4c0 21.2 9.9 31.1 25.5 31.1 17.3 0 26.5-9.7 28.3-30.1h25.5c-1.8 35.2-20.9 54.6-53.8 54.6C418.7 239.3 398.3 219.7 398.3 183.7zM625.8 236.3H600v-154h-50.5v154h-25.8V57.8h102V236.3zM656.1 57.8h25.2v78c0 12.8-1 36-2.8 51.5l.8.5c3.3-8.7 7.9-21.2 12.8-31.6l43.4-98.4h26.3v178.5h-25.2v-77.8c0-13.5 1-37.5 2.3-52.3l-.8-.5c-3.3 9.2-8.4 23-12.8 32.9l-43.1 97.7h-26V57.8zM894.3 57.8v178.5h-25.8V158H818v78.3h-25.8V57.8H818v76h50.5v-76H894.3zM919.8 179.7v-65.3c0-37.2 20.4-59.9 54.6-59.9s54.6 22.7 54.6 59.9v65.3c0 37.2-20.4 59.9-54.6 59.9S919.8 216.9 919.8 179.7zM1002.4 179.7v-65.3c0-22.4-9.7-34.7-28.1-34.7-18.6 0-28.1 12.2-28.1 34.7v65.3c0 22.4 9.4 34.7 28.1 34.7C992.7 214.3 1002.4 202.1 1002.4 179.7zM1054.4 57.8h25.2v78c0 12.8-1 36-2.8 51.5l.8.5c3.3-8.7 7.9-21.2 12.8-31.6l43.4-98.4h26.3v178.5h-25.2v-77.8c0-13.5 1-37.5 2.3-52.3l-.8-.5c-3.3 9.2-8.4 23-12.8 32.9l-43.1 97.7h-26V57.8zM1077.1 9.8h17.6c.5 8.9 5.4 13.5 13 13.5 7.9 0 12.8-4.6 13.3-13.5h17.6c-.8 19.6-13 30.6-30.6 30.6C1090.1 40.4 1077.9 29.2 1077.1 9.8z"/></g><g class="st0"><path class="st1" d="M127.4 58v178.5h-25.8V82.2H63.9c-2.6 52-4.8 92.8-8.2 114C51.2 228.6 36.1 239 11.4 239v-23.5c11.2 0 16.8-6.9 19.6-25.2 2.8-18.6 5.1-58.7 8.2-132.3H127.4zM183 167.6c-20.4-6.9-31.9-25.8-31.9-52.3 0-36.5 19.9-57.4 53.3-57.4h45.9v178.5h-25.8v-64.5h-15.8l-35.7 64.5h-28.6L183 167.6zM224.6 147.7V82.4h-19.9c-17.9 0-27.3 11-27.3 32.4 0 21.2 9.4 32.9 27 32.9H224.6zM366.3 82.4h-59.7v154h-25.8V58h85.4V82.4zM350.5 223.7c0-9.2 6.4-15.3 15.6-15.3s15.6 6.1 15.6 15.3c0 9.4-6.4 15.6-15.6 15.6S350.5 233.1 350.5 223.7zM398.5 183.9v-73.4c0-36.2 20.1-55.8 51.5-55.8 32.4 0 51.5 19.4 53 54.8h-25.5c-1.5-20.9-10.7-30.3-27.8-30.3-15 0-25 9.9-25 31.4v73.4c0 21.2 9.9 31.1 25.5 31.1 17.3 0 26.5-9.7 28.3-30.1H504c-1.8 35.2-20.9 54.6-53.8 54.6C418.9 239.5 398.5 219.9 398.5 183.9zM625.9 236.5h-25.8v-154h-50.5v154h-25.8V58h102V236.5zM656.3 58h25.2v78c0 12.8-1 36-2.8 51.5l.8.5c3.3-8.7 7.9-21.2 12.8-31.6L735.6 58h26.3v178.5h-25.2v-77.8c0-13.5 1-37.5 2.3-52.3l-.8-.5c-3.3 9.2-8.4 23-12.8 32.9l-43.1 97.7h-26V58zM894.4 58v178.5h-25.8v-78.3h-50.5v78.3h-25.8V58h25.8v76h50.5V58H894.4zM919.9 179.8v-65.3c0-37.2 20.4-59.9 54.6-59.9s54.6 22.7 54.6 59.9v65.3c0 37.2-20.4 59.9-54.6 59.9S919.9 217.1 919.9 179.8zM1002.6 179.8v-65.3c0-22.4-9.7-34.7-28.1-34.7-18.6 0-28.1 12.2-28.1 34.7v65.3c0 22.4 9.4 34.7 28.1 34.7C992.9 214.5 1002.6 202.3 1002.6 179.8zM1054.6 58h25.2v78c0 12.8-1 36-2.8 51.5l.8.5c3.3-8.7 7.9-21.2 12.8-31.6l43.4-98.4h26.3v178.5h-25.2v-77.8c0-13.5 1-37.5 2.3-52.3l-.8-.5c-3.3 9.2-8.4 23-12.8 32.9l-43.1 97.7h-26V58zM1077.3 10h17.6c.5 8.9 5.4 13.5 13 13.5 7.9 0 12.8-4.6 13.3-13.5h17.6c-.8 19.6-13 30.6-30.6 30.6C1090.3 40.6 1078 29.4 1077.3 10z"/></g><g class="st0"><path class="st1" d="M127.6 58.1v178.5h-25.8V82.4H64.1c-2.6 52-4.8 92.8-8.2 114-4.6 32.4-19.6 42.8-44.4 42.8v-23.5c11.2 0 16.8-6.9 19.6-25.2 2.8-18.6 5.1-58.7 8.2-132.3H127.6zM183.2 167.8c-20.4-6.9-31.9-25.8-31.9-52.3 0-36.5 19.9-57.4 53.3-57.4h45.9v178.5h-25.8v-64.5h-15.8l-35.7 64.5h-28.6L183.2 167.8zM224.7 147.9V82.6h-19.9c-17.9 0-27.3 11-27.3 32.4 0 21.2 9.4 32.9 27 32.9H224.7zM366.5 82.6h-59.7v154h-25.8V58.1h85.4V82.6zM350.7 223.9c0-9.2 6.4-15.3 15.6-15.3s15.6 6.1 15.6 15.3c0 9.4-6.4 15.6-15.6 15.6S350.7 233.3 350.7 223.9zM398.6 184.1v-73.4c0-36.2 20.1-55.8 51.5-55.8 32.4 0 51.5 19.4 53 54.8h-25.5c-1.5-20.9-10.7-30.3-27.8-30.3-15 0-25 9.9-25 31.4v73.4c0 21.2 9.9 31.1 25.5 31.1 17.3 0 26.5-9.7 28.3-30.1h25.5c-1.8 35.2-20.9 54.6-53.8 54.6C419 239.7 398.6 220.1 398.6 184.1zM626.1 236.6h-25.8v-154h-50.5v154h-25.8V58.1h102V236.6zM656.4 58.1h25.2v78c0 12.8-1 36-2.8 51.5l.8.5c3.3-8.7 7.9-21.2 12.8-31.6l43.4-98.4H762v178.5h-25.2v-77.8c0-13.5 1-37.5 2.3-52.3l-.8-.5c-3.3 9.2-8.4 23-12.8 32.9l-43.1 97.7h-26V58.1zM894.6 58.1v178.5h-25.8v-78.3h-50.5v78.3h-25.8V58.1h25.8v76h50.5v-76H894.6zM920.1 180v-65.3c0-37.2 20.4-59.9 54.6-59.9s54.6 22.7 54.6 59.9V180c0 37.2-20.4 59.9-54.6 59.9S920.1 217.3 920.1 180zM1002.7 180v-65.3c0-22.4-9.7-34.7-28.1-34.7-18.6 0-28.1 12.2-28.1 34.7V180c0 22.4 9.4 34.7 28.1 34.7C993 214.7 1002.7 202.5 1002.7 180zM1054.7 58.1h25.2v78c0 12.8-1 36-2.8 51.5l.8.5c3.3-8.7 7.9-21.2 12.8-31.6l43.4-98.4h26.3v178.5h-25.2v-77.8c0-13.5 1-37.5 2.3-52.3l-.8-.5c-3.3 9.2-8.4 23-12.8 32.9l-43.1 97.7h-26V58.1zM1077.4 10.2h17.6c.5 8.9 5.4 13.5 13 13.5 7.9 0 12.8-4.6 13.3-13.5h17.6c-.8 19.6-13 30.6-30.6 30.6C1090.4 40.8 1078.2 29.6 1077.4 10.2z"/></g><g class="st0"><path class="st1" d="M127.7 58.3v178.5H102V82.6H64.2c-2.6 52-4.8 92.8-8.2 114-4.6 32.4-19.6 42.8-44.4 42.8v-23.5c11.2 0 16.8-6.9 19.6-25.2 2.8-18.6 5.1-58.7 8.2-132.3H127.7zM183.3 168c-20.4-6.9-31.9-25.8-31.9-52.3 0-36.5 19.9-57.4 53.3-57.4h45.9v178.5h-25.8v-64.5h-15.8l-35.7 64.5h-28.6L183.3 168zM224.9 148.1V82.8H205c-17.9 0-27.3 11-27.3 32.4 0 21.2 9.4 32.9 27 32.9H224.9zM366.7 82.8H307v154h-25.8V58.3h85.4V82.8zM350.8 224.1c0-9.2 6.4-15.3 15.6-15.3s15.6 6.1 15.6 15.3c0 9.4-6.4 15.6-15.6 15.6S350.8 233.5 350.8 224.1zM398.8 184.3v-73.4c0-36.2 20.1-55.8 51.5-55.8 32.4 0 51.5 19.4 53 54.8h-25.5c-1.5-20.9-10.7-30.3-27.8-30.3-15 0-25 9.9-25 31.4v73.4c0 21.2 9.9 31.1 25.5 31.1 17.3 0 26.5-9.7 28.3-30.1h25.5c-1.8 35.2-20.9 54.6-53.8 54.6C419.2 239.9 398.8 220.3 398.8 184.3zM626.2 236.8h-25.8v-154H550v154h-25.8V58.3h102V236.8zM656.6 58.3h25.2v78c0 12.8-1 36-2.8 51.5l.8.5c3.3-8.7 7.9-21.2 12.8-31.6l43.4-98.4h26.3v178.5h-25.2v-77.8c0-13.5 1-37.5 2.3-52.3l-.8-.5c-3.3 9.2-8.4 23-12.8 32.9l-43.1 97.7h-26V58.3zM894.8 58.3v178.5H869v-78.3h-50.5v78.3h-25.8V58.3h25.8v76H869v-76H894.8zM920.2 180.2v-65.3c0-37.2 20.4-59.9 54.6-59.9s54.6 22.7 54.6 59.9v65.3c0 37.2-20.4 59.9-54.6 59.9S920.2 217.5 920.2 180.2zM1002.9 180.2v-65.3c0-22.4-9.7-34.7-28.1-34.7-18.6 0-28.1 12.2-28.1 34.7v65.3c0 22.4 9.4 34.7 28.1 34.7C993.2 214.9 1002.9 202.7 1002.9 180.2zM1054.9 58.3h25.2v78c0 12.8-1 36-2.8 51.5l.8.5c3.3-8.7 7.9-21.2 12.8-31.6l43.4-98.4h26.3v178.5h-25.2v-77.8c0-13.5 1-37.5 2.3-52.3l-.8-.5c-3.3 9.2-8.4 23-12.8 32.9l-43.1 97.7h-26V58.3zM1077.6 10.4h17.6c.5 8.9 5.4 13.5 13 13.5 7.9 0 12.8-4.6 13.3-13.5h17.6c-.8 19.6-13 30.6-30.6 30.6C1090.6 41 1078.3 29.8 1077.6 10.4z"/></g><g class="st0"><path class="st1" d="M127.9 58.5V237h-25.8V82.7H64.4c-2.6 52-4.8 92.8-8.2 114-4.6 32.4-19.6 42.8-44.4 42.8v-23.5c11.2 0 16.8-6.9 19.6-25.2 2.8-18.6 5.1-58.7 8.2-132.3H127.9zM183.5 168.2c-20.4-6.9-31.9-25.8-31.9-52.3 0-36.5 19.9-57.4 53.3-57.4h45.9V237H225v-64.5h-15.8L173.5 237H145L183.5 168.2zM225 148.3V83h-19.9c-17.9 0-27.3 11-27.3 32.4 0 21.2 9.4 32.9 27 32.9H225zM366.8 83h-59.7v154h-25.8V58.5h85.4V83zM351 224.3c0-9.2 6.4-15.3 15.6-15.3s15.6 6.1 15.6 15.3c0 9.4-6.4 15.6-15.6 15.6S351 233.7 351 224.3zM398.9 184.5V111c0-36.2 20.1-55.8 51.5-55.8 32.4 0 51.5 19.4 53 54.8H478c-1.5-20.9-10.7-30.3-27.8-30.3-15 0-25 9.9-25 31.4v73.4c0 21.2 9.9 31.1 25.5 31.1 17.3 0 26.5-9.7 28.3-30.1h25.5c-1.8 35.2-20.9 54.6-53.8 54.6C419.3 240.1 398.9 220.4 398.9 184.5zM626.4 237h-25.8V83h-50.5v154h-25.8V58.5h102V237zM656.7 58.5H682v78c0 12.8-1 36-2.8 51.5l.8.5c3.3-8.7 7.9-21.2 12.8-31.6L736 58.5h26.3V237h-25.2v-77.8c0-13.5 1-37.5 2.3-52.3l-.8-.5c-3.3 9.2-8.4 23-12.8 32.9L682.7 237h-26V58.5zM894.9 58.5V237h-25.8v-78.3h-50.5V237h-25.8V58.5h25.8v76h50.5v-76H894.9zM920.4 180.4v-65.3c0-37.2 20.4-59.9 54.6-59.9s54.6 22.7 54.6 59.9v65.3c0 37.2-20.4 59.9-54.6 59.9S920.4 217.6 920.4 180.4zM1003 180.4v-65.3c0-22.4-9.7-34.7-28.1-34.7-18.6 0-28.1 12.2-28.1 34.7v65.3c0 22.4 9.4 34.7 28.1 34.7C993.3 215.1 1003 202.8 1003 180.4zM1055 58.5h25.2v78c0 12.8-1 36-2.8 51.5l.8.5c3.3-8.7 7.9-21.2 12.8-31.6l43.4-98.4h26.3V237h-25.2v-77.8c0-13.5 1-37.5 2.3-52.3l-.8-.5c-3.3 9.2-8.4 23-12.8 32.9l-43.1 97.7h-26V58.5zM1077.7 10.6h17.6c.5 8.9 5.4 13.5 13 13.5 7.9 0 12.8-4.6 13.3-13.5h17.6c-.8 19.6-13 30.6-30.6 30.6C1090.7 41.2 1078.5 30 1077.7 10.6z"/></g><g class="st0"><path class="st1" d="M128 58.7v178.5h-25.8V82.9H64.5c-2.6 52-4.8 92.8-8.2 114-4.6 32.4-19.6 42.8-44.4 42.8v-23.5c11.2 0 16.8-6.9 19.6-25.2 2.8-18.6 5.1-58.7 8.2-132.3H128zM183.6 168.4c-20.4-6.9-31.9-25.8-31.9-52.3 0-36.5 19.9-57.4 53.3-57.4h45.9v178.5h-25.8v-64.5h-15.8l-35.7 64.5h-28.6L183.6 168.4zM225.2 148.5V83.2h-19.9c-17.9 0-27.3 11-27.3 32.4 0 21.2 9.4 32.9 27 32.9H225.2zM367 83.2h-59.7v154h-25.8V58.7H367V83.2zM351.2 224.5c0-9.2 6.4-15.3 15.6-15.3s15.6 6.1 15.6 15.3c0 9.4-6.4 15.6-15.6 15.6S351.2 233.9 351.2 224.5zM399.1 184.7v-73.4c0-36.2 20.1-55.8 51.5-55.8 32.4 0 51.5 19.4 53 54.8h-25.5c-1.5-20.9-10.7-30.3-27.8-30.3-15 0-25 9.9-25 31.4v73.4c0 21.2 9.9 31.1 25.5 31.1 17.3 0 26.5-9.7 28.3-30.1h25.5c-1.8 35.2-20.9 54.6-53.8 54.6C419.5 240.3 399.1 220.6 399.1 184.7zM626.6 237.2h-25.8v-154h-50.5v154h-25.8V58.7h102V237.2zM656.9 58.7h25.2v78c0 12.8-1 36-2.8 51.5l.8.5c3.3-8.7 7.9-21.2 12.8-31.6l43.4-98.4h26.3v178.5h-25.2v-77.8c0-13.5 1-37.5 2.3-52.3l-.8-.5c-3.3 9.2-8.4 23-12.8 32.9l-43.1 97.7h-26V58.7zM895.1 58.7v178.5h-25.8v-78.3h-50.5v78.3h-25.8V58.7h25.8v76h50.5v-76H895.1zM920.6 180.6v-65.3c0-37.2 20.4-59.9 54.6-59.9s54.6 22.7 54.6 59.9v65.3c0 37.2-20.4 59.9-54.6 59.9S920.6 217.8 920.6 180.6zM1003.2 180.6v-65.3c0-22.4-9.7-34.7-28.1-34.7-18.6 0-28.1 12.2-28.1 34.7v65.3c0 22.4 9.4 34.7 28.1 34.7C993.5 215.3 1003.2 203 1003.2 180.6zM1055.2 58.7h25.2v78c0 12.8-1 36-2.8 51.5l.8.5c3.3-8.7 7.9-21.2 12.8-31.6l43.4-98.4h26.3v178.5h-25.2v-77.8c0-13.5 1-37.5 2.3-52.3l-.8-.5c-3.3 9.2-8.4 23-12.8 32.9l-43.1 97.7h-26V58.7zM1077.9 10.8h17.6c.5 8.9 5.4 13.5 13 13.5 7.9 0 12.8-4.6 13.3-13.5h17.6c-.8 19.6-13 30.6-30.6 30.6C1090.9 41.4 1078.7 30.1 1077.9 10.8z"/></g><g class="st0"><path class="st1" d="M128.2 58.9v178.5h-25.8V83.1H64.7c-2.6 52-4.8 92.8-8.2 114-4.6 32.4-19.6 42.8-44.4 42.8v-23.5c11.2 0 16.8-6.9 19.6-25.2 2.8-18.6 5.1-58.7 8.2-132.3H128.2zM183.8 168.5c-20.4-6.9-31.9-25.8-31.9-52.3 0-36.5 19.9-57.4 53.3-57.4h45.9v178.5h-25.8v-64.5h-15.8l-35.7 64.5h-28.6L183.8 168.5zM225.3 148.7V83.4h-19.9c-17.9 0-27.3 11-27.3 32.4 0 21.2 9.4 32.9 27 32.9H225.3zM367.1 83.4h-59.7v154h-25.8V58.9h85.4V83.4zM351.3 224.6c0-9.2 6.4-15.3 15.6-15.3s15.6 6.1 15.6 15.3c0 9.4-6.4 15.6-15.6 15.6S351.3 234.1 351.3 224.6zM399.3 184.9v-73.4c0-36.2 20.1-55.8 51.5-55.8 32.4 0 51.5 19.4 53 54.8h-25.5c-1.5-20.9-10.7-30.3-27.8-30.3-15 0-25 9.9-25 31.4v73.4c0 21.2 9.9 31.1 25.5 31.1 17.3 0 26.5-9.7 28.3-30.1h25.5c-1.8 35.2-20.9 54.6-53.8 54.6C419.7 240.5 399.3 220.8 399.3 184.9zM626.7 237.4H601v-154h-50.5v154h-25.8V58.9h102V237.4zM657.1 58.9h25.2v78c0 12.8-1 36-2.8 51.5l.8.5c3.3-8.7 7.9-21.2 12.8-31.6l43.4-98.4h26.3v178.5h-25.2v-77.8c0-13.5 1-37.5 2.3-52.3l-.8-.5c-3.3 9.2-8.4 23-12.8 32.9l-43.1 97.7h-26V58.9zM895.2 58.9v178.5h-25.8v-78.3H819v78.3h-25.8V58.9H819v76h50.5v-76H895.2zM920.7 180.8v-65.3c0-37.2 20.4-59.9 54.6-59.9s54.6 22.7 54.6 59.9v65.3c0 37.2-20.4 59.9-54.6 59.9S920.7 218 920.7 180.8zM1003.3 180.8v-65.3c0-22.4-9.7-34.7-28.1-34.7-18.6 0-28.1 12.2-28.1 34.7v65.3c0 22.4 9.4 34.7 28.1 34.7C993.6 215.5 1003.3 203.2 1003.3 180.8zM1055.4 58.9h25.2v78c0 12.8-1 36-2.8 51.5l.8.5c3.3-8.7 7.9-21.2 12.8-31.6l43.4-98.4h26.3v178.5h-25.2v-77.8c0-13.5 1-37.5 2.3-52.3l-.8-.5c-3.3 9.2-8.4 23-12.8 32.9l-43.1 97.7h-26V58.9zM1078.1 11h17.6c.5 8.9 5.4 13.5 13 13.5 7.9 0 12.8-4.6 13.3-13.5h17.6c-.8 19.6-13 30.6-30.6 30.6C1091.1 41.6 1078.8 30.3 1078.1 11z"/></g><g class="st0"><path class="st1" d="M128.3 59.1v178.5h-25.8V83.3H64.9c-2.6 52-4.8 92.8-8.2 114-4.6 32.4-19.6 42.8-44.4 42.8v-23.5c11.2 0 16.8-6.9 19.6-25.2 2.8-18.6 5.1-58.7 8.2-132.3H128.3zM183.9 168.7c-20.4-6.9-31.9-25.8-31.9-52.3 0-36.5 19.9-57.4 53.3-57.4h45.9v178.5h-25.8v-64.5h-15.8L174 237.6h-28.6L183.9 168.7zM225.5 148.8V83.6h-19.9c-17.9 0-27.3 11-27.3 32.4 0 21.2 9.4 32.9 27 32.9H225.5zM367.3 83.6h-59.7v154h-25.8V59.1h85.4V83.6zM351.5 224.8c0-9.2 6.4-15.3 15.6-15.3s15.6 6.1 15.6 15.3c0 9.4-6.4 15.6-15.6 15.6S351.5 234.3 351.5 224.8zM399.4 185.1v-73.4c0-36.2 20.1-55.8 51.5-55.8 32.4 0 51.5 19.4 53 54.8h-25.5c-1.5-20.9-10.7-30.3-27.8-30.3-15 0-25 9.9-25 31.4v73.4c0 21.2 9.9 31.1 25.5 31.1 17.3 0 26.5-9.7 28.3-30.1H505c-1.8 35.2-20.9 54.6-53.8 54.6C419.8 240.6 399.4 221 399.4 185.1zM626.9 237.6h-25.8v-154h-50.5v154h-25.8V59.1h102V237.6zM657.2 59.1h25.2v78c0 12.8-1 36-2.8 51.5l.8.5c3.3-8.7 7.9-21.2 12.8-31.6l43.4-98.4h26.3v178.5h-25.2v-77.8c0-13.5 1-37.5 2.3-52.3l-.8-.5c-3.3 9.2-8.4 23-12.8 32.9l-43.1 97.7h-26V59.1zM895.4 59.1v178.5h-25.8v-78.3h-50.5v78.3h-25.8V59.1h25.8v76h50.5v-76H895.4zM920.9 181v-65.3c0-37.2 20.4-59.9 54.6-59.9s54.6 22.7 54.6 59.9V181c0 37.2-20.4 59.9-54.6 59.9S920.9 218.2 920.9 181zM1003.5 181v-65.3c0-22.4-9.7-34.7-28.1-34.7-18.6 0-28.1 12.2-28.1 34.7V181c0 22.4 9.4 34.7 28.1 34.7C993.8 215.7 1003.5 203.4 1003.5 181zM1055.5 59.1h25.2v78c0 12.8-1 36-2.8 51.5l.8.5c3.3-8.7 7.9-21.2 12.8-31.6l43.4-98.4h26.3v178.5h-25.2v-77.8c0-13.5 1-37.5 2.3-52.3l-.8-.5c-3.3 9.2-8.4 23-12.8 32.9l-43.1 97.7h-26V59.1zM1078.2 11.1h17.6c.5 8.9 5.4 13.5 13 13.5 7.9 0 12.8-4.6 13.3-13.5h17.6c-.8 19.6-13 30.6-30.6 30.6C1091.2 41.7 1079 30.5 1078.2 11.1z"/></g><g class="st0"><path class="st1" d="M128.5 59.3v178.5h-25.8V83.5H65c-2.6 52-4.8 92.8-8.2 114-4.6 32.4-19.6 42.8-44.4 42.8v-23.5c11.2 0 16.8-6.9 19.6-25.2 2.8-18.6 5.1-58.7 8.2-132.3H128.5zM184.1 168.9c-20.4-6.9-31.9-25.8-31.9-52.3 0-36.5 19.9-57.4 53.3-57.4h45.9v178.5h-25.8v-64.5h-15.8l-35.7 64.5h-28.6L184.1 168.9zM225.7 149V83.7h-19.9c-17.9 0-27.3 11-27.3 32.4 0 21.2 9.4 32.9 27 32.9H225.7zM367.4 83.7h-59.7v154H282V59.3h85.4V83.7zM351.6 225c0-9.2 6.4-15.3 15.6-15.3s15.6 6.1 15.6 15.3c0 9.4-6.4 15.6-15.6 15.6S351.6 234.5 351.6 225zM399.6 185.2v-73.4c0-36.2 20.1-55.8 51.5-55.8 32.4 0 51.5 19.4 53 54.8h-25.5c-1.5-20.9-10.7-30.3-27.8-30.3-15 0-25 9.9-25 31.4v73.4c0 21.2 9.9 31.1 25.5 31.1 17.3 0 26.5-9.7 28.3-30.1h25.5c-1.8 35.2-20.9 54.6-53.8 54.6C420 240.8 399.6 221.2 399.6 185.2zM627 237.8h-25.8v-154h-50.5v154H525V59.3h102V237.8zM657.4 59.3h25.2v78c0 12.8-1 36-2.8 51.5l.8.5c3.3-8.7 7.9-21.2 12.8-31.6l43.4-98.4h26.3v178.5h-25.2V160c0-13.5 1-37.5 2.3-52.3l-.8-.5c-3.3 9.2-8.4 23-12.8 32.9l-43.1 97.7h-26V59.3zM895.5 59.3v178.5h-25.8v-78.3h-50.5v78.3h-25.8V59.3h25.8v76h50.5v-76H895.5zM921 181.2v-65.3c0-37.2 20.4-59.9 54.6-59.9s54.6 22.7 54.6 59.9v65.3c0 37.2-20.4 59.9-54.6 59.9S921 218.4 921 181.2zM1003.7 181.2v-65.3c0-22.4-9.7-34.7-28.1-34.7-18.6 0-28.1 12.2-28.1 34.7v65.3c0 22.4 9.4 34.7 28.1 34.7C994 215.8 1003.7 203.6 1003.7 181.2zM1055.7 59.3h25.2v78c0 12.8-1 36-2.8 51.5l.8.5c3.3-8.7 7.9-21.2 12.8-31.6l43.4-98.4h26.3v178.5H1136V160c0-13.5 1-37.5 2.3-52.3l-.8-.5c-3.3 9.2-8.4 23-12.8 32.9l-43.1 97.7h-26V59.3zM1078.4 11.3h17.6c.5 8.9 5.4 13.5 13 13.5 7.9 0 12.8-4.6 13.3-13.5h17.6c-.8 19.6-13 30.6-30.6 30.6C1091.4 41.9 1079.1 30.7 1078.4 11.3z"/></g><g class="st0"><path class="st1" d="M128.7 59.5V238h-25.8V83.7H65.2c-2.6 52-4.8 92.8-8.2 114-4.6 32.4-19.6 42.8-44.4 42.8V217c11.2 0 16.8-6.9 19.6-25.2 2.8-18.6 5.1-58.7 8.2-132.3H128.7zM184.2 169.1c-20.4-6.9-31.9-25.8-31.9-52.3 0-36.5 19.9-57.4 53.3-57.4h45.9V238h-25.8v-64.5H210L174.3 238h-28.6L184.2 169.1zM225.8 149.2V83.9h-19.9c-17.9 0-27.3 11-27.3 32.4 0 21.2 9.4 32.9 27 32.9H225.8zM367.6 83.9h-59.7v154h-25.8V59.5h85.4V83.9zM351.8 225.2c0-9.2 6.4-15.3 15.6-15.3s15.6 6.1 15.6 15.3c0 9.4-6.4 15.6-15.6 15.6S351.8 234.6 351.8 225.2zM399.7 185.4V112c0-36.2 20.1-55.8 51.5-55.8 32.4 0 51.5 19.4 53 54.8h-25.5c-1.5-20.9-10.7-30.3-27.8-30.3-15 0-25 9.9-25 31.4v73.4c0 21.2 9.9 31.1 25.5 31.1 17.3 0 26.5-9.7 28.3-30.1h25.5c-1.8 35.2-20.9 54.6-53.8 54.6C420.1 241 399.7 221.4 399.7 185.4zM627.2 238h-25.8v-154h-50.5v154h-25.8V59.5h102V238zM657.5 59.5h25.2v78c0 12.8-1 36-2.8 51.5l.8.5c3.3-8.7 7.9-21.2 12.8-31.6l43.4-98.4h26.3V238h-25.2v-77.8c0-13.5 1-37.5 2.3-52.3l-.8-.5c-3.3 9.2-8.4 23-12.8 32.9L683.5 238h-26V59.5zM895.7 59.5V238h-25.8v-78.3h-50.5V238h-25.8V59.5h25.8v76h50.5v-76H895.7zM921.2 181.3v-65.3c0-37.2 20.4-59.9 54.6-59.9s54.6 22.7 54.6 59.9v65.3c0 37.2-20.4 59.9-54.6 59.9S921.2 218.6 921.2 181.3zM1003.8 181.3v-65.3c0-22.4-9.7-34.7-28.1-34.7-18.6 0-28.1 12.2-28.1 34.7v65.3c0 22.4 9.4 34.7 28.1 34.7C994.1 216 1003.8 203.8 1003.8 181.3zM1055.8 59.5h25.2v78c0 12.8-1 36-2.8 51.5l.8.5c3.3-8.7 7.9-21.2 12.8-31.6l43.4-98.4h26.3V238h-25.2v-77.8c0-13.5 1-37.5 2.3-52.3l-.8-.5c-3.3 9.2-8.4 23-12.8 32.9l-43.1 97.7h-26V59.5zM1078.5 11.5h17.6c.5 8.9 5.4 13.5 13 13.5 7.9 0 12.8-4.6 13.3-13.5h17.6c-.8 19.6-13 30.6-30.6 30.6C1091.5 42.1 1079.3 30.9 1078.5 11.5z"/></g><g class="st0"><path class="st1" d="M128.8 59.6v178.5h-25.8V83.9H65.3c-2.6 52-4.8 92.8-8.2 114-4.6 32.4-19.6 42.8-44.4 42.8v-23.5c11.2 0 16.8-6.9 19.6-25.2 2.8-18.6 5.1-58.7 8.2-132.3H128.8zM184.4 169.3c-20.4-6.9-31.9-25.8-31.9-52.3 0-36.5 19.9-57.4 53.3-57.4h45.9v178.5H226v-64.5h-15.8l-35.7 64.5h-28.6L184.4 169.3zM226 149.4V84.1h-19.9c-17.9 0-27.3 11-27.3 32.4 0 21.2 9.4 32.9 27 32.9H226zM367.8 84.1h-59.7v154h-25.8V59.6h85.4V84.1zM351.9 225.4c0-9.2 6.4-15.3 15.6-15.3s15.6 6.1 15.6 15.3c0 9.4-6.4 15.6-15.6 15.6S351.9 234.8 351.9 225.4zM399.9 185.6v-73.4c0-36.2 20.1-55.8 51.5-55.8 32.4 0 51.5 19.4 53 54.8h-25.5c-1.5-20.9-10.7-30.3-27.8-30.3-15 0-25 9.9-25 31.4v73.4c0 21.2 9.9 31.1 25.5 31.1 17.3 0 26.5-9.7 28.3-30.1h25.5c-1.8 35.2-20.9 54.6-53.8 54.6C420.3 241.2 399.9 221.6 399.9 185.6zM627.3 238.1h-25.8v-154h-50.5v154h-25.8V59.6h102V238.1zM657.7 59.6h25.2v78c0 12.8-1 36-2.8 51.5l.8.5c3.3-8.7 7.9-21.2 12.8-31.6L737 59.6h26.3v178.5H738v-77.8c0-13.5 1-37.5 2.3-52.3l-.8-.5c-3.3 9.2-8.4 23-12.8 32.9l-43.1 97.7h-26V59.6zM895.8 59.6v178.5h-25.8v-78.3h-50.5v78.3h-25.8V59.6h25.8v76h50.5v-76H895.8zM921.3 181.5v-65.3c0-37.2 20.4-59.9 54.6-59.9s54.6 22.7 54.6 59.9v65.3c0 37.2-20.4 59.9-54.6 59.9S921.3 218.8 921.3 181.5zM1004 181.5v-65.3c0-22.4-9.7-34.7-28.1-34.7-18.6 0-28.1 12.2-28.1 34.7v65.3c0 22.4 9.4 34.7 28.1 34.7C994.3 216.2 1004 204 1004 181.5zM1056 59.6h25.2v78c0 12.8-1 36-2.8 51.5l.8.5c3.3-8.7 7.9-21.2 12.8-31.6l43.4-98.4h26.3v178.5h-25.2v-77.8c0-13.5 1-37.5 2.3-52.3l-.8-.5c-3.3 9.2-8.4 23-12.8 32.9l-43.1 97.7h-26V59.6zM1078.7 11.7h17.6c.5 8.9 5.4 13.5 13 13.5 7.9 0 12.8-4.6 13.3-13.5h17.6c-.8 19.6-13 30.6-30.6 30.6C1091.7 42.3 1079.4 31.1 1078.7 11.7z"/></g><g class="st0"><path class="st1" d="M129 59.8v178.5h-25.8V84.1H65.5c-2.6 52-4.8 92.8-8.2 114-4.6 32.4-19.6 42.8-44.4 42.8v-23.5c11.2 0 16.8-6.9 19.6-25.2 2.8-18.6 5.1-58.7 8.2-132.3H129zM184.6 169.5c-20.4-6.9-31.9-25.8-31.9-52.3 0-36.5 19.9-57.4 53.3-57.4h45.9v178.5h-25.8v-64.5h-15.8l-35.7 64.5h-28.6L184.6 169.5zM226.1 149.6V84.3h-19.9c-17.9 0-27.3 11-27.3 32.4 0 21.2 9.4 32.9 27 32.9H226.1zM367.9 84.3h-59.7v154h-25.8V59.8h85.4V84.3zM352.1 225.6c0-9.2 6.4-15.3 15.6-15.3s15.6 6.1 15.6 15.3c0 9.4-6.4 15.6-15.6 15.6S352.1 235 352.1 225.6zM400 185.8v-73.4c0-36.2 20.1-55.8 51.5-55.8 32.4 0 51.5 19.4 53 54.8h-25.5C477.6 90.4 468.4 81 451.3 81c-15 0-25 9.9-25 31.4v73.4c0 21.2 9.9 31.1 25.5 31.1 17.3 0 26.5-9.7 28.3-30.1h25.5c-1.8 35.2-20.9 54.6-53.8 54.6C420.4 241.4 400 221.8 400 185.8zM627.5 238.3h-25.8v-154h-50.5v154h-25.8V59.8h102V238.3zM657.8 59.8h25.2v78c0 12.8-1 36-2.8 51.5l.8.5c3.3-8.7 7.9-21.2 12.8-31.6l43.4-98.4h26.3v178.5h-25.2v-77.8c0-13.5 1-37.5 2.3-52.3l-.8-.5c-3.3 9.2-8.4 23-12.8 32.9l-43.1 97.7h-26V59.8zM896 59.8v178.5h-25.8V160h-50.5v78.3H794V59.8h25.8v76h50.5v-76H896zM921.5 181.7v-65.3c0-37.2 20.4-59.9 54.6-59.9s54.6 22.7 54.6 59.9v65.3c0 37.2-20.4 59.9-54.6 59.9S921.5 219 921.5 181.7zM1004.1 181.7v-65.3c0-22.4-9.7-34.7-28.1-34.7-18.6 0-28.1 12.2-28.1 34.7v65.3c0 22.4 9.4 34.7 28.1 34.7C994.4 216.4 1004.1 204.2 1004.1 181.7zM1056.1 59.8h25.2v78c0 12.8-1 36-2.8 51.5l.8.5c3.3-8.7 7.9-21.2 12.8-31.6l43.4-98.4h26.3v178.5h-25.2v-77.8c0-13.5 1-37.5 2.3-52.3l-.8-.5c-3.3 9.2-8.4 23-12.8 32.9l-43.1 97.7h-26V59.8zM1078.8 11.9h17.6c.5 8.9 5.4 13.5 13 13.5 7.9 0 12.8-4.6 13.3-13.5h17.6c-.8 19.6-13 30.6-30.6 30.6C1091.8 42.5 1079.6 31.3 1078.8 11.9z"/></g><g class="st0"><path class="st1" d="M129.1 60v178.5h-25.8V84.2H65.6c-2.6 52-4.8 92.8-8.2 114-4.6 32.4-19.6 42.8-44.4 42.8v-23.5c11.2 0 16.8-6.9 19.6-25.2 2.8-18.6 5.1-58.7 8.2-132.3H129.1zM184.7 169.7c-20.4-6.9-31.9-25.8-31.9-52.3 0-36.5 19.9-57.4 53.3-57.4H252v178.5h-25.8V174h-15.8l-35.7 64.5h-28.6L184.7 169.7zM226.3 149.8V84.5h-19.9c-17.9 0-27.3 11-27.3 32.4 0 21.2 9.4 32.9 27 32.9H226.3zM368.1 84.5h-59.7v154h-25.8V60h85.4V84.5zM352.3 225.8c0-9.2 6.4-15.3 15.6-15.3s15.6 6.1 15.6 15.3c0 9.4-6.4 15.6-15.6 15.6S352.3 235.2 352.3 225.8zM400.2 186v-73.4c0-36.2 20.1-55.8 51.5-55.8 32.4 0 51.5 19.4 53 54.8h-25.5c-1.5-20.9-10.7-30.3-27.8-30.3-15 0-25 9.9-25 31.4V186c0 21.2 9.9 31.1 25.5 31.1 17.3 0 26.5-9.7 28.3-30.1h25.5c-1.8 35.2-20.9 54.6-53.8 54.6C420.6 241.6 400.2 221.9 400.2 186zM627.6 238.5h-25.8v-154h-50.5v154h-25.8V60h102V238.5zM658 60h25.2v78c0 12.8-1 36-2.8 51.5l.8.5c3.3-8.7 7.9-21.2 12.8-31.6L737.3 60h26.3v178.5h-25.2v-77.8c0-13.5 1-37.5 2.3-52.3l-.8-.5c-3.3 9.2-8.4 23-12.8 32.9L684 238.5h-26V60zM896.2 60v178.5h-25.8v-78.3h-50.5v78.3h-25.8V60h25.8v76h50.5V60H896.2zM921.7 181.9v-65.3c0-37.2 20.4-59.9 54.6-59.9s54.6 22.7 54.6 59.9v65.3c0 37.2-20.4 59.9-54.6 59.9S921.7 219.1 921.7 181.9zM1004.3 181.9v-65.3c0-22.4-9.7-34.7-28.1-34.7-18.6 0-28.1 12.2-28.1 34.7v65.3c0 22.4 9.4 34.7 28.1 34.7C994.6 216.6 1004.3 204.3 1004.3 181.9zM1056.3 60h25.2v78c0 12.8-1 36-2.8 51.5l.8.5c3.3-8.7 7.9-21.2 12.8-31.6l43.4-98.4h26.3v178.5h-25.2v-77.8c0-13.5 1-37.5 2.3-52.3l-.8-.5c-3.3 9.2-8.4 23-12.8 32.9l-43.1 97.7h-26V60zM1079 12.1h17.6c.5 8.9 5.4 13.5 13 13.5 7.9 0 12.8-4.6 13.3-13.5h17.6c-.8 19.6-13 30.6-30.6 30.6C1092 42.7 1079.8 31.5 1079 12.1z"/></g><g class="st0"><path class="st1" d="M129.3 60.2v178.5h-25.8V84.4H65.8c-2.6 52-4.8 92.8-8.2 114C53 230.8 38 241.3 13.3 241.3v-23.5c11.2 0 16.8-6.9 19.6-25.2 2.8-18.6 5.1-58.7 8.2-132.3H129.3zM184.9 169.9c-20.4-6.9-31.9-25.8-31.9-52.3 0-36.5 19.9-57.4 53.3-57.4h45.9v178.5h-25.8v-64.5h-15.8l-35.7 64.5h-28.6L184.9 169.9zM226.4 150V84.7h-19.9c-17.9 0-27.3 11-27.3 32.4 0 21.2 9.4 32.9 27 32.9H226.4zM368.2 84.7h-59.7v154h-25.8V60.2h85.4V84.7zM352.4 226c0-9.2 6.4-15.3 15.6-15.3s15.6 6.1 15.6 15.3c0 9.4-6.4 15.6-15.6 15.6S352.4 235.4 352.4 226zM400.3 186.2v-73.4c0-36.2 20.1-55.8 51.5-55.8 32.4 0 51.5 19.4 53 54.8h-25.5c-1.5-20.9-10.7-30.3-27.8-30.3-15 0-25 9.9-25 31.4v73.4c0 21.2 9.9 31.1 25.5 31.1 17.3 0 26.5-9.7 28.3-30.1h25.5c-1.8 35.2-20.9 54.6-53.8 54.6C420.7 241.8 400.3 222.1 400.3 186.2zM627.8 238.7h-25.8v-154h-50.5v154h-25.8V60.2h102V238.7zM658.1 60.2h25.2v78c0 12.8-1 36-2.8 51.5l.8.5c3.3-8.7 7.9-21.2 12.8-31.6l43.4-98.4h26.3v178.5h-25.2v-77.8c0-13.5 1-37.5 2.3-52.3l-.8-.5c-3.3 9.2-8.4 23-12.8 32.9l-43.1 97.7h-26V60.2zM896.3 60.2v178.5h-25.8v-78.3h-50.5v78.3h-25.8V60.2h25.8v76h50.5v-76H896.3zM921.8 182.1v-65.3c0-37.2 20.4-59.9 54.6-59.9s54.6 22.7 54.6 59.9v65.3c0 37.2-20.4 59.9-54.6 59.9S921.8 219.3 921.8 182.1zM1004.4 182.1v-65.3c0-22.4-9.7-34.7-28.1-34.7-18.6 0-28.1 12.2-28.1 34.7v65.3c0 22.4 9.4 34.7 28.1 34.7C994.7 216.8 1004.4 204.5 1004.4 182.1zM1056.5 60.2h25.2v78c0 12.8-1 36-2.8 51.5l.8.5c3.3-8.7 7.9-21.2 12.8-31.6l43.4-98.4h26.3v178.5h-25.2v-77.8c0-13.5 1-37.5 2.3-52.3l-.8-.5c-3.3 9.2-8.4 23-12.8 32.9l-43.1 97.7h-26V60.2zM1079.1 12.3h17.6c.5 8.9 5.4 13.5 13 13.5 7.9 0 12.8-4.6 13.3-13.5h17.6c-.8 19.6-13 30.6-30.6 30.6C1092.2 42.9 1079.9 31.6 1079.1 12.3z"/></g><g class="st0"><path class="st1" d="M129.4 60.4v178.5h-25.8V84.6H65.9c-2.6 52-4.8 92.8-8.2 114-4.6 32.4-19.6 42.8-44.4 42.8V218c11.2 0 16.8-6.9 19.6-25.2 2.8-18.6 5.1-58.7 8.2-132.3H129.4zM185 170c-20.4-6.9-31.9-25.8-31.9-52.3 0-36.5 19.9-57.4 53.3-57.4h45.9v178.5h-25.8v-64.5h-15.8l-35.7 64.5h-28.6L185 170zM226.6 150.2V84.9h-19.9c-17.9 0-27.3 11-27.3 32.4 0 21.2 9.4 32.9 27 32.9H226.6zM368.4 84.9h-59.7v154h-25.8V60.4h85.4V84.9zM352.6 226.1c0-9.2 6.4-15.3 15.6-15.3s15.6 6.1 15.6 15.3c0 9.4-6.4 15.6-15.6 15.6S352.6 235.6 352.6 226.1zM400.5 186.4v-73.4c0-36.2 20.1-55.8 51.5-55.8 32.4 0 51.5 19.4 53 54.8h-25.5C478 91 468.8 81.6 451.8 81.6c-15 0-25 9.9-25 31.4v73.4c0 21.2 9.9 31.1 25.5 31.1 17.3 0 26.5-9.7 28.3-30.1h25.5c-1.8 35.2-20.9 54.6-53.8 54.6C420.9 242 400.5 222.3 400.5 186.4zM628 238.9h-25.8v-154h-50.5v154H526V60.4h102V238.9zM658.3 60.4h25.2v78c0 12.8-1 36-2.8 51.5l.8.5c3.3-8.7 7.9-21.2 12.8-31.6l43.4-98.4h26.3v178.5h-25.2v-77.8c0-13.5 1-37.5 2.3-52.3l-.8-.5c-3.3 9.2-8.4 23-12.8 32.9l-43.1 97.7h-26V60.4zM896.5 60.4v178.5h-25.8v-78.3h-50.5v78.3h-25.8V60.4h25.8v76h50.5v-76H896.5zM922 182.3V117c0-37.2 20.4-59.9 54.6-59.9s54.6 22.7 54.6 59.9v65.3c0 37.2-20.4 59.9-54.6 59.9S922 219.5 922 182.3zM1004.6 182.3V117c0-22.4-9.7-34.7-28.1-34.7-18.6 0-28.1 12.2-28.1 34.7v65.3c0 22.4 9.4 34.7 28.1 34.7C994.9 217 1004.6 204.7 1004.6 182.3zM1056.6 60.4h25.2v78c0 12.8-1 36-2.8 51.5l.8.5c3.3-8.7 7.9-21.2 12.8-31.6l43.4-98.4h26.3v178.5h-25.2v-77.8c0-13.5 1-37.5 2.3-52.3l-.8-.5c-3.3 9.2-8.4 23-12.8 32.9l-43.1 97.7h-26V60.4zM1079.3 12.5h17.6c.5 8.9 5.4 13.5 13 13.5 7.9 0 12.8-4.6 13.3-13.5h17.6c-.8 19.6-13 30.6-30.6 30.6C1092.3 43.1 1080.1 31.8 1079.3 12.5z"/></g><g class="st0"><path class="st2" d="M122.5 52.1v178.5H96.8V76.3H59c-2.6 52-4.8 92.8-8.2 114-4.6 32.4-19.6 42.8-44.4 42.8v-23.5c11.2 0 16.8-6.9 19.6-25.2 2.8-18.6 5.1-58.7 8.2-132.3H122.5zM178.1 161.8c-20.4-6.9-31.9-25.8-31.9-52.3 0-36.5 19.9-57.4 53.3-57.4h45.9v178.5h-25.8v-64.5h-15.8l-35.7 64.5h-28.6L178.1 161.8zM219.7 141.9V76.6h-19.9c-17.9 0-27.3 11-27.3 32.4 0 21.2 9.4 32.9 27 32.9H219.7zM361.5 76.6h-59.7v154H276V52.1h85.4V76.6zM345.7 217.9c0-9.2 6.4-15.3 15.6-15.3s15.6 6.1 15.6 15.3c0 9.4-6.4 15.6-15.6 15.6S345.7 227.3 345.7 217.9zM393.6 178.1v-73.4c0-36.2 20.1-55.8 51.5-55.8 32.4 0 51.5 19.4 53 54.8h-25.5c-1.5-20.9-10.7-30.3-27.8-30.3-15 0-25 9.9-25 31.4v73.4c0 21.2 9.9 31.1 25.5 31.1 17.3 0 26.5-9.7 28.3-30.1h25.5c-1.8 35.2-20.9 54.6-53.8 54.6C414 233.7 393.6 214 393.6 178.1zM621.1 230.6h-25.8v-154h-50.5v154h-25.8V52.1h102V230.6zM651.4 52.1h25.2v78c0 12.8-1 36-2.8 51.5l.8.5c3.3-8.7 7.9-21.2 12.8-31.6l43.4-98.4H757v178.5h-25.2v-77.8c0-13.5 1-37.5 2.3-52.3l-.8-.5c-3.3 9.2-8.4 23-12.8 32.9l-43.1 97.7h-26V52.1zM889.6 52.1v178.5h-25.8v-78.3h-50.5v78.3h-25.8V52.1h25.8v76h50.5v-76H889.6zM915.1 174v-65.3c0-37.2 20.4-59.9 54.6-59.9s54.6 22.7 54.6 59.9V174c0 37.2-20.4 59.9-54.6 59.9S915.1 211.2 915.1 174zM997.7 174v-65.3c0-22.4-9.7-34.7-28.1-34.7-18.6 0-28.1 12.2-28.1 34.7V174c0 22.4 9.4 34.7 28.1 34.7C988 208.7 997.7 196.5 997.7 174zM1049.7 52.1h25.2v78c0 12.8-1 36-2.8 51.5l.8.5c3.3-8.7 7.9-21.2 12.8-31.6l43.4-98.4h26.3v178.5H1130v-77.8c0-13.5 1-37.5 2.3-52.3l-.8-.5c-3.3 9.2-8.4 23-12.8 32.9l-43.1 97.7h-26V52.1zM1072.4 4.2h17.6c.5 8.9 5.4 13.5 13 13.5 7.9 0 12.8-4.6 13.3-13.5h17.6c-.8 19.6-13 30.6-30.6 30.6C1085.4 34.8 1073.2 23.6 1072.4 4.2z"/></g></svg>