<svg xmlns="http://www.w3.org/2000/svg" width="14" height="9"><path fill="#FFF" fill-rule="evenodd" d="M13.875 7.488c-.038-.066-.27-.598-1.39-1.69-1.172-1.145-1.015-.96.398-2.939.86-1.204 1.203-1.94 1.095-2.255-.055-.188-.735-.14-.735-.14h-2.105s-.327-.009-.458.22c-.236.41-.333.933-.777 1.725-.937 1.676-1.312 1.762-1.465 1.659-.357-.242-.268-.974-.268-1.493 0-1.622.234-2.297-.455-2.473C7.486.045 7.35.027 6.732 0 5.95.018 5.345.002 4.985.188c-.239.122-.424.397-.311.414.14.019.453.09.62.327.217.31.209 1.002.209 1.002s.124 1.909-.29 2.146c-.283.163-.672-.169-1.508-1.687-.428-.777-.472-1.284-.751-1.637-.183-.23-.498-.288-.498-.288h-2s-.34-.03-.41.063C-.053.65.038.904.038.904s1.566 3.852 3.339 5.793c1.627 1.78 3.473 1.7 3.473 1.7s1.073.048 1.22-.213c.107-.108.114-.385.114-.385s-.017-1.182.505-1.354c.512-.172 1.173 1.139 1.872 1.644.537.357.686.307.93.307h1.87s.978-.1.514-.908"/></svg>